<?xml version="1.0" encoding="UTF-8" standalone="no"?>
<!-- Created with Inkscape (http://www.inkscape.org/) -->

<svg
   xmlns:dc="http://purl.org/dc/elements/1.1/"
   xmlns:cc="http://creativecommons.org/ns#"
   xmlns:rdf="http://www.w3.org/1999/02/22-rdf-syntax-ns#"
   xmlns:svg="http://www.w3.org/2000/svg"
   xmlns="http://www.w3.org/2000/svg"
   version="1.1"
   width="732.23535"
   height="252.46425"
   id="svg2"
   xml:space="preserve"><metadata
     id="metadata8"><rdf:RDF><cc:Work
         rdf:about=""><dc:format>image/svg+xml</dc:format><dc:type
           rdf:resource="http://purl.org/dc/dcmitype/StillImage" /><dc:title></dc:title></cc:Work></rdf:RDF></metadata><defs
     id="defs6" /><g
     transform="matrix(1.25,0,0,-1.25,-149.54125,403.78862)"
     id="g10"><path
       d="m 463.9584,231.4352 c 0,1.6331 0.2735,3.1136 0.8178,4.4439 l 0,0.004 c 0.5482,1.3391 1.3708,2.5087 2.4652,3.5107 l 0,0.004 c 1.0789,0.9814 2.2989,1.7206 3.6582,2.2147 1.3447,0.4887 2.8128,0.7342 4.4027,0.7342 l 24.1997,0 0.0331,-0.004 c 1.2938,-0.0402 2.4469,-0.3053 3.4563,-0.7954 1.033,-0.5014 1.9058,-1.2277 2.6161,-2.1795 0.6866,-0.9196 1.2025,-1.9741 1.5446,-3.1649 0.3337,-1.16 0.5012,-2.4463 0.5012,-3.8617 l 0,-20.0556 c 0,-1.5543 -0.2911,-2.9716 -0.8719,-4.2472 -0.5811,-1.277 -1.4494,-2.393 -2.6017,-3.3435 l -3e-4,6e-4 c -1.1256,-0.9348 -2.3479,-1.6339 -3.6652,-2.0985 -1.3223,-0.466 -2.7343,-0.6987 -4.2344,-0.6987 l -24.1404,0 -0.0414,0.004 c -1.2889,0.0533 -2.4343,0.3002 -3.4336,0.7416 -1.0289,0.4541 -1.9043,1.1131 -2.6229,1.9774 -0.7081,0.8518 -1.2364,1.9029 -1.5825,3.1499 -0.3334,1.1999 -0.5006,2.5781 -0.5006,4.1326 l 0,19.531 z m 2.7762,3.6431 c -0.4328,-1.059 -0.6503,-2.2728 -0.6503,-3.6431 l 0,-19.531 c 0,-1.3765 0.1398,-2.5665 0.4179,-3.5679 0.2659,-0.9576 0.6553,-1.7453 1.167,-2.3607 0.5003,-0.6018 1.1183,-1.0647 1.8507,-1.3879 0.7518,-0.3322 1.626,-0.5207 2.6195,-0.5658 l 0,0.003 24.1404,0 c 1.2657,0 2.4424,0.1913 3.5286,0.574 1.0894,0.3844 2.0974,0.9604 3.0217,1.7286 l 0.004,0.004 c 0.8991,0.7418 1.5735,1.6058 2.0205,2.5878 0.4479,0.9836 0.6724,2.1069 0.6724,3.3667 l 0,20.0556 c 0,1.2195 -0.14,2.3126 -0.4184,3.2806 -0.2693,0.9377 -0.6715,1.7623 -1.2039,2.4755 -0.5068,0.6792 -1.1194,1.1925 -1.8354,1.54 -0.7356,0.3572 -1.5922,0.5525 -2.5676,0.5868 l 0,-0.003 -24.1997,0 c -1.3515,0 -2.5786,-0.201 -3.6805,-0.6015 -1.0916,-0.3969 -2.0758,-0.9947 -2.9517,-1.7912 l -0.002,0.002 c -0.8572,-0.7849 -1.5021,-1.7024 -1.9321,-2.753 l -0.001,6e-4 z m 10.245,-5.4451 0,-15.5809 17.623,0 0,15.5809 -17.623,0 z m -2.126,-16.6439 0,17.7069 0,1.063 1.063,0 19.749,0 1.063,0 0,-1.063 0,-17.7069 0,-1.063 -1.063,0 -19.749,0 -1.063,0 0,1.063 z"
       id="path12"
       style="fill:#2b2b2a;fill-opacity:1;fill-rule:nonzero;stroke:none" /><path
       d="m 684.5729,201.8985 c -1.1472,0 -2.2108,0.1961 -3.1867,0.5868 -0.9783,0.3914 -1.8553,0.9762 -2.6266,1.7521 l -0.004,0.004 c -0.7971,0.7977 -1.3997,1.861 -1.8076,3.185 -0.3853,1.2507 -0.5993,2.7485 -0.6412,4.489 l -0.004,0.0249 0,37.6906 0,1.063 1.063,0 10.8955,0 1.063,0 0,-1.063 0,-7.2836 9.3663,0 1.063,0 0,-1.063 0,-10.588 0,-1.063 -1.063,0 -9.3663,0 0,-15.5809 9.3663,0 1.063,0 0,-1.063 0,-10.0278 0,-1.063 -1.063,0 -14.1174,0 z m -2.3976,2.5551 c 0.7138,-0.2857 1.514,-0.4291 2.3976,-0.4291 l 13.0544,0 0,7.9018 -9.3663,0 -1.063,0 0,1.063 0,17.7069 0,1.063 1.063,0 9.3663,0 0,8.462 -9.3663,0 -1.063,0 0,1.063 0,7.2836 -8.7695,0 0,-36.6276 -0.004,0 c 0.0386,-1.5296 0.2217,-2.8275 0.5494,-3.8908 0.305,-0.9902 0.7322,-1.7615 1.2804,-2.3091 l 0.004,-0.004 c 0.566,-0.57 1.2064,-0.9983 1.9167,-1.2827"
       id="path14"
       style="fill:#2b2b2a;fill-opacity:1;fill-rule:nonzero;stroke:none" /><path
       d="m 652.6981,201.8985 -10.8657,0 -1.063,0 0,1.063 0,0.1822 c -0.3609,-0.2205 -0.7234,-0.4115 -1.0874,-0.5737 -1.0051,-0.4479 -2.0114,-0.6715 -3.0149,-0.6715 l -18.3011,0 -0.0374,0.004 c -1.3637,0.053 -2.5619,0.3221 -3.5943,0.8076 -1.0695,0.5029 -1.9517,1.2283 -2.6464,2.1759 l -0.004,0.004 c -0.6616,0.9104 -1.1562,1.9646 -1.4822,3.1646 -0.3172,1.1675 -0.4763,2.4738 -0.4763,3.9208 l 0,29.3083 0,1.063 1.063,0 10.8953,0 1.063,0 0,-1.063 0,-26.7072 17.6227,0 0,26.7072 0,1.063 1.063,0 10.8657,0 1.063,0 0,-1.063 0,-38.3227 0,-1.063 -1.063,0 z m -9.8027,2.126 8.7397,0 0,36.1967 -8.7397,0 0,-26.7072 0,-1.063 -1.063,0 -19.7487,0 -1.063,0 0,1.063 0,26.7072 -8.7693,0 0,-28.2453 c 0,-1.2597 0.1341,-2.3808 0.4014,-3.3647 0.2588,-0.9521 0.6426,-1.7767 1.15,-2.4752 l -5e-4,-3e-4 c 0.4838,-0.6588 1.0939,-1.1613 1.8289,-1.5069 0.7648,-0.3597 1.6767,-0.5618 2.7348,-0.6072 l 0,0.003 18.3011,0 c 0.7143,0 1.4323,0.1601 2.1515,0.4804 0.7551,0.3362 1.525,0.8536 2.308,1.5512 l 1.7688,1.5769 0,-2.3701 0,-1.2384 z"
       id="path16"
       style="fill:#2b2b2a;fill-opacity:1;fill-rule:nonzero;stroke:none" /><path
       d="m 543.9484,202.9615 0,38.3227 0,1.063 1.063,0 34.4803,0 0.0873,-0.004 c 1.2623,-0.1074 2.395,-0.4269 3.3954,-0.9595 1.008,-0.5369 1.8649,-1.2827 2.5682,-2.2385 l -9e-4,-6e-4 c 0.6837,-0.9241 1.1974,-1.9675 1.5378,-3.1274 0.3359,-1.1444 0.5046,-2.3942 0.5046,-3.7469 l 0,-29.3085 0,-1.063 -1.063,0 -10.7765,0 -1.063,0 0,1.063 0,26.6717 -17.712,0 0,-26.6717 0,-1.063 -1.063,0 -10.8952,0 -1.063,0 0,1.063 z m 2.126,37.2597 0,-36.1967 8.7692,0 0,26.6717 0,1.063 1.063,0 19.838,0 1.063,0 0,-1.063 0,-26.6717 8.6505,0 0,28.2455 c 0,1.1611 -0.1384,2.2113 -0.4133,3.1487 -0.271,0.9233 -0.6747,1.7467 -1.209,2.4679 l -0.004,0.004 c -0.5142,0.6988 -1.1328,1.2399 -1.8539,1.624 -0.7211,0.3841 -1.5636,0.6194 -2.5243,0.7064 l -33.379,0 z"
       id="path18"
       style="fill:#2b2b2a;fill-opacity:1;fill-rule:nonzero;stroke:none" /><path
       d="m 429.7306,229.6332 -10.2291,0 0,-26.6717 0,-1.063 -1.063,0 -10.8953,0 -1.0629,0 0,1.063 0,38.3227 0,1.063 1.0629,0 10.8953,0 1.063,0 0,-1.063 0,-0.1885 c 0.3713,0.2251 0.7427,0.4204 1.1143,0.5853 0.9983,0.4434 1.9837,0.6662 2.9582,0.6662 l 6.1566,0 1.063,0 0,-1.063 0,-10.588 0,-1.063 -1.063,0 z m -11.2921,2.126 10.2291,0 0,8.462 -5.0936,0 c -0.6902,0 -1.3909,-0.159 -2.1027,-0.4751 -0.7538,-0.3348 -1.5344,-0.8504 -2.3434,-1.5449 l -1.7524,-1.5043 0,2.3099 0,1.2144 -8.7693,0 0,-36.1967 8.7693,0 0,26.6717 0,1.063 1.063,0 z"
       id="path20"
       style="fill:#2b2b2a;fill-opacity:1;fill-rule:nonzero;stroke:none" /><path
       d="m 368.7582,201.8985 c -1.1477,0 -2.2113,0.1964 -3.1867,0.5868 -0.9785,0.3917 -1.8553,0.9762 -2.6266,1.7521 l -0.004,0.004 c -0.7971,0.7977 -1.3997,1.861 -1.8076,3.185 -0.3852,1.2507 -0.5993,2.7485 -0.6412,4.489 l -0.004,0.0249 0,37.6906 0,1.063 1.063,0 10.8953,0 1.063,0 0,-1.063 0,-7.2836 9.3665,0 1.063,0 0,-1.063 0,-10.588 0,-1.063 -1.063,0 -9.3665,0 0,-15.5809 9.3665,0 1.063,0 0,-1.063 0,-10.0278 0,-1.063 -1.063,0 -14.1174,0 z m -2.3975,2.5551 c 0.7132,-0.2854 1.5134,-0.4291 2.3975,-0.4291 l 13.0544,0 0,7.9018 -9.3665,0 -1.063,0 0,1.063 0,17.7069 0,1.063 1.063,0 9.3665,0 0,8.462 -9.3665,0 -1.063,0 0,1.063 0,7.2836 -8.7693,0 0,-36.6276 -0.004,0 c 0.0386,-1.5296 0.2217,-2.8275 0.5494,-3.8908 0.305,-0.9904 0.7322,-1.7615 1.2804,-2.3091 l 0.004,-0.004 c 0.5661,-0.57 1.2064,-0.9983 1.9168,-1.2827"
       id="path22"
       style="fill:#2b2b2a;fill-opacity:1;fill-rule:nonzero;stroke:none" /><path
       d="m 294.3105,212.2858 0,20.0556 0.004,0.0332 c 0.053,1.5846 0.273,2.9685 0.6605,4.1494 0.4082,1.243 1.0018,2.2748 1.7816,3.0946 0.7574,0.7962 1.6064,1.4227 2.5452,1.8785 0.9337,0.4529 1.9545,0.7341 3.0603,0.8419 l 0.0845,0.008 0.0153,0 31.2786,0 1.063,0 0,-1.063 0,-10.588 0,-1.063 -1.063,0 -26.4087,0 0,-15.5809 29.5512,0 1.063,0 0,-1.063 0,-10.0278 0,-1.063 -1.063,0 -31.2287,0 c -1.5101,0 -2.9271,0.2327 -4.2492,0.6987 -1.3252,0.4675 -2.5452,1.1679 -3.6589,2.1022 l 0.002,0.002 c -1.1432,0.9524 -2.003,2.0684 -2.5773,3.3417 -0.5729,1.2708 -0.8603,2.6867 -0.8603,4.2427 z m 2.1229,20.0556 0.003,0 0,-20.0556 c 0,-1.2572 0.2236,-2.3823 0.6692,-3.3707 0.4439,-0.9845 1.1109,-1.8488 1.9985,-2.588 l 0.004,0 c 0.9185,-0.7705 1.9199,-1.3465 3.003,-1.7286 1.086,-0.3827 2.2678,-0.574 3.5434,-0.574 l 30.1657,0 0,7.9018 -29.5512,0 -1.063,0 0,1.063 0,17.7069 0,1.063 1.063,0 26.4087,0 0,8.462 -30.1949,0 c -0.8161,-0.0879 -1.5696,-0.2996 -2.259,-0.6341 -0.7058,-0.3427 -1.3501,-0.8198 -1.9306,-1.4301 -0.5582,-0.5868 -0.9916,-1.3504 -1.2997,-2.289 -0.3257,-0.9927 -0.5122,-2.1688 -0.5601,-3.5266"
       id="path24"
       style="fill:#2b2b2a;fill-opacity:1;fill-rule:nonzero;stroke:none" /><path
       d="m 226.2855,212.2858 0,19.9842 c 0,1.497 0.1874,2.8412 0.5587,4.0292 0.3835,1.2265 0.9644,2.2833 1.7391,3.1668 l 0.004,0.004 c 0.7719,0.8739 1.6438,1.5506 2.6144,2.0299 0.9734,0.481 2.039,0.7617 3.1944,0.8427 l 0.0706,0.004 24.0511,0 c 1.601,0 3.075,-0.2458 4.422,-0.7353 1.355,-0.4927 2.5713,-1.2331 3.6485,-2.2179 1.0976,-1.0048 1.9191,-2.1758 2.4644,-3.5149 0.5395,-1.3241 0.8088,-2.8046 0.8088,-4.4439 l 0,-13.8671 0,-1.063 -1.063,0 -29.4917,0 0,-2.4528 26.3291,0 1.063,0 0,-1.063 0,-10.0278 0,-1.063 -1.063,0 -28.0069,0 c -1.51,0 -2.9271,0.2327 -4.2491,0.6987 -1.3252,0.4675 -2.5453,1.1679 -3.659,2.1022 l 0.002,0.002 c -1.1432,0.9524 -2.0027,2.0679 -2.577,3.3415 -0.5729,1.2707 -0.8603,2.6869 -0.8603,4.2429 z m 2.126,19.9842 0,-19.9842 c 0,-1.2572 0.2236,-2.3826 0.6693,-3.371 0.4439,-0.9848 1.1106,-1.8485 1.9981,-2.5877 l 0.004,0 c 0.9184,-0.7705 1.9199,-1.3465 3.003,-1.7286 1.0859,-0.3827 2.2677,-0.574 3.5433,-0.574 l 26.9439,0 0,7.9018 -26.3291,0 -1.063,0 0,1.063 0,4.5788 0,1.063 1.063,0 29.4917,0 0,12.8041 c 0,1.3657 -0.2169,2.5807 -0.6511,3.6468 -0.4283,1.0514 -1.0701,1.9681 -1.9248,2.7507 -0.8657,0.7915 -1.8462,1.3876 -2.942,1.7859 -1.1038,0.4011 -2.3372,0.6026 -3.6998,0.6026 l -24.0364,0 c -0.8544,-0.0663 -1.6353,-0.2735 -2.3414,-0.6225 -0.7226,-0.3569 -1.3776,-0.8663 -1.9624,-1.5276 l 2e-4,-3e-4 c -0.5754,-0.6562 -1.0122,-1.4584 -1.3076,-2.4026 -0.305,-0.976 -0.4589,-2.1096 -0.4589,-3.3982 z m 28.4587,-2.6368 -17.5632,0 0,-0.9147 17.5632,0 0,0.9147 z m -18.6262,2.126 19.6892,0 1.063,0 0,-1.063 0,-3.0407 0,-1.063 -1.063,0 -19.6892,0 -1.063,0 0,1.063 0,3.0407 0,1.063 1.063,0 z"
       id="path26"
       style="fill:#2b2b2a;fill-opacity:1;fill-rule:nonzero;stroke:none" /><path
       d="m 121.233,212.2858 0,19.9842 c 0,1.497 0.1871,2.8409 0.559,4.0295 0.3835,1.2268 0.9646,2.2833 1.739,3.1665 l 0.004,0.004 c 0.7718,0.8739 1.6435,1.5506 2.6141,2.0299 0.9734,0.481 2.0389,0.7617 3.1943,0.8427 l 0.0706,0.004 24.0511,0 c 1.6011,0 3.0751,-0.2458 4.4221,-0.7353 1.355,-0.4927 2.5713,-1.2331 3.6485,-2.2179 1.0975,-1.0048 1.919,-2.1758 2.4644,-3.5149 0.5394,-1.3241 0.8087,-2.8046 0.8087,-4.4439 l 0,-13.8671 0,-1.063 -1.063,0 -29.4916,0 0,-2.4528 26.329,0 1.063,0 0,-1.063 0,-10.0278 0,-1.063 -1.063,0 -28.0066,0 c -1.51,0 -2.927,0.2327 -4.2491,0.6987 -1.3255,0.4675 -2.5458,1.1679 -3.6589,2.1022 l 0.002,0.002 c -1.1433,0.9524 -2.003,2.0679 -2.5773,3.3415 -0.5729,1.2707 -0.8603,2.6866 -0.8603,4.2429 z m 2.126,19.9842 0,-19.9842 c 0,-1.2575 0.2236,-2.3826 0.6692,-3.371 0.4439,-0.9848 1.1109,-1.8485 1.9984,-2.5877 l 0.004,0 c 0.9184,-0.7708 1.9196,-1.3465 3.003,-1.7286 1.086,-0.3827 2.2678,-0.574 3.5433,-0.574 l 26.9436,0 0,7.9018 -26.329,0 -1.063,0 0,1.063 0,4.5788 0,1.063 1.063,0 29.4916,0 0,12.8041 c 0,1.3657 -0.2168,2.5807 -0.6511,3.6468 -0.4283,1.0514 -1.07,1.9681 -1.9247,2.7507 -0.8657,0.7915 -1.8462,1.3876 -2.9421,1.7859 -1.1038,0.4011 -2.3371,0.6026 -3.6998,0.6026 l -24.0363,0 c -0.8544,-0.0663 -1.6353,-0.2735 -2.3414,-0.6225 -0.7226,-0.3569 -1.3771,-0.866 -1.9622,-1.5276 l 3e-4,-3e-4 c -0.5754,-0.6562 -1.0123,-1.4581 -1.3076,-2.4023 -0.3053,-0.9763 -0.4592,-2.1099 -0.4592,-3.3985 z m 28.4587,-2.6368 -17.5632,0 0,-0.9147 17.5632,0 0,0.9147 z m -18.6262,2.126 19.6892,0 1.063,0 0,-1.063 0,-3.0407 0,-1.063 -1.063,0 -19.6892,0 -1.063,0 0,1.063 0,3.0407 0,1.063 1.063,0 z"
       id="path28"
       style="fill:#2b2b2a;fill-opacity:1;fill-rule:nonzero;stroke:none" /><path
       d="m 188.636,202.9615 0,46.6693 0,1.063 1.063,0 10.8956,0 1.0629,0 0,-1.063 0,-46.6693 0,-1.063 -1.0629,0 -10.8956,0 -1.063,0 0,1.063 z m 2.126,45.6063 0,-44.5433 8.7696,0 0,44.5433 -8.7696,0 z"
       id="path30"
       style="fill:#2b2b2a;fill-opacity:1;fill-rule:nonzero;stroke:none" /><path
       d="m 463.9538,193.1842 5.3034,0 1.063,0 0,-1.063 0,-8.4141 0,-1.0629 -1.063,0 -5.3034,0 -1.063,0 0,1.0629 0,8.4141 0,1.063 1.063,0 z m 4.2404,-2.126 -3.1774,0 0,-6.2881 3.1774,0 0,6.2881 z"
       id="path32"
       style="fill:#2b2b2a;fill-opacity:1;fill-rule:nonzero;stroke:none" /><path
       d="m 483.8159,193.2038 5.3033,0 1.063,0 0,-1.063 0,-8.4144 0,-1.063 -1.063,0 -5.3033,0 -1.063,0 0,1.063 0,8.4144 0,1.063 1.063,0 z m 4.2404,-2.126 -3.1774,0 0,-6.2884 3.1774,0 0,6.2884 z"
       id="path34"
       style="fill:#2b2b2a;fill-opacity:1;fill-rule:nonzero;stroke:none" /><path
       d="m 504.066,193.1556 5.3034,0 1.063,0 0,-1.063 0,-8.4141 0,-1.063 -1.063,0 -5.3034,0 -1.0629,0 0,1.063 0,8.4141 0,1.063 1.0629,0 z m 4.2404,-2.126 -3.1774,0 0,-6.2881 3.1774,0 0,6.2881 z"
       id="path36"
       style="fill:#2b2b2a;fill-opacity:1;fill-rule:nonzero;stroke:none" /><path
       d="m 463.5485,261.6914 5.3033,0 1.063,0 0,-1.063 0,-8.4144 0,-1.063 -1.063,0 -5.3033,0 -1.063,0 0,1.063 0,8.4144 0,1.063 1.063,0 z m 4.2403,-2.126 -3.1773,0 0,-6.2884 3.1773,0 0,6.2884 z"
       id="path38"
       style="fill:#2b2b2a;fill-opacity:1;fill-rule:nonzero;stroke:none" /><path
       d="m 483.4106,261.7106 5.3033,0 1.063,0 0,-1.0629 0,-8.4141 0,-1.063 -1.063,0 -5.3033,0 -1.063,0 0,1.063 0,8.4141 0,1.0629 1.063,0 z m 4.2403,-2.1259 -3.1774,0 0,-6.2881 3.1774,0 0,6.2881 z"
       id="path40"
       style="fill:#2b2b2a;fill-opacity:1;fill-rule:nonzero;stroke:none" /><path
       d="m 503.6607,261.6627 5.3033,0 1.063,0 0,-1.063 0,-8.4143 0,-1.063 -1.063,0 -5.3033,0 -1.063,0 0,1.063 0,8.4143 0,1.063 1.063,0 z m 4.2403,-2.1259 -3.1773,0 0,-6.2884 3.1773,0 0,6.2884 z"
       id="path42"
       style="fill:#2b2b2a;fill-opacity:1;fill-rule:nonzero;stroke:none" /><path
       d="m 525.6488,244.5554 0,-5.3034 0,-1.063 -1.063,0 -8.4141,0 -1.063,0 0,1.063 0,5.3034 0,1.063 1.063,0 8.4141,0 1.063,0 0,-1.063 z m -2.126,-4.2404 0,3.1774 -6.2881,0 0,-3.1774 6.2881,0 z"
       id="path44"
       style="fill:#2b2b2a;fill-opacity:1;fill-rule:nonzero;stroke:none" /><path
       d="m 525.6683,224.6933 0,-5.3033 0,-1.063 -1.063,0 -8.4141,0 -1.0629,0 0,1.063 0,5.3033 0,1.063 1.0629,0 8.4141,0 1.063,0 0,-1.063 z m -2.126,-4.2404 0,3.1774 -6.2881,0 0,-3.1774 6.2881,0 z"
       id="path46"
       style="fill:#2b2b2a;fill-opacity:1;fill-rule:nonzero;stroke:none" /><path
       d="m 525.6204,204.4431 0,-5.3033 0,-1.063 -1.063,0 -8.4143,0 -1.063,0 0,1.063 0,5.3033 0,1.063 1.063,0 8.4143,0 1.063,0 0,-1.063 z m -2.126,-4.2403 0,3.1774 -6.2884,0 0,-3.1774 6.2884,0 z"
       id="path48"
       style="fill:#2b2b2a;fill-opacity:1;fill-rule:nonzero;stroke:none" /><path
       d="m 457.0605,245.016 0,-5.3033 0,-1.063 -1.063,0 -8.414,0 -1.063,0 0,1.063 0,5.3033 0,1.063 1.063,0 8.414,0 1.063,0 0,-1.063 z m -2.1259,-4.2403 0,3.1773 -6.2881,0 0,-3.1773 6.2881,0 z"
       id="path50"
       style="fill:#2b2b2a;fill-opacity:1;fill-rule:nonzero;stroke:none" /><path
       d="m 457.0801,225.1539 0,-5.3033 0,-1.063 -1.063,0 -8.4141,0 -1.063,0 0,1.063 0,5.3033 0,1.063 1.063,0 8.4141,0 1.063,0 0,-1.063 z m -2.126,-4.2403 0,3.1773 -6.2881,0 0,-3.1773 6.2881,0 z"
       id="path52"
       style="fill:#2b2b2a;fill-opacity:1;fill-rule:nonzero;stroke:none" /><path
       d="m 457.0322,204.9038 0,-5.3034 0,-1.063 -1.063,0 -8.4144,0 -1.063,0 0,1.063 0,5.3034 0,1.063 1.063,0 8.4144,0 1.063,0 0,-1.063 z m -2.126,-4.2404 0,3.1774 -6.2884,0 0,-3.1774 6.2884,0 z"
       id="path54"
       style="fill:#2b2b2a;fill-opacity:1;fill-rule:nonzero;stroke:none" /><path
       d="m 447.5577,198.9201 -9.6565,0 -11.7553,-20.361 0,-0.004 -0.6786,-1.1752 -0.307,-0.5315 -0.6106,0 -1.3351,0 -282.1686,0 c -0.2024,-0.4488 -0.4374,-0.8825 -0.7016,-1.2972 -0.409,-0.6417 -0.8778,-1.2271 -1.3952,-1.7444 l -0.7273,-0.7274 -0.0445,0.042 c -0.768,-0.6282 -1.6277,-1.1466 -2.5546,-1.5316 -1.2073,-0.5012 -2.5265,-0.7781 -3.9033,-0.7781 -1.3757,0 -2.6935,0.2764 -3.8999,0.777 -1.2371,0.513 -2.3553,1.2645 -3.2953,2.1971 l -0.005,0.005 -0.046,0.046 -0.005,0.005 c -0.9326,0.94 -1.6841,2.0582 -2.1971,3.2953 -0.5006,1.2064 -0.777,2.5242 -0.777,3.8999 0,1.3768 0.2769,2.696 0.7781,3.9033 0.385,0.9269 0.9034,1.7866 1.5316,2.5546 l -0.042,0.0445 0.7274,0.7273 c 1.8499,1.8499 4.4067,2.9951 7.2295,2.9951 1.3779,0 2.6983,-0.2766 3.9064,-0.777 1.2577,-0.5207 2.3853,-1.2801 3.3233,-2.2181 0.7376,-0.7375 1.366,-1.5945 1.8553,-2.5401 0.3396,-0.6565 0.61,-1.3552 0.8022,-2.0863 l 279.6644,0 11.755,20.3607 0.6784,1.1755 0.3089,0.5358 0.6086,0 1.3354,0 11.6003,0 1.063,0 0,-1.063 0,-4.6653 0,-1.063 -1.063,0 z m -10.2648,2.126 9.2018,0 0,2.5393 -10.5373,0 -0.727,0 -0.3691,-0.6398 -12.0643,-20.8964 -0.3095,-0.5358 -0.608,0 -281.1272,0 -0.8954,0 -0.1508,0.8887 c -0.1412,0.8334 -0.4108,1.6248 -0.7866,2.3519 -0.3827,0.7395 -0.8816,1.4173 -1.4732,2.0089 -0.7506,0.7506 -1.6418,1.3538 -2.626,1.7612 -0.9499,0.3934 -1.9973,0.6108 -3.1008,0.6108 -2.1501,0 -4.1046,-0.8379 -5.5542,-2.2048 l -0.1679,-0.1681 c -0.7483,-0.7494 -1.3524,-1.644 -1.7645,-2.6367 -0.394,-0.9494 -0.612,-1.9934 -0.612,-3.0892 0,-1.0948 0.2174,-2.1374 0.6108,-3.0858 0.4116,-0.9922 1.0143,-1.8865 1.7612,-2.6354 l 0.005,-0.005 c 0.7489,-0.7469 1.6432,-1.3496 2.6354,-1.7612 0.9484,-0.3934 1.991,-0.6108 3.0858,-0.6108 1.0958,0 2.1398,0.218 3.0892,0.612 0.9927,0.4121 1.8873,1.0162 2.6367,1.7645 l 0.1732,0.173 c 0.3558,0.3767 0.6713,0.7792 0.9406,1.2019 0.3121,0.4895 0.5746,1.0207 0.7784,1.5834 l 0.2545,0.7018 0.7421,0 282.8804,0 0.7245,0 0.3716,0.6438 0.002,-0.001 12.0629,20.8936 0.3092,0.5357 0.6084,0 z M 134.1476,183.4642 c -0.3203,0.3203 -0.6979,0.5766 -1.1114,0.7478 l -0.004,0 c -0.4005,0.1661 -0.8439,0.2577 -1.3124,0.2577 -0.4703,0 -0.9136,-0.091 -1.313,-0.256 l 5e-4,-10e-4 c -0.4181,-0.1732 -0.7968,-0.4295 -1.1154,-0.7481 l -0.1857,-0.1856 c -0.2338,-0.2719 -0.4257,-0.5823 -0.5646,-0.9207 -0.1642,-0.3997 -0.2552,-0.8459 -0.2552,-1.3218 0,-0.4757 0.091,-0.9221 0.2552,-1.3215 0.1717,-0.4184 0.4243,-0.794 0.737,-1.1064 l 0.004,0 0.009,-0.009 0,-0.004 c 0.3124,-0.3127 0.688,-0.5653 1.1064,-0.737 0.3994,-0.1642 0.8458,-0.2552 1.3215,-0.2552 0.4759,0 0.9221,0.091 1.3218,0.2552 0.3384,0.1389 0.6488,0.3308 0.9207,0.5646 l 0.1856,0.1857 c 0.3186,0.3186 0.5749,0.6973 0.7481,1.1154 l 0.001,-5e-4 c 0.165,0.3994 0.256,0.8427 0.256,1.313 0,0.4685 -0.0916,0.9119 -0.2577,1.3124 l 0,0.004 c -0.1712,0.4135 -0.4275,0.7911 -0.7478,1.1114 z m -0.3022,2.7063 c 0.6857,-0.2844 1.298,-0.6962 1.8052,-1.2034 0.5071,-0.5071 0.9189,-1.1194 1.2033,-1.8051 l 10e-4,6e-4 c 0.273,-0.6588 0.4238,-1.3776 0.4238,-2.1265 0,-0.7464 -0.1508,-1.4636 -0.4235,-2.1223 l 0,-0.004 c -0.2226,-0.5372 -0.5259,-1.0309 -0.8935,-1.4655 l 0,-0.0323 -0.3115,-0.3118 c -0.5097,-0.5103 -1.1223,-0.9219 -1.8037,-1.2019 -0.6599,-0.2713 -1.3788,-0.4212 -2.1274,-0.4212 -0.7487,0 -1.4675,0.1499 -2.1272,0.4212 -0.6806,0.2798 -1.2923,0.6905 -1.8017,1.1999 l -0.002,-0.002 -0.009,0.009 0.002,0.002 c -0.5094,0.5094 -0.9201,1.1211 -1.1999,1.8017 -0.2713,0.6597 -0.4212,1.3785 -0.4212,2.1272 0,0.7486 0.1499,1.4675 0.4212,2.1274 0.28,0.6814 0.6916,1.294 1.2019,1.8036 l 0.3118,0.3116 0.0323,0 c 0.4346,0.3676 0.9283,0.6709 1.4655,0.8935 l 0.004,0 c 0.6587,0.2727 1.3759,0.4235 2.1223,0.4235 0.7489,0 1.4677,-0.1508 2.1265,-0.4238 l -6e-4,-0.001 z"
       id="path56"
       style="fill:#2b2b2a;fill-opacity:1;fill-rule:nonzero;stroke:none" /><path
       d="m 131.8136,260.2672 c 0.4756,0 0.9221,0.091 1.3215,0.2552 0.339,0.1391 0.6503,0.3316 0.9221,0.5658 l 0.1845,0.1845 c 0.3206,0.3206 0.5769,0.6982 0.7478,1.1112 0.1656,0.3999 0.2574,0.845 0.2574,1.3167 0,0.4717 -0.0916,0.9167 -0.2574,1.3169 -0.1709,0.4131 -0.4272,0.7906 -0.7478,1.1112 -0.3183,0.3184 -0.6973,0.5746 -1.1157,0.7481 l 6e-4,10e-4 c -0.3994,0.165 -0.8428,0.256 -1.313,0.256 -0.4703,0 -0.9139,-0.0913 -1.313,-0.256 l 5e-4,-10e-4 c -0.4184,-0.1732 -0.7974,-0.4297 -1.1157,-0.7481 l -0.1553,-0.1553 c -0.2492,-0.2818 -0.4516,-0.6029 -0.5947,-0.9513 -0.1642,-0.3994 -0.2551,-0.8459 -0.2551,-1.3215 0,-0.476 0.0909,-0.9221 0.2551,-1.3215 0.1717,-0.4184 0.4243,-0.7943 0.7367,-1.1064 l 0.004,0 0.009,-0.009 0,-0.004 c 0.3121,-0.3124 0.6883,-0.5653 1.1067,-0.737 0.3994,-0.1642 0.8458,-0.2552 1.3215,-0.2552 z m 2.1271,-1.7047 c -0.6596,-0.2713 -1.3791,-0.4212 -2.1271,-0.4212 -0.7487,0 -1.4675,0.1499 -2.1271,0.4212 -0.6806,0.2798 -1.2926,0.6905 -1.802,1.1999 l -0.002,-0.002 -0.009,0.009 0.002,0.002 c -0.5094,0.5094 -0.9198,1.1212 -1.1996,1.8017 -0.2713,0.6597 -0.4212,1.3788 -0.4212,2.1272 0,0.748 0.1499,1.4675 0.4212,2.1271 0.282,0.6863 0.6922,1.2985 1.1976,1.804 l 0.3116,0.3115 0.0365,0 c 0.4346,0.3676 0.9287,0.6709 1.4658,0.8935 l 0.004,0 c 0.6585,0.2727 1.3759,0.4235 2.1223,0.4235 0.7461,0 1.4635,-0.1508 2.1223,-0.4235 l 0.004,0 c 0.682,-0.2827 1.2949,-0.6954 1.8046,-1.205 0.5079,-0.508 0.9204,-1.1217 1.2047,-1.8086 0.2727,-0.6587 0.4235,-1.3765 0.4235,-2.1225 0,-0.7464 -0.1508,-1.4638 -0.4235,-2.1223 -0.2237,-0.5403 -0.5267,-1.0355 -0.8932,-1.4695 l 0,-0.0329 -0.3115,-0.3115 c -0.5097,-0.5103 -1.1226,-0.9218 -1.804,-1.2019 z m 313.7108,-19.537 -11.5999,0 -1.3354,0 -0.6086,0 -0.309,0.5358 -0.6783,1.1755 -11.7553,20.3607 -279.6642,0 c -0.1922,-0.7308 -0.4629,-1.4298 -0.8025,-2.0863 -0.4892,-0.9456 -1.1177,-1.8025 -1.8552,-2.5401 l -0.7515,-0.7515 -0.0454,0.0454 c -0.7619,-0.6188 -1.6132,-1.1302 -2.5296,-1.5109 -1.2073,-0.5012 -2.5262,-0.7781 -3.903,-0.7781 -1.3757,0 -2.6935,0.2764 -3.8999,0.7767 -1.2464,0.5173 -2.3715,1.2762 -3.3166,2.2184 l -0.004,0 -0.005,0.005 -0.005,0.005 0,0.004 c -0.9419,0.9445 -1.7013,2.0699 -2.2181,3.316 -0.5003,1.2064 -0.7767,2.5242 -0.7767,3.9002 0,1.3768 0.277,2.696 0.7781,3.9033 0.3807,0.9167 0.8921,1.7677 1.5109,2.5293 l -0.0457,0.0457 0.7515,0.7514 c 0.938,0.938 2.0656,1.6974 3.3233,2.2181 1.2082,0.5004 2.5283,0.777 3.9065,0.777 1.3779,0 2.698,-0.2766 3.9061,-0.777 1.2577,-0.5207 2.3854,-1.2801 3.3234,-2.2181 0.5173,-0.5173 0.9861,-1.1026 1.3952,-1.7444 0.2642,-0.4147 0.4991,-0.8484 0.7015,-1.2971 l 282.1689,0 1.3351,0 0.6106,0 0.307,-0.5315 0.6786,-1.1753 0,-0.004 11.755,-20.361 9.6565,0 1.063,0 0,-1.063 0,-4.6653 0,-1.063 -1.063,0 z m -11.5999,2.126 10.5369,0 0,2.5393 -9.2018,0 -0.6083,0 -0.3093,0.5358 -12.0625,20.8936 -0.002,-0.001 -0.3717,0.6438 -0.7245,0 -282.8806,0 -0.7421,0 -0.2546,0.7018 c -0.2038,0.5627 -0.4663,1.0939 -0.7784,1.5835 -0.3121,0.4895 -0.686,0.9524 -1.1129,1.3793 -0.7506,0.7506 -1.6418,1.3538 -2.626,1.7612 -0.9499,0.3934 -1.997,0.6108 -3.1005,0.6108 -1.1036,0 -2.151,-0.2174 -3.1008,-0.6108 -0.9063,-0.3751 -1.7337,-0.9162 -2.4452,-1.5857 l -0.176,-0.1763 c -0.7484,-0.7495 -1.3525,-1.6441 -1.7646,-2.6368 -0.3943,-0.9496 -0.612,-1.9934 -0.612,-3.0892 0,-1.0951 0.2171,-2.1376 0.6106,-3.0861 0.411,-0.991 1.0131,-1.8845 1.7592,-2.6331 l 0.002,0.002 0.005,-0.005 0.005,-0.005 -0.002,-0.002 c 0.7486,-0.7458 1.6424,-1.3481 2.6337,-1.7594 0.9482,-0.3935 1.9908,-0.6106 3.0858,-0.6106 1.0958,0 2.1396,0.218 3.0889,0.612 0.9927,0.4121 1.8876,1.0162 2.6371,1.7646 l 0.1649,0.1646 c 0.5199,0.5505 0.9621,1.1696 1.3088,1.8397 0.3761,0.7271 0.6454,1.5185 0.7866,2.3519 l 0.1508,0.8887 0.8955,0 281.1271,0 0.608,0 0.3096,-0.5358 12.0645,-20.8964 0.3691,-0.6398 0.7271,0 z"
       id="path58"
       style="fill:#2b2b2a;fill-opacity:1;fill-rule:nonzero;stroke:none" /><path
       d="m 524.5571,205.1872 11.6,0 1.3354,0 0.608,0 0.3095,-0.5357 0.6787,-1.1755 11.755,-20.3607 132.6316,0 c 0.2041,0.6485 0.4706,1.2676 0.7914,1.8496 0.4695,0.8509 1.0531,1.6257 1.7283,2.3009 l 0.002,-0.002 c 0.942,0.9419 2.0693,1.7016 3.3211,2.2201 1.2081,0.5003 2.5285,0.777 3.9064,0.777 1.3782,0 2.6986,-0.2767 3.9064,-0.777 1.2529,-0.5188 2.3811,-1.2793 3.3234,-2.2221 l 0.7707,-0.771 -0.047,-0.0442 c 0.6108,-0.756 1.116,-1.5996 1.493,-2.5073 0.5011,-1.2073 0.7781,-2.5262 0.7781,-3.903 0,-1.376 -0.2764,-2.6938 -0.7767,-3.9002 -0.5142,-1.2396 -1.268,-2.3596 -2.2034,-3.3015 l -0.003,-0.003 -0.0116,-0.0117 -0.0134,-0.0133 -0.0116,-0.0116 -0.003,-0.003 c -0.9422,-0.9355 -2.0619,-1.6892 -3.3015,-2.2034 -1.2064,-0.5003 -2.5243,-0.7767 -3.9002,-0.7767 -1.3768,0 -2.6957,0.277 -3.903,0.7781 -0.9077,0.377 -1.7513,0.8825 -2.5075,1.4933 l -0.0463,-0.0493 -0.7727,0.7727 c -0.5862,0.5862 -1.1063,1.2526 -1.5437,1.9831 -0.2923,0.4879 -0.5451,1.001 -0.7538,1.5344 l -134.7973,0 -1.3357,0 -0.6086,0 -0.3089,0.5358 -0.6784,1.1752 -11.755,20.361 -9.6565,0 -1.063,0 0,1.063 0,4.6653 0,1.0629 1.063,0 z m 11.6,-2.1259 -10.537,0 0,-2.5393 9.2019,0 0.608,0 0.3095,-0.5358 12.0643,-20.8967 0.3691,-0.6395 0.7273,0 135.5519,0 0.7881,0 0.2293,-0.76 c 0.1942,-0.6443 0.4651,-1.2526 0.8005,-1.8124 0.2973,-0.4964 0.6525,-0.9627 1.0565,-1.3913 l 0.172,-0.172 c 0.7495,-0.7484 1.6444,-1.3524 2.6371,-1.7646 0.9493,-0.394 1.993,-0.612 3.0889,-0.612 1.095,0 2.1376,0.2171 3.0861,0.6106 0.9819,0.4073 1.8686,1.0026 2.6132,1.7393 l 0.002,0.002 0.046,0.0459 0.002,0.002 c 0.7367,0.7447 1.332,1.6314 1.7393,2.6133 0.3935,0.9485 0.6106,1.9911 0.6106,3.0861 0,1.0959 -0.218,2.1396 -0.612,3.0889 -0.4122,0.9927 -1.0162,1.8876 -1.7646,2.6371 l -0.2265,0.2267 c -0.6967,0.6441 -1.5063,1.1671 -2.3947,1.535 -0.9496,0.3934 -1.9973,0.6109 -3.1008,0.6109 -1.1035,0 -2.1509,-0.2175 -3.1008,-0.6109 -0.9882,-0.4093 -1.8797,-1.0108 -2.6257,-1.7572 l 0,-0.004 c -0.5403,-0.5402 -1.0035,-1.1531 -1.3712,-1.8195 -0.3645,-0.6608 -0.6392,-1.3745 -0.8073,-2.1235 l -0.1868,-0.8305 -0.847,0 -134.0504,0 -0.6083,0 -0.3092,0.5357 -12.0643,20.8965 -0.3693,0.6398 -0.7271,0 z m 159.4956,-20.5969 c -0.3206,0.3206 -0.6982,0.5769 -1.1112,0.7478 -0.4003,0.1658 -0.845,0.2574 -1.317,0.2574 -0.4717,0 -0.9164,-0.0916 -1.3167,-0.2574 -0.413,-0.1709 -0.7906,-0.4272 -1.1112,-0.7478 -0.3206,-0.3206 -0.5771,-0.6981 -0.748,-1.1114 -0.1659,-0.4003 -0.2574,-0.845 -0.2574,-1.3167 0,-0.472 0.0915,-0.9167 0.2574,-1.317 0.1709,-0.4133 0.4277,-0.7909 0.748,-1.1112 l 0.1554,-0.1553 c 0.2817,-0.2492 0.6029,-0.4516 0.951,-0.5947 0.3994,-0.1641 0.8459,-0.2551 1.3215,-0.2551 0.4759,0 0.9221,0.091 1.3218,0.2551 0.4139,0.1701 0.7897,0.424 1.1064,0.7407 l 0.009,0.009 c 0.3169,0.3169 0.5706,0.6928 0.7407,1.1067 0.1641,0.3994 0.2551,0.8458 0.2551,1.3215 0,0.4756 -0.091,0.9221 -0.2551,1.3215 -0.1431,0.3481 -0.3455,0.6695 -0.5947,0.9513 l -0.1553,0.1553 z m -0.3056,2.7077 c 0.5403,-0.2237 1.0355,-0.5267 1.4695,-0.8932 l 0.0368,0 0.3115,-0.3115 c 0.5057,-0.5057 0.9156,-1.118 1.1977,-1.804 0.2713,-0.6596 0.4212,-1.3791 0.4212,-2.1271 0,-0.7486 -0.1499,-1.4675 -0.4212,-2.1271 -0.2821,-0.686 -0.692,-1.2983 -1.1977,-1.804 l -0.009,-0.009 c -0.5054,-0.5054 -1.1177,-0.9155 -1.8037,-1.1976 -0.6599,-0.2713 -1.3788,-0.4212 -2.1274,-0.4212 -0.7481,0 -1.4675,0.1499 -2.1271,0.4212 -0.686,0.2821 -1.298,0.6919 -1.8037,1.1976 l -0.3115,0.3116 0,0.0368 c -0.3663,0.4337 -0.6696,0.9287 -0.8935,1.4695 -0.2727,0.6588 -0.4235,1.3762 -0.4235,2.1226 0,0.7461 0.1508,1.4635 0.4235,2.1223 0.2843,0.6868 0.697,1.3008 1.205,1.8088 0.508,0.5079 1.1217,0.9204 1.8085,1.2047 0.6588,0.2727 1.3762,0.4235 2.1223,0.4235 0.7464,0 1.4638,-0.1508 2.1226,-0.4235"
       id="path60"
       style="fill:#2b2b2a;fill-opacity:1;fill-rule:nonzero;stroke:none" /><path
       d="m 693.5964,260.6168 c 0.4757,0 0.9221,0.0909 1.3215,0.2551 0.4187,0.1718 0.7943,0.4243 1.1067,0.737 l 0,0.004 0.009,0.009 0.004,0 c 0.3124,0.3121 0.5652,0.688 0.737,1.1067 0.1641,0.3994 0.2551,0.8455 0.2551,1.3215 0,0.4753 -0.091,0.9218 -0.2551,1.3212 -0.1392,0.3393 -0.3317,0.65 -0.5658,0.9221 l -0.1845,0.1845 c -0.3184,0.3184 -0.6974,0.5749 -1.1157,0.7481 l 5e-4,10e-4 c -0.3991,0.1647 -0.8427,0.256 -1.313,0.256 -0.4703,0 -0.9136,-0.091 -1.313,-0.256 l 6e-4,-10e-4 c -0.4181,-0.1732 -0.7969,-0.4294 -1.1155,-0.7481 -0.6205,-0.6205 -1.0054,-1.4796 -1.0054,-2.4278 0,-0.4703 0.0913,-0.9139 0.256,-1.313 l 10e-4,5e-4 c 0.1732,-0.4184 0.4297,-0.7974 0.748,-1.1157 l 0.1846,-0.1845 c 0.2718,-0.2342 0.5831,-0.4264 0.9221,-0.5658 0.3994,-0.1642 0.8456,-0.2551 1.3212,-0.2551 z m 2.1271,-1.7048 c -0.6596,-0.2713 -1.3785,-0.4212 -2.1271,-0.4212 -0.7481,0 -1.4672,0.1499 -2.1268,0.4212 -0.682,0.2806 -1.2943,0.6917 -1.804,1.2019 l -0.3115,0.3115 0,0.0326 c -0.3677,0.4346 -0.671,0.9286 -0.8935,1.4658 l 0,0.004 c -0.2727,0.6585 -0.4235,1.3759 -0.4235,2.1223 0,1.5346 0.6231,2.9253 1.6285,3.9308 0.5097,0.5096 1.1222,0.9224 1.8043,1.205 l 0.004,0 c 0.6588,0.2727 1.3762,0.4235 2.1223,0.4235 0.7464,0 1.4638,-0.1508 2.1223,-0.4235 l 0.004,0 c 0.5371,-0.2225 1.0312,-0.5259 1.4658,-0.8935 l 0.0323,0 0.3118,-0.3115 c 0.5102,-0.5097 0.9218,-1.1223 1.2019,-1.804 0.2712,-0.6596 0.4212,-1.3785 0.4212,-2.1268 0,-0.7484 -0.15,-1.4675 -0.4212,-2.1272 -0.2798,-0.6808 -0.6905,-1.2923 -1.1999,-1.8019 l 0.002,-0.002 -0.009,-0.009 -0.002,0.002 c -0.5094,-0.5094 -1.1211,-0.9201 -1.802,-1.1999 z m -171.1054,-13.5323 9.6565,0 11.755,20.3607 0.6783,1.1752 0.309,0.5358 0.6086,0 1.3357,0 134.994,0 c 0.2081,0.5873 0.4689,1.1525 0.7776,1.6889 0.4563,0.7931 1.0074,1.5128 1.6341,2.1395 0.938,0.938 2.0656,1.6974 3.3234,2.2182 1.2081,0.5003 2.5282,0.7769 3.9061,0.7769 1.3782,0 2.6983,-0.2766 3.9064,-0.7769 1.2578,-0.5208 2.3854,-1.2802 3.3234,-2.2182 l 0.7514,-0.7514 -0.0453,-0.0454 c 0.6188,-0.7619 1.1302,-1.6132 1.5108,-2.5296 0.5012,-1.2073 0.7782,-2.5263 0.7782,-3.903 0,-1.3757 -0.2764,-2.6935 -0.7767,-3.8999 -0.5174,-1.2467 -1.2762,-2.3715 -2.2184,-3.3166 l 0,-0.004 -0.005,-0.005 -0.005,-0.005 -0.004,0 c -0.9451,-0.9422 -2.0702,-1.7011 -3.3166,-2.2184 -1.2064,-0.5003 -2.5242,-0.7767 -3.8999,-0.7767 -1.3768,0 -2.6955,0.277 -3.903,0.7781 -0.908,0.377 -1.751,0.8824 -2.5073,1.4933 l -0.0464,-0.0493 -0.7728,0.773 c -0.6281,0.6282 -1.1798,1.3493 -1.6367,2.1444 -0.3084,0.5372 -0.57,1.1044 -0.7781,1.6951 l -133.0475,0 -11.755,-20.3607 0,-0.004 -0.6786,-1.1753 -0.307,-0.5315 -0.6106,0 -1.3354,0 -11.5999,0 -1.063,0 0,1.063 0,4.6653 0,1.063 1.063,0 z m 10.2648,-2.126 -9.2018,0 0,-2.5393 10.5369,0 0.7248,0 0.3717,0.6438 0.002,-0.001 12.0625,20.8934 0.3093,0.5357 0.6083,0 134.437,0 0.8167,0 0.2089,-0.7971 c 0.1828,-0.699 0.4567,-1.3606 0.8065,-1.9695 0.3118,-0.5426 0.6919,-1.0517 1.1301,-1.5168 l 0.1749,-0.1744 c 0.7495,-0.7486 1.6447,-1.3526 2.6371,-1.7648 0.9496,-0.3943 1.993,-0.612 3.0889,-0.612 1.095,0 2.1376,0.2171 3.0858,0.6106 0.9913,0.4113 1.885,1.0136 2.6337,1.7594 l -0.002,0.002 0.005,0.005 0.005,0.005 0.002,-0.002 c 0.7458,0.7486 1.3482,1.6421 1.7595,2.6337 0.3934,0.9482 0.6106,1.9907 0.6106,3.0858 0,1.0956 -0.2177,2.1393 -0.612,3.0889 -0.4122,0.9927 -1.0162,1.8876 -1.7646,2.637 l -0.1667,0.1667 c -0.7137,0.6738 -1.5443,1.2184 -2.4548,1.5951 -0.9499,0.3934 -1.9973,0.6108 -3.1008,0.6108 -1.1035,0 -2.1506,-0.2174 -3.1005,-0.6108 -0.9842,-0.4074 -1.8754,-1.0106 -2.626,-1.7612 -0.5114,-0.5114 -0.9505,-1.0803 -1.302,-1.6911 -0.3481,-0.6052 -0.6216,-1.266 -0.8062,-1.9673 l -0.2089,-0.7931 -0.8166,0 -135.775,0 -0.7274,0 -0.3691,-0.6395 -12.0642,-20.8965 -0.3096,-0.5357 -0.608,0 z"
       id="path62"
       style="fill:#2b2b2a;fill-opacity:1;fill-rule:nonzero;stroke:none" /><path
       d="m 486.2177,307.7362 c 0.4757,0 0.9221,0.091 1.3215,0.2551 0.4184,0.1718 0.794,0.4244 1.1064,0.737 l 0,0.004 0.009,0.009 0.004,0 c 0.3127,0.3123 0.5652,0.6879 0.737,1.1063 0.1641,0.3994 0.2551,0.8456 0.2551,1.3215 0,0.476 -0.091,0.9222 -0.2551,1.3218 -0.1389,0.3385 -0.3308,0.6489 -0.5647,0.9207 l -0.1856,0.1857 c -0.3206,0.3206 -0.6982,0.5769 -1.1112,0.7478 -0.4,0.1655 -0.845,0.2574 -1.3167,0.2574 -0.4717,0 -0.9167,-0.0916 -1.317,-0.2574 -0.413,-0.1709 -0.7908,-0.4275 -1.1112,-0.7478 -0.3206,-0.3206 -0.5768,-0.6982 -0.7477,-1.1115 l 0,-0.004 c -0.1661,-0.4006 -0.2577,-0.8442 -0.2577,-1.3125 0,-0.4705 0.091,-0.9136 0.256,-1.313 l 10e-4,6e-4 c 0.1732,-0.4181 0.4294,-0.7968 0.748,-1.1154 l 0.1857,-0.1857 c 0.2719,-0.2339 0.5822,-0.4258 0.9207,-0.5647 0.3997,-0.1641 0.8459,-0.2551 1.3218,-0.2551 z m 2.1271,-1.7047 c -0.6596,-0.2713 -1.3785,-0.4213 -2.1271,-0.4213 -0.7486,0 -1.4675,0.15 -2.1274,0.4213 -0.6814,0.28 -1.294,0.6916 -1.8037,1.2019 l -0.3115,0.3115 0,0.0326 c -0.3677,0.4345 -0.671,0.9283 -0.8935,1.4655 l 0,0.004 c -0.2727,0.6588 -0.4235,1.376 -0.4235,2.1223 0,0.749 0.1508,1.4678 0.4238,2.1266 l 10e-4,-6e-4 c 0.2843,0.6854 0.6962,1.298 1.2033,1.8051 0.508,0.508 1.1217,0.9204 1.8085,1.2048 0.6588,0.2726 1.3765,0.4235 2.1226,0.4235 0.7464,0 1.4638,-0.1509 2.1223,-0.4235 0.5403,-0.2237 1.0355,-0.5267 1.4695,-0.8932 l 0.0326,0 0.3118,-0.3116 c 0.5102,-0.5096 0.9218,-1.1222 1.2019,-1.8037 0.2713,-0.6599 0.4212,-1.3787 0.4212,-2.1274 0,-0.7483 -0.1499,-1.4675 -0.4212,-2.1271 -0.2798,-0.6806 -0.6905,-1.2923 -1.1999,-1.8017 l 0.002,-0.002 -0.009,-0.009 -0.002,0.002 c -0.5094,-0.5094 -1.1211,-0.9202 -1.8017,-1.1999 z m -5.523,-45.3325 0,40.8305 c -0.5865,0.2083 -1.1509,0.4697 -1.6869,0.7787 -0.4856,0.2797 -0.9451,0.5969 -1.3742,0.9467 l -0.0454,-0.0425 -0.7274,0.7277 c -1.8499,1.8499 -2.995,4.4067 -2.995,7.2294 0,1.378 0.2766,2.6983 0.7769,3.9065 0.5208,1.2577 1.2802,2.3853 2.2181,3.3233 0.938,0.938 2.0656,1.6971 3.3234,2.2178 1.2081,0.5003 2.5285,0.777 3.9064,0.777 1.3808,0 2.7023,-0.2764 3.9104,-0.777 l -6e-4,-10e-4 c 1.2563,-0.5207 2.3825,-1.2793 3.3197,-2.2164 l 0.7274,-0.7276 -0.042,-0.0446 c 0.6282,-0.7681 1.1469,-1.6273 1.5316,-2.5542 0.5011,-1.2073 0.7781,-2.5266 0.7781,-3.9034 0,-1.3756 -0.2764,-2.6934 -0.7767,-3.8999 -0.5134,-1.2373 -1.2648,-2.3553 -2.1974,-3.2952 l -0.005,-0.005 -0.0459,-0.0459 -0.005,-0.005 c -0.627,-0.6217 -1.3383,-1.1648 -2.1155,-1.6126 -0.5355,-0.3082 -1.0987,-0.5692 -1.6844,-0.777 l 0,-40.8305 0,-1.063 -1.063,0 -4.6652,0 -1.063,0 0,1.063 z m 2.126,41.6109 0,-40.5479 2.5393,0 0,40.5479 0,0.8161 0.7931,0.2094 c 0.6987,0.1846 1.3578,0.4581 1.9627,0.8062 0.6103,0.3515 1.1755,0.7852 1.6804,1.2858 l 0.0156,0.0156 0.005,0.005 c 0.7472,0.7492 1.3498,1.6435 1.7614,2.6353 0.3934,0.9482 0.6106,1.9908 0.6106,3.0858 0,1.0959 -0.2177,2.1396 -0.612,3.0892 -0.4122,0.9927 -1.0162,1.8873 -1.7646,2.6368 l -0.1703,0.1707 c -0.7127,0.6721 -1.5424,1.2149 -2.4512,1.5911 l -0.004,0 c -0.9499,0.3937 -1.9962,0.6108 -3.0963,0.6108 -1.1035,0 -2.1509,-0.2174 -3.1008,-0.6108 -0.9842,-0.4074 -1.8754,-1.0103 -2.626,-1.7609 -0.7509,-0.7509 -1.3539,-1.6418 -1.7612,-2.626 -0.3934,-0.9499 -0.6109,-1.9973 -0.6109,-3.1009 0,-2.1495 0.838,-4.1037 2.204,-5.553 l 0.1689,-0.169 c 0.5091,-0.5088 1.0803,-0.9487 1.6977,-1.3042 0.6057,-0.3492 1.2659,-0.6233 1.9652,-0.8079 l 0.7932,-0.2097 0,-0.8158 z"
       id="path64"
       style="fill:#2b2b2a;fill-opacity:1;fill-rule:nonzero;stroke:none" /><path
       d="m 486.6367,138.4801 c 0.7486,0 1.4675,-0.15 2.1271,-0.4212 0.6806,-0.2798 1.2926,-0.6906 1.802,-1.1999 l 0.002,0.002 0.009,-0.009 -0.002,-0.002 c 0.5094,-0.5094 0.9199,-1.1211 1.1996,-1.8017 0.2713,-0.6596 0.4213,-1.3788 0.4213,-2.1271 0,-0.7481 -0.15,-1.4675 -0.4213,-2.1271 -0.282,-0.6863 -0.6922,-1.2986 -1.1976,-1.804 l -0.3115,-0.3115 -0.0369,0 c -0.4342,-0.3665 -0.9295,-0.6696 -1.4697,-0.8932 -0.6588,-0.2727 -1.376,-0.4235 -2.1223,-0.4235 -0.7461,0 -1.4636,0.1508 -2.1223,0.4235 -0.6872,0.2843 -1.3009,0.6967 -1.8088,1.2047 -0.508,0.508 -0.9204,1.1217 -1.2047,1.8085 -0.2727,0.6588 -0.4235,1.3765 -0.4235,2.1226 0,0.7463 0.1508,1.4638 0.4235,2.1223 0.2236,0.5403 0.5266,1.0355 0.8931,1.4695 l 0,0.0328 0.3116,0.3116 c 0.5096,0.5102 1.1225,0.9218 1.8039,1.2019 0.6597,0.2712 1.3791,0.4212 2.1272,0.4212 z m 1.3215,-2.3811 c -0.3994,0.1641 -0.8459,0.2551 -1.3215,0.2551 -0.4757,0 -0.9221,-0.091 -1.3216,-0.2551 -0.339,-0.1392 -0.6502,-0.3317 -0.9221,-0.5658 l -0.1845,-0.1845 c -0.3206,-0.3206 -0.5768,-0.6982 -0.7478,-1.1112 -0.1655,-0.4 -0.2574,-0.845 -0.2574,-1.3167 0,-0.4717 0.0916,-0.9167 0.2574,-1.317 0.171,-0.413 0.4272,-0.7906 0.7478,-1.1112 0.3203,-0.3203 0.6979,-0.5765 1.1115,-0.7477 0.4002,-0.1659 0.845,-0.2574 1.3167,-0.2574 0.4716,0 0.9164,0.0915 1.3167,0.2574 0.4132,0.1709 0.7911,0.4274 1.1114,0.7477 l 0.1554,0.1554 c 0.2491,0.2817 0.4515,0.6029 0.5947,0.9513 0.1641,0.3994 0.2551,0.8458 0.2551,1.3215 0,0.4759 -0.091,0.9221 -0.2551,1.3215 -0.1718,0.4184 -0.4244,0.7943 -0.7368,1.1064 l -0.004,0 -0.009,0.009 0,0.004 c -0.3121,0.3124 -0.6882,0.5652 -1.1066,0.737 z m -2.5912,46.2294 0,-40.5479 0,-0.8158 -0.7931,-0.2098 c -0.6996,-0.1845 -1.3592,-0.4584 -1.9653,-0.8076 -0.6174,-0.356 -1.1885,-0.796 -1.6979,-1.3045 l -0.1684,-0.1681 c -0.6729,-0.7135 -1.2166,-1.5435 -1.5934,-2.4534 l 0,-0.004 c -0.3937,-0.9499 -0.6108,-1.9962 -0.6108,-3.0963 0,-1.1035 0.2174,-2.1509 0.6108,-3.1008 0.4074,-0.9842 1.0103,-1.8754 1.7609,-2.626 0.7506,-0.7507 1.6421,-1.3536 2.6263,-1.7609 l 0.004,0 c 0.9499,-0.3938 1.9961,-0.6109 3.0963,-0.6109 1.1038,0 2.1512,0.2174 3.1005,0.6106 0.9062,0.3753 1.7339,0.9164 2.4454,1.5857 l 0.1761,0.1763 c 0.7483,0.7495 1.3524,1.6441 1.7645,2.6368 0.3943,0.9496 0.612,1.9933 0.612,3.0892 0,1.095 -0.2171,2.1376 -0.6105,3.0861 -0.4111,0.991 -1.0131,1.8844 -1.7592,2.6331 l -0.002,-0.002 -0.005,0.005 -0.005,0.005 0.002,0.002 c -0.5082,0.5063 -1.0786,0.9448 -1.6945,1.2994 -0.6047,0.3481 -1.2637,0.6214 -1.9622,0.8059 l -0.7931,0.2098 0,0.8158 0,40.5482 -2.5393,0 z m -2.126,-39.7675 0,40.8305 0,1.063 1.063,0 4.6653,0 1.063,0 0,-1.063 0,-40.8308 c 0.5853,-0.2078 1.1486,-0.4686 1.6838,-0.7767 0.786,-0.4527 1.5049,-1.0035 2.137,-1.6336 l 0.004,0 0.005,-0.005 0.005,-0.005 0,-0.004 c 0.942,-0.9445 1.7014,-2.0698 2.2181,-3.3159 0.5004,-1.2064 0.7767,-2.5243 0.7767,-3.9002 0,-1.3768 -0.2769,-2.696 -0.7781,-3.9033 -0.3807,-0.9167 -0.892,-1.7677 -1.5108,-2.5294 l 0.0456,-0.0456 -0.7515,-0.7515 c -0.938,-0.938 -2.0656,-1.6971 -3.3236,-2.2181 -1.2078,-0.5003 -2.5279,-0.7767 -3.9061,-0.7767 -1.3808,0 -2.7023,0.2764 -3.9104,0.777 l 5e-4,0.001 c -1.256,0.5207 -2.3822,1.2787 -3.3199,2.2164 -0.938,0.938 -1.6971,2.0656 -2.2178,3.3234 -0.5003,1.2081 -0.777,2.5285 -0.777,3.9064 0,1.3807 0.2764,2.7023 0.777,3.9104 l 0.001,-6e-4 c 0.5207,1.2563 1.2793,2.3825 2.2164,3.3197 l 0.7274,0.7276 0.0453,-0.0425 c 0.4292,0.3501 0.889,0.6673 1.3745,0.9471 0.5364,0.3089 1.1005,0.5703 1.6869,0.7784"
       id="path66"
       style="fill:#2b2b2a;fill-opacity:1;fill-rule:nonzero;stroke:none" /><path
       d="m 446.7132,307.948 c 0.2342,0.0771 0.4533,0.1766 0.6534,0.2945 0.2387,0.1403 0.4649,0.3178 0.6727,0.5255 l 0.009,0.009 0.004,0 c 0.3124,0.3121 0.5652,0.688 0.737,1.1066 0.1641,0.3994 0.2551,0.8456 0.2551,1.3215 0,0.4754 -0.091,0.9219 -0.2551,1.3213 -0.1395,0.339 -0.3316,0.6502 -0.5658,0.9221 l -0.1845,0.1845 c -0.3184,0.3183 -0.6973,0.5749 -1.1157,0.7481 l 5e-4,10e-4 c -0.3991,0.1647 -0.8427,0.256 -1.313,0.256 -0.4702,0 -0.9136,-0.091 -1.313,-0.256 l 6e-4,-10e-4 c -0.4181,-0.1732 -0.7968,-0.4295 -1.1155,-0.7481 -0.6205,-0.6205 -1.0054,-1.4797 -1.0054,-2.4279 0,-0.4702 0.0913,-0.9138 0.256,-1.313 l 0.001,6e-4 c 0.1732,-0.4184 0.4297,-0.7974 0.748,-1.1157 l 0.1874,-0.1874 c 0.1511,-0.1301 0.3138,-0.2466 0.4853,-0.3475 0.2004,-0.1179 0.4195,-0.2174 0.6534,-0.2945 l 2.2039,0 z m 1.7249,-1.5327 c -0.4019,-0.2367 -0.8311,-0.4238 -1.2784,-0.5519 l -0.1443,-0.0414 -0.1463,0 -2.5157,0 -0.1466,0 -0.144,0.0414 c -0.447,0.1281 -0.8767,0.3155 -1.2784,0.5519 -0.4059,0.2387 -0.7773,0.5267 -1.1041,0.8538 l -0.3115,0.3118 0,0.0323 c -0.3677,0.4345 -0.671,0.9286 -0.8935,1.4658 l 0,0.004 c -0.2727,0.6585 -0.4235,1.376 -0.4235,2.1223 0,1.5347 0.6231,2.9254 1.6285,3.9308 0.5097,0.5097 1.1223,0.9224 1.8043,1.2051 l 0.004,0 c 0.6588,0.2726 1.3762,0.4235 2.1223,0.4235 0.7464,0 1.4638,-0.1509 2.1223,-0.4235 l 0.004,0 c 0.5371,-0.2226 1.0312,-0.5259 1.4658,-0.8935 l 0.0323,0 0.3118,-0.3116 c 0.5102,-0.5096 0.9213,-1.1219 1.2019,-1.8039 0.2713,-0.6596 0.4212,-1.3785 0.4212,-2.1269 0,-0.7483 -0.1499,-1.4675 -0.4212,-2.1271 -0.2798,-0.6809 -0.6905,-1.2923 -1.1999,-1.802 l 0.002,-0.002 -0.009,-0.009 c -0.3209,-0.3209 -0.6916,-0.6072 -1.1041,-0.8498 z m 14.4383,-45.8623 0,8.7168 -19.6662,19.6668 0.002,0.002 -0.6815,0.6811 -0.3155,0.3152 0,0.4363 0,0.966 0,10.228 c -0.5865,0.2083 -1.1509,0.47 -1.6869,0.779 -0.4759,0.2744 -0.9269,0.5845 -1.349,0.9263 l -0.0462,-0.0462 -0.7515,0.7515 c -0.9379,0.938 -1.6973,2.0656 -2.2181,3.3233 -0.5003,1.2081 -0.7769,2.5282 -0.7769,3.9064 0,1.378 0.2766,2.6981 0.7769,3.9062 0.5208,1.2577 1.2802,2.3853 2.2181,3.3233 0.938,0.938 2.0656,1.6974 3.3234,2.2181 1.2081,0.5003 2.5282,0.777 3.9061,0.777 1.3782,0 2.6983,-0.2767 3.9064,-0.777 1.2578,-0.5207 2.3854,-1.2801 3.3234,-2.2181 l 0.7727,-0.773 -0.049,-0.0462 c 0.6108,-0.7563 1.1163,-1.5993 1.4933,-2.5072 0.5011,-1.2076 0.7781,-2.5263 0.7781,-3.9031 0,-1.3756 -0.2764,-2.6934 -0.7767,-3.8999 -0.5173,-1.2466 -1.2762,-2.3714 -2.2184,-3.3165 l 0,-0.004 -0.005,-0.005 -0.005,-0.005 -0.004,0 c -0.6322,-0.6302 -1.3505,-1.1809 -2.1365,-1.6333 -0.5355,-0.3085 -1.099,-0.5695 -1.6846,-0.7773 l 0,-8.822 19.6664,-19.6665 0,-0.004 0.6832,-0.6835 0.3115,-0.3118 0,-0.4357 0,-0.966 0,-10.1228 0,-1.063 -1.063,0 -4.6652,0 -1.063,0 0,1.063 z m 2.126,9.1567 0,-8.0937 2.5392,0 0,9.0598 0,0.5301 -0.3696,0.3699 -0.002,-0.002 -19.978,19.978 -0.3115,0.3115 0,0.44 0,10.0423 0,0.8161 0.7931,0.2094 c 0.6987,0.1846 1.3578,0.4581 1.963,0.8065 0.616,0.3543 1.1857,0.7929 1.694,1.2991 l -0.002,0.002 0.005,0.005 0.005,0.005 0.002,-0.002 c 0.7458,0.7486 1.3482,1.6421 1.7595,2.6336 0.3935,0.9482 0.6106,1.9908 0.6106,3.0858 0,1.0959 -0.2177,2.1394 -0.612,3.089 -0.4122,0.9924 -1.0162,1.8875 -1.7649,2.637 l -0.1703,0.1707 c -0.7127,0.6718 -1.5421,1.2149 -2.4509,1.5911 -0.9499,0.3934 -1.9973,0.6108 -3.1008,0.6108 -1.1035,0 -2.1506,-0.2174 -3.1005,-0.6108 -0.9842,-0.4074 -1.8754,-1.0106 -2.626,-1.7612 -0.7509,-0.7509 -1.3539,-1.6418 -1.7612,-2.626 -0.3934,-0.9499 -0.6109,-1.9973 -0.6109,-3.1006 0,-1.1035 0.2175,-2.1509 0.6109,-3.1008 0.3773,-0.9113 0.9224,-1.7427 1.597,-2.457 l 0.1647,-0.1645 c 0.5094,-0.5085 1.0803,-0.9481 1.6977,-1.3039 0.6058,-0.3495 1.2657,-0.6233 1.9653,-0.8082 l 0.7931,-0.21 0,-0.8155 0,-11.0084 0,-0.5301 0.3679,-0.3676 0.004,0 19.9777,-19.9783 0.3116,-0.3118 0,-0.4397 z"
       id="path68"
       style="fill:#2b2b2a;fill-opacity:1;fill-rule:nonzero;stroke:none" /><path
       d="m 465.4216,182.4744 0,-8.0938 0,-0.4397 -0.3115,-0.3118 -19.978,-19.9783 -0.3717,-0.3716 0,-0.5261 0,-11.0083 0,-0.8159 -0.7931,-0.2097 c -0.6993,-0.1846 -1.3595,-0.4587 -1.9653,-0.8079 -0.6173,-0.3555 -1.1885,-0.7954 -1.6976,-1.3042 l -0.1707,-0.1704 c -0.6721,-0.7129 -1.2149,-1.5423 -1.5911,-2.4511 l 0,-0.004 c -0.3934,-0.9499 -0.6108,-1.9959 -0.6108,-3.0966 0,-1.1033 0.2174,-2.1507 0.6108,-3.1005 0.4074,-0.9842 1.0103,-1.8754 1.7609,-2.6261 0.7506,-0.7506 1.6419,-1.3538 2.626,-1.7611 0.9499,-0.3935 1.9973,-0.6109 3.1009,-0.6109 1.1032,0 2.1506,0.2174 3.1005,0.6109 0.9105,0.3767 1.741,0.9212 2.4548,1.595 l 0.1667,0.1667 c 0.7483,0.7495 1.3524,1.6444 1.7645,2.6371 0.3943,0.9496 0.612,1.9933 0.612,3.0889 0,1.095 -0.2171,2.1376 -0.6105,3.0858 -0.4116,0.9924 -1.0148,1.8867 -1.7615,2.6356 l -0.005,0.005 -0.0156,0.0156 c -0.5048,0.5006 -1.07,0.9343 -1.6803,1.2858 -0.605,0.3481 -1.264,0.6216 -1.9627,0.8062 l -0.7932,0.2095 0,0.8161 0,10.0423 0,0.4399 0.3115,0.3115 19.9778,19.978 0.3719,0.3719 0,0.5262 0,9.0598 -2.5393,0 z m -2.126,-7.6539 0,8.7169 0,1.0629 1.063,0 4.6653,0 1.063,0 0,-1.0629 0,-10.1228 0,-0.9661 0,-0.4399 -0.3116,-0.3116 -0.6834,-0.6834 -19.6662,-19.6665 0,-8.822 c 0.5856,-0.2077 1.1489,-0.4688 1.6843,-0.7769 0.7773,-0.4479 1.4885,-0.991 2.1155,-1.6127 l 0.005,-0.005 0.0459,-0.0459 0.005,-0.005 c 0.9329,-0.9406 1.6841,-2.058 2.1974,-3.2956 0.5004,-1.2064 0.7767,-2.5243 0.7767,-3.8999 0,-1.3768 -0.2769,-2.6958 -0.7781,-3.903 -0.3807,-0.9165 -0.892,-1.7677 -1.5108,-2.5297 l 0.0453,-0.0453 -0.7515,-0.7515 c -0.9379,-0.938 -2.0656,-1.6974 -3.3233,-2.2181 -1.2081,-0.5003 -2.5282,-0.777 -3.9061,-0.777 -1.378,0 -2.6983,0.2767 -3.9065,0.777 -1.2577,0.5207 -2.3853,1.2801 -3.3233,2.2181 -0.938,0.938 -1.6971,2.0656 -2.2178,3.3233 -0.5003,1.2082 -0.777,2.5283 -0.777,3.9062 0,1.3807 0.2764,2.7023 0.777,3.9107 l 0.001,-6e-4 c 0.5207,1.2563 1.2793,2.3825 2.2164,3.3197 l 0.7274,0.7276 0.0453,-0.0425 c 0.4292,0.3498 0.8887,0.667 1.3743,0.9468 0.536,0.3089 1.1004,0.5703 1.6869,0.7786 l 0,10.228 0,0.966 0,0.44 0.3115,0.3115 0.6831,0.6832 19.6665,19.6667 z m -18.5233,-36.5522 2.5161,0 0.1462,0 0.1443,-0.0413 c 0.4473,-0.1282 0.8765,-0.3153 1.2782,-0.5517 0.4127,-0.2429 0.7835,-0.5295 1.1041,-0.8501 l 0.009,-0.009 -0.002,-0.002 c 0.5094,-0.5094 0.9202,-1.1211 1.1999,-1.8017 0.2713,-0.6596 0.4213,-1.3791 0.4213,-2.1274 0,-0.7481 -0.15,-1.4675 -0.4213,-2.1271 -0.28,-0.6815 -0.6916,-1.294 -1.2018,-1.8037 l -0.3119,-0.3115 -0.0323,0 c -0.4345,-0.3677 -0.9283,-0.671 -1.4655,-0.8935 l -0.004,0 c -0.6588,-0.2727 -1.376,-0.4235 -2.1223,-0.4235 -0.749,0 -1.4678,0.1508 -2.1266,0.4238 l 6e-4,0.001 c -0.6857,0.2843 -1.298,0.6962 -1.8051,1.2033 -0.508,0.508 -0.9204,1.1217 -1.2047,1.8085 -0.2727,0.6588 -0.4235,1.3762 -0.4235,2.1223 0,0.7463 0.1508,1.4638 0.4235,2.1226 0.2236,0.5403 0.5266,1.0355 0.8931,1.4695 l 0,0.0368 0.3116,0.3115 c 0.3209,0.3209 0.6919,0.6075 1.1041,0.8499 0.4019,0.2366 0.8311,0.4237 1.2784,0.5519 l 0.144,0.0413 0.1465,0 z m 2.3593,-2.1259 -2.2033,0 c -0.2342,-0.0771 -0.4533,-0.1766 -0.6534,-0.2946 -0.1789,-0.1051 -0.351,-0.2313 -0.5134,-0.3755 l -0.1593,-0.1594 c -0.3206,-0.3206 -0.5768,-0.6981 -0.7478,-1.1111 -0.1658,-0.4003 -0.2574,-0.845 -0.2574,-1.317 0,-0.4717 0.0916,-0.9165 0.2574,-1.3167 0.171,-0.413 0.4272,-0.7906 0.7478,-1.1112 0.3203,-0.3203 0.6979,-0.5766 1.1115,-0.7478 l 0.004,0 c 0.4006,-0.1661 0.8439,-0.2576 1.3125,-0.2576 0.4702,0 0.9136,0.091 1.313,0.2559 l -6e-4,0.001 c 0.4181,0.1731 0.7968,0.4294 1.1154,0.748 l 0.1857,0.1857 c 0.2339,0.2718 0.4258,0.5822 0.5647,0.9207 0.1641,0.3994 0.2551,0.8458 0.2551,1.3215 0,0.4759 -0.091,0.9224 -0.2551,1.3218 -0.1718,0.4184 -0.4244,0.794 -0.737,1.1063 l -0.004,0 -0.009,0.009 c -0.208,0.2081 -0.4345,0.3855 -0.6726,0.5258 -0.2004,0.1179 -0.4196,0.2172 -0.654,0.2943"
       id="path70"
       style="fill:#2b2b2a;fill-opacity:1;fill-rule:nonzero;stroke:none" /><path
       d="m 507.5206,261.616 0,8.0937 0,0.4397 0.3116,0.3118 19.9777,19.9783 0.3716,0.3716 0,0.5261 0,11.0084 0,0.8158 0.7931,0.2097 c 0.6994,0.1846 1.3595,0.4587 1.9653,0.8079 0.6174,0.3555 1.1886,0.7954 1.6977,1.3042 l 0.1718,0.1715 c 0.6715,0.7124 1.214,1.5418 1.5899,2.45 l 0,0.004 c 0.3935,0.9499 0.6109,1.9959 0.6109,3.0965 0,1.1033 -0.2174,2.1507 -0.6109,3.1006 -0.4073,0.9842 -1.0103,1.8754 -1.7609,2.626 -0.7506,0.7506 -1.6418,1.3538 -2.626,1.7612 -0.9499,0.3934 -1.9973,0.6108 -3.1008,0.6108 -1.1035,0 -2.1507,-0.2174 -3.1005,-0.6108 -0.9111,-0.377 -1.7419,-0.9219 -2.456,-1.5962 l -0.1655,-0.1656 c -0.7484,-0.7495 -1.3524,-1.6444 -1.7646,-2.637 -0.3943,-0.9496 -0.612,-1.9934 -0.612,-3.089 0,-1.095 0.2171,-2.1376 0.6106,-3.0858 0.4116,-0.9924 1.0145,-1.8864 1.7614,-2.6356 l 0.005,-0.005 0.0156,-0.0156 c 0.5049,-0.5006 1.0701,-0.9343 1.6804,-1.2858 0.6049,-0.3481 1.264,-0.6216 1.9627,-0.8062 l 0.7931,-0.2094 0,-0.8161 0,-10.0423 0,-0.44 -0.3115,-0.3115 -19.9777,-19.978 -0.002,0.002 -0.3696,-0.3699 0,-0.5301 0,-9.0598 2.5392,0 z m 2.126,7.6538 0,-8.7168 0,-1.063 -1.063,0 -4.6652,0 -1.063,0 0,1.063 0,10.1228 0,0.966 0,0.4357 0.3115,0.3118 0.6831,0.6835 0,0.004 19.6663,19.6665 0,8.822 c -0.5857,0.2078 -1.1489,0.4688 -1.6844,0.777 -0.777,0.4476 -1.4885,0.991 -2.1155,1.6126 l -0.005,0.005 -0.0459,0.046 -0.005,0.005 c -0.9326,0.9402 -1.684,2.0579 -2.1974,3.2955 -0.5003,1.2065 -0.7767,2.5243 -0.7767,3.8999 0,1.3768 0.277,2.6958 0.7781,3.9031 0.3807,0.9164 0.8921,1.7677 1.5109,2.5296 l -0.0454,0.0454 0.7515,0.7514 c 0.938,0.938 2.0656,1.6974 3.3233,2.2181 1.2082,0.5003 2.5283,0.777 3.9062,0.777 1.3779,0 2.6983,-0.2767 3.9064,-0.777 1.2577,-0.5207 2.3854,-1.2801 3.3234,-2.2181 0.9379,-0.938 1.6971,-2.0656 2.2178,-3.3233 0.5003,-1.2081 0.777,-2.5282 0.777,-3.9062 0,-1.3807 -0.2764,-2.7022 -0.777,-3.9106 l -10e-4,5e-4 c -0.5208,-1.2563 -1.279,-2.3822 -2.2164,-3.3196 l -0.7277,-0.7277 -0.0451,0.0425 c -0.4291,-0.35 -0.8886,-0.6669 -1.3742,-0.9467 -0.536,-0.309 -1.1004,-0.5704 -1.6869,-0.7787 l 0,-10.228 0,-0.966 0,-0.44 -0.3115,-0.3115 -0.6832,-0.6831 -19.6662,-19.6668 z m 18.523,36.5522 -2.516,0 -0.1466,0 -0.144,0.0414 c -0.4473,0.1281 -0.8764,0.3152 -1.2781,0.5516 -0.4125,0.2429 -0.7835,0.5295 -1.1041,0.8501 l -0.009,0.009 0.002,0.002 c -0.5094,0.5094 -0.9201,1.1211 -1.1999,1.8017 -0.2713,0.6597 -0.4212,1.3791 -0.4212,2.1274 0,0.7481 0.1499,1.4675 0.4212,2.1272 0.2801,0.6814 0.6917,1.294 1.2019,1.8036 l 0.3115,0.3116 0.0326,0 c 0.4346,0.3676 0.9284,0.6709 1.4655,0.8935 l 0.004,0 c 0.6588,0.2726 1.3759,0.4235 2.1223,0.4235 0.7489,0 1.4678,-0.1509 2.1265,-0.4238 l -5e-4,-10e-4 c 0.6854,-0.2844 1.298,-0.6962 1.8051,-1.2034 1.0054,-1.0054 1.6285,-2.3961 1.6285,-3.9308 0,-0.7463 -0.1508,-1.4638 -0.4235,-2.1223 l 0,-0.004 c -0.2225,-0.5372 -0.5258,-1.0313 -0.8935,-1.4658 l 0,-0.0366 -0.3115,-0.3115 c -0.3209,-0.3209 -0.6917,-0.6072 -1.1041,-0.8498 -0.402,-0.2367 -0.8311,-0.4238 -1.2784,-0.5519 l -0.1443,-0.0414 -0.1463,0 z m -2.3593,2.126 2.2034,0 c 0.2341,0.0771 0.4533,0.1766 0.6534,0.2945 0.1791,0.1052 0.3509,0.2313 0.5133,0.3756 l 0.1593,0.1593 c 0.3184,0.3183 0.5749,0.6973 0.7481,1.1157 l 10e-4,-6e-4 c 0.1647,0.3992 0.256,0.8428 0.256,1.313 0,0.9482 -0.3849,1.8074 -1.0055,2.4279 -0.3203,0.3203 -0.6981,0.5769 -1.1114,0.7478 l -0.004,0 c -0.4005,0.1661 -0.8441,0.2577 -1.3124,0.2577 -0.4706,0 -0.9136,-0.091 -1.313,-0.256 l 5e-4,-0.001 c -0.4181,-0.1732 -0.7968,-0.4295 -1.1154,-0.7481 l -0.1857,-0.1857 c -0.2338,-0.2718 -0.4257,-0.5822 -0.5646,-0.9206 -0.1641,-0.3994 -0.2551,-0.8459 -0.2551,-1.3216 0,-0.4759 0.091,-0.9224 0.2551,-1.3218 0.1718,-0.4183 0.4243,-0.7939 0.737,-1.1063 l 0.004,0 0.009,-0.009 c 0.2081,-0.208 0.4346,-0.3855 0.6727,-0.5258 0.2004,-0.1179 0.4195,-0.2171 0.6539,-0.2942"
       id="path72"
       style="fill:#2b2b2a;fill-opacity:1;fill-rule:nonzero;stroke:none" /><path
       d="m 510.0656,183.5374 0,-8.7169 19.6662,-19.6667 -0.002,-0.002 0.6814,-0.6812 0.3155,-0.3152 0,-0.4363 0,-0.966 0,-10.228 c 0.5865,-0.2083 1.1509,-0.47 1.6869,-0.7789 0.476,-0.2744 0.927,-0.5845 1.349,-0.9264 l 0.0463,0.0462 0.7514,-0.7514 c 0.938,-0.938 1.6974,-2.0657 2.2181,-3.3234 0.5003,-1.2081 0.777,-2.5282 0.777,-3.9064 0,-1.3779 -0.2767,-2.698 -0.777,-3.9062 -0.5207,-1.2577 -1.2801,-2.3853 -2.2181,-3.3233 -0.938,-0.938 -2.0656,-1.6974 -3.3233,-2.2181 -1.2081,-0.5003 -2.5282,-0.777 -3.9062,-0.777 -1.3782,0 -2.6983,0.2767 -3.9064,0.777 -1.2577,0.5207 -2.3853,1.2801 -3.3233,2.2181 l -0.773,0.773 0.0493,0.0462 c -0.6106,0.756 -1.116,1.5996 -1.493,2.5073 -0.5012,1.2072 -0.7781,2.5262 -0.7781,3.903 0,1.3759 0.2763,2.6938 0.7767,3.9002 0.5167,1.2461 1.2758,2.3712 2.2181,3.3162 l 0,0.004 0.005,0.005 0.005,0.005 0.004,0 c 0.6321,0.6301 1.3504,1.1809 2.1365,1.6333 0.5354,0.3084 1.099,0.5695 1.6846,0.7772 l 0,8.822 -19.6665,19.6665 0,0.004 -0.6831,0.6834 -0.3116,0.3118 0,0.4357 0,0.9661 0,10.1228 0,1.0629 1.063,0 4.6653,0 1.063,0 0,-1.0629 z m -2.126,-9.1568 0,8.0938 -2.5393,0 0,-9.0598 0,-0.5301 0.3697,-0.3699 0.002,0.002 19.9781,-19.978 0.3115,-0.3115 0,-0.4399 0,-10.0423 0,-0.8161 -0.7932,-0.2095 c -0.6987,-0.1846 -1.3577,-0.4581 -1.9629,-0.8065 -0.616,-0.3543 -1.1858,-0.7928 -1.694,-1.2991 l 0.002,-0.002 -0.005,-0.005 -0.005,-0.005 -0.002,0.002 c -0.7461,-0.749 -1.3479,-1.6422 -1.7592,-2.6334 -0.3934,-0.9485 -0.6105,-1.9911 -0.6105,-3.0861 0,-1.0956 0.2177,-2.1393 0.612,-3.0889 0.4121,-0.9927 1.0162,-1.8876 1.7645,-2.6371 l 0.1692,-0.1695 c 0.713,-0.6724 1.5427,-1.2158 2.452,-1.5922 0.9499,-0.3935 1.9973,-0.6109 3.1008,-0.6109 1.1033,0 2.1507,0.2174 3.1006,0.6109 0.9842,0.4073 1.8754,1.0105 2.626,1.7611 0.7506,0.7507 1.3538,1.6419 1.7612,2.6261 0.3934,0.9498 0.6108,1.9972 0.6108,3.1005 0,1.1035 -0.2174,2.1509 -0.6108,3.1008 -0.3771,0.9111 -0.9219,1.7419 -1.5962,2.4559 l -0.1656,0.1656 c -0.5094,0.5085 -1.0805,0.9485 -1.6977,1.3039 -0.6057,0.3495 -1.2656,0.6234 -1.9652,0.8082 l -0.7931,0.21 0,0.8156 0,11.0083 0,0.5301 -0.368,0.3676 -0.004,0 -19.9778,19.9783 -0.3115,0.3118 0,0.4397 z m 20.4931,-38.2382 -2.204,0 c -0.2341,-0.0771 -0.4532,-0.1766 -0.6534,-0.2946 -0.2386,-0.1403 -0.4648,-0.3177 -0.6726,-0.5255 l -0.009,-0.009 -0.004,0 c -0.3124,-0.312 -0.565,-0.6879 -0.7368,-1.1063 -0.1641,-0.3994 -0.2551,-0.8459 -0.2551,-1.3218 0,-0.4757 0.091,-0.9221 0.2551,-1.3215 0.1432,-0.3481 0.3456,-0.6693 0.5947,-0.951 l 0.1554,-0.1554 c 0.3183,-0.3183 0.6973,-0.5749 1.1157,-0.748 l -6e-4,-0.001 c 0.3991,-0.1647 0.8428,-0.2559 1.313,-0.2559 0.4703,0 0.9136,0.091 1.313,0.2559 l -5e-4,0.001 c 0.4181,0.1731 0.7968,0.4294 1.1154,0.748 0.3186,0.3186 0.5749,0.6973 0.7481,1.1154 l 10e-4,-5e-4 c 0.1647,0.3991 0.256,0.843 0.256,1.313 0,0.472 -0.0916,0.9167 -0.2574,1.317 -0.171,0.4133 -0.4278,0.7908 -0.7481,1.1111 l -0.1874,0.1874 c -0.151,0.1301 -0.3138,0.2466 -0.4853,0.3475 -0.2004,0.118 -0.4195,0.2175 -0.6533,0.2946 z m -2.3599,2.1259 2.5158,0 0.1462,0 0.1443,-0.0413 c 0.447,-0.1282 0.8768,-0.3155 1.2784,-0.5519 0.406,-0.2387 0.7773,-0.5267 1.1041,-0.8538 l 0.3116,-0.3119 0,-0.0325 c 0.3665,-0.4338 0.6698,-0.929 0.8934,-1.4695 0.2727,-0.6588 0.4235,-1.3763 0.4235,-2.1226 0,-0.7461 -0.1508,-1.4638 -0.4235,-2.1223 l 0,-0.004 c -0.2826,-0.682 -0.695,-1.2943 -1.205,-1.8042 -0.5096,-0.5097 -1.1222,-0.9224 -1.8042,-1.205 l -0.004,0 c -0.6587,-0.2727 -1.3762,-0.4235 -2.1223,-0.4235 -0.7463,0 -1.4638,0.1508 -2.1223,0.4235 l -0.004,0 c -0.5372,0.2225 -1.0313,0.5258 -1.4658,0.8935 l -0.0366,0 -0.3115,0.3115 c -0.5054,0.5054 -0.9156,1.1177 -1.1976,1.8037 -0.2713,0.6596 -0.4213,1.379 -0.4213,2.1271 0,0.7483 0.15,1.4678 0.4213,2.1274 0.2797,0.6806 0.6902,1.2923 1.1996,1.8017 l -0.002,0.002 0.009,0.009 c 0.3209,0.3209 0.692,0.6075 1.1041,0.8499 0.402,0.2366 0.8312,0.4237 1.2785,0.5519 l 0.144,0.0413 0.1465,0 z"
       id="path74"
       style="fill:#2b2b2a;fill-opacity:1;fill-rule:nonzero;stroke:none" /><path
       d="m 464.6449,253.1095 42.9214,0 c 1.2951,0 2.5358,-0.2611 3.6711,-0.7325 1.1784,-0.4895 2.2383,-1.2047 3.1229,-2.0894 0.8847,-0.8847 1.5999,-1.9446 2.0895,-3.1229 0.4714,-1.1353 0.7324,-2.376 0.7324,-3.6712 l 0,-42.9213 c 0,-1.2952 -0.261,-2.5359 -0.7324,-3.6712 -0.4896,-1.1784 -1.2048,-2.2382 -2.0895,-3.1229 -0.8846,-0.8847 -1.9445,-1.5999 -3.1229,-2.0894 -1.1353,-0.4714 -2.376,-0.7325 -3.6711,-0.7325 l -42.9214,0 c -1.2951,0 -2.5359,0.2611 -3.6711,0.7325 -1.1787,0.4895 -2.2383,1.2047 -3.123,2.0894 -0.8847,0.8847 -1.5998,1.9445 -2.0894,3.1229 -0.4714,1.1353 -0.7325,2.376 -0.7325,3.6712 l 0,42.9213 c 0,1.2952 0.2611,2.5359 0.7325,3.6712 0.4896,1.1783 1.2047,2.2382 2.0894,3.1229 0.8847,0.8847 1.9443,1.5999 3.123,2.0894 1.1352,0.4714 2.376,0.7325 3.6711,0.7325 z m 42.9214,-2.126 -42.9214,0 c -1.0139,0 -1.9794,-0.2021 -2.857,-0.5664 -0.9142,-0.3798 -1.7405,-0.9388 -2.4341,-1.6324 -0.694,-0.694 -1.2529,-1.5203 -1.6325,-2.4341 -0.3645,-0.8779 -0.5664,-1.8431 -0.5664,-2.8571 l 0,-42.9213 c 0,-1.014 0.2019,-1.9792 0.5664,-2.8571 0.3796,-0.9139 0.9385,-1.7402 1.6325,-2.4341 0.6936,-0.6936 1.5199,-1.2526 2.4341,-1.6325 0.8776,-0.3642 1.8431,-0.5663 2.857,-0.5663 l 42.9214,0 c 1.0139,0 1.9791,0.2018 2.857,0.5663 0.9139,0.3796 1.7402,0.9386 2.4341,1.6325 0.6939,0.6939 1.2529,1.5202 1.6325,2.4341 0.3645,0.8779 0.5664,1.8431 0.5664,2.8571 l 0,42.9213 c 0,1.014 -0.2019,1.9792 -0.5664,2.8571 -0.3796,0.9138 -0.9386,1.7401 -1.6325,2.4341 -0.6939,0.6939 -1.5202,1.2529 -2.4341,1.6324 -0.8779,0.3646 -1.8431,0.5664 -2.857,0.5664 z m 0,-4.6653 -42.9214,0 c -0.3818,0 -0.7446,-0.0759 -1.0732,-0.2128 -0.3424,-0.1426 -0.6548,-0.3549 -0.9193,-0.6194 -0.2644,-0.2645 -0.4767,-0.5769 -0.6193,-0.9193 -0.1369,-0.3288 -0.2129,-0.6914 -0.2129,-1.0732 l 0,-42.9213 c 0,-0.3819 0.076,-0.7444 0.2129,-1.0732 0.1426,-0.3425 0.3549,-0.6548 0.6193,-0.9193 0.2645,-0.2645 0.5769,-0.4768 0.9193,-0.6194 0.3286,-0.1369 0.6914,-0.2129 1.0732,-0.2129 l 42.9214,0 c 0.3818,0 0.7443,0.076 1.0732,0.2129 0.3424,0.1426 0.6548,0.3549 0.9192,0.6194 0.2645,0.2645 0.4768,0.5768 0.6194,0.9193 0.1369,0.3288 0.2129,0.6913 0.2129,1.0732 l 0,42.9213 c 0,0.3818 -0.076,0.7444 -0.2129,1.0732 -0.1426,0.3424 -0.3549,0.6548 -0.6194,0.9193 -0.2644,0.2645 -0.5768,0.4768 -0.9192,0.6194 -0.3289,0.1369 -0.6914,0.2128 -1.0732,0.2128 z m -42.9214,2.126 42.9214,0 c 0.6638,0 1.3019,-0.1352 1.8873,-0.379 0.6074,-0.2531 1.1537,-0.6219 1.6081,-1.0763 0.4544,-0.4544 0.8232,-1.0006 1.0763,-1.6081 0.2438,-0.5853 0.379,-1.2234 0.379,-1.8873 l 0,-42.9213 c 0,-0.6639 -0.1352,-1.302 -0.379,-1.8873 -0.2531,-0.6075 -0.6219,-1.1538 -1.0763,-1.6081 -0.4544,-0.4544 -1.0007,-0.8232 -1.6081,-1.0764 -0.5854,-0.2437 -1.2235,-0.379 -1.8873,-0.379 l -42.9214,0 c -0.6639,0 -1.3019,0.1353 -1.8873,0.379 -0.6075,0.2532 -1.1537,0.622 -1.6081,1.0764 -0.4544,0.4543 -0.8232,1.0006 -1.0763,1.6081 -0.2438,0.5853 -0.379,1.2234 -0.379,1.8873 l 0,42.9213 c 0,0.6639 0.1352,1.302 0.379,1.8873 0.2531,0.6075 0.6219,1.1537 1.0763,1.6081 0.4544,0.4544 1.0006,0.8232 1.6081,1.0763 0.5854,0.2438 1.2234,0.379 1.8873,0.379"
       id="path76"
       style="fill:#2b2b2a;fill-opacity:1;fill-rule:nonzero;stroke:none" /></g></svg>