G04 #@! TF.FileFunction,Legend,Bot*
%FSLAX46Y46*%
G04 Gerber Fmt 4.6, Leading zero omitted, Abs format (unit mm)*
G04 Created by KiCad (PCBNEW (2015-05-03 BZR 5637)-product) date 2015 September 04, Friday 15:24:55*
%MOMM*%
G01*
G04 APERTURE LIST*
%ADD10C,0.100000*%
%ADD11C,0.150000*%
%ADD12R,5.000000X5.000000*%
%ADD13R,4.000000X4.000000*%
%ADD14C,1.651000*%
G04 APERTURE END LIST*
D10*
D11*
X132832000Y-110496000D02*
X163332000Y-110496000D01*
X132832000Y-130296000D02*
X163332000Y-130296000D01*
X148867714Y-117022571D02*
X148724857Y-117070190D01*
X148677238Y-117117810D01*
X148629619Y-117213048D01*
X148629619Y-117355905D01*
X148677238Y-117451143D01*
X148724857Y-117498762D01*
X148820095Y-117546381D01*
X149201048Y-117546381D01*
X149201048Y-116546381D01*
X148867714Y-116546381D01*
X148772476Y-116594000D01*
X148724857Y-116641619D01*
X148677238Y-116736857D01*
X148677238Y-116832095D01*
X148724857Y-116927333D01*
X148772476Y-116974952D01*
X148867714Y-117022571D01*
X149201048Y-117022571D01*
X148343905Y-116546381D02*
X147772476Y-116546381D01*
X148058191Y-117546381D02*
X148058191Y-116546381D01*
X146915333Y-117546381D02*
X147486762Y-117546381D01*
X147201048Y-117546381D02*
X147201048Y-116546381D01*
X147296286Y-116689238D01*
X147391524Y-116784476D01*
X147486762Y-116832095D01*
%LPC*%
D12*
X161032000Y-120396000D03*
D13*
X148082000Y-120396000D03*
D12*
X135132000Y-120396000D03*
D14*
X152654000Y-104648000D03*
X152654000Y-107188000D03*
X143510000Y-104648000D03*
X143510000Y-107188000D03*
M02*
