G04 #@! TF.FileFunction,Copper,L1,Top,Signal*
%FSLAX46Y46*%
G04 Gerber Fmt 4.6, Leading zero omitted, Abs format (unit mm)*
G04 Created by KiCad (PCBNEW (2015-05-03 BZR 5637)-product) date 2015 September 04, Friday 23:20:40*
%MOMM*%
G01*
G04 APERTURE LIST*
%ADD10C,0.100000*%
%ADD11C,1.651000*%
%ADD12R,1.250000X1.500000*%
%ADD13R,1.500000X1.300000*%
%ADD14R,1.500000X3.000000*%
%ADD15R,13.000000X1.540000*%
%ADD16R,10.000000X1.540000*%
%ADD17R,2.000000X2.000000*%
%ADD18C,1.524000*%
%ADD19R,1.524000X1.524000*%
%ADD20C,1.540000*%
%ADD21R,0.800100X0.800100*%
%ADD22C,0.600000*%
%ADD23C,0.250000*%
%ADD24C,0.025400*%
G04 APERTURE END LIST*
D10*
D11*
X152654000Y-104648000D03*
X152654000Y-107188000D03*
X143510000Y-104648000D03*
X143510000Y-107188000D03*
D12*
X132080000Y-103104000D03*
X132080000Y-100604000D03*
X164084000Y-100604000D03*
X164084000Y-103104000D03*
D13*
X149432000Y-105918000D03*
X146732000Y-105918000D03*
X139780000Y-96520000D03*
X137080000Y-96520000D03*
X159338000Y-96520000D03*
X156638000Y-96520000D03*
X139780000Y-107442000D03*
X137080000Y-107442000D03*
X156638000Y-107442000D03*
X159338000Y-107442000D03*
D14*
X136780000Y-101854000D03*
X140080000Y-101854000D03*
X156338000Y-101854000D03*
X159638000Y-101854000D03*
D15*
X149098000Y-120904000D03*
X147320000Y-118110000D03*
D16*
X146812000Y-123698000D03*
D17*
X138811000Y-119380000D03*
D18*
X150153000Y-111653000D03*
D10*
G36*
X150362574Y-110885335D02*
X151794665Y-111406574D01*
X151273426Y-112838665D01*
X149841335Y-112317426D01*
X150362574Y-110885335D01*
X150362574Y-110885335D01*
G37*
G36*
X151094429Y-111117358D02*
X152475642Y-111761429D01*
X151831571Y-113142642D01*
X150450358Y-112498571D01*
X151094429Y-111117358D01*
X151094429Y-111117358D01*
G37*
G36*
X151803089Y-111411089D02*
X153122911Y-112173089D01*
X152360911Y-113492911D01*
X151041089Y-112730911D01*
X151803089Y-111411089D01*
X151803089Y-111411089D01*
G37*
G36*
X152483871Y-111765741D02*
X153732259Y-112639871D01*
X152858129Y-113888259D01*
X151609741Y-113014129D01*
X152483871Y-111765741D01*
X152483871Y-111765741D01*
G37*
G36*
X153130078Y-112178470D02*
X154297530Y-113158078D01*
X153317922Y-114325530D01*
X152150470Y-113345922D01*
X153130078Y-112178470D01*
X153130078Y-112178470D01*
G37*
G36*
X153739000Y-112645369D02*
X154816631Y-113723000D01*
X153739000Y-114800631D01*
X152661369Y-113723000D01*
X153739000Y-112645369D01*
X153739000Y-112645369D01*
G37*
G36*
X154303922Y-113164470D02*
X155283530Y-114331922D01*
X154116078Y-115311530D01*
X153136470Y-114144078D01*
X154303922Y-113164470D01*
X154303922Y-113164470D01*
G37*
G36*
X154822129Y-113729741D02*
X155696259Y-114978129D01*
X154447871Y-115852259D01*
X153573741Y-114603871D01*
X154822129Y-113729741D01*
X154822129Y-113729741D01*
G37*
G36*
X155288911Y-114339089D02*
X156050911Y-115658911D01*
X154731089Y-116420911D01*
X153969089Y-115101089D01*
X155288911Y-114339089D01*
X155288911Y-114339089D01*
G37*
G36*
X155700571Y-114986358D02*
X156344642Y-116367571D01*
X154963429Y-117011642D01*
X154319358Y-115630429D01*
X155700571Y-114986358D01*
X155700571Y-114986358D01*
G37*
G36*
X156055426Y-115667335D02*
X156576665Y-117099426D01*
X155144574Y-117620665D01*
X154623335Y-116188574D01*
X156055426Y-115667335D01*
X156055426Y-115667335D01*
G37*
G36*
X156347815Y-116375744D02*
X156742256Y-117847815D01*
X155270185Y-118242256D01*
X154875744Y-116770185D01*
X156347815Y-116375744D01*
X156347815Y-116375744D01*
G37*
G36*
X156578104Y-117108257D02*
X156842743Y-118609104D01*
X155341896Y-118873743D01*
X155077257Y-117372896D01*
X156578104Y-117108257D01*
X156578104Y-117108257D01*
G37*
G36*
X156744688Y-117857487D02*
X156877513Y-119375688D01*
X155359312Y-119508513D01*
X155226487Y-117990312D01*
X156744688Y-117857487D01*
X156744688Y-117857487D01*
G37*
D19*
X156082000Y-119380000D03*
D10*
G36*
X156877513Y-119384312D02*
X156744688Y-120902513D01*
X155226487Y-120769688D01*
X155359312Y-119251487D01*
X156877513Y-119384312D01*
X156877513Y-119384312D01*
G37*
G36*
X156842743Y-120150896D02*
X156578104Y-121651743D01*
X155077257Y-121387104D01*
X155341896Y-119886257D01*
X156842743Y-120150896D01*
X156842743Y-120150896D01*
G37*
G36*
X156742256Y-120912185D02*
X156347815Y-122384256D01*
X154875744Y-121989815D01*
X155270185Y-120517744D01*
X156742256Y-120912185D01*
X156742256Y-120912185D01*
G37*
G36*
X156576665Y-121660574D02*
X156055426Y-123092665D01*
X154623335Y-122571426D01*
X155144574Y-121139335D01*
X156576665Y-121660574D01*
X156576665Y-121660574D01*
G37*
G36*
X156344642Y-122392429D02*
X155700571Y-123773642D01*
X154319358Y-123129571D01*
X154963429Y-121748358D01*
X156344642Y-122392429D01*
X156344642Y-122392429D01*
G37*
G36*
X156050911Y-123101089D02*
X155288911Y-124420911D01*
X153969089Y-123658911D01*
X154731089Y-122339089D01*
X156050911Y-123101089D01*
X156050911Y-123101089D01*
G37*
G36*
X155696259Y-123781871D02*
X154822129Y-125030259D01*
X153573741Y-124156129D01*
X154447871Y-122907741D01*
X155696259Y-123781871D01*
X155696259Y-123781871D01*
G37*
G36*
X155283530Y-124428078D02*
X154303922Y-125595530D01*
X153136470Y-124615922D01*
X154116078Y-123448470D01*
X155283530Y-124428078D01*
X155283530Y-124428078D01*
G37*
G36*
X154816631Y-125037000D02*
X153739000Y-126114631D01*
X152661369Y-125037000D01*
X153739000Y-123959369D01*
X154816631Y-125037000D01*
X154816631Y-125037000D01*
G37*
G36*
X154297530Y-125601922D02*
X153130078Y-126581530D01*
X152150470Y-125414078D01*
X153317922Y-124434470D01*
X154297530Y-125601922D01*
X154297530Y-125601922D01*
G37*
G36*
X153732259Y-126120129D02*
X152483871Y-126994259D01*
X151609741Y-125745871D01*
X152858129Y-124871741D01*
X153732259Y-126120129D01*
X153732259Y-126120129D01*
G37*
G36*
X153122911Y-126586911D02*
X151803089Y-127348911D01*
X151041089Y-126029089D01*
X152360911Y-125267089D01*
X153122911Y-126586911D01*
X153122911Y-126586911D01*
G37*
G36*
X152475642Y-126998571D02*
X151094429Y-127642642D01*
X150450358Y-126261429D01*
X151831571Y-125617358D01*
X152475642Y-126998571D01*
X152475642Y-126998571D01*
G37*
G36*
X151794665Y-127353426D02*
X150362574Y-127874665D01*
X149841335Y-126442574D01*
X151273426Y-125921335D01*
X151794665Y-127353426D01*
X151794665Y-127353426D01*
G37*
D18*
X150153000Y-127107000D03*
X146693000Y-127258000D03*
D10*
G36*
X146549815Y-128040256D02*
X145077744Y-127645815D01*
X145472185Y-126173744D01*
X146944256Y-126568185D01*
X146549815Y-128040256D01*
X146549815Y-128040256D01*
G37*
G36*
X145801426Y-127874665D02*
X144369335Y-127353426D01*
X144890574Y-125921335D01*
X146322665Y-126442574D01*
X145801426Y-127874665D01*
X145801426Y-127874665D01*
G37*
G36*
X145069571Y-127642642D02*
X143688358Y-126998571D01*
X144332429Y-125617358D01*
X145713642Y-126261429D01*
X145069571Y-127642642D01*
X145069571Y-127642642D01*
G37*
G36*
X144360911Y-127348911D02*
X143041089Y-126586911D01*
X143803089Y-125267089D01*
X145122911Y-126029089D01*
X144360911Y-127348911D01*
X144360911Y-127348911D01*
G37*
G36*
X143680129Y-126994259D02*
X142431741Y-126120129D01*
X143305871Y-124871741D01*
X144554259Y-125745871D01*
X143680129Y-126994259D01*
X143680129Y-126994259D01*
G37*
G36*
X143033922Y-126581530D02*
X141866470Y-125601922D01*
X142846078Y-124434470D01*
X144013530Y-125414078D01*
X143033922Y-126581530D01*
X143033922Y-126581530D01*
G37*
G36*
X142425000Y-126114631D02*
X141347369Y-125037000D01*
X142425000Y-123959369D01*
X143502631Y-125037000D01*
X142425000Y-126114631D01*
X142425000Y-126114631D01*
G37*
G36*
X141860078Y-125595530D02*
X140880470Y-124428078D01*
X142047922Y-123448470D01*
X143027530Y-124615922D01*
X141860078Y-125595530D01*
X141860078Y-125595530D01*
G37*
G36*
X141341871Y-125030259D02*
X140467741Y-123781871D01*
X141716129Y-122907741D01*
X142590259Y-124156129D01*
X141341871Y-125030259D01*
X141341871Y-125030259D01*
G37*
G36*
X140875089Y-124420911D02*
X140113089Y-123101089D01*
X141432911Y-122339089D01*
X142194911Y-123658911D01*
X140875089Y-124420911D01*
X140875089Y-124420911D01*
G37*
G36*
X140463429Y-123773642D02*
X139819358Y-122392429D01*
X141200571Y-121748358D01*
X141844642Y-123129571D01*
X140463429Y-123773642D01*
X140463429Y-123773642D01*
G37*
G36*
X140108574Y-123092665D02*
X139587335Y-121660574D01*
X141019426Y-121139335D01*
X141540665Y-122571426D01*
X140108574Y-123092665D01*
X140108574Y-123092665D01*
G37*
G36*
X139816185Y-122384256D02*
X139421744Y-120912185D01*
X140893815Y-120517744D01*
X141288256Y-121989815D01*
X139816185Y-122384256D01*
X139816185Y-122384256D01*
G37*
G36*
X139585896Y-121651743D02*
X139321257Y-120150896D01*
X140822104Y-119886257D01*
X141086743Y-121387104D01*
X139585896Y-121651743D01*
X139585896Y-121651743D01*
G37*
G36*
X139419312Y-120902513D02*
X139286487Y-119384312D01*
X140804688Y-119251487D01*
X140937513Y-120769688D01*
X139419312Y-120902513D01*
X139419312Y-120902513D01*
G37*
D19*
X140082000Y-119380000D03*
D10*
G36*
X139286487Y-119375688D02*
X139419312Y-117857487D01*
X140937513Y-117990312D01*
X140804688Y-119508513D01*
X139286487Y-119375688D01*
X139286487Y-119375688D01*
G37*
G36*
X139321257Y-118609104D02*
X139585896Y-117108257D01*
X141086743Y-117372896D01*
X140822104Y-118873743D01*
X139321257Y-118609104D01*
X139321257Y-118609104D01*
G37*
G36*
X139421744Y-117847815D02*
X139816185Y-116375744D01*
X141288256Y-116770185D01*
X140893815Y-118242256D01*
X139421744Y-117847815D01*
X139421744Y-117847815D01*
G37*
G36*
X139587335Y-117099426D02*
X140108574Y-115667335D01*
X141540665Y-116188574D01*
X141019426Y-117620665D01*
X139587335Y-117099426D01*
X139587335Y-117099426D01*
G37*
G36*
X139819358Y-116367571D02*
X140463429Y-114986358D01*
X141844642Y-115630429D01*
X141200571Y-117011642D01*
X139819358Y-116367571D01*
X139819358Y-116367571D01*
G37*
G36*
X140113089Y-115658911D02*
X140875089Y-114339089D01*
X142194911Y-115101089D01*
X141432911Y-116420911D01*
X140113089Y-115658911D01*
X140113089Y-115658911D01*
G37*
G36*
X140467741Y-114978129D02*
X141341871Y-113729741D01*
X142590259Y-114603871D01*
X141716129Y-115852259D01*
X140467741Y-114978129D01*
X140467741Y-114978129D01*
G37*
G36*
X140880470Y-114331922D02*
X141860078Y-113164470D01*
X143027530Y-114144078D01*
X142047922Y-115311530D01*
X140880470Y-114331922D01*
X140880470Y-114331922D01*
G37*
G36*
X141347369Y-113723000D02*
X142425000Y-112645369D01*
X143502631Y-113723000D01*
X142425000Y-114800631D01*
X141347369Y-113723000D01*
X141347369Y-113723000D01*
G37*
G36*
X141866470Y-113158078D02*
X143033922Y-112178470D01*
X144013530Y-113345922D01*
X142846078Y-114325530D01*
X141866470Y-113158078D01*
X141866470Y-113158078D01*
G37*
G36*
X142431741Y-112639871D02*
X143680129Y-111765741D01*
X144554259Y-113014129D01*
X143305871Y-113888259D01*
X142431741Y-112639871D01*
X142431741Y-112639871D01*
G37*
G36*
X143041089Y-112173089D02*
X144360911Y-111411089D01*
X145122911Y-112730911D01*
X143803089Y-113492911D01*
X143041089Y-112173089D01*
X143041089Y-112173089D01*
G37*
G36*
X143688358Y-111761429D02*
X145069571Y-111117358D01*
X145713642Y-112498571D01*
X144332429Y-113142642D01*
X143688358Y-111761429D01*
X143688358Y-111761429D01*
G37*
G36*
X144369335Y-111406574D02*
X145801426Y-110885335D01*
X146322665Y-112317426D01*
X144890574Y-112838665D01*
X144369335Y-111406574D01*
X144369335Y-111406574D01*
G37*
D18*
X146011000Y-111653000D03*
D17*
X157353000Y-119380000D03*
D16*
X149982000Y-115080000D03*
D20*
X144780000Y-115062000D03*
X142494000Y-120904000D03*
X151892000Y-123698000D03*
X153924000Y-118110000D03*
D21*
X131892000Y-124444760D03*
X133792000Y-124444760D03*
X132842000Y-122445780D03*
X133792000Y-112791240D03*
X131892000Y-112791240D03*
X132842000Y-114790220D03*
X164272000Y-112791240D03*
X162372000Y-112791240D03*
X163322000Y-114790220D03*
X162372000Y-124444760D03*
X164272000Y-124444760D03*
X163322000Y-122445780D03*
D22*
X162306000Y-126492000D03*
X156464000Y-98298000D03*
X163068000Y-105156000D03*
X134620000Y-107442000D03*
X162306000Y-111252000D03*
X130048000Y-115570000D03*
X131826000Y-110744000D03*
X161036000Y-116332000D03*
X135382000Y-116332000D03*
D23*
X156638000Y-96520000D02*
X156638000Y-98124000D01*
X162372000Y-126426000D02*
X162372000Y-124444760D01*
X162306000Y-126492000D02*
X162372000Y-126426000D01*
X156638000Y-98124000D02*
X156464000Y-98298000D01*
X132080000Y-103104000D02*
X132080000Y-104902000D01*
X144780000Y-96520000D02*
X156638000Y-96520000D01*
X143256000Y-98044000D02*
X144780000Y-96520000D01*
X143256000Y-102616000D02*
X143256000Y-98044000D01*
X140462000Y-105410000D02*
X143256000Y-102616000D01*
X132588000Y-105410000D02*
X140462000Y-105410000D01*
X132080000Y-104902000D02*
X132588000Y-105410000D01*
X137080000Y-96520000D02*
X137080000Y-94568000D01*
X166387780Y-114790220D02*
X163322000Y-114790220D01*
X166878000Y-114300000D02*
X166387780Y-114790220D01*
X166878000Y-95250000D02*
X166878000Y-114300000D01*
X165862000Y-94234000D02*
X166878000Y-95250000D01*
X137414000Y-94234000D02*
X165862000Y-94234000D01*
X137080000Y-94568000D02*
X137414000Y-94234000D01*
X134874000Y-96520000D02*
X137080000Y-96520000D01*
X132080000Y-99314000D02*
X134874000Y-96520000D01*
X132080000Y-100604000D02*
X132080000Y-99314000D01*
X164084000Y-100604000D02*
X162540000Y-100604000D01*
X161290000Y-107442000D02*
X159338000Y-107442000D01*
X161798000Y-106934000D02*
X161290000Y-107442000D01*
X161798000Y-101346000D02*
X161798000Y-106934000D01*
X162540000Y-100604000D02*
X161798000Y-101346000D01*
X161053780Y-122445780D02*
X159338000Y-120730000D01*
X159338000Y-120730000D02*
X159338000Y-107442000D01*
X163322000Y-122445780D02*
X161053780Y-122445780D01*
X137080000Y-107442000D02*
X134620000Y-107442000D01*
X164084000Y-104140000D02*
X164084000Y-103104000D01*
X163068000Y-105156000D02*
X164084000Y-104140000D01*
X164084000Y-103104000D02*
X164084000Y-112603240D01*
X164084000Y-112603240D02*
X164272000Y-112791240D01*
X139780000Y-96520000D02*
X139780000Y-98726000D01*
X136780000Y-99948000D02*
X136780000Y-101854000D01*
X137668000Y-99060000D02*
X136780000Y-99948000D01*
X139446000Y-99060000D02*
X137668000Y-99060000D01*
X139780000Y-98726000D02*
X139446000Y-99060000D01*
X156338000Y-101854000D02*
X156338000Y-107142000D01*
X156338000Y-107142000D02*
X156638000Y-107442000D01*
X132842000Y-114790220D02*
X130827780Y-114790220D01*
X162372000Y-111318000D02*
X162372000Y-112791240D01*
X162306000Y-111252000D02*
X162372000Y-111318000D01*
X130827780Y-114790220D02*
X130048000Y-115570000D01*
X132842000Y-122445780D02*
X132842000Y-114790220D01*
X161020760Y-112791240D02*
X160274000Y-113538000D01*
X162372000Y-112791240D02*
X161020760Y-112791240D01*
X164272000Y-117790000D02*
X164272000Y-124444760D01*
X163830000Y-117348000D02*
X164272000Y-117790000D01*
X160528000Y-117348000D02*
X163830000Y-117348000D01*
X160274000Y-117094000D02*
X160528000Y-117348000D01*
X160274000Y-115824000D02*
X160274000Y-117094000D01*
X160274000Y-113538000D02*
X160274000Y-115824000D01*
X146732000Y-108284000D02*
X146050000Y-108966000D01*
X146050000Y-108966000D02*
X129794000Y-108966000D01*
X129794000Y-108966000D02*
X129032000Y-109728000D01*
X129032000Y-109728000D02*
X129032000Y-123952000D01*
X129032000Y-123952000D02*
X129524760Y-124444760D01*
X129524760Y-124444760D02*
X131892000Y-124444760D01*
X146732000Y-105918000D02*
X146732000Y-108284000D01*
X133792000Y-112791240D02*
X133792000Y-124444760D01*
X131892000Y-110810000D02*
X131826000Y-110744000D01*
X131892000Y-112791240D02*
X131892000Y-110810000D01*
X149432000Y-105918000D02*
X149432000Y-110932000D01*
X149432000Y-110932000D02*
X150153000Y-111653000D01*
D24*
G36*
X144950572Y-112174695D02*
X144941238Y-112172194D01*
X144770425Y-112270812D01*
X144579349Y-112340359D01*
X144555038Y-112392492D01*
X144555842Y-112394702D01*
X144468955Y-112444867D01*
X144382505Y-112485179D01*
X144381231Y-112483360D01*
X144324582Y-112473371D01*
X144158618Y-112589579D01*
X143978958Y-112673357D01*
X143959284Y-112727411D01*
X143959897Y-112728725D01*
X143878129Y-112785980D01*
X143795906Y-112833451D01*
X143794901Y-112832253D01*
X143737597Y-112827240D01*
X143585249Y-112955074D01*
X143410062Y-113056219D01*
X143395174Y-113111782D01*
X143396256Y-113113657D01*
X143326175Y-113172462D01*
X143241486Y-113231763D01*
X143240064Y-113230341D01*
X143182541Y-113230341D01*
X143040123Y-113372758D01*
X142876280Y-113487483D01*
X142866291Y-113544132D01*
X142867303Y-113545578D01*
X142793197Y-113619684D01*
X142724448Y-113677372D01*
X142723025Y-113676178D01*
X142665720Y-113681192D01*
X142536814Y-113834814D01*
X142383192Y-113963720D01*
X142378178Y-114021025D01*
X142379372Y-114022448D01*
X142321684Y-114091197D01*
X142247578Y-114165303D01*
X142246132Y-114164291D01*
X142189483Y-114174280D01*
X142074758Y-114338123D01*
X141932341Y-114480541D01*
X141932341Y-114538064D01*
X141933763Y-114539486D01*
X141874462Y-114624175D01*
X141815657Y-114694256D01*
X141813782Y-114693174D01*
X141758219Y-114708062D01*
X141657074Y-114883249D01*
X141529240Y-115035597D01*
X141534253Y-115092901D01*
X141535451Y-115093906D01*
X141487980Y-115176129D01*
X141430725Y-115257897D01*
X141429411Y-115257284D01*
X141375357Y-115276958D01*
X141291579Y-115456618D01*
X141175371Y-115622582D01*
X141185360Y-115679231D01*
X141187179Y-115680505D01*
X141146867Y-115766955D01*
X141096702Y-115853842D01*
X141094492Y-115853038D01*
X141042359Y-115877349D01*
X140972812Y-116068425D01*
X140874194Y-116239238D01*
X140889082Y-116294801D01*
X140890186Y-116295438D01*
X140853752Y-116395541D01*
X140816537Y-116475348D01*
X140814537Y-116474813D01*
X140764720Y-116503574D01*
X140712503Y-116698450D01*
X140628146Y-116879355D01*
X140647820Y-116933409D01*
X140649354Y-116934124D01*
X140626001Y-117021280D01*
X140590033Y-117120103D01*
X140589084Y-117119936D01*
X140541964Y-117152930D01*
X140508021Y-117345428D01*
X140437650Y-117538772D01*
X140461960Y-117590906D01*
X140464569Y-117591855D01*
X140448121Y-117685136D01*
X140422192Y-117781906D01*
X140419700Y-117781688D01*
X140375635Y-117818663D01*
X140357838Y-118022075D01*
X140307115Y-118211379D01*
X140335877Y-118261196D01*
X140336894Y-118261468D01*
X140327437Y-118369567D01*
X140312320Y-118455300D01*
X140309975Y-118455300D01*
X140269300Y-118495975D01*
X140269300Y-118699282D01*
X140234945Y-118894119D01*
X140267939Y-118941239D01*
X140269300Y-118941478D01*
X140269300Y-119034078D01*
X140260401Y-119135783D01*
X140258515Y-119135949D01*
X140221539Y-119180015D01*
X140239035Y-119379999D01*
X140221539Y-119579985D01*
X140258515Y-119624051D01*
X140260401Y-119624216D01*
X140269300Y-119725921D01*
X140269300Y-119818521D01*
X140267939Y-119818761D01*
X140234945Y-119865881D01*
X140269300Y-120060717D01*
X140269300Y-120264025D01*
X140309975Y-120304700D01*
X140312320Y-120304700D01*
X140327437Y-120390432D01*
X140336894Y-120498531D01*
X140335877Y-120498804D01*
X140307115Y-120548621D01*
X140357838Y-120737924D01*
X140375635Y-120941337D01*
X140419700Y-120978312D01*
X140422192Y-120978093D01*
X140448121Y-121074863D01*
X140464569Y-121168144D01*
X140461960Y-121169094D01*
X140437650Y-121221228D01*
X140508021Y-121414571D01*
X140541964Y-121607070D01*
X140589084Y-121640064D01*
X140590033Y-121639896D01*
X140626001Y-121738719D01*
X140649354Y-121825875D01*
X140647820Y-121826591D01*
X140628146Y-121880645D01*
X140712503Y-122061549D01*
X140764720Y-122256426D01*
X140814537Y-122285187D01*
X140816537Y-122284651D01*
X140853752Y-122364458D01*
X140890186Y-122464561D01*
X140889082Y-122465199D01*
X140874194Y-122520762D01*
X140972812Y-122691574D01*
X141042359Y-122882651D01*
X141094492Y-122906962D01*
X141096702Y-122906157D01*
X141146867Y-122993044D01*
X141187179Y-123079494D01*
X141185360Y-123080769D01*
X141175371Y-123137418D01*
X141291579Y-123303381D01*
X141375357Y-123483042D01*
X141429411Y-123502716D01*
X141430725Y-123502102D01*
X141487980Y-123583870D01*
X141535451Y-123666093D01*
X141534253Y-123667099D01*
X141529240Y-123724403D01*
X141649300Y-123867485D01*
X141649300Y-123885302D01*
X141662011Y-123885302D01*
X141672246Y-123903028D01*
X141649300Y-123925975D01*
X141649300Y-124435637D01*
X141649300Y-124450259D01*
X141576989Y-124364082D01*
X141483004Y-124229858D01*
X141471260Y-124238080D01*
X141429488Y-124188298D01*
X141286478Y-123984059D01*
X141256097Y-123931437D01*
X141268142Y-123923004D01*
X141171740Y-123785328D01*
X141085443Y-123635857D01*
X141072366Y-123643406D01*
X141040121Y-123597356D01*
X140911255Y-123374154D01*
X140885434Y-123318780D01*
X140898143Y-123311443D01*
X140814278Y-123166184D01*
X140741405Y-123009908D01*
X140727732Y-123016283D01*
X140699543Y-122967458D01*
X140585819Y-122723578D01*
X140568878Y-122677032D01*
X140583092Y-122670405D01*
X140507336Y-122507947D01*
X140452056Y-122356065D01*
X140438767Y-122360901D01*
X140410360Y-122299982D01*
X140327788Y-122073117D01*
X140310585Y-122008914D01*
X140323935Y-122004056D01*
X140268399Y-121851473D01*
X140222559Y-121680395D01*
X140207591Y-121684405D01*
X140189915Y-121635842D01*
X140121898Y-121382000D01*
X140111384Y-121322369D01*
X140125605Y-121318559D01*
X140082052Y-121156018D01*
X140052070Y-120985979D01*
X140037193Y-120988602D01*
X140022660Y-120934365D01*
X139975686Y-120667962D01*
X139971474Y-120619811D01*
X139987021Y-120617070D01*
X139957725Y-120450927D01*
X139973700Y-120412363D01*
X139973700Y-120347637D01*
X139973700Y-119607975D01*
X139933025Y-119567300D01*
X139894700Y-119567300D01*
X139879391Y-119567300D01*
X139874700Y-119513682D01*
X139874700Y-119246316D01*
X139879391Y-119192700D01*
X139894700Y-119192700D01*
X139933025Y-119192700D01*
X139973700Y-119152025D01*
X139973700Y-118412363D01*
X139973700Y-118347637D01*
X139957725Y-118309072D01*
X139987021Y-118142930D01*
X139971474Y-118140188D01*
X139975686Y-118092038D01*
X140022661Y-117825631D01*
X140037193Y-117771397D01*
X140052070Y-117774021D01*
X140082052Y-117603981D01*
X140125605Y-117441441D01*
X140111384Y-117437630D01*
X140121898Y-117378001D01*
X140189916Y-117124153D01*
X140207591Y-117075594D01*
X140222559Y-117079605D01*
X140268399Y-116908526D01*
X140323935Y-116755944D01*
X140310585Y-116751085D01*
X140327787Y-116686885D01*
X140410362Y-116460012D01*
X140438767Y-116399098D01*
X140452056Y-116403935D01*
X140507336Y-116252052D01*
X140583092Y-116089595D01*
X140568878Y-116082967D01*
X140585817Y-116036424D01*
X140699545Y-115792536D01*
X140727732Y-115743716D01*
X140741405Y-115750092D01*
X140814278Y-115593815D01*
X140898143Y-115448557D01*
X140885434Y-115441219D01*
X140911253Y-115385849D01*
X141040125Y-115162637D01*
X141072366Y-115116593D01*
X141085443Y-115124143D01*
X141171740Y-114974671D01*
X141268142Y-114836996D01*
X141256097Y-114828562D01*
X141286475Y-114775944D01*
X141429492Y-114571695D01*
X141471260Y-114521919D01*
X141483004Y-114530142D01*
X141576989Y-114395917D01*
X141690126Y-114261086D01*
X141678329Y-114251187D01*
X141708601Y-114207952D01*
X141882975Y-114000141D01*
X141918994Y-113964123D01*
X141930914Y-113974126D01*
X142045236Y-113837881D01*
X142160118Y-113723000D01*
X142150067Y-113712949D01*
X142192737Y-113662095D01*
X142364095Y-113490737D01*
X142414949Y-113448067D01*
X142425000Y-113458118D01*
X142539881Y-113343236D01*
X142676126Y-113228914D01*
X142666123Y-113216994D01*
X142702141Y-113180975D01*
X142909952Y-113006601D01*
X142953187Y-112976329D01*
X142963086Y-112988126D01*
X143097917Y-112874989D01*
X143232142Y-112781004D01*
X143223919Y-112769260D01*
X143273695Y-112727492D01*
X143477944Y-112584475D01*
X143530562Y-112554097D01*
X143538996Y-112566142D01*
X143676671Y-112469740D01*
X143826143Y-112383443D01*
X143818593Y-112370366D01*
X143864637Y-112338125D01*
X144087849Y-112209253D01*
X144143219Y-112183434D01*
X144150557Y-112196143D01*
X144295815Y-112112278D01*
X144452092Y-112039405D01*
X144445716Y-112025732D01*
X144494536Y-111997545D01*
X144738424Y-111883817D01*
X144784967Y-111866878D01*
X144791595Y-111881092D01*
X144809720Y-111872639D01*
X144950572Y-112174695D01*
X144950572Y-112174695D01*
G37*
X144950572Y-112174695D02*
X144941238Y-112172194D01*
X144770425Y-112270812D01*
X144579349Y-112340359D01*
X144555038Y-112392492D01*
X144555842Y-112394702D01*
X144468955Y-112444867D01*
X144382505Y-112485179D01*
X144381231Y-112483360D01*
X144324582Y-112473371D01*
X144158618Y-112589579D01*
X143978958Y-112673357D01*
X143959284Y-112727411D01*
X143959897Y-112728725D01*
X143878129Y-112785980D01*
X143795906Y-112833451D01*
X143794901Y-112832253D01*
X143737597Y-112827240D01*
X143585249Y-112955074D01*
X143410062Y-113056219D01*
X143395174Y-113111782D01*
X143396256Y-113113657D01*
X143326175Y-113172462D01*
X143241486Y-113231763D01*
X143240064Y-113230341D01*
X143182541Y-113230341D01*
X143040123Y-113372758D01*
X142876280Y-113487483D01*
X142866291Y-113544132D01*
X142867303Y-113545578D01*
X142793197Y-113619684D01*
X142724448Y-113677372D01*
X142723025Y-113676178D01*
X142665720Y-113681192D01*
X142536814Y-113834814D01*
X142383192Y-113963720D01*
X142378178Y-114021025D01*
X142379372Y-114022448D01*
X142321684Y-114091197D01*
X142247578Y-114165303D01*
X142246132Y-114164291D01*
X142189483Y-114174280D01*
X142074758Y-114338123D01*
X141932341Y-114480541D01*
X141932341Y-114538064D01*
X141933763Y-114539486D01*
X141874462Y-114624175D01*
X141815657Y-114694256D01*
X141813782Y-114693174D01*
X141758219Y-114708062D01*
X141657074Y-114883249D01*
X141529240Y-115035597D01*
X141534253Y-115092901D01*
X141535451Y-115093906D01*
X141487980Y-115176129D01*
X141430725Y-115257897D01*
X141429411Y-115257284D01*
X141375357Y-115276958D01*
X141291579Y-115456618D01*
X141175371Y-115622582D01*
X141185360Y-115679231D01*
X141187179Y-115680505D01*
X141146867Y-115766955D01*
X141096702Y-115853842D01*
X141094492Y-115853038D01*
X141042359Y-115877349D01*
X140972812Y-116068425D01*
X140874194Y-116239238D01*
X140889082Y-116294801D01*
X140890186Y-116295438D01*
X140853752Y-116395541D01*
X140816537Y-116475348D01*
X140814537Y-116474813D01*
X140764720Y-116503574D01*
X140712503Y-116698450D01*
X140628146Y-116879355D01*
X140647820Y-116933409D01*
X140649354Y-116934124D01*
X140626001Y-117021280D01*
X140590033Y-117120103D01*
X140589084Y-117119936D01*
X140541964Y-117152930D01*
X140508021Y-117345428D01*
X140437650Y-117538772D01*
X140461960Y-117590906D01*
X140464569Y-117591855D01*
X140448121Y-117685136D01*
X140422192Y-117781906D01*
X140419700Y-117781688D01*
X140375635Y-117818663D01*
X140357838Y-118022075D01*
X140307115Y-118211379D01*
X140335877Y-118261196D01*
X140336894Y-118261468D01*
X140327437Y-118369567D01*
X140312320Y-118455300D01*
X140309975Y-118455300D01*
X140269300Y-118495975D01*
X140269300Y-118699282D01*
X140234945Y-118894119D01*
X140267939Y-118941239D01*
X140269300Y-118941478D01*
X140269300Y-119034078D01*
X140260401Y-119135783D01*
X140258515Y-119135949D01*
X140221539Y-119180015D01*
X140239035Y-119379999D01*
X140221539Y-119579985D01*
X140258515Y-119624051D01*
X140260401Y-119624216D01*
X140269300Y-119725921D01*
X140269300Y-119818521D01*
X140267939Y-119818761D01*
X140234945Y-119865881D01*
X140269300Y-120060717D01*
X140269300Y-120264025D01*
X140309975Y-120304700D01*
X140312320Y-120304700D01*
X140327437Y-120390432D01*
X140336894Y-120498531D01*
X140335877Y-120498804D01*
X140307115Y-120548621D01*
X140357838Y-120737924D01*
X140375635Y-120941337D01*
X140419700Y-120978312D01*
X140422192Y-120978093D01*
X140448121Y-121074863D01*
X140464569Y-121168144D01*
X140461960Y-121169094D01*
X140437650Y-121221228D01*
X140508021Y-121414571D01*
X140541964Y-121607070D01*
X140589084Y-121640064D01*
X140590033Y-121639896D01*
X140626001Y-121738719D01*
X140649354Y-121825875D01*
X140647820Y-121826591D01*
X140628146Y-121880645D01*
X140712503Y-122061549D01*
X140764720Y-122256426D01*
X140814537Y-122285187D01*
X140816537Y-122284651D01*
X140853752Y-122364458D01*
X140890186Y-122464561D01*
X140889082Y-122465199D01*
X140874194Y-122520762D01*
X140972812Y-122691574D01*
X141042359Y-122882651D01*
X141094492Y-122906962D01*
X141096702Y-122906157D01*
X141146867Y-122993044D01*
X141187179Y-123079494D01*
X141185360Y-123080769D01*
X141175371Y-123137418D01*
X141291579Y-123303381D01*
X141375357Y-123483042D01*
X141429411Y-123502716D01*
X141430725Y-123502102D01*
X141487980Y-123583870D01*
X141535451Y-123666093D01*
X141534253Y-123667099D01*
X141529240Y-123724403D01*
X141649300Y-123867485D01*
X141649300Y-123885302D01*
X141662011Y-123885302D01*
X141672246Y-123903028D01*
X141649300Y-123925975D01*
X141649300Y-124435637D01*
X141649300Y-124450259D01*
X141576989Y-124364082D01*
X141483004Y-124229858D01*
X141471260Y-124238080D01*
X141429488Y-124188298D01*
X141286478Y-123984059D01*
X141256097Y-123931437D01*
X141268142Y-123923004D01*
X141171740Y-123785328D01*
X141085443Y-123635857D01*
X141072366Y-123643406D01*
X141040121Y-123597356D01*
X140911255Y-123374154D01*
X140885434Y-123318780D01*
X140898143Y-123311443D01*
X140814278Y-123166184D01*
X140741405Y-123009908D01*
X140727732Y-123016283D01*
X140699543Y-122967458D01*
X140585819Y-122723578D01*
X140568878Y-122677032D01*
X140583092Y-122670405D01*
X140507336Y-122507947D01*
X140452056Y-122356065D01*
X140438767Y-122360901D01*
X140410360Y-122299982D01*
X140327788Y-122073117D01*
X140310585Y-122008914D01*
X140323935Y-122004056D01*
X140268399Y-121851473D01*
X140222559Y-121680395D01*
X140207591Y-121684405D01*
X140189915Y-121635842D01*
X140121898Y-121382000D01*
X140111384Y-121322369D01*
X140125605Y-121318559D01*
X140082052Y-121156018D01*
X140052070Y-120985979D01*
X140037193Y-120988602D01*
X140022660Y-120934365D01*
X139975686Y-120667962D01*
X139971474Y-120619811D01*
X139987021Y-120617070D01*
X139957725Y-120450927D01*
X139973700Y-120412363D01*
X139973700Y-120347637D01*
X139973700Y-119607975D01*
X139933025Y-119567300D01*
X139894700Y-119567300D01*
X139879391Y-119567300D01*
X139874700Y-119513682D01*
X139874700Y-119246316D01*
X139879391Y-119192700D01*
X139894700Y-119192700D01*
X139933025Y-119192700D01*
X139973700Y-119152025D01*
X139973700Y-118412363D01*
X139973700Y-118347637D01*
X139957725Y-118309072D01*
X139987021Y-118142930D01*
X139971474Y-118140188D01*
X139975686Y-118092038D01*
X140022661Y-117825631D01*
X140037193Y-117771397D01*
X140052070Y-117774021D01*
X140082052Y-117603981D01*
X140125605Y-117441441D01*
X140111384Y-117437630D01*
X140121898Y-117378001D01*
X140189916Y-117124153D01*
X140207591Y-117075594D01*
X140222559Y-117079605D01*
X140268399Y-116908526D01*
X140323935Y-116755944D01*
X140310585Y-116751085D01*
X140327787Y-116686885D01*
X140410362Y-116460012D01*
X140438767Y-116399098D01*
X140452056Y-116403935D01*
X140507336Y-116252052D01*
X140583092Y-116089595D01*
X140568878Y-116082967D01*
X140585817Y-116036424D01*
X140699545Y-115792536D01*
X140727732Y-115743716D01*
X140741405Y-115750092D01*
X140814278Y-115593815D01*
X140898143Y-115448557D01*
X140885434Y-115441219D01*
X140911253Y-115385849D01*
X141040125Y-115162637D01*
X141072366Y-115116593D01*
X141085443Y-115124143D01*
X141171740Y-114974671D01*
X141268142Y-114836996D01*
X141256097Y-114828562D01*
X141286475Y-114775944D01*
X141429492Y-114571695D01*
X141471260Y-114521919D01*
X141483004Y-114530142D01*
X141576989Y-114395917D01*
X141690126Y-114261086D01*
X141678329Y-114251187D01*
X141708601Y-114207952D01*
X141882975Y-114000141D01*
X141918994Y-113964123D01*
X141930914Y-113974126D01*
X142045236Y-113837881D01*
X142160118Y-113723000D01*
X142150067Y-113712949D01*
X142192737Y-113662095D01*
X142364095Y-113490737D01*
X142414949Y-113448067D01*
X142425000Y-113458118D01*
X142539881Y-113343236D01*
X142676126Y-113228914D01*
X142666123Y-113216994D01*
X142702141Y-113180975D01*
X142909952Y-113006601D01*
X142953187Y-112976329D01*
X142963086Y-112988126D01*
X143097917Y-112874989D01*
X143232142Y-112781004D01*
X143223919Y-112769260D01*
X143273695Y-112727492D01*
X143477944Y-112584475D01*
X143530562Y-112554097D01*
X143538996Y-112566142D01*
X143676671Y-112469740D01*
X143826143Y-112383443D01*
X143818593Y-112370366D01*
X143864637Y-112338125D01*
X144087849Y-112209253D01*
X144143219Y-112183434D01*
X144150557Y-112196143D01*
X144295815Y-112112278D01*
X144452092Y-112039405D01*
X144445716Y-112025732D01*
X144494536Y-111997545D01*
X144738424Y-111883817D01*
X144784967Y-111866878D01*
X144791595Y-111881092D01*
X144809720Y-111872639D01*
X144950572Y-112174695D01*
G36*
X145591263Y-126830247D02*
X145476737Y-127144905D01*
X145457944Y-127138065D01*
X145453085Y-127151414D01*
X145388875Y-127134208D01*
X145162022Y-127051641D01*
X145101098Y-127023232D01*
X145105935Y-127009944D01*
X144954052Y-126954663D01*
X144791595Y-126878908D01*
X144784967Y-126893121D01*
X144738415Y-126876177D01*
X144494545Y-126762458D01*
X144445716Y-126734267D01*
X144452092Y-126720595D01*
X144295815Y-126647721D01*
X144150557Y-126563857D01*
X144143219Y-126576565D01*
X144087840Y-126550741D01*
X143864645Y-126421879D01*
X143818593Y-126389633D01*
X143826143Y-126376557D01*
X143676671Y-126290259D01*
X143538996Y-126193858D01*
X143530562Y-126205902D01*
X143477936Y-126175519D01*
X143273702Y-126032512D01*
X143223919Y-125990739D01*
X143232142Y-125978996D01*
X143097917Y-125885010D01*
X142963086Y-125771874D01*
X142953187Y-125783670D01*
X142909945Y-125753392D01*
X142702148Y-125579030D01*
X142666123Y-125543005D01*
X142676126Y-125531086D01*
X142539881Y-125416763D01*
X142425000Y-125301882D01*
X142414949Y-125311932D01*
X142364088Y-125269255D01*
X142192743Y-125097910D01*
X142150067Y-125047050D01*
X142160118Y-125037000D01*
X142145975Y-125022857D01*
X142382336Y-124786496D01*
X142383192Y-124796280D01*
X142536814Y-124925185D01*
X142665720Y-125078808D01*
X142723025Y-125083822D01*
X142724448Y-125082627D01*
X142793197Y-125140315D01*
X142867303Y-125214421D01*
X142866291Y-125215868D01*
X142876280Y-125272517D01*
X143040123Y-125387241D01*
X143182541Y-125529659D01*
X143240064Y-125529659D01*
X143241486Y-125528236D01*
X143326175Y-125587537D01*
X143396256Y-125646342D01*
X143395174Y-125648218D01*
X143410062Y-125703781D01*
X143585249Y-125804925D01*
X143737597Y-125932760D01*
X143794901Y-125927747D01*
X143795906Y-125926548D01*
X143878129Y-125974019D01*
X143959897Y-126031274D01*
X143959284Y-126032589D01*
X143978958Y-126086643D01*
X144158618Y-126170420D01*
X144324582Y-126286629D01*
X144381231Y-126276640D01*
X144382505Y-126274820D01*
X144468955Y-126315132D01*
X144555842Y-126365297D01*
X144555038Y-126367508D01*
X144579349Y-126419641D01*
X144770425Y-126489187D01*
X144941238Y-126587806D01*
X144996801Y-126572918D01*
X144997438Y-126571813D01*
X145097541Y-126608247D01*
X145177348Y-126645462D01*
X145176813Y-126647463D01*
X145205574Y-126697280D01*
X145400450Y-126749496D01*
X145581355Y-126833854D01*
X145591263Y-126830247D01*
X145591263Y-126830247D01*
G37*
X145591263Y-126830247D02*
X145476737Y-127144905D01*
X145457944Y-127138065D01*
X145453085Y-127151414D01*
X145388875Y-127134208D01*
X145162022Y-127051641D01*
X145101098Y-127023232D01*
X145105935Y-127009944D01*
X144954052Y-126954663D01*
X144791595Y-126878908D01*
X144784967Y-126893121D01*
X144738415Y-126876177D01*
X144494545Y-126762458D01*
X144445716Y-126734267D01*
X144452092Y-126720595D01*
X144295815Y-126647721D01*
X144150557Y-126563857D01*
X144143219Y-126576565D01*
X144087840Y-126550741D01*
X143864645Y-126421879D01*
X143818593Y-126389633D01*
X143826143Y-126376557D01*
X143676671Y-126290259D01*
X143538996Y-126193858D01*
X143530562Y-126205902D01*
X143477936Y-126175519D01*
X143273702Y-126032512D01*
X143223919Y-125990739D01*
X143232142Y-125978996D01*
X143097917Y-125885010D01*
X142963086Y-125771874D01*
X142953187Y-125783670D01*
X142909945Y-125753392D01*
X142702148Y-125579030D01*
X142666123Y-125543005D01*
X142676126Y-125531086D01*
X142539881Y-125416763D01*
X142425000Y-125301882D01*
X142414949Y-125311932D01*
X142364088Y-125269255D01*
X142192743Y-125097910D01*
X142150067Y-125047050D01*
X142160118Y-125037000D01*
X142145975Y-125022857D01*
X142382336Y-124786496D01*
X142383192Y-124796280D01*
X142536814Y-124925185D01*
X142665720Y-125078808D01*
X142723025Y-125083822D01*
X142724448Y-125082627D01*
X142793197Y-125140315D01*
X142867303Y-125214421D01*
X142866291Y-125215868D01*
X142876280Y-125272517D01*
X143040123Y-125387241D01*
X143182541Y-125529659D01*
X143240064Y-125529659D01*
X143241486Y-125528236D01*
X143326175Y-125587537D01*
X143396256Y-125646342D01*
X143395174Y-125648218D01*
X143410062Y-125703781D01*
X143585249Y-125804925D01*
X143737597Y-125932760D01*
X143794901Y-125927747D01*
X143795906Y-125926548D01*
X143878129Y-125974019D01*
X143959897Y-126031274D01*
X143959284Y-126032589D01*
X143978958Y-126086643D01*
X144158618Y-126170420D01*
X144324582Y-126286629D01*
X144381231Y-126276640D01*
X144382505Y-126274820D01*
X144468955Y-126315132D01*
X144555842Y-126365297D01*
X144555038Y-126367508D01*
X144579349Y-126419641D01*
X144770425Y-126489187D01*
X144941238Y-126587806D01*
X144996801Y-126572918D01*
X144997438Y-126571813D01*
X145097541Y-126608247D01*
X145177348Y-126645462D01*
X145176813Y-126647463D01*
X145205574Y-126697280D01*
X145400450Y-126749496D01*
X145581355Y-126833854D01*
X145591263Y-126830247D01*
G36*
X168110700Y-126475818D02*
X167733541Y-128371924D01*
X167215700Y-129146927D01*
X167215700Y-114300000D01*
X167215700Y-95250000D01*
X167189994Y-95120768D01*
X167116790Y-95011210D01*
X166100790Y-93995210D01*
X165991232Y-93922006D01*
X165862000Y-93896300D01*
X137414000Y-93896300D01*
X137284768Y-93922006D01*
X137175210Y-93995210D01*
X136841210Y-94329210D01*
X136768006Y-94438768D01*
X136742300Y-94568000D01*
X136742300Y-95653133D01*
X136330000Y-95653133D01*
X136248898Y-95668869D01*
X136177617Y-95715693D01*
X136129902Y-95786380D01*
X136113133Y-95870000D01*
X136113133Y-96182300D01*
X134874000Y-96182300D01*
X134744768Y-96208006D01*
X134635210Y-96281210D01*
X131841210Y-99075210D01*
X131768006Y-99184768D01*
X131742300Y-99314000D01*
X131742300Y-99637133D01*
X131455000Y-99637133D01*
X131373898Y-99652869D01*
X131302617Y-99699693D01*
X131254902Y-99770380D01*
X131238133Y-99854000D01*
X131238133Y-101354000D01*
X131253869Y-101435102D01*
X131300693Y-101506383D01*
X131371380Y-101554098D01*
X131455000Y-101570867D01*
X132705000Y-101570867D01*
X132786102Y-101555131D01*
X132857383Y-101508307D01*
X132905098Y-101437620D01*
X132921867Y-101354000D01*
X132921867Y-99854000D01*
X132906131Y-99772898D01*
X132859307Y-99701617D01*
X132788620Y-99653902D01*
X132705000Y-99637133D01*
X132417700Y-99637133D01*
X132417700Y-99453880D01*
X135013880Y-96857700D01*
X136113133Y-96857700D01*
X136113133Y-97170000D01*
X136128869Y-97251102D01*
X136175693Y-97322383D01*
X136246380Y-97370098D01*
X136330000Y-97386867D01*
X137830000Y-97386867D01*
X137911102Y-97371131D01*
X137982383Y-97324307D01*
X138030098Y-97253620D01*
X138046867Y-97170000D01*
X138046867Y-95870000D01*
X138031131Y-95788898D01*
X137984307Y-95717617D01*
X137913620Y-95669902D01*
X137830000Y-95653133D01*
X137417700Y-95653133D01*
X137417700Y-94707880D01*
X137553880Y-94571700D01*
X165722120Y-94571700D01*
X166540300Y-95389880D01*
X166540300Y-114160120D01*
X166247900Y-114452520D01*
X164925867Y-114452520D01*
X164925867Y-103854000D01*
X164925867Y-102354000D01*
X164925867Y-101354000D01*
X164925867Y-99854000D01*
X164910131Y-99772898D01*
X164863307Y-99701617D01*
X164792620Y-99653902D01*
X164709000Y-99637133D01*
X163459000Y-99637133D01*
X163377898Y-99652869D01*
X163306617Y-99699693D01*
X163258902Y-99770380D01*
X163242133Y-99854000D01*
X163242133Y-100266300D01*
X162540000Y-100266300D01*
X162410767Y-100292006D01*
X162301210Y-100365210D01*
X161559210Y-101107210D01*
X161486006Y-101216768D01*
X161460300Y-101346000D01*
X161460300Y-106794120D01*
X161150120Y-107104300D01*
X160550700Y-107104300D01*
X160550700Y-103386363D01*
X160550700Y-103321637D01*
X160550700Y-102081975D01*
X160550700Y-101626025D01*
X160550700Y-100386363D01*
X160550700Y-100321637D01*
X160525930Y-100261838D01*
X160480162Y-100216070D01*
X160420363Y-100191300D01*
X160250700Y-100191300D01*
X160250700Y-97202363D01*
X160250700Y-97137637D01*
X160250700Y-96747975D01*
X160250700Y-96292025D01*
X160250700Y-95902363D01*
X160250700Y-95837637D01*
X160225930Y-95777838D01*
X160180162Y-95732070D01*
X160120363Y-95707300D01*
X159565975Y-95707300D01*
X159525300Y-95747975D01*
X159525300Y-96332700D01*
X160210025Y-96332700D01*
X160250700Y-96292025D01*
X160250700Y-96747975D01*
X160210025Y-96707300D01*
X159525300Y-96707300D01*
X159525300Y-97292025D01*
X159565975Y-97332700D01*
X160120363Y-97332700D01*
X160180162Y-97307930D01*
X160225930Y-97262162D01*
X160250700Y-97202363D01*
X160250700Y-100191300D01*
X159865975Y-100191300D01*
X159825300Y-100231975D01*
X159825300Y-101666700D01*
X160510025Y-101666700D01*
X160550700Y-101626025D01*
X160550700Y-102081975D01*
X160510025Y-102041300D01*
X159825300Y-102041300D01*
X159825300Y-103476025D01*
X159865975Y-103516700D01*
X160420363Y-103516700D01*
X160480162Y-103491930D01*
X160525930Y-103446162D01*
X160550700Y-103386363D01*
X160550700Y-107104300D01*
X160304867Y-107104300D01*
X160304867Y-106792000D01*
X160289131Y-106710898D01*
X160242307Y-106639617D01*
X160171620Y-106591902D01*
X160088000Y-106575133D01*
X159450700Y-106575133D01*
X159450700Y-103476025D01*
X159450700Y-102041300D01*
X159450700Y-101666700D01*
X159450700Y-100231975D01*
X159410025Y-100191300D01*
X159150700Y-100191300D01*
X159150700Y-97292025D01*
X159150700Y-96707300D01*
X159150700Y-96332700D01*
X159150700Y-95747975D01*
X159110025Y-95707300D01*
X158555637Y-95707300D01*
X158495838Y-95732070D01*
X158450070Y-95777838D01*
X158425300Y-95837637D01*
X158425300Y-95902363D01*
X158425300Y-96292025D01*
X158465975Y-96332700D01*
X159150700Y-96332700D01*
X159150700Y-96707300D01*
X158465975Y-96707300D01*
X158425300Y-96747975D01*
X158425300Y-97137637D01*
X158425300Y-97202363D01*
X158450070Y-97262162D01*
X158495838Y-97307930D01*
X158555637Y-97332700D01*
X159110025Y-97332700D01*
X159150700Y-97292025D01*
X159150700Y-100191300D01*
X158855637Y-100191300D01*
X158795838Y-100216070D01*
X158750070Y-100261838D01*
X158725300Y-100321637D01*
X158725300Y-100386363D01*
X158725300Y-101626025D01*
X158765975Y-101666700D01*
X159450700Y-101666700D01*
X159450700Y-102041300D01*
X158765975Y-102041300D01*
X158725300Y-102081975D01*
X158725300Y-103321637D01*
X158725300Y-103386363D01*
X158750070Y-103446162D01*
X158795838Y-103491930D01*
X158855637Y-103516700D01*
X159410025Y-103516700D01*
X159450700Y-103476025D01*
X159450700Y-106575133D01*
X158588000Y-106575133D01*
X158506898Y-106590869D01*
X158435617Y-106637693D01*
X158387902Y-106708380D01*
X158371133Y-106792000D01*
X158371133Y-108092000D01*
X158386869Y-108173102D01*
X158433693Y-108244383D01*
X158504380Y-108292098D01*
X158588000Y-108308867D01*
X159000300Y-108308867D01*
X159000300Y-120730000D01*
X159026006Y-120859232D01*
X159099210Y-120968790D01*
X160814990Y-122684570D01*
X160924548Y-122757774D01*
X161053780Y-122783480D01*
X162705083Y-122783480D01*
X162705083Y-122845830D01*
X162720819Y-122926932D01*
X162767643Y-122998213D01*
X162838330Y-123045928D01*
X162921950Y-123062697D01*
X163722050Y-123062697D01*
X163803152Y-123046961D01*
X163874433Y-123000137D01*
X163922148Y-122929450D01*
X163934300Y-122868853D01*
X163934300Y-123827843D01*
X163871950Y-123827843D01*
X163790848Y-123843579D01*
X163719567Y-123890403D01*
X163671852Y-123961090D01*
X163655083Y-124044710D01*
X163655083Y-124844810D01*
X163670819Y-124925912D01*
X163717643Y-124997193D01*
X163788330Y-125044908D01*
X163871950Y-125061677D01*
X164672050Y-125061677D01*
X164753152Y-125045941D01*
X164824433Y-124999117D01*
X164872148Y-124928430D01*
X164888917Y-124844810D01*
X164888917Y-124044710D01*
X164873181Y-123963608D01*
X164826357Y-123892327D01*
X164755670Y-123844612D01*
X164672050Y-123827843D01*
X164609700Y-123827843D01*
X164609700Y-117790000D01*
X164583994Y-117660768D01*
X164583994Y-117660767D01*
X164510790Y-117551210D01*
X164068790Y-117109210D01*
X163959232Y-117036006D01*
X163830000Y-117010300D01*
X160667880Y-117010300D01*
X160611700Y-116954120D01*
X160611700Y-115824000D01*
X160611700Y-113677880D01*
X161160640Y-113128940D01*
X161755083Y-113128940D01*
X161755083Y-113191290D01*
X161770819Y-113272392D01*
X161817643Y-113343673D01*
X161888330Y-113391388D01*
X161971950Y-113408157D01*
X162772050Y-113408157D01*
X162853152Y-113392421D01*
X162924433Y-113345597D01*
X162972148Y-113274910D01*
X162988917Y-113191290D01*
X162988917Y-112391190D01*
X162973181Y-112310088D01*
X162926357Y-112238807D01*
X162855670Y-112191092D01*
X162772050Y-112174323D01*
X162709700Y-112174323D01*
X162709700Y-111573438D01*
X162740392Y-111542800D01*
X162818610Y-111354430D01*
X162818788Y-111150465D01*
X162740899Y-110961958D01*
X162596800Y-110817608D01*
X162408430Y-110739390D01*
X162204465Y-110739212D01*
X162015958Y-110817101D01*
X161871608Y-110961200D01*
X161793390Y-111149570D01*
X161793212Y-111353535D01*
X161871101Y-111542042D01*
X162015200Y-111686392D01*
X162034300Y-111694323D01*
X162034300Y-112174323D01*
X161971950Y-112174323D01*
X161890848Y-112190059D01*
X161819567Y-112236883D01*
X161771852Y-112307570D01*
X161755083Y-112391190D01*
X161755083Y-112453540D01*
X161020760Y-112453540D01*
X160891528Y-112479246D01*
X160781970Y-112552450D01*
X160035210Y-113299210D01*
X159962006Y-113408768D01*
X159936300Y-113538000D01*
X159936300Y-115824000D01*
X159936300Y-117094000D01*
X159962006Y-117223232D01*
X160035210Y-117332790D01*
X160289210Y-117586790D01*
X160398768Y-117659994D01*
X160528000Y-117685700D01*
X163690120Y-117685700D01*
X163934300Y-117929880D01*
X163934300Y-122021934D01*
X163923181Y-121964628D01*
X163876357Y-121893347D01*
X163805670Y-121845632D01*
X163722050Y-121828863D01*
X162921950Y-121828863D01*
X162840848Y-121844599D01*
X162769567Y-121891423D01*
X162721852Y-121962110D01*
X162705083Y-122045730D01*
X162705083Y-122108080D01*
X161193659Y-122108080D01*
X159675700Y-120590120D01*
X159675700Y-108308867D01*
X160088000Y-108308867D01*
X160169102Y-108293131D01*
X160240383Y-108246307D01*
X160288098Y-108175620D01*
X160304867Y-108092000D01*
X160304867Y-107779700D01*
X161290000Y-107779700D01*
X161419232Y-107753994D01*
X161528790Y-107680790D01*
X162036790Y-107172790D01*
X162109994Y-107063233D01*
X162109994Y-107063232D01*
X162135700Y-106934000D01*
X162135700Y-101485880D01*
X162679880Y-100941700D01*
X163242133Y-100941700D01*
X163242133Y-101354000D01*
X163257869Y-101435102D01*
X163304693Y-101506383D01*
X163375380Y-101554098D01*
X163459000Y-101570867D01*
X164709000Y-101570867D01*
X164790102Y-101555131D01*
X164861383Y-101508307D01*
X164909098Y-101437620D01*
X164925867Y-101354000D01*
X164925867Y-102354000D01*
X164910131Y-102272898D01*
X164863307Y-102201617D01*
X164792620Y-102153902D01*
X164709000Y-102137133D01*
X163459000Y-102137133D01*
X163377898Y-102152869D01*
X163306617Y-102199693D01*
X163258902Y-102270380D01*
X163242133Y-102354000D01*
X163242133Y-103854000D01*
X163257869Y-103935102D01*
X163304693Y-104006383D01*
X163375380Y-104054098D01*
X163459000Y-104070867D01*
X163675553Y-104070867D01*
X163103088Y-104643331D01*
X162966465Y-104643212D01*
X162777958Y-104721101D01*
X162633608Y-104865200D01*
X162555390Y-105053570D01*
X162555212Y-105257535D01*
X162633101Y-105446042D01*
X162777200Y-105590392D01*
X162965570Y-105668610D01*
X163169535Y-105668788D01*
X163358042Y-105590899D01*
X163502392Y-105446800D01*
X163580610Y-105258430D01*
X163580730Y-105120849D01*
X163746300Y-104955280D01*
X163746300Y-112219322D01*
X163719567Y-112236883D01*
X163671852Y-112307570D01*
X163655083Y-112391190D01*
X163655083Y-113191290D01*
X163670819Y-113272392D01*
X163717643Y-113343673D01*
X163788330Y-113391388D01*
X163871950Y-113408157D01*
X164672050Y-113408157D01*
X164753152Y-113392421D01*
X164824433Y-113345597D01*
X164872148Y-113274910D01*
X164888917Y-113191290D01*
X164888917Y-112391190D01*
X164873181Y-112310088D01*
X164826357Y-112238807D01*
X164755670Y-112191092D01*
X164672050Y-112174323D01*
X164421700Y-112174323D01*
X164421700Y-104140000D01*
X164421700Y-104070867D01*
X164709000Y-104070867D01*
X164790102Y-104055131D01*
X164861383Y-104008307D01*
X164909098Y-103937620D01*
X164925867Y-103854000D01*
X164925867Y-114452520D01*
X163938917Y-114452520D01*
X163938917Y-114390170D01*
X163923181Y-114309068D01*
X163876357Y-114237787D01*
X163805670Y-114190072D01*
X163722050Y-114173303D01*
X162921950Y-114173303D01*
X162840848Y-114189039D01*
X162769567Y-114235863D01*
X162721852Y-114306550D01*
X162705083Y-114390170D01*
X162705083Y-115190270D01*
X162720819Y-115271372D01*
X162767643Y-115342653D01*
X162838330Y-115390368D01*
X162921950Y-115407137D01*
X163722050Y-115407137D01*
X163803152Y-115391401D01*
X163874433Y-115344577D01*
X163922148Y-115273890D01*
X163938917Y-115190270D01*
X163938917Y-115127920D01*
X166387780Y-115127920D01*
X166517012Y-115102214D01*
X166626570Y-115029010D01*
X167116790Y-114538790D01*
X167189994Y-114429232D01*
X167215700Y-114300000D01*
X167215700Y-129146927D01*
X166668649Y-129965647D01*
X165074926Y-131030540D01*
X163178818Y-131407700D01*
X162988917Y-131407700D01*
X162988917Y-124844810D01*
X162988917Y-124044710D01*
X162973181Y-123963608D01*
X162926357Y-123892327D01*
X162855670Y-123844612D01*
X162772050Y-123827843D01*
X161971950Y-123827843D01*
X161890848Y-123843579D01*
X161819567Y-123890403D01*
X161771852Y-123961090D01*
X161755083Y-124044710D01*
X161755083Y-124844810D01*
X161770819Y-124925912D01*
X161817643Y-124997193D01*
X161888330Y-125044908D01*
X161971950Y-125061677D01*
X162034300Y-125061677D01*
X162034300Y-126049522D01*
X162015958Y-126057101D01*
X161871608Y-126201200D01*
X161793390Y-126389570D01*
X161793212Y-126593535D01*
X161871101Y-126782042D01*
X162015200Y-126926392D01*
X162203570Y-127004610D01*
X162407535Y-127004788D01*
X162596042Y-126926899D01*
X162740392Y-126782800D01*
X162818610Y-126594430D01*
X162818788Y-126390465D01*
X162740899Y-126201958D01*
X162709700Y-126170704D01*
X162709700Y-125061677D01*
X162772050Y-125061677D01*
X162853152Y-125045941D01*
X162924433Y-124999117D01*
X162972148Y-124928430D01*
X162988917Y-124844810D01*
X162988917Y-131407700D01*
X158569867Y-131407700D01*
X158569867Y-120380000D01*
X158569867Y-118380000D01*
X158554131Y-118298898D01*
X158507307Y-118227617D01*
X158436620Y-118179902D01*
X158353000Y-118163133D01*
X157604867Y-118163133D01*
X157604867Y-108092000D01*
X157604867Y-106792000D01*
X157604867Y-97170000D01*
X157604867Y-95870000D01*
X157589131Y-95788898D01*
X157542307Y-95717617D01*
X157471620Y-95669902D01*
X157388000Y-95653133D01*
X155888000Y-95653133D01*
X155806898Y-95668869D01*
X155735617Y-95715693D01*
X155687902Y-95786380D01*
X155671133Y-95870000D01*
X155671133Y-96182300D01*
X144780000Y-96182300D01*
X144650767Y-96208006D01*
X144541210Y-96281210D01*
X143017210Y-97805210D01*
X142944006Y-97914768D01*
X142918300Y-98044000D01*
X142918300Y-102476120D01*
X140992700Y-104401720D01*
X140992700Y-103386363D01*
X140992700Y-103321637D01*
X140992700Y-102081975D01*
X140992700Y-101626025D01*
X140992700Y-100386363D01*
X140992700Y-100321637D01*
X140967930Y-100261838D01*
X140922162Y-100216070D01*
X140862363Y-100191300D01*
X140746867Y-100191300D01*
X140746867Y-97170000D01*
X140746867Y-95870000D01*
X140731131Y-95788898D01*
X140684307Y-95717617D01*
X140613620Y-95669902D01*
X140530000Y-95653133D01*
X139030000Y-95653133D01*
X138948898Y-95668869D01*
X138877617Y-95715693D01*
X138829902Y-95786380D01*
X138813133Y-95870000D01*
X138813133Y-97170000D01*
X138828869Y-97251102D01*
X138875693Y-97322383D01*
X138946380Y-97370098D01*
X139030000Y-97386867D01*
X139442300Y-97386867D01*
X139442300Y-98586120D01*
X139306120Y-98722300D01*
X137668000Y-98722300D01*
X137538768Y-98748006D01*
X137429210Y-98821210D01*
X136541210Y-99709210D01*
X136468006Y-99818768D01*
X136442300Y-99948000D01*
X136442300Y-100137133D01*
X136030000Y-100137133D01*
X135948898Y-100152869D01*
X135877617Y-100199693D01*
X135829902Y-100270380D01*
X135813133Y-100354000D01*
X135813133Y-103354000D01*
X135828869Y-103435102D01*
X135875693Y-103506383D01*
X135946380Y-103554098D01*
X136030000Y-103570867D01*
X137530000Y-103570867D01*
X137611102Y-103555131D01*
X137682383Y-103508307D01*
X137730098Y-103437620D01*
X137746867Y-103354000D01*
X137746867Y-100354000D01*
X137731131Y-100272898D01*
X137684307Y-100201617D01*
X137613620Y-100153902D01*
X137530000Y-100137133D01*
X137117700Y-100137133D01*
X137117700Y-100087880D01*
X137807880Y-99397700D01*
X139446000Y-99397700D01*
X139575232Y-99371994D01*
X139684790Y-99298790D01*
X140018790Y-98964790D01*
X140091994Y-98855232D01*
X140117700Y-98726000D01*
X140117700Y-97386867D01*
X140530000Y-97386867D01*
X140611102Y-97371131D01*
X140682383Y-97324307D01*
X140730098Y-97253620D01*
X140746867Y-97170000D01*
X140746867Y-100191300D01*
X140307975Y-100191300D01*
X140267300Y-100231975D01*
X140267300Y-101666700D01*
X140952025Y-101666700D01*
X140992700Y-101626025D01*
X140992700Y-102081975D01*
X140952025Y-102041300D01*
X140267300Y-102041300D01*
X140267300Y-103476025D01*
X140307975Y-103516700D01*
X140862363Y-103516700D01*
X140922162Y-103491930D01*
X140967930Y-103446162D01*
X140992700Y-103386363D01*
X140992700Y-104401720D01*
X140322120Y-105072300D01*
X139892700Y-105072300D01*
X139892700Y-103476025D01*
X139892700Y-102041300D01*
X139892700Y-101666700D01*
X139892700Y-100231975D01*
X139852025Y-100191300D01*
X139297637Y-100191300D01*
X139237838Y-100216070D01*
X139192070Y-100261838D01*
X139167300Y-100321637D01*
X139167300Y-100386363D01*
X139167300Y-101626025D01*
X139207975Y-101666700D01*
X139892700Y-101666700D01*
X139892700Y-102041300D01*
X139207975Y-102041300D01*
X139167300Y-102081975D01*
X139167300Y-103321637D01*
X139167300Y-103386363D01*
X139192070Y-103446162D01*
X139237838Y-103491930D01*
X139297637Y-103516700D01*
X139852025Y-103516700D01*
X139892700Y-103476025D01*
X139892700Y-105072300D01*
X132727880Y-105072300D01*
X132417700Y-104762120D01*
X132417700Y-104070867D01*
X132705000Y-104070867D01*
X132786102Y-104055131D01*
X132857383Y-104008307D01*
X132905098Y-103937620D01*
X132921867Y-103854000D01*
X132921867Y-102354000D01*
X132906131Y-102272898D01*
X132859307Y-102201617D01*
X132788620Y-102153902D01*
X132705000Y-102137133D01*
X131455000Y-102137133D01*
X131373898Y-102152869D01*
X131302617Y-102199693D01*
X131254902Y-102270380D01*
X131238133Y-102354000D01*
X131238133Y-103854000D01*
X131253869Y-103935102D01*
X131300693Y-104006383D01*
X131371380Y-104054098D01*
X131455000Y-104070867D01*
X131742300Y-104070867D01*
X131742300Y-104902000D01*
X131768006Y-105031232D01*
X131841210Y-105140790D01*
X132349210Y-105648790D01*
X132458767Y-105721994D01*
X132458768Y-105721994D01*
X132588000Y-105747700D01*
X140462000Y-105747700D01*
X140591232Y-105721994D01*
X140700790Y-105648790D01*
X143494790Y-102854790D01*
X143567994Y-102745232D01*
X143593700Y-102616000D01*
X143593700Y-98183880D01*
X144919880Y-96857700D01*
X155671133Y-96857700D01*
X155671133Y-97170000D01*
X155686869Y-97251102D01*
X155733693Y-97322383D01*
X155804380Y-97370098D01*
X155888000Y-97386867D01*
X156300300Y-97386867D01*
X156300300Y-97810897D01*
X156173958Y-97863101D01*
X156029608Y-98007200D01*
X155951390Y-98195570D01*
X155951212Y-98399535D01*
X156029101Y-98588042D01*
X156173200Y-98732392D01*
X156361570Y-98810610D01*
X156565535Y-98810788D01*
X156754042Y-98732899D01*
X156898392Y-98588800D01*
X156976610Y-98400430D01*
X156976788Y-98196465D01*
X156966323Y-98171138D01*
X156975700Y-98124000D01*
X156975700Y-97386867D01*
X157388000Y-97386867D01*
X157469102Y-97371131D01*
X157540383Y-97324307D01*
X157588098Y-97253620D01*
X157604867Y-97170000D01*
X157604867Y-106792000D01*
X157589131Y-106710898D01*
X157542307Y-106639617D01*
X157471620Y-106591902D01*
X157388000Y-106575133D01*
X156675700Y-106575133D01*
X156675700Y-103570867D01*
X157088000Y-103570867D01*
X157169102Y-103555131D01*
X157240383Y-103508307D01*
X157288098Y-103437620D01*
X157304867Y-103354000D01*
X157304867Y-100354000D01*
X157289131Y-100272898D01*
X157242307Y-100201617D01*
X157171620Y-100153902D01*
X157088000Y-100137133D01*
X155588000Y-100137133D01*
X155506898Y-100152869D01*
X155435617Y-100199693D01*
X155387902Y-100270380D01*
X155371133Y-100354000D01*
X155371133Y-103354000D01*
X155386869Y-103435102D01*
X155433693Y-103506383D01*
X155504380Y-103554098D01*
X155588000Y-103570867D01*
X156000300Y-103570867D01*
X156000300Y-106575133D01*
X155888000Y-106575133D01*
X155806898Y-106590869D01*
X155735617Y-106637693D01*
X155687902Y-106708380D01*
X155671133Y-106792000D01*
X155671133Y-108092000D01*
X155686869Y-108173102D01*
X155733693Y-108244383D01*
X155804380Y-108292098D01*
X155888000Y-108308867D01*
X157388000Y-108308867D01*
X157469102Y-108293131D01*
X157540383Y-108246307D01*
X157588098Y-108175620D01*
X157604867Y-108092000D01*
X157604867Y-118163133D01*
X156989124Y-118163133D01*
X156960730Y-117838586D01*
X156953008Y-117811622D01*
X156951733Y-117791686D01*
X156855487Y-117432494D01*
X156791676Y-117070599D01*
X156784515Y-117051925D01*
X156780453Y-117025253D01*
X156651250Y-116670272D01*
X156557292Y-116319615D01*
X156546355Y-116297171D01*
X156541190Y-116275919D01*
X156388670Y-115948839D01*
X156259214Y-115593162D01*
X156245326Y-115570031D01*
X156238723Y-115550477D01*
X156052520Y-115227964D01*
X155897119Y-114894706D01*
X155883844Y-114876421D01*
X155873906Y-114853739D01*
X155660491Y-114548951D01*
X155476723Y-114230655D01*
X155459945Y-114211341D01*
X155449660Y-114192523D01*
X155215604Y-113913586D01*
X154999776Y-113605351D01*
X154982876Y-113589019D01*
X154969979Y-113569652D01*
X154702922Y-113302595D01*
X154470052Y-113025071D01*
X154451218Y-113009809D01*
X154436929Y-112991948D01*
X154159404Y-112759077D01*
X153892348Y-112492021D01*
X153871933Y-112478241D01*
X153856649Y-112462224D01*
X153692380Y-112347201D01*
X153692380Y-106982395D01*
X153692380Y-104442395D01*
X153534657Y-104060675D01*
X153242861Y-103768370D01*
X152861417Y-103609980D01*
X152448395Y-103609620D01*
X152066675Y-103767343D01*
X151774370Y-104059139D01*
X151615980Y-104440583D01*
X151615620Y-104853605D01*
X151773343Y-105235325D01*
X152065139Y-105527630D01*
X152446583Y-105686020D01*
X152859605Y-105686380D01*
X153241325Y-105528657D01*
X153533630Y-105236861D01*
X153692020Y-104855417D01*
X153692380Y-104442395D01*
X153692380Y-106982395D01*
X153534657Y-106600675D01*
X153242861Y-106308370D01*
X152861417Y-106149980D01*
X152448395Y-106149620D01*
X152066675Y-106307343D01*
X151774370Y-106599139D01*
X151615980Y-106980583D01*
X151615620Y-107393605D01*
X151773343Y-107775325D01*
X152065139Y-108067630D01*
X152446583Y-108226020D01*
X152859605Y-108226380D01*
X153241325Y-108068657D01*
X153533630Y-107776861D01*
X153692020Y-107395417D01*
X153692380Y-106982395D01*
X153692380Y-112347201D01*
X153548413Y-112246395D01*
X153269477Y-112012340D01*
X153249526Y-112001272D01*
X153231345Y-111985277D01*
X152913048Y-111801508D01*
X152608261Y-111588094D01*
X152584385Y-111577454D01*
X152567294Y-111564881D01*
X152234035Y-111409479D01*
X151911523Y-111223277D01*
X151890699Y-111216098D01*
X151868838Y-111202786D01*
X151513160Y-111073329D01*
X151186081Y-110920810D01*
X151105928Y-110900796D01*
X151058242Y-110907752D01*
X150436747Y-110681547D01*
X150355154Y-110668595D01*
X150313510Y-110678439D01*
X149959971Y-110678131D01*
X149769700Y-110756749D01*
X149769700Y-106784867D01*
X150182000Y-106784867D01*
X150263102Y-106769131D01*
X150334383Y-106722307D01*
X150382098Y-106651620D01*
X150398867Y-106568000D01*
X150398867Y-105268000D01*
X150383131Y-105186898D01*
X150336307Y-105115617D01*
X150265620Y-105067902D01*
X150182000Y-105051133D01*
X148682000Y-105051133D01*
X148600898Y-105066869D01*
X148529617Y-105113693D01*
X148481902Y-105184380D01*
X148465133Y-105268000D01*
X148465133Y-106568000D01*
X148480869Y-106649102D01*
X148527693Y-106720383D01*
X148598380Y-106768098D01*
X148682000Y-106784867D01*
X149094300Y-106784867D01*
X149094300Y-110932000D01*
X149120006Y-111061232D01*
X149193210Y-111170790D01*
X149267141Y-111244721D01*
X149178469Y-111458270D01*
X149178131Y-111846029D01*
X149326207Y-112204402D01*
X149600156Y-112478829D01*
X149958270Y-112627531D01*
X150059507Y-112627619D01*
X150763245Y-112883759D01*
X151329198Y-113147667D01*
X151860149Y-113454212D01*
X152355487Y-113801051D01*
X152703576Y-114093133D01*
X147698867Y-114093133D01*
X147698867Y-106568000D01*
X147698867Y-105268000D01*
X147683131Y-105186898D01*
X147636307Y-105115617D01*
X147565620Y-105067902D01*
X147482000Y-105051133D01*
X145982000Y-105051133D01*
X145900898Y-105066869D01*
X145829617Y-105113693D01*
X145781902Y-105184380D01*
X145765133Y-105268000D01*
X145765133Y-106568000D01*
X145780869Y-106649102D01*
X145827693Y-106720383D01*
X145898380Y-106768098D01*
X145982000Y-106784867D01*
X146394300Y-106784867D01*
X146394300Y-108144120D01*
X145910120Y-108628300D01*
X144548380Y-108628300D01*
X144548380Y-106982395D01*
X144548380Y-104442395D01*
X144390657Y-104060675D01*
X144098861Y-103768370D01*
X143717417Y-103609980D01*
X143304395Y-103609620D01*
X142922675Y-103767343D01*
X142630370Y-104059139D01*
X142471980Y-104440583D01*
X142471620Y-104853605D01*
X142629343Y-105235325D01*
X142921139Y-105527630D01*
X143302583Y-105686020D01*
X143715605Y-105686380D01*
X144097325Y-105528657D01*
X144389630Y-105236861D01*
X144548020Y-104855417D01*
X144548380Y-104442395D01*
X144548380Y-106982395D01*
X144390657Y-106600675D01*
X144098861Y-106308370D01*
X143717417Y-106149980D01*
X143304395Y-106149620D01*
X142922675Y-106307343D01*
X142630370Y-106599139D01*
X142471980Y-106980583D01*
X142471620Y-107393605D01*
X142629343Y-107775325D01*
X142921139Y-108067630D01*
X143302583Y-108226020D01*
X143715605Y-108226380D01*
X144097325Y-108068657D01*
X144389630Y-107776861D01*
X144548020Y-107395417D01*
X144548380Y-106982395D01*
X144548380Y-108628300D01*
X140692700Y-108628300D01*
X140692700Y-108124363D01*
X140692700Y-108059637D01*
X140692700Y-107669975D01*
X140692700Y-107214025D01*
X140692700Y-106824363D01*
X140692700Y-106759637D01*
X140667930Y-106699838D01*
X140622162Y-106654070D01*
X140562363Y-106629300D01*
X140007975Y-106629300D01*
X139967300Y-106669975D01*
X139967300Y-107254700D01*
X140652025Y-107254700D01*
X140692700Y-107214025D01*
X140692700Y-107669975D01*
X140652025Y-107629300D01*
X139967300Y-107629300D01*
X139967300Y-108214025D01*
X140007975Y-108254700D01*
X140562363Y-108254700D01*
X140622162Y-108229930D01*
X140667930Y-108184162D01*
X140692700Y-108124363D01*
X140692700Y-108628300D01*
X139592700Y-108628300D01*
X139592700Y-108214025D01*
X139592700Y-107629300D01*
X139592700Y-107254700D01*
X139592700Y-106669975D01*
X139552025Y-106629300D01*
X138997637Y-106629300D01*
X138937838Y-106654070D01*
X138892070Y-106699838D01*
X138867300Y-106759637D01*
X138867300Y-106824363D01*
X138867300Y-107214025D01*
X138907975Y-107254700D01*
X139592700Y-107254700D01*
X139592700Y-107629300D01*
X138907975Y-107629300D01*
X138867300Y-107669975D01*
X138867300Y-108059637D01*
X138867300Y-108124363D01*
X138892070Y-108184162D01*
X138937838Y-108229930D01*
X138997637Y-108254700D01*
X139552025Y-108254700D01*
X139592700Y-108214025D01*
X139592700Y-108628300D01*
X138046867Y-108628300D01*
X138046867Y-108092000D01*
X138046867Y-106792000D01*
X138031131Y-106710898D01*
X137984307Y-106639617D01*
X137913620Y-106591902D01*
X137830000Y-106575133D01*
X136330000Y-106575133D01*
X136248898Y-106590869D01*
X136177617Y-106637693D01*
X136129902Y-106708380D01*
X136113133Y-106792000D01*
X136113133Y-107104300D01*
X135007323Y-107104300D01*
X134910800Y-107007608D01*
X134722430Y-106929390D01*
X134518465Y-106929212D01*
X134329958Y-107007101D01*
X134185608Y-107151200D01*
X134107390Y-107339570D01*
X134107212Y-107543535D01*
X134185101Y-107732042D01*
X134329200Y-107876392D01*
X134517570Y-107954610D01*
X134721535Y-107954788D01*
X134910042Y-107876899D01*
X135007410Y-107779700D01*
X136113133Y-107779700D01*
X136113133Y-108092000D01*
X136128869Y-108173102D01*
X136175693Y-108244383D01*
X136246380Y-108292098D01*
X136330000Y-108308867D01*
X137830000Y-108308867D01*
X137911102Y-108293131D01*
X137982383Y-108246307D01*
X138030098Y-108175620D01*
X138046867Y-108092000D01*
X138046867Y-108628300D01*
X129794000Y-108628300D01*
X129664768Y-108654006D01*
X129555210Y-108727210D01*
X128793210Y-109489210D01*
X128720006Y-109598768D01*
X128694300Y-109728000D01*
X128694300Y-123952000D01*
X128720006Y-124081232D01*
X128793210Y-124190790D01*
X129285970Y-124683550D01*
X129395528Y-124756754D01*
X129524760Y-124782460D01*
X131275083Y-124782460D01*
X131275083Y-124844810D01*
X131290819Y-124925912D01*
X131337643Y-124997193D01*
X131408330Y-125044908D01*
X131491950Y-125061677D01*
X132292050Y-125061677D01*
X132373152Y-125045941D01*
X132444433Y-124999117D01*
X132492148Y-124928430D01*
X132508917Y-124844810D01*
X132508917Y-124044710D01*
X132493181Y-123963608D01*
X132446357Y-123892327D01*
X132375670Y-123844612D01*
X132292050Y-123827843D01*
X131491950Y-123827843D01*
X131410848Y-123843579D01*
X131339567Y-123890403D01*
X131291852Y-123961090D01*
X131275083Y-124044710D01*
X131275083Y-124107060D01*
X129664640Y-124107060D01*
X129369700Y-123812120D01*
X129369700Y-109867880D01*
X129933880Y-109303700D01*
X146050000Y-109303700D01*
X146179232Y-109277994D01*
X146288790Y-109204790D01*
X146970790Y-108522790D01*
X147043994Y-108413232D01*
X147069700Y-108284000D01*
X147069700Y-106784867D01*
X147482000Y-106784867D01*
X147563102Y-106769131D01*
X147634383Y-106722307D01*
X147682098Y-106651620D01*
X147698867Y-106568000D01*
X147698867Y-114093133D01*
X146940773Y-114093133D01*
X146940773Y-111809281D01*
X146929805Y-111441576D01*
X146778957Y-111106058D01*
X146738067Y-111052770D01*
X146614448Y-110982397D01*
X146266857Y-111584443D01*
X146868903Y-111932035D01*
X146940773Y-111809281D01*
X146940773Y-114093133D01*
X145009230Y-114093133D01*
X144976329Y-114079471D01*
X144585387Y-114079130D01*
X144224073Y-114228422D01*
X143947393Y-114504618D01*
X143797471Y-114865671D01*
X143797130Y-115256613D01*
X143946422Y-115617927D01*
X144222618Y-115894607D01*
X144583671Y-116044529D01*
X144890526Y-116044796D01*
X144898380Y-116050098D01*
X144982000Y-116066867D01*
X154276265Y-116066867D01*
X154314332Y-116132801D01*
X154578240Y-116698754D01*
X154782348Y-117259534D01*
X154942340Y-117856631D01*
X155051019Y-118472985D01*
X155103133Y-119068644D01*
X155103133Y-119691355D01*
X155083380Y-119917133D01*
X154874310Y-119917133D01*
X154874310Y-118145527D01*
X154815568Y-117779155D01*
X154788376Y-117713510D01*
X154686346Y-117612536D01*
X154188882Y-118110000D01*
X154686346Y-118607464D01*
X154788376Y-118506490D01*
X154874310Y-118145527D01*
X154874310Y-119917133D01*
X154421464Y-119917133D01*
X154421464Y-118872346D01*
X153982700Y-118433582D01*
X153982700Y-118337975D01*
X153942025Y-118297300D01*
X153818133Y-118297300D01*
X153644975Y-118124142D01*
X153659118Y-118110000D01*
X153644975Y-118095857D01*
X153818133Y-117922700D01*
X153942025Y-117922700D01*
X153982700Y-117882025D01*
X153982700Y-117786418D01*
X154421464Y-117347654D01*
X154320490Y-117245624D01*
X153959527Y-117159690D01*
X153849693Y-117177300D01*
X147547975Y-117177300D01*
X147507300Y-117217975D01*
X147507300Y-117922700D01*
X153009822Y-117922700D01*
X152973690Y-118074473D01*
X153009416Y-118297300D01*
X147507300Y-118297300D01*
X147507300Y-119002025D01*
X147547975Y-119042700D01*
X153814502Y-119042700D01*
X153888473Y-119060310D01*
X154254845Y-119001568D01*
X154320490Y-118974376D01*
X154421464Y-118872346D01*
X154421464Y-119917133D01*
X142598000Y-119917133D01*
X142576155Y-119921371D01*
X142299387Y-119921130D01*
X141938073Y-120070422D01*
X141661393Y-120346618D01*
X141511471Y-120707671D01*
X141511130Y-121098613D01*
X141660422Y-121459927D01*
X141936618Y-121736607D01*
X142297671Y-121886529D01*
X142577585Y-121886773D01*
X142598000Y-121890867D01*
X154640253Y-121890867D01*
X154578240Y-122061245D01*
X154314332Y-122627198D01*
X154007787Y-123158149D01*
X153660948Y-123653487D01*
X153258156Y-124133516D01*
X152842310Y-124549362D01*
X152842310Y-123733527D01*
X152783568Y-123367155D01*
X152756376Y-123301510D01*
X152654346Y-123200536D01*
X152156882Y-123698000D01*
X152654346Y-124195464D01*
X152756376Y-124094490D01*
X152842310Y-123733527D01*
X152842310Y-124549362D01*
X152835516Y-124556156D01*
X152389464Y-124930437D01*
X152389464Y-124460346D01*
X151974700Y-124045582D01*
X151974700Y-123925975D01*
X151934025Y-123885300D01*
X151786133Y-123885300D01*
X151612975Y-123712142D01*
X151627118Y-123698000D01*
X151612975Y-123683857D01*
X151786133Y-123510700D01*
X151934025Y-123510700D01*
X151974700Y-123470025D01*
X151974700Y-123350418D01*
X152389464Y-122935654D01*
X152288490Y-122833624D01*
X151927527Y-122747690D01*
X151817693Y-122765300D01*
X147039975Y-122765300D01*
X146999300Y-122805975D01*
X146999300Y-123510700D01*
X150977822Y-123510700D01*
X150941690Y-123662473D01*
X150977416Y-123885300D01*
X146999300Y-123885300D01*
X146999300Y-124590025D01*
X147039975Y-124630700D01*
X151782502Y-124630700D01*
X151856473Y-124648310D01*
X152222845Y-124589568D01*
X152288490Y-124562376D01*
X152389464Y-124460346D01*
X152389464Y-124930437D01*
X152355487Y-124958948D01*
X151860149Y-125305787D01*
X151329198Y-125612332D01*
X150763245Y-125876240D01*
X150059954Y-126132218D01*
X149959971Y-126132131D01*
X149601598Y-126280207D01*
X149327171Y-126554156D01*
X149178469Y-126912270D01*
X149178131Y-127300029D01*
X149326207Y-127658402D01*
X149600156Y-127932829D01*
X149958270Y-128081531D01*
X150314575Y-128081841D01*
X150352435Y-128091295D01*
X150436747Y-128078453D01*
X151058344Y-127852209D01*
X151103209Y-127859331D01*
X151186081Y-127839190D01*
X151513160Y-127686670D01*
X151868838Y-127557214D01*
X151891968Y-127543326D01*
X151911523Y-127536723D01*
X152234035Y-127350520D01*
X152567294Y-127195119D01*
X152585578Y-127181844D01*
X152608261Y-127171906D01*
X152913048Y-126958491D01*
X153231345Y-126774723D01*
X153250658Y-126757945D01*
X153269477Y-126747660D01*
X153548413Y-126513604D01*
X153856649Y-126297776D01*
X153872980Y-126280876D01*
X153892348Y-126267979D01*
X154159404Y-126000922D01*
X154436929Y-125768052D01*
X154452190Y-125749218D01*
X154470052Y-125734929D01*
X154702922Y-125457404D01*
X154969979Y-125190348D01*
X154983758Y-125169933D01*
X154999776Y-125154649D01*
X155215604Y-124846413D01*
X155449660Y-124567477D01*
X155460727Y-124547526D01*
X155476723Y-124529345D01*
X155660491Y-124211048D01*
X155873906Y-123906261D01*
X155884545Y-123882385D01*
X155897119Y-123865294D01*
X156052520Y-123532035D01*
X156238723Y-123209523D01*
X156245901Y-123188699D01*
X156259214Y-123166838D01*
X156388670Y-122811160D01*
X156541190Y-122484081D01*
X156546818Y-122461540D01*
X156557292Y-122440385D01*
X156651250Y-122089727D01*
X156780453Y-121734747D01*
X156784896Y-121706753D01*
X156791676Y-121689401D01*
X156855487Y-121327505D01*
X156951733Y-120968314D01*
X156953231Y-120946989D01*
X156960730Y-120921414D01*
X156989124Y-120596867D01*
X158353000Y-120596867D01*
X158434102Y-120581131D01*
X158505383Y-120534307D01*
X158553098Y-120463620D01*
X158569867Y-120380000D01*
X158569867Y-131407700D01*
X147620153Y-131407700D01*
X147620153Y-127086855D01*
X147605614Y-127021278D01*
X147523319Y-126905256D01*
X147308457Y-127055703D01*
X147308457Y-126598401D01*
X147227578Y-126481387D01*
X146889688Y-126335929D01*
X146696108Y-126333254D01*
X146470537Y-126272813D01*
X146420720Y-126301574D01*
X146418531Y-126309741D01*
X146408723Y-126300754D01*
X146347901Y-126278617D01*
X146036081Y-126165123D01*
X146030123Y-126154804D01*
X145945233Y-126132057D01*
X145876492Y-126107038D01*
X145867502Y-126111229D01*
X145653618Y-126053919D01*
X145452188Y-125959991D01*
X145448040Y-125951094D01*
X145380000Y-125926329D01*
X145298411Y-125888284D01*
X145286940Y-125892458D01*
X145083254Y-125818323D01*
X144889038Y-125706192D01*
X144885180Y-125695591D01*
X144809768Y-125660426D01*
X144741782Y-125621174D01*
X144731500Y-125623928D01*
X144528728Y-125529375D01*
X144349843Y-125404118D01*
X144346918Y-125393199D01*
X144274715Y-125351512D01*
X144210132Y-125306291D01*
X144199604Y-125308147D01*
X144009820Y-125198575D01*
X143838397Y-125054734D01*
X143836640Y-125044769D01*
X143775509Y-125001964D01*
X143709025Y-124946178D01*
X143697301Y-124947203D01*
X143515927Y-124820204D01*
X143360794Y-124665071D01*
X143359747Y-124653099D01*
X143333052Y-124630700D01*
X146584025Y-124630700D01*
X146624700Y-124590025D01*
X146624700Y-123885300D01*
X146604700Y-123885300D01*
X146604700Y-123510700D01*
X146624700Y-123510700D01*
X146624700Y-122805975D01*
X146584025Y-122765300D01*
X141866854Y-122765300D01*
X141861163Y-122755442D01*
X141852132Y-122760655D01*
X141838071Y-122730499D01*
X141840826Y-122720218D01*
X141801573Y-122652231D01*
X141766409Y-122576820D01*
X141755807Y-122572961D01*
X141643676Y-122378745D01*
X141569541Y-122175059D01*
X141573716Y-122163589D01*
X141535670Y-122081999D01*
X141510906Y-122013960D01*
X141502008Y-122009811D01*
X141408080Y-121808381D01*
X141350770Y-121594497D01*
X141354962Y-121585508D01*
X141329942Y-121516766D01*
X141307196Y-121431877D01*
X141296876Y-121425918D01*
X141223015Y-121222987D01*
X141183827Y-121000745D01*
X141189187Y-120991463D01*
X141168727Y-120915106D01*
X141154239Y-120832939D01*
X141144972Y-120826450D01*
X141086809Y-120609383D01*
X141067970Y-120394046D01*
X141075064Y-120383916D01*
X141059225Y-120294090D01*
X141053051Y-120223515D01*
X141045692Y-120217340D01*
X141006700Y-119996201D01*
X141006700Y-119777179D01*
X141013312Y-119769300D01*
X141006700Y-119693724D01*
X141006700Y-119607975D01*
X140998478Y-119599753D01*
X140979252Y-119380000D01*
X140998478Y-119160246D01*
X141006700Y-119152025D01*
X141006700Y-119066275D01*
X141008762Y-119042700D01*
X147092025Y-119042700D01*
X147132700Y-119002025D01*
X147132700Y-118297300D01*
X147112700Y-118297300D01*
X147112700Y-117922700D01*
X147132700Y-117922700D01*
X147132700Y-117217975D01*
X147092025Y-117177300D01*
X141353939Y-117177300D01*
X141354962Y-117174492D01*
X141350770Y-117165502D01*
X141408080Y-116951618D01*
X141502008Y-116750188D01*
X141510906Y-116746040D01*
X141535670Y-116678000D01*
X141573716Y-116596411D01*
X141569541Y-116584940D01*
X141643676Y-116381254D01*
X141755807Y-116187038D01*
X141766409Y-116183180D01*
X141801573Y-116107768D01*
X141840826Y-116039782D01*
X141838071Y-116029500D01*
X141932624Y-115826728D01*
X142057881Y-115647843D01*
X142068801Y-115644918D01*
X142110487Y-115572715D01*
X142155709Y-115508132D01*
X142153852Y-115497604D01*
X142263424Y-115307820D01*
X142407265Y-115136397D01*
X142417231Y-115134640D01*
X142460035Y-115073509D01*
X142515822Y-115007025D01*
X142514796Y-114995301D01*
X142641795Y-114813927D01*
X142796928Y-114658794D01*
X142808901Y-114657747D01*
X142865874Y-114589848D01*
X142917659Y-114538064D01*
X142917659Y-114528134D01*
X143060227Y-114358227D01*
X143230134Y-114215659D01*
X143240064Y-114215659D01*
X143291848Y-114163874D01*
X143359747Y-114106901D01*
X143360794Y-114094928D01*
X143515927Y-113939795D01*
X143697301Y-113812796D01*
X143709025Y-113813822D01*
X143775509Y-113758035D01*
X143836640Y-113715231D01*
X143838397Y-113705265D01*
X144009820Y-113561424D01*
X144199604Y-113451852D01*
X144210132Y-113453709D01*
X144274715Y-113408487D01*
X144346918Y-113366801D01*
X144349843Y-113355881D01*
X144528728Y-113230624D01*
X144731500Y-113136071D01*
X144741782Y-113138826D01*
X144809768Y-113099573D01*
X144885180Y-113064409D01*
X144889038Y-113053807D01*
X145083254Y-112941676D01*
X145286940Y-112867541D01*
X145298411Y-112871716D01*
X145380000Y-112833670D01*
X145448040Y-112808906D01*
X145452188Y-112800008D01*
X145753071Y-112659705D01*
X145811732Y-112632351D01*
X145821733Y-112621436D01*
X145824359Y-112628651D01*
X145876492Y-112652962D01*
X146088492Y-112575799D01*
X146222424Y-112571805D01*
X146557942Y-112420957D01*
X146611230Y-112380067D01*
X146681603Y-112256448D01*
X146418278Y-112104417D01*
X146292906Y-111759960D01*
X146240772Y-111735650D01*
X145917972Y-111853139D01*
X145731974Y-111667141D01*
X145705956Y-111693158D01*
X145534396Y-111594108D01*
X145646441Y-111553326D01*
X145731974Y-111638859D01*
X145915397Y-111455435D01*
X146112651Y-111383641D01*
X146136962Y-111331508D01*
X146076401Y-111165119D01*
X146290035Y-110795097D01*
X146167281Y-110723227D01*
X145858515Y-110732436D01*
X145840856Y-110724202D01*
X145776191Y-110721378D01*
X145715368Y-110743516D01*
X145243960Y-110915094D01*
X145219651Y-110967225D01*
X145205740Y-110929005D01*
X145116758Y-110961391D01*
X145094807Y-110953402D01*
X145030142Y-110956225D01*
X144971481Y-110983579D01*
X144671596Y-111123417D01*
X144344099Y-111242617D01*
X144315768Y-111252928D01*
X144307589Y-111254005D01*
X144298683Y-111259146D01*
X144283277Y-111264754D01*
X144273579Y-111273639D01*
X144251534Y-111286368D01*
X143954999Y-111457572D01*
X143648929Y-111600295D01*
X143625576Y-111611184D01*
X143613318Y-111613902D01*
X143600498Y-111622878D01*
X143590268Y-111627649D01*
X143584148Y-111634327D01*
X143560298Y-111651028D01*
X143280085Y-111847233D01*
X142987766Y-112016005D01*
X142963257Y-112030154D01*
X142954132Y-112033032D01*
X142944996Y-112040697D01*
X142931711Y-112048368D01*
X142924219Y-112058131D01*
X142904549Y-112074637D01*
X142648587Y-112289413D01*
X142364930Y-112488033D01*
X142343554Y-112503000D01*
X142332838Y-112507439D01*
X142322614Y-112517662D01*
X142311910Y-112525158D01*
X142306277Y-112533999D01*
X142287070Y-112553207D01*
X142041229Y-112799047D01*
X141786680Y-113012640D01*
X141765917Y-113030062D01*
X141756245Y-113035097D01*
X141747508Y-113045508D01*
X141737097Y-113054245D01*
X141732062Y-113063917D01*
X141714640Y-113084680D01*
X141501047Y-113339229D01*
X141255207Y-113585070D01*
X141235999Y-113604277D01*
X141227158Y-113609910D01*
X141219662Y-113620614D01*
X141209439Y-113630838D01*
X141205000Y-113641554D01*
X141190033Y-113662930D01*
X140991413Y-113946587D01*
X140776637Y-114202549D01*
X140760131Y-114222219D01*
X140750368Y-114229711D01*
X140742697Y-114242996D01*
X140735032Y-114252132D01*
X140732154Y-114261257D01*
X140718005Y-114285766D01*
X140549233Y-114578085D01*
X140353028Y-114858298D01*
X140336327Y-114882148D01*
X140329649Y-114888268D01*
X140324878Y-114898498D01*
X140315902Y-114911318D01*
X140313184Y-114923576D01*
X140302295Y-114946929D01*
X140159572Y-115252999D01*
X139988368Y-115549534D01*
X139975639Y-115571579D01*
X139966754Y-115581277D01*
X139961146Y-115596683D01*
X139956005Y-115605589D01*
X139954928Y-115613768D01*
X139944617Y-115642099D01*
X139825417Y-115969596D01*
X139685579Y-116269481D01*
X139674633Y-116292953D01*
X139667405Y-116302374D01*
X139663574Y-116316670D01*
X139658225Y-116328142D01*
X139657782Y-116338285D01*
X139650652Y-116364895D01*
X139564458Y-116686575D01*
X139445516Y-117013368D01*
X139434960Y-117042367D01*
X139431288Y-117048133D01*
X139429808Y-117056523D01*
X139423378Y-117074191D01*
X139424036Y-117089258D01*
X139420048Y-117111875D01*
X139361445Y-117444227D01*
X139272964Y-117774445D01*
X139266438Y-117798798D01*
X139260052Y-117811067D01*
X139258549Y-117828242D01*
X139256212Y-117836966D01*
X139257157Y-117844149D01*
X139254411Y-117875547D01*
X139224511Y-118217300D01*
X139038975Y-118217300D01*
X138998300Y-118257975D01*
X138998300Y-119192700D01*
X139139174Y-119192700D01*
X139127227Y-119329268D01*
X139124914Y-119355692D01*
X139121585Y-119366253D01*
X139122787Y-119380000D01*
X139121585Y-119393747D01*
X139124914Y-119404307D01*
X139127227Y-119430732D01*
X139139174Y-119567300D01*
X138998300Y-119567300D01*
X138998300Y-120502025D01*
X139038975Y-120542700D01*
X139224511Y-120542700D01*
X139254411Y-120884453D01*
X139257157Y-120915850D01*
X139256212Y-120923034D01*
X139258549Y-120931757D01*
X139260052Y-120948933D01*
X139266438Y-120961201D01*
X139272964Y-120985555D01*
X139361445Y-121315772D01*
X139420048Y-121648125D01*
X139424036Y-121670741D01*
X139423378Y-121685809D01*
X139429808Y-121703476D01*
X139431288Y-121711867D01*
X139434960Y-121717632D01*
X139445516Y-121746632D01*
X139564458Y-122073424D01*
X139650652Y-122395105D01*
X139657782Y-122421714D01*
X139658225Y-122431858D01*
X139663574Y-122443329D01*
X139667405Y-122457626D01*
X139674633Y-122467046D01*
X139685579Y-122490519D01*
X139825417Y-122790403D01*
X139944617Y-123117901D01*
X139954928Y-123146231D01*
X139956005Y-123154411D01*
X139961146Y-123163316D01*
X139966754Y-123178723D01*
X139975639Y-123188420D01*
X139988368Y-123210466D01*
X140159572Y-123507000D01*
X140302295Y-123813071D01*
X140313184Y-123836423D01*
X140315902Y-123848682D01*
X140324878Y-123861501D01*
X140329649Y-123871732D01*
X140336327Y-123877851D01*
X140353028Y-123901702D01*
X140549233Y-124181914D01*
X140718005Y-124474234D01*
X140732154Y-124498742D01*
X140735032Y-124507868D01*
X140742697Y-124517003D01*
X140750368Y-124530289D01*
X140760131Y-124537780D01*
X140776637Y-124557451D01*
X140991413Y-124813412D01*
X141190033Y-125097070D01*
X141205000Y-125118445D01*
X141209439Y-125129162D01*
X141219662Y-125139385D01*
X141227158Y-125150090D01*
X141235999Y-125155722D01*
X141255207Y-125174930D01*
X141501047Y-125420770D01*
X141714640Y-125675320D01*
X141732062Y-125696082D01*
X141737097Y-125705755D01*
X141747508Y-125714491D01*
X141756245Y-125724903D01*
X141765917Y-125729937D01*
X141786680Y-125747360D01*
X142041229Y-125960952D01*
X142287070Y-126206793D01*
X142306277Y-126226000D01*
X142311910Y-126234842D01*
X142322614Y-126242337D01*
X142332838Y-126252561D01*
X142343554Y-126256999D01*
X142364930Y-126271967D01*
X142648587Y-126470586D01*
X142904549Y-126685363D01*
X142924219Y-126701868D01*
X142931711Y-126711632D01*
X142944996Y-126719302D01*
X142954132Y-126726968D01*
X142963257Y-126729845D01*
X142987766Y-126743995D01*
X143280085Y-126912766D01*
X143560298Y-127108972D01*
X143584148Y-127125672D01*
X143590268Y-127132351D01*
X143600498Y-127137121D01*
X143613318Y-127146098D01*
X143625576Y-127148815D01*
X143648929Y-127159705D01*
X143954999Y-127302427D01*
X144251534Y-127473632D01*
X144273579Y-127486360D01*
X144283277Y-127495246D01*
X144298683Y-127500853D01*
X144307589Y-127505995D01*
X144315768Y-127507071D01*
X144344099Y-127517383D01*
X144671596Y-127636582D01*
X144971481Y-127776421D01*
X144994953Y-127787366D01*
X145004374Y-127794595D01*
X145018670Y-127798425D01*
X145030142Y-127803775D01*
X145040285Y-127804217D01*
X145066895Y-127811348D01*
X145388575Y-127897541D01*
X145715368Y-128016484D01*
X145776191Y-128038622D01*
X145840856Y-128035798D01*
X145864101Y-128024958D01*
X145952590Y-128048669D01*
X145963116Y-128009382D01*
X145991877Y-128059196D01*
X146476445Y-128189036D01*
X146538966Y-128205788D01*
X146603138Y-128197339D01*
X146629851Y-128181915D01*
X146864145Y-128185153D01*
X146929722Y-128170614D01*
X147045744Y-128088319D01*
X146799577Y-127736755D01*
X146845187Y-127566537D01*
X146816426Y-127516720D01*
X146600767Y-127458934D01*
X146413974Y-127272141D01*
X146306128Y-127379986D01*
X146223757Y-127357915D01*
X146402720Y-127232605D01*
X146413974Y-127243859D01*
X146589682Y-127068150D01*
X146913379Y-127154885D01*
X146963196Y-127126123D01*
X147057517Y-126774110D01*
X147308457Y-126598401D01*
X147308457Y-127055703D01*
X146953858Y-127303996D01*
X147352599Y-127873457D01*
X147469613Y-127792578D01*
X147615071Y-127454688D01*
X147620153Y-127086855D01*
X147620153Y-131407700D01*
X138623700Y-131407700D01*
X138623700Y-120502025D01*
X138623700Y-119567300D01*
X138623700Y-119192700D01*
X138623700Y-118257975D01*
X138583025Y-118217300D01*
X137778637Y-118217300D01*
X137718838Y-118242070D01*
X137673070Y-118287838D01*
X137648300Y-118347637D01*
X137648300Y-118412363D01*
X137648300Y-119152025D01*
X137688975Y-119192700D01*
X138623700Y-119192700D01*
X138623700Y-119567300D01*
X137688975Y-119567300D01*
X137648300Y-119607975D01*
X137648300Y-120347637D01*
X137648300Y-120412363D01*
X137673070Y-120472162D01*
X137718838Y-120517930D01*
X137778637Y-120542700D01*
X138583025Y-120542700D01*
X138623700Y-120502025D01*
X138623700Y-131407700D01*
X134408917Y-131407700D01*
X134408917Y-124844810D01*
X134408917Y-124044710D01*
X134393181Y-123963608D01*
X134346357Y-123892327D01*
X134275670Y-123844612D01*
X134192050Y-123827843D01*
X134129700Y-123827843D01*
X134129700Y-113408157D01*
X134192050Y-113408157D01*
X134273152Y-113392421D01*
X134344433Y-113345597D01*
X134392148Y-113274910D01*
X134408917Y-113191290D01*
X134408917Y-112391190D01*
X134393181Y-112310088D01*
X134346357Y-112238807D01*
X134275670Y-112191092D01*
X134192050Y-112174323D01*
X133391950Y-112174323D01*
X133310848Y-112190059D01*
X133239567Y-112236883D01*
X133191852Y-112307570D01*
X133175083Y-112391190D01*
X133175083Y-113191290D01*
X133190819Y-113272392D01*
X133237643Y-113343673D01*
X133308330Y-113391388D01*
X133391950Y-113408157D01*
X133454300Y-113408157D01*
X133454300Y-114366374D01*
X133443181Y-114309068D01*
X133396357Y-114237787D01*
X133325670Y-114190072D01*
X133242050Y-114173303D01*
X132508917Y-114173303D01*
X132508917Y-113191290D01*
X132508917Y-112391190D01*
X132493181Y-112310088D01*
X132446357Y-112238807D01*
X132375670Y-112191092D01*
X132292050Y-112174323D01*
X132229700Y-112174323D01*
X132229700Y-111065438D01*
X132260392Y-111034800D01*
X132338610Y-110846430D01*
X132338788Y-110642465D01*
X132260899Y-110453958D01*
X132116800Y-110309608D01*
X131928430Y-110231390D01*
X131724465Y-110231212D01*
X131535958Y-110309101D01*
X131391608Y-110453200D01*
X131313390Y-110641570D01*
X131313212Y-110845535D01*
X131391101Y-111034042D01*
X131535200Y-111178392D01*
X131554300Y-111186323D01*
X131554300Y-112174323D01*
X131491950Y-112174323D01*
X131410848Y-112190059D01*
X131339567Y-112236883D01*
X131291852Y-112307570D01*
X131275083Y-112391190D01*
X131275083Y-113191290D01*
X131290819Y-113272392D01*
X131337643Y-113343673D01*
X131408330Y-113391388D01*
X131491950Y-113408157D01*
X132292050Y-113408157D01*
X132373152Y-113392421D01*
X132444433Y-113345597D01*
X132492148Y-113274910D01*
X132508917Y-113191290D01*
X132508917Y-114173303D01*
X132441950Y-114173303D01*
X132360848Y-114189039D01*
X132289567Y-114235863D01*
X132241852Y-114306550D01*
X132225083Y-114390170D01*
X132225083Y-114452520D01*
X130827780Y-114452520D01*
X130698547Y-114478226D01*
X130588990Y-114551430D01*
X130083088Y-115057331D01*
X129946465Y-115057212D01*
X129757958Y-115135101D01*
X129613608Y-115279200D01*
X129535390Y-115467570D01*
X129535212Y-115671535D01*
X129613101Y-115860042D01*
X129757200Y-116004392D01*
X129945570Y-116082610D01*
X130149535Y-116082788D01*
X130338042Y-116004899D01*
X130482392Y-115860800D01*
X130560610Y-115672430D01*
X130560730Y-115534849D01*
X130967660Y-115127920D01*
X132225083Y-115127920D01*
X132225083Y-115190270D01*
X132240819Y-115271372D01*
X132287643Y-115342653D01*
X132358330Y-115390368D01*
X132441950Y-115407137D01*
X132504300Y-115407137D01*
X132504300Y-121828863D01*
X132441950Y-121828863D01*
X132360848Y-121844599D01*
X132289567Y-121891423D01*
X132241852Y-121962110D01*
X132225083Y-122045730D01*
X132225083Y-122845830D01*
X132240819Y-122926932D01*
X132287643Y-122998213D01*
X132358330Y-123045928D01*
X132441950Y-123062697D01*
X133242050Y-123062697D01*
X133323152Y-123046961D01*
X133394433Y-123000137D01*
X133442148Y-122929450D01*
X133454300Y-122868853D01*
X133454300Y-123827843D01*
X133391950Y-123827843D01*
X133310848Y-123843579D01*
X133239567Y-123890403D01*
X133191852Y-123961090D01*
X133175083Y-124044710D01*
X133175083Y-124844810D01*
X133190819Y-124925912D01*
X133237643Y-124997193D01*
X133308330Y-125044908D01*
X133391950Y-125061677D01*
X134192050Y-125061677D01*
X134273152Y-125045941D01*
X134344433Y-124999117D01*
X134392148Y-124928430D01*
X134408917Y-124844810D01*
X134408917Y-131407700D01*
X133366181Y-131407700D01*
X131470075Y-131030541D01*
X129876352Y-129965649D01*
X128811459Y-128371926D01*
X128434300Y-126475818D01*
X128434300Y-96915112D01*
X128764412Y-95007518D01*
X129789472Y-93387155D01*
X131356589Y-92282410D01*
X133241259Y-91858300D01*
X163178818Y-91858300D01*
X165074926Y-92235459D01*
X166668649Y-93300352D01*
X167733541Y-94894075D01*
X168110700Y-96790181D01*
X168110700Y-126475818D01*
X168110700Y-126475818D01*
G37*
X168110700Y-126475818D02*
X167733541Y-128371924D01*
X167215700Y-129146927D01*
X167215700Y-114300000D01*
X167215700Y-95250000D01*
X167189994Y-95120768D01*
X167116790Y-95011210D01*
X166100790Y-93995210D01*
X165991232Y-93922006D01*
X165862000Y-93896300D01*
X137414000Y-93896300D01*
X137284768Y-93922006D01*
X137175210Y-93995210D01*
X136841210Y-94329210D01*
X136768006Y-94438768D01*
X136742300Y-94568000D01*
X136742300Y-95653133D01*
X136330000Y-95653133D01*
X136248898Y-95668869D01*
X136177617Y-95715693D01*
X136129902Y-95786380D01*
X136113133Y-95870000D01*
X136113133Y-96182300D01*
X134874000Y-96182300D01*
X134744768Y-96208006D01*
X134635210Y-96281210D01*
X131841210Y-99075210D01*
X131768006Y-99184768D01*
X131742300Y-99314000D01*
X131742300Y-99637133D01*
X131455000Y-99637133D01*
X131373898Y-99652869D01*
X131302617Y-99699693D01*
X131254902Y-99770380D01*
X131238133Y-99854000D01*
X131238133Y-101354000D01*
X131253869Y-101435102D01*
X131300693Y-101506383D01*
X131371380Y-101554098D01*
X131455000Y-101570867D01*
X132705000Y-101570867D01*
X132786102Y-101555131D01*
X132857383Y-101508307D01*
X132905098Y-101437620D01*
X132921867Y-101354000D01*
X132921867Y-99854000D01*
X132906131Y-99772898D01*
X132859307Y-99701617D01*
X132788620Y-99653902D01*
X132705000Y-99637133D01*
X132417700Y-99637133D01*
X132417700Y-99453880D01*
X135013880Y-96857700D01*
X136113133Y-96857700D01*
X136113133Y-97170000D01*
X136128869Y-97251102D01*
X136175693Y-97322383D01*
X136246380Y-97370098D01*
X136330000Y-97386867D01*
X137830000Y-97386867D01*
X137911102Y-97371131D01*
X137982383Y-97324307D01*
X138030098Y-97253620D01*
X138046867Y-97170000D01*
X138046867Y-95870000D01*
X138031131Y-95788898D01*
X137984307Y-95717617D01*
X137913620Y-95669902D01*
X137830000Y-95653133D01*
X137417700Y-95653133D01*
X137417700Y-94707880D01*
X137553880Y-94571700D01*
X165722120Y-94571700D01*
X166540300Y-95389880D01*
X166540300Y-114160120D01*
X166247900Y-114452520D01*
X164925867Y-114452520D01*
X164925867Y-103854000D01*
X164925867Y-102354000D01*
X164925867Y-101354000D01*
X164925867Y-99854000D01*
X164910131Y-99772898D01*
X164863307Y-99701617D01*
X164792620Y-99653902D01*
X164709000Y-99637133D01*
X163459000Y-99637133D01*
X163377898Y-99652869D01*
X163306617Y-99699693D01*
X163258902Y-99770380D01*
X163242133Y-99854000D01*
X163242133Y-100266300D01*
X162540000Y-100266300D01*
X162410767Y-100292006D01*
X162301210Y-100365210D01*
X161559210Y-101107210D01*
X161486006Y-101216768D01*
X161460300Y-101346000D01*
X161460300Y-106794120D01*
X161150120Y-107104300D01*
X160550700Y-107104300D01*
X160550700Y-103386363D01*
X160550700Y-103321637D01*
X160550700Y-102081975D01*
X160550700Y-101626025D01*
X160550700Y-100386363D01*
X160550700Y-100321637D01*
X160525930Y-100261838D01*
X160480162Y-100216070D01*
X160420363Y-100191300D01*
X160250700Y-100191300D01*
X160250700Y-97202363D01*
X160250700Y-97137637D01*
X160250700Y-96747975D01*
X160250700Y-96292025D01*
X160250700Y-95902363D01*
X160250700Y-95837637D01*
X160225930Y-95777838D01*
X160180162Y-95732070D01*
X160120363Y-95707300D01*
X159565975Y-95707300D01*
X159525300Y-95747975D01*
X159525300Y-96332700D01*
X160210025Y-96332700D01*
X160250700Y-96292025D01*
X160250700Y-96747975D01*
X160210025Y-96707300D01*
X159525300Y-96707300D01*
X159525300Y-97292025D01*
X159565975Y-97332700D01*
X160120363Y-97332700D01*
X160180162Y-97307930D01*
X160225930Y-97262162D01*
X160250700Y-97202363D01*
X160250700Y-100191300D01*
X159865975Y-100191300D01*
X159825300Y-100231975D01*
X159825300Y-101666700D01*
X160510025Y-101666700D01*
X160550700Y-101626025D01*
X160550700Y-102081975D01*
X160510025Y-102041300D01*
X159825300Y-102041300D01*
X159825300Y-103476025D01*
X159865975Y-103516700D01*
X160420363Y-103516700D01*
X160480162Y-103491930D01*
X160525930Y-103446162D01*
X160550700Y-103386363D01*
X160550700Y-107104300D01*
X160304867Y-107104300D01*
X160304867Y-106792000D01*
X160289131Y-106710898D01*
X160242307Y-106639617D01*
X160171620Y-106591902D01*
X160088000Y-106575133D01*
X159450700Y-106575133D01*
X159450700Y-103476025D01*
X159450700Y-102041300D01*
X159450700Y-101666700D01*
X159450700Y-100231975D01*
X159410025Y-100191300D01*
X159150700Y-100191300D01*
X159150700Y-97292025D01*
X159150700Y-96707300D01*
X159150700Y-96332700D01*
X159150700Y-95747975D01*
X159110025Y-95707300D01*
X158555637Y-95707300D01*
X158495838Y-95732070D01*
X158450070Y-95777838D01*
X158425300Y-95837637D01*
X158425300Y-95902363D01*
X158425300Y-96292025D01*
X158465975Y-96332700D01*
X159150700Y-96332700D01*
X159150700Y-96707300D01*
X158465975Y-96707300D01*
X158425300Y-96747975D01*
X158425300Y-97137637D01*
X158425300Y-97202363D01*
X158450070Y-97262162D01*
X158495838Y-97307930D01*
X158555637Y-97332700D01*
X159110025Y-97332700D01*
X159150700Y-97292025D01*
X159150700Y-100191300D01*
X158855637Y-100191300D01*
X158795838Y-100216070D01*
X158750070Y-100261838D01*
X158725300Y-100321637D01*
X158725300Y-100386363D01*
X158725300Y-101626025D01*
X158765975Y-101666700D01*
X159450700Y-101666700D01*
X159450700Y-102041300D01*
X158765975Y-102041300D01*
X158725300Y-102081975D01*
X158725300Y-103321637D01*
X158725300Y-103386363D01*
X158750070Y-103446162D01*
X158795838Y-103491930D01*
X158855637Y-103516700D01*
X159410025Y-103516700D01*
X159450700Y-103476025D01*
X159450700Y-106575133D01*
X158588000Y-106575133D01*
X158506898Y-106590869D01*
X158435617Y-106637693D01*
X158387902Y-106708380D01*
X158371133Y-106792000D01*
X158371133Y-108092000D01*
X158386869Y-108173102D01*
X158433693Y-108244383D01*
X158504380Y-108292098D01*
X158588000Y-108308867D01*
X159000300Y-108308867D01*
X159000300Y-120730000D01*
X159026006Y-120859232D01*
X159099210Y-120968790D01*
X160814990Y-122684570D01*
X160924548Y-122757774D01*
X161053780Y-122783480D01*
X162705083Y-122783480D01*
X162705083Y-122845830D01*
X162720819Y-122926932D01*
X162767643Y-122998213D01*
X162838330Y-123045928D01*
X162921950Y-123062697D01*
X163722050Y-123062697D01*
X163803152Y-123046961D01*
X163874433Y-123000137D01*
X163922148Y-122929450D01*
X163934300Y-122868853D01*
X163934300Y-123827843D01*
X163871950Y-123827843D01*
X163790848Y-123843579D01*
X163719567Y-123890403D01*
X163671852Y-123961090D01*
X163655083Y-124044710D01*
X163655083Y-124844810D01*
X163670819Y-124925912D01*
X163717643Y-124997193D01*
X163788330Y-125044908D01*
X163871950Y-125061677D01*
X164672050Y-125061677D01*
X164753152Y-125045941D01*
X164824433Y-124999117D01*
X164872148Y-124928430D01*
X164888917Y-124844810D01*
X164888917Y-124044710D01*
X164873181Y-123963608D01*
X164826357Y-123892327D01*
X164755670Y-123844612D01*
X164672050Y-123827843D01*
X164609700Y-123827843D01*
X164609700Y-117790000D01*
X164583994Y-117660768D01*
X164583994Y-117660767D01*
X164510790Y-117551210D01*
X164068790Y-117109210D01*
X163959232Y-117036006D01*
X163830000Y-117010300D01*
X160667880Y-117010300D01*
X160611700Y-116954120D01*
X160611700Y-115824000D01*
X160611700Y-113677880D01*
X161160640Y-113128940D01*
X161755083Y-113128940D01*
X161755083Y-113191290D01*
X161770819Y-113272392D01*
X161817643Y-113343673D01*
X161888330Y-113391388D01*
X161971950Y-113408157D01*
X162772050Y-113408157D01*
X162853152Y-113392421D01*
X162924433Y-113345597D01*
X162972148Y-113274910D01*
X162988917Y-113191290D01*
X162988917Y-112391190D01*
X162973181Y-112310088D01*
X162926357Y-112238807D01*
X162855670Y-112191092D01*
X162772050Y-112174323D01*
X162709700Y-112174323D01*
X162709700Y-111573438D01*
X162740392Y-111542800D01*
X162818610Y-111354430D01*
X162818788Y-111150465D01*
X162740899Y-110961958D01*
X162596800Y-110817608D01*
X162408430Y-110739390D01*
X162204465Y-110739212D01*
X162015958Y-110817101D01*
X161871608Y-110961200D01*
X161793390Y-111149570D01*
X161793212Y-111353535D01*
X161871101Y-111542042D01*
X162015200Y-111686392D01*
X162034300Y-111694323D01*
X162034300Y-112174323D01*
X161971950Y-112174323D01*
X161890848Y-112190059D01*
X161819567Y-112236883D01*
X161771852Y-112307570D01*
X161755083Y-112391190D01*
X161755083Y-112453540D01*
X161020760Y-112453540D01*
X160891528Y-112479246D01*
X160781970Y-112552450D01*
X160035210Y-113299210D01*
X159962006Y-113408768D01*
X159936300Y-113538000D01*
X159936300Y-115824000D01*
X159936300Y-117094000D01*
X159962006Y-117223232D01*
X160035210Y-117332790D01*
X160289210Y-117586790D01*
X160398768Y-117659994D01*
X160528000Y-117685700D01*
X163690120Y-117685700D01*
X163934300Y-117929880D01*
X163934300Y-122021934D01*
X163923181Y-121964628D01*
X163876357Y-121893347D01*
X163805670Y-121845632D01*
X163722050Y-121828863D01*
X162921950Y-121828863D01*
X162840848Y-121844599D01*
X162769567Y-121891423D01*
X162721852Y-121962110D01*
X162705083Y-122045730D01*
X162705083Y-122108080D01*
X161193659Y-122108080D01*
X159675700Y-120590120D01*
X159675700Y-108308867D01*
X160088000Y-108308867D01*
X160169102Y-108293131D01*
X160240383Y-108246307D01*
X160288098Y-108175620D01*
X160304867Y-108092000D01*
X160304867Y-107779700D01*
X161290000Y-107779700D01*
X161419232Y-107753994D01*
X161528790Y-107680790D01*
X162036790Y-107172790D01*
X162109994Y-107063233D01*
X162109994Y-107063232D01*
X162135700Y-106934000D01*
X162135700Y-101485880D01*
X162679880Y-100941700D01*
X163242133Y-100941700D01*
X163242133Y-101354000D01*
X163257869Y-101435102D01*
X163304693Y-101506383D01*
X163375380Y-101554098D01*
X163459000Y-101570867D01*
X164709000Y-101570867D01*
X164790102Y-101555131D01*
X164861383Y-101508307D01*
X164909098Y-101437620D01*
X164925867Y-101354000D01*
X164925867Y-102354000D01*
X164910131Y-102272898D01*
X164863307Y-102201617D01*
X164792620Y-102153902D01*
X164709000Y-102137133D01*
X163459000Y-102137133D01*
X163377898Y-102152869D01*
X163306617Y-102199693D01*
X163258902Y-102270380D01*
X163242133Y-102354000D01*
X163242133Y-103854000D01*
X163257869Y-103935102D01*
X163304693Y-104006383D01*
X163375380Y-104054098D01*
X163459000Y-104070867D01*
X163675553Y-104070867D01*
X163103088Y-104643331D01*
X162966465Y-104643212D01*
X162777958Y-104721101D01*
X162633608Y-104865200D01*
X162555390Y-105053570D01*
X162555212Y-105257535D01*
X162633101Y-105446042D01*
X162777200Y-105590392D01*
X162965570Y-105668610D01*
X163169535Y-105668788D01*
X163358042Y-105590899D01*
X163502392Y-105446800D01*
X163580610Y-105258430D01*
X163580730Y-105120849D01*
X163746300Y-104955280D01*
X163746300Y-112219322D01*
X163719567Y-112236883D01*
X163671852Y-112307570D01*
X163655083Y-112391190D01*
X163655083Y-113191290D01*
X163670819Y-113272392D01*
X163717643Y-113343673D01*
X163788330Y-113391388D01*
X163871950Y-113408157D01*
X164672050Y-113408157D01*
X164753152Y-113392421D01*
X164824433Y-113345597D01*
X164872148Y-113274910D01*
X164888917Y-113191290D01*
X164888917Y-112391190D01*
X164873181Y-112310088D01*
X164826357Y-112238807D01*
X164755670Y-112191092D01*
X164672050Y-112174323D01*
X164421700Y-112174323D01*
X164421700Y-104140000D01*
X164421700Y-104070867D01*
X164709000Y-104070867D01*
X164790102Y-104055131D01*
X164861383Y-104008307D01*
X164909098Y-103937620D01*
X164925867Y-103854000D01*
X164925867Y-114452520D01*
X163938917Y-114452520D01*
X163938917Y-114390170D01*
X163923181Y-114309068D01*
X163876357Y-114237787D01*
X163805670Y-114190072D01*
X163722050Y-114173303D01*
X162921950Y-114173303D01*
X162840848Y-114189039D01*
X162769567Y-114235863D01*
X162721852Y-114306550D01*
X162705083Y-114390170D01*
X162705083Y-115190270D01*
X162720819Y-115271372D01*
X162767643Y-115342653D01*
X162838330Y-115390368D01*
X162921950Y-115407137D01*
X163722050Y-115407137D01*
X163803152Y-115391401D01*
X163874433Y-115344577D01*
X163922148Y-115273890D01*
X163938917Y-115190270D01*
X163938917Y-115127920D01*
X166387780Y-115127920D01*
X166517012Y-115102214D01*
X166626570Y-115029010D01*
X167116790Y-114538790D01*
X167189994Y-114429232D01*
X167215700Y-114300000D01*
X167215700Y-129146927D01*
X166668649Y-129965647D01*
X165074926Y-131030540D01*
X163178818Y-131407700D01*
X162988917Y-131407700D01*
X162988917Y-124844810D01*
X162988917Y-124044710D01*
X162973181Y-123963608D01*
X162926357Y-123892327D01*
X162855670Y-123844612D01*
X162772050Y-123827843D01*
X161971950Y-123827843D01*
X161890848Y-123843579D01*
X161819567Y-123890403D01*
X161771852Y-123961090D01*
X161755083Y-124044710D01*
X161755083Y-124844810D01*
X161770819Y-124925912D01*
X161817643Y-124997193D01*
X161888330Y-125044908D01*
X161971950Y-125061677D01*
X162034300Y-125061677D01*
X162034300Y-126049522D01*
X162015958Y-126057101D01*
X161871608Y-126201200D01*
X161793390Y-126389570D01*
X161793212Y-126593535D01*
X161871101Y-126782042D01*
X162015200Y-126926392D01*
X162203570Y-127004610D01*
X162407535Y-127004788D01*
X162596042Y-126926899D01*
X162740392Y-126782800D01*
X162818610Y-126594430D01*
X162818788Y-126390465D01*
X162740899Y-126201958D01*
X162709700Y-126170704D01*
X162709700Y-125061677D01*
X162772050Y-125061677D01*
X162853152Y-125045941D01*
X162924433Y-124999117D01*
X162972148Y-124928430D01*
X162988917Y-124844810D01*
X162988917Y-131407700D01*
X158569867Y-131407700D01*
X158569867Y-120380000D01*
X158569867Y-118380000D01*
X158554131Y-118298898D01*
X158507307Y-118227617D01*
X158436620Y-118179902D01*
X158353000Y-118163133D01*
X157604867Y-118163133D01*
X157604867Y-108092000D01*
X157604867Y-106792000D01*
X157604867Y-97170000D01*
X157604867Y-95870000D01*
X157589131Y-95788898D01*
X157542307Y-95717617D01*
X157471620Y-95669902D01*
X157388000Y-95653133D01*
X155888000Y-95653133D01*
X155806898Y-95668869D01*
X155735617Y-95715693D01*
X155687902Y-95786380D01*
X155671133Y-95870000D01*
X155671133Y-96182300D01*
X144780000Y-96182300D01*
X144650767Y-96208006D01*
X144541210Y-96281210D01*
X143017210Y-97805210D01*
X142944006Y-97914768D01*
X142918300Y-98044000D01*
X142918300Y-102476120D01*
X140992700Y-104401720D01*
X140992700Y-103386363D01*
X140992700Y-103321637D01*
X140992700Y-102081975D01*
X140992700Y-101626025D01*
X140992700Y-100386363D01*
X140992700Y-100321637D01*
X140967930Y-100261838D01*
X140922162Y-100216070D01*
X140862363Y-100191300D01*
X140746867Y-100191300D01*
X140746867Y-97170000D01*
X140746867Y-95870000D01*
X140731131Y-95788898D01*
X140684307Y-95717617D01*
X140613620Y-95669902D01*
X140530000Y-95653133D01*
X139030000Y-95653133D01*
X138948898Y-95668869D01*
X138877617Y-95715693D01*
X138829902Y-95786380D01*
X138813133Y-95870000D01*
X138813133Y-97170000D01*
X138828869Y-97251102D01*
X138875693Y-97322383D01*
X138946380Y-97370098D01*
X139030000Y-97386867D01*
X139442300Y-97386867D01*
X139442300Y-98586120D01*
X139306120Y-98722300D01*
X137668000Y-98722300D01*
X137538768Y-98748006D01*
X137429210Y-98821210D01*
X136541210Y-99709210D01*
X136468006Y-99818768D01*
X136442300Y-99948000D01*
X136442300Y-100137133D01*
X136030000Y-100137133D01*
X135948898Y-100152869D01*
X135877617Y-100199693D01*
X135829902Y-100270380D01*
X135813133Y-100354000D01*
X135813133Y-103354000D01*
X135828869Y-103435102D01*
X135875693Y-103506383D01*
X135946380Y-103554098D01*
X136030000Y-103570867D01*
X137530000Y-103570867D01*
X137611102Y-103555131D01*
X137682383Y-103508307D01*
X137730098Y-103437620D01*
X137746867Y-103354000D01*
X137746867Y-100354000D01*
X137731131Y-100272898D01*
X137684307Y-100201617D01*
X137613620Y-100153902D01*
X137530000Y-100137133D01*
X137117700Y-100137133D01*
X137117700Y-100087880D01*
X137807880Y-99397700D01*
X139446000Y-99397700D01*
X139575232Y-99371994D01*
X139684790Y-99298790D01*
X140018790Y-98964790D01*
X140091994Y-98855232D01*
X140117700Y-98726000D01*
X140117700Y-97386867D01*
X140530000Y-97386867D01*
X140611102Y-97371131D01*
X140682383Y-97324307D01*
X140730098Y-97253620D01*
X140746867Y-97170000D01*
X140746867Y-100191300D01*
X140307975Y-100191300D01*
X140267300Y-100231975D01*
X140267300Y-101666700D01*
X140952025Y-101666700D01*
X140992700Y-101626025D01*
X140992700Y-102081975D01*
X140952025Y-102041300D01*
X140267300Y-102041300D01*
X140267300Y-103476025D01*
X140307975Y-103516700D01*
X140862363Y-103516700D01*
X140922162Y-103491930D01*
X140967930Y-103446162D01*
X140992700Y-103386363D01*
X140992700Y-104401720D01*
X140322120Y-105072300D01*
X139892700Y-105072300D01*
X139892700Y-103476025D01*
X139892700Y-102041300D01*
X139892700Y-101666700D01*
X139892700Y-100231975D01*
X139852025Y-100191300D01*
X139297637Y-100191300D01*
X139237838Y-100216070D01*
X139192070Y-100261838D01*
X139167300Y-100321637D01*
X139167300Y-100386363D01*
X139167300Y-101626025D01*
X139207975Y-101666700D01*
X139892700Y-101666700D01*
X139892700Y-102041300D01*
X139207975Y-102041300D01*
X139167300Y-102081975D01*
X139167300Y-103321637D01*
X139167300Y-103386363D01*
X139192070Y-103446162D01*
X139237838Y-103491930D01*
X139297637Y-103516700D01*
X139852025Y-103516700D01*
X139892700Y-103476025D01*
X139892700Y-105072300D01*
X132727880Y-105072300D01*
X132417700Y-104762120D01*
X132417700Y-104070867D01*
X132705000Y-104070867D01*
X132786102Y-104055131D01*
X132857383Y-104008307D01*
X132905098Y-103937620D01*
X132921867Y-103854000D01*
X132921867Y-102354000D01*
X132906131Y-102272898D01*
X132859307Y-102201617D01*
X132788620Y-102153902D01*
X132705000Y-102137133D01*
X131455000Y-102137133D01*
X131373898Y-102152869D01*
X131302617Y-102199693D01*
X131254902Y-102270380D01*
X131238133Y-102354000D01*
X131238133Y-103854000D01*
X131253869Y-103935102D01*
X131300693Y-104006383D01*
X131371380Y-104054098D01*
X131455000Y-104070867D01*
X131742300Y-104070867D01*
X131742300Y-104902000D01*
X131768006Y-105031232D01*
X131841210Y-105140790D01*
X132349210Y-105648790D01*
X132458767Y-105721994D01*
X132458768Y-105721994D01*
X132588000Y-105747700D01*
X140462000Y-105747700D01*
X140591232Y-105721994D01*
X140700790Y-105648790D01*
X143494790Y-102854790D01*
X143567994Y-102745232D01*
X143593700Y-102616000D01*
X143593700Y-98183880D01*
X144919880Y-96857700D01*
X155671133Y-96857700D01*
X155671133Y-97170000D01*
X155686869Y-97251102D01*
X155733693Y-97322383D01*
X155804380Y-97370098D01*
X155888000Y-97386867D01*
X156300300Y-97386867D01*
X156300300Y-97810897D01*
X156173958Y-97863101D01*
X156029608Y-98007200D01*
X155951390Y-98195570D01*
X155951212Y-98399535D01*
X156029101Y-98588042D01*
X156173200Y-98732392D01*
X156361570Y-98810610D01*
X156565535Y-98810788D01*
X156754042Y-98732899D01*
X156898392Y-98588800D01*
X156976610Y-98400430D01*
X156976788Y-98196465D01*
X156966323Y-98171138D01*
X156975700Y-98124000D01*
X156975700Y-97386867D01*
X157388000Y-97386867D01*
X157469102Y-97371131D01*
X157540383Y-97324307D01*
X157588098Y-97253620D01*
X157604867Y-97170000D01*
X157604867Y-106792000D01*
X157589131Y-106710898D01*
X157542307Y-106639617D01*
X157471620Y-106591902D01*
X157388000Y-106575133D01*
X156675700Y-106575133D01*
X156675700Y-103570867D01*
X157088000Y-103570867D01*
X157169102Y-103555131D01*
X157240383Y-103508307D01*
X157288098Y-103437620D01*
X157304867Y-103354000D01*
X157304867Y-100354000D01*
X157289131Y-100272898D01*
X157242307Y-100201617D01*
X157171620Y-100153902D01*
X157088000Y-100137133D01*
X155588000Y-100137133D01*
X155506898Y-100152869D01*
X155435617Y-100199693D01*
X155387902Y-100270380D01*
X155371133Y-100354000D01*
X155371133Y-103354000D01*
X155386869Y-103435102D01*
X155433693Y-103506383D01*
X155504380Y-103554098D01*
X155588000Y-103570867D01*
X156000300Y-103570867D01*
X156000300Y-106575133D01*
X155888000Y-106575133D01*
X155806898Y-106590869D01*
X155735617Y-106637693D01*
X155687902Y-106708380D01*
X155671133Y-106792000D01*
X155671133Y-108092000D01*
X155686869Y-108173102D01*
X155733693Y-108244383D01*
X155804380Y-108292098D01*
X155888000Y-108308867D01*
X157388000Y-108308867D01*
X157469102Y-108293131D01*
X157540383Y-108246307D01*
X157588098Y-108175620D01*
X157604867Y-108092000D01*
X157604867Y-118163133D01*
X156989124Y-118163133D01*
X156960730Y-117838586D01*
X156953008Y-117811622D01*
X156951733Y-117791686D01*
X156855487Y-117432494D01*
X156791676Y-117070599D01*
X156784515Y-117051925D01*
X156780453Y-117025253D01*
X156651250Y-116670272D01*
X156557292Y-116319615D01*
X156546355Y-116297171D01*
X156541190Y-116275919D01*
X156388670Y-115948839D01*
X156259214Y-115593162D01*
X156245326Y-115570031D01*
X156238723Y-115550477D01*
X156052520Y-115227964D01*
X155897119Y-114894706D01*
X155883844Y-114876421D01*
X155873906Y-114853739D01*
X155660491Y-114548951D01*
X155476723Y-114230655D01*
X155459945Y-114211341D01*
X155449660Y-114192523D01*
X155215604Y-113913586D01*
X154999776Y-113605351D01*
X154982876Y-113589019D01*
X154969979Y-113569652D01*
X154702922Y-113302595D01*
X154470052Y-113025071D01*
X154451218Y-113009809D01*
X154436929Y-112991948D01*
X154159404Y-112759077D01*
X153892348Y-112492021D01*
X153871933Y-112478241D01*
X153856649Y-112462224D01*
X153692380Y-112347201D01*
X153692380Y-106982395D01*
X153692380Y-104442395D01*
X153534657Y-104060675D01*
X153242861Y-103768370D01*
X152861417Y-103609980D01*
X152448395Y-103609620D01*
X152066675Y-103767343D01*
X151774370Y-104059139D01*
X151615980Y-104440583D01*
X151615620Y-104853605D01*
X151773343Y-105235325D01*
X152065139Y-105527630D01*
X152446583Y-105686020D01*
X152859605Y-105686380D01*
X153241325Y-105528657D01*
X153533630Y-105236861D01*
X153692020Y-104855417D01*
X153692380Y-104442395D01*
X153692380Y-106982395D01*
X153534657Y-106600675D01*
X153242861Y-106308370D01*
X152861417Y-106149980D01*
X152448395Y-106149620D01*
X152066675Y-106307343D01*
X151774370Y-106599139D01*
X151615980Y-106980583D01*
X151615620Y-107393605D01*
X151773343Y-107775325D01*
X152065139Y-108067630D01*
X152446583Y-108226020D01*
X152859605Y-108226380D01*
X153241325Y-108068657D01*
X153533630Y-107776861D01*
X153692020Y-107395417D01*
X153692380Y-106982395D01*
X153692380Y-112347201D01*
X153548413Y-112246395D01*
X153269477Y-112012340D01*
X153249526Y-112001272D01*
X153231345Y-111985277D01*
X152913048Y-111801508D01*
X152608261Y-111588094D01*
X152584385Y-111577454D01*
X152567294Y-111564881D01*
X152234035Y-111409479D01*
X151911523Y-111223277D01*
X151890699Y-111216098D01*
X151868838Y-111202786D01*
X151513160Y-111073329D01*
X151186081Y-110920810D01*
X151105928Y-110900796D01*
X151058242Y-110907752D01*
X150436747Y-110681547D01*
X150355154Y-110668595D01*
X150313510Y-110678439D01*
X149959971Y-110678131D01*
X149769700Y-110756749D01*
X149769700Y-106784867D01*
X150182000Y-106784867D01*
X150263102Y-106769131D01*
X150334383Y-106722307D01*
X150382098Y-106651620D01*
X150398867Y-106568000D01*
X150398867Y-105268000D01*
X150383131Y-105186898D01*
X150336307Y-105115617D01*
X150265620Y-105067902D01*
X150182000Y-105051133D01*
X148682000Y-105051133D01*
X148600898Y-105066869D01*
X148529617Y-105113693D01*
X148481902Y-105184380D01*
X148465133Y-105268000D01*
X148465133Y-106568000D01*
X148480869Y-106649102D01*
X148527693Y-106720383D01*
X148598380Y-106768098D01*
X148682000Y-106784867D01*
X149094300Y-106784867D01*
X149094300Y-110932000D01*
X149120006Y-111061232D01*
X149193210Y-111170790D01*
X149267141Y-111244721D01*
X149178469Y-111458270D01*
X149178131Y-111846029D01*
X149326207Y-112204402D01*
X149600156Y-112478829D01*
X149958270Y-112627531D01*
X150059507Y-112627619D01*
X150763245Y-112883759D01*
X151329198Y-113147667D01*
X151860149Y-113454212D01*
X152355487Y-113801051D01*
X152703576Y-114093133D01*
X147698867Y-114093133D01*
X147698867Y-106568000D01*
X147698867Y-105268000D01*
X147683131Y-105186898D01*
X147636307Y-105115617D01*
X147565620Y-105067902D01*
X147482000Y-105051133D01*
X145982000Y-105051133D01*
X145900898Y-105066869D01*
X145829617Y-105113693D01*
X145781902Y-105184380D01*
X145765133Y-105268000D01*
X145765133Y-106568000D01*
X145780869Y-106649102D01*
X145827693Y-106720383D01*
X145898380Y-106768098D01*
X145982000Y-106784867D01*
X146394300Y-106784867D01*
X146394300Y-108144120D01*
X145910120Y-108628300D01*
X144548380Y-108628300D01*
X144548380Y-106982395D01*
X144548380Y-104442395D01*
X144390657Y-104060675D01*
X144098861Y-103768370D01*
X143717417Y-103609980D01*
X143304395Y-103609620D01*
X142922675Y-103767343D01*
X142630370Y-104059139D01*
X142471980Y-104440583D01*
X142471620Y-104853605D01*
X142629343Y-105235325D01*
X142921139Y-105527630D01*
X143302583Y-105686020D01*
X143715605Y-105686380D01*
X144097325Y-105528657D01*
X144389630Y-105236861D01*
X144548020Y-104855417D01*
X144548380Y-104442395D01*
X144548380Y-106982395D01*
X144390657Y-106600675D01*
X144098861Y-106308370D01*
X143717417Y-106149980D01*
X143304395Y-106149620D01*
X142922675Y-106307343D01*
X142630370Y-106599139D01*
X142471980Y-106980583D01*
X142471620Y-107393605D01*
X142629343Y-107775325D01*
X142921139Y-108067630D01*
X143302583Y-108226020D01*
X143715605Y-108226380D01*
X144097325Y-108068657D01*
X144389630Y-107776861D01*
X144548020Y-107395417D01*
X144548380Y-106982395D01*
X144548380Y-108628300D01*
X140692700Y-108628300D01*
X140692700Y-108124363D01*
X140692700Y-108059637D01*
X140692700Y-107669975D01*
X140692700Y-107214025D01*
X140692700Y-106824363D01*
X140692700Y-106759637D01*
X140667930Y-106699838D01*
X140622162Y-106654070D01*
X140562363Y-106629300D01*
X140007975Y-106629300D01*
X139967300Y-106669975D01*
X139967300Y-107254700D01*
X140652025Y-107254700D01*
X140692700Y-107214025D01*
X140692700Y-107669975D01*
X140652025Y-107629300D01*
X139967300Y-107629300D01*
X139967300Y-108214025D01*
X140007975Y-108254700D01*
X140562363Y-108254700D01*
X140622162Y-108229930D01*
X140667930Y-108184162D01*
X140692700Y-108124363D01*
X140692700Y-108628300D01*
X139592700Y-108628300D01*
X139592700Y-108214025D01*
X139592700Y-107629300D01*
X139592700Y-107254700D01*
X139592700Y-106669975D01*
X139552025Y-106629300D01*
X138997637Y-106629300D01*
X138937838Y-106654070D01*
X138892070Y-106699838D01*
X138867300Y-106759637D01*
X138867300Y-106824363D01*
X138867300Y-107214025D01*
X138907975Y-107254700D01*
X139592700Y-107254700D01*
X139592700Y-107629300D01*
X138907975Y-107629300D01*
X138867300Y-107669975D01*
X138867300Y-108059637D01*
X138867300Y-108124363D01*
X138892070Y-108184162D01*
X138937838Y-108229930D01*
X138997637Y-108254700D01*
X139552025Y-108254700D01*
X139592700Y-108214025D01*
X139592700Y-108628300D01*
X138046867Y-108628300D01*
X138046867Y-108092000D01*
X138046867Y-106792000D01*
X138031131Y-106710898D01*
X137984307Y-106639617D01*
X137913620Y-106591902D01*
X137830000Y-106575133D01*
X136330000Y-106575133D01*
X136248898Y-106590869D01*
X136177617Y-106637693D01*
X136129902Y-106708380D01*
X136113133Y-106792000D01*
X136113133Y-107104300D01*
X135007323Y-107104300D01*
X134910800Y-107007608D01*
X134722430Y-106929390D01*
X134518465Y-106929212D01*
X134329958Y-107007101D01*
X134185608Y-107151200D01*
X134107390Y-107339570D01*
X134107212Y-107543535D01*
X134185101Y-107732042D01*
X134329200Y-107876392D01*
X134517570Y-107954610D01*
X134721535Y-107954788D01*
X134910042Y-107876899D01*
X135007410Y-107779700D01*
X136113133Y-107779700D01*
X136113133Y-108092000D01*
X136128869Y-108173102D01*
X136175693Y-108244383D01*
X136246380Y-108292098D01*
X136330000Y-108308867D01*
X137830000Y-108308867D01*
X137911102Y-108293131D01*
X137982383Y-108246307D01*
X138030098Y-108175620D01*
X138046867Y-108092000D01*
X138046867Y-108628300D01*
X129794000Y-108628300D01*
X129664768Y-108654006D01*
X129555210Y-108727210D01*
X128793210Y-109489210D01*
X128720006Y-109598768D01*
X128694300Y-109728000D01*
X128694300Y-123952000D01*
X128720006Y-124081232D01*
X128793210Y-124190790D01*
X129285970Y-124683550D01*
X129395528Y-124756754D01*
X129524760Y-124782460D01*
X131275083Y-124782460D01*
X131275083Y-124844810D01*
X131290819Y-124925912D01*
X131337643Y-124997193D01*
X131408330Y-125044908D01*
X131491950Y-125061677D01*
X132292050Y-125061677D01*
X132373152Y-125045941D01*
X132444433Y-124999117D01*
X132492148Y-124928430D01*
X132508917Y-124844810D01*
X132508917Y-124044710D01*
X132493181Y-123963608D01*
X132446357Y-123892327D01*
X132375670Y-123844612D01*
X132292050Y-123827843D01*
X131491950Y-123827843D01*
X131410848Y-123843579D01*
X131339567Y-123890403D01*
X131291852Y-123961090D01*
X131275083Y-124044710D01*
X131275083Y-124107060D01*
X129664640Y-124107060D01*
X129369700Y-123812120D01*
X129369700Y-109867880D01*
X129933880Y-109303700D01*
X146050000Y-109303700D01*
X146179232Y-109277994D01*
X146288790Y-109204790D01*
X146970790Y-108522790D01*
X147043994Y-108413232D01*
X147069700Y-108284000D01*
X147069700Y-106784867D01*
X147482000Y-106784867D01*
X147563102Y-106769131D01*
X147634383Y-106722307D01*
X147682098Y-106651620D01*
X147698867Y-106568000D01*
X147698867Y-114093133D01*
X146940773Y-114093133D01*
X146940773Y-111809281D01*
X146929805Y-111441576D01*
X146778957Y-111106058D01*
X146738067Y-111052770D01*
X146614448Y-110982397D01*
X146266857Y-111584443D01*
X146868903Y-111932035D01*
X146940773Y-111809281D01*
X146940773Y-114093133D01*
X145009230Y-114093133D01*
X144976329Y-114079471D01*
X144585387Y-114079130D01*
X144224073Y-114228422D01*
X143947393Y-114504618D01*
X143797471Y-114865671D01*
X143797130Y-115256613D01*
X143946422Y-115617927D01*
X144222618Y-115894607D01*
X144583671Y-116044529D01*
X144890526Y-116044796D01*
X144898380Y-116050098D01*
X144982000Y-116066867D01*
X154276265Y-116066867D01*
X154314332Y-116132801D01*
X154578240Y-116698754D01*
X154782348Y-117259534D01*
X154942340Y-117856631D01*
X155051019Y-118472985D01*
X155103133Y-119068644D01*
X155103133Y-119691355D01*
X155083380Y-119917133D01*
X154874310Y-119917133D01*
X154874310Y-118145527D01*
X154815568Y-117779155D01*
X154788376Y-117713510D01*
X154686346Y-117612536D01*
X154188882Y-118110000D01*
X154686346Y-118607464D01*
X154788376Y-118506490D01*
X154874310Y-118145527D01*
X154874310Y-119917133D01*
X154421464Y-119917133D01*
X154421464Y-118872346D01*
X153982700Y-118433582D01*
X153982700Y-118337975D01*
X153942025Y-118297300D01*
X153818133Y-118297300D01*
X153644975Y-118124142D01*
X153659118Y-118110000D01*
X153644975Y-118095857D01*
X153818133Y-117922700D01*
X153942025Y-117922700D01*
X153982700Y-117882025D01*
X153982700Y-117786418D01*
X154421464Y-117347654D01*
X154320490Y-117245624D01*
X153959527Y-117159690D01*
X153849693Y-117177300D01*
X147547975Y-117177300D01*
X147507300Y-117217975D01*
X147507300Y-117922700D01*
X153009822Y-117922700D01*
X152973690Y-118074473D01*
X153009416Y-118297300D01*
X147507300Y-118297300D01*
X147507300Y-119002025D01*
X147547975Y-119042700D01*
X153814502Y-119042700D01*
X153888473Y-119060310D01*
X154254845Y-119001568D01*
X154320490Y-118974376D01*
X154421464Y-118872346D01*
X154421464Y-119917133D01*
X142598000Y-119917133D01*
X142576155Y-119921371D01*
X142299387Y-119921130D01*
X141938073Y-120070422D01*
X141661393Y-120346618D01*
X141511471Y-120707671D01*
X141511130Y-121098613D01*
X141660422Y-121459927D01*
X141936618Y-121736607D01*
X142297671Y-121886529D01*
X142577585Y-121886773D01*
X142598000Y-121890867D01*
X154640253Y-121890867D01*
X154578240Y-122061245D01*
X154314332Y-122627198D01*
X154007787Y-123158149D01*
X153660948Y-123653487D01*
X153258156Y-124133516D01*
X152842310Y-124549362D01*
X152842310Y-123733527D01*
X152783568Y-123367155D01*
X152756376Y-123301510D01*
X152654346Y-123200536D01*
X152156882Y-123698000D01*
X152654346Y-124195464D01*
X152756376Y-124094490D01*
X152842310Y-123733527D01*
X152842310Y-124549362D01*
X152835516Y-124556156D01*
X152389464Y-124930437D01*
X152389464Y-124460346D01*
X151974700Y-124045582D01*
X151974700Y-123925975D01*
X151934025Y-123885300D01*
X151786133Y-123885300D01*
X151612975Y-123712142D01*
X151627118Y-123698000D01*
X151612975Y-123683857D01*
X151786133Y-123510700D01*
X151934025Y-123510700D01*
X151974700Y-123470025D01*
X151974700Y-123350418D01*
X152389464Y-122935654D01*
X152288490Y-122833624D01*
X151927527Y-122747690D01*
X151817693Y-122765300D01*
X147039975Y-122765300D01*
X146999300Y-122805975D01*
X146999300Y-123510700D01*
X150977822Y-123510700D01*
X150941690Y-123662473D01*
X150977416Y-123885300D01*
X146999300Y-123885300D01*
X146999300Y-124590025D01*
X147039975Y-124630700D01*
X151782502Y-124630700D01*
X151856473Y-124648310D01*
X152222845Y-124589568D01*
X152288490Y-124562376D01*
X152389464Y-124460346D01*
X152389464Y-124930437D01*
X152355487Y-124958948D01*
X151860149Y-125305787D01*
X151329198Y-125612332D01*
X150763245Y-125876240D01*
X150059954Y-126132218D01*
X149959971Y-126132131D01*
X149601598Y-126280207D01*
X149327171Y-126554156D01*
X149178469Y-126912270D01*
X149178131Y-127300029D01*
X149326207Y-127658402D01*
X149600156Y-127932829D01*
X149958270Y-128081531D01*
X150314575Y-128081841D01*
X150352435Y-128091295D01*
X150436747Y-128078453D01*
X151058344Y-127852209D01*
X151103209Y-127859331D01*
X151186081Y-127839190D01*
X151513160Y-127686670D01*
X151868838Y-127557214D01*
X151891968Y-127543326D01*
X151911523Y-127536723D01*
X152234035Y-127350520D01*
X152567294Y-127195119D01*
X152585578Y-127181844D01*
X152608261Y-127171906D01*
X152913048Y-126958491D01*
X153231345Y-126774723D01*
X153250658Y-126757945D01*
X153269477Y-126747660D01*
X153548413Y-126513604D01*
X153856649Y-126297776D01*
X153872980Y-126280876D01*
X153892348Y-126267979D01*
X154159404Y-126000922D01*
X154436929Y-125768052D01*
X154452190Y-125749218D01*
X154470052Y-125734929D01*
X154702922Y-125457404D01*
X154969979Y-125190348D01*
X154983758Y-125169933D01*
X154999776Y-125154649D01*
X155215604Y-124846413D01*
X155449660Y-124567477D01*
X155460727Y-124547526D01*
X155476723Y-124529345D01*
X155660491Y-124211048D01*
X155873906Y-123906261D01*
X155884545Y-123882385D01*
X155897119Y-123865294D01*
X156052520Y-123532035D01*
X156238723Y-123209523D01*
X156245901Y-123188699D01*
X156259214Y-123166838D01*
X156388670Y-122811160D01*
X156541190Y-122484081D01*
X156546818Y-122461540D01*
X156557292Y-122440385D01*
X156651250Y-122089727D01*
X156780453Y-121734747D01*
X156784896Y-121706753D01*
X156791676Y-121689401D01*
X156855487Y-121327505D01*
X156951733Y-120968314D01*
X156953231Y-120946989D01*
X156960730Y-120921414D01*
X156989124Y-120596867D01*
X158353000Y-120596867D01*
X158434102Y-120581131D01*
X158505383Y-120534307D01*
X158553098Y-120463620D01*
X158569867Y-120380000D01*
X158569867Y-131407700D01*
X147620153Y-131407700D01*
X147620153Y-127086855D01*
X147605614Y-127021278D01*
X147523319Y-126905256D01*
X147308457Y-127055703D01*
X147308457Y-126598401D01*
X147227578Y-126481387D01*
X146889688Y-126335929D01*
X146696108Y-126333254D01*
X146470537Y-126272813D01*
X146420720Y-126301574D01*
X146418531Y-126309741D01*
X146408723Y-126300754D01*
X146347901Y-126278617D01*
X146036081Y-126165123D01*
X146030123Y-126154804D01*
X145945233Y-126132057D01*
X145876492Y-126107038D01*
X145867502Y-126111229D01*
X145653618Y-126053919D01*
X145452188Y-125959991D01*
X145448040Y-125951094D01*
X145380000Y-125926329D01*
X145298411Y-125888284D01*
X145286940Y-125892458D01*
X145083254Y-125818323D01*
X144889038Y-125706192D01*
X144885180Y-125695591D01*
X144809768Y-125660426D01*
X144741782Y-125621174D01*
X144731500Y-125623928D01*
X144528728Y-125529375D01*
X144349843Y-125404118D01*
X144346918Y-125393199D01*
X144274715Y-125351512D01*
X144210132Y-125306291D01*
X144199604Y-125308147D01*
X144009820Y-125198575D01*
X143838397Y-125054734D01*
X143836640Y-125044769D01*
X143775509Y-125001964D01*
X143709025Y-124946178D01*
X143697301Y-124947203D01*
X143515927Y-124820204D01*
X143360794Y-124665071D01*
X143359747Y-124653099D01*
X143333052Y-124630700D01*
X146584025Y-124630700D01*
X146624700Y-124590025D01*
X146624700Y-123885300D01*
X146604700Y-123885300D01*
X146604700Y-123510700D01*
X146624700Y-123510700D01*
X146624700Y-122805975D01*
X146584025Y-122765300D01*
X141866854Y-122765300D01*
X141861163Y-122755442D01*
X141852132Y-122760655D01*
X141838071Y-122730499D01*
X141840826Y-122720218D01*
X141801573Y-122652231D01*
X141766409Y-122576820D01*
X141755807Y-122572961D01*
X141643676Y-122378745D01*
X141569541Y-122175059D01*
X141573716Y-122163589D01*
X141535670Y-122081999D01*
X141510906Y-122013960D01*
X141502008Y-122009811D01*
X141408080Y-121808381D01*
X141350770Y-121594497D01*
X141354962Y-121585508D01*
X141329942Y-121516766D01*
X141307196Y-121431877D01*
X141296876Y-121425918D01*
X141223015Y-121222987D01*
X141183827Y-121000745D01*
X141189187Y-120991463D01*
X141168727Y-120915106D01*
X141154239Y-120832939D01*
X141144972Y-120826450D01*
X141086809Y-120609383D01*
X141067970Y-120394046D01*
X141075064Y-120383916D01*
X141059225Y-120294090D01*
X141053051Y-120223515D01*
X141045692Y-120217340D01*
X141006700Y-119996201D01*
X141006700Y-119777179D01*
X141013312Y-119769300D01*
X141006700Y-119693724D01*
X141006700Y-119607975D01*
X140998478Y-119599753D01*
X140979252Y-119380000D01*
X140998478Y-119160246D01*
X141006700Y-119152025D01*
X141006700Y-119066275D01*
X141008762Y-119042700D01*
X147092025Y-119042700D01*
X147132700Y-119002025D01*
X147132700Y-118297300D01*
X147112700Y-118297300D01*
X147112700Y-117922700D01*
X147132700Y-117922700D01*
X147132700Y-117217975D01*
X147092025Y-117177300D01*
X141353939Y-117177300D01*
X141354962Y-117174492D01*
X141350770Y-117165502D01*
X141408080Y-116951618D01*
X141502008Y-116750188D01*
X141510906Y-116746040D01*
X141535670Y-116678000D01*
X141573716Y-116596411D01*
X141569541Y-116584940D01*
X141643676Y-116381254D01*
X141755807Y-116187038D01*
X141766409Y-116183180D01*
X141801573Y-116107768D01*
X141840826Y-116039782D01*
X141838071Y-116029500D01*
X141932624Y-115826728D01*
X142057881Y-115647843D01*
X142068801Y-115644918D01*
X142110487Y-115572715D01*
X142155709Y-115508132D01*
X142153852Y-115497604D01*
X142263424Y-115307820D01*
X142407265Y-115136397D01*
X142417231Y-115134640D01*
X142460035Y-115073509D01*
X142515822Y-115007025D01*
X142514796Y-114995301D01*
X142641795Y-114813927D01*
X142796928Y-114658794D01*
X142808901Y-114657747D01*
X142865874Y-114589848D01*
X142917659Y-114538064D01*
X142917659Y-114528134D01*
X143060227Y-114358227D01*
X143230134Y-114215659D01*
X143240064Y-114215659D01*
X143291848Y-114163874D01*
X143359747Y-114106901D01*
X143360794Y-114094928D01*
X143515927Y-113939795D01*
X143697301Y-113812796D01*
X143709025Y-113813822D01*
X143775509Y-113758035D01*
X143836640Y-113715231D01*
X143838397Y-113705265D01*
X144009820Y-113561424D01*
X144199604Y-113451852D01*
X144210132Y-113453709D01*
X144274715Y-113408487D01*
X144346918Y-113366801D01*
X144349843Y-113355881D01*
X144528728Y-113230624D01*
X144731500Y-113136071D01*
X144741782Y-113138826D01*
X144809768Y-113099573D01*
X144885180Y-113064409D01*
X144889038Y-113053807D01*
X145083254Y-112941676D01*
X145286940Y-112867541D01*
X145298411Y-112871716D01*
X145380000Y-112833670D01*
X145448040Y-112808906D01*
X145452188Y-112800008D01*
X145753071Y-112659705D01*
X145811732Y-112632351D01*
X145821733Y-112621436D01*
X145824359Y-112628651D01*
X145876492Y-112652962D01*
X146088492Y-112575799D01*
X146222424Y-112571805D01*
X146557942Y-112420957D01*
X146611230Y-112380067D01*
X146681603Y-112256448D01*
X146418278Y-112104417D01*
X146292906Y-111759960D01*
X146240772Y-111735650D01*
X145917972Y-111853139D01*
X145731974Y-111667141D01*
X145705956Y-111693158D01*
X145534396Y-111594108D01*
X145646441Y-111553326D01*
X145731974Y-111638859D01*
X145915397Y-111455435D01*
X146112651Y-111383641D01*
X146136962Y-111331508D01*
X146076401Y-111165119D01*
X146290035Y-110795097D01*
X146167281Y-110723227D01*
X145858515Y-110732436D01*
X145840856Y-110724202D01*
X145776191Y-110721378D01*
X145715368Y-110743516D01*
X145243960Y-110915094D01*
X145219651Y-110967225D01*
X145205740Y-110929005D01*
X145116758Y-110961391D01*
X145094807Y-110953402D01*
X145030142Y-110956225D01*
X144971481Y-110983579D01*
X144671596Y-111123417D01*
X144344099Y-111242617D01*
X144315768Y-111252928D01*
X144307589Y-111254005D01*
X144298683Y-111259146D01*
X144283277Y-111264754D01*
X144273579Y-111273639D01*
X144251534Y-111286368D01*
X143954999Y-111457572D01*
X143648929Y-111600295D01*
X143625576Y-111611184D01*
X143613318Y-111613902D01*
X143600498Y-111622878D01*
X143590268Y-111627649D01*
X143584148Y-111634327D01*
X143560298Y-111651028D01*
X143280085Y-111847233D01*
X142987766Y-112016005D01*
X142963257Y-112030154D01*
X142954132Y-112033032D01*
X142944996Y-112040697D01*
X142931711Y-112048368D01*
X142924219Y-112058131D01*
X142904549Y-112074637D01*
X142648587Y-112289413D01*
X142364930Y-112488033D01*
X142343554Y-112503000D01*
X142332838Y-112507439D01*
X142322614Y-112517662D01*
X142311910Y-112525158D01*
X142306277Y-112533999D01*
X142287070Y-112553207D01*
X142041229Y-112799047D01*
X141786680Y-113012640D01*
X141765917Y-113030062D01*
X141756245Y-113035097D01*
X141747508Y-113045508D01*
X141737097Y-113054245D01*
X141732062Y-113063917D01*
X141714640Y-113084680D01*
X141501047Y-113339229D01*
X141255207Y-113585070D01*
X141235999Y-113604277D01*
X141227158Y-113609910D01*
X141219662Y-113620614D01*
X141209439Y-113630838D01*
X141205000Y-113641554D01*
X141190033Y-113662930D01*
X140991413Y-113946587D01*
X140776637Y-114202549D01*
X140760131Y-114222219D01*
X140750368Y-114229711D01*
X140742697Y-114242996D01*
X140735032Y-114252132D01*
X140732154Y-114261257D01*
X140718005Y-114285766D01*
X140549233Y-114578085D01*
X140353028Y-114858298D01*
X140336327Y-114882148D01*
X140329649Y-114888268D01*
X140324878Y-114898498D01*
X140315902Y-114911318D01*
X140313184Y-114923576D01*
X140302295Y-114946929D01*
X140159572Y-115252999D01*
X139988368Y-115549534D01*
X139975639Y-115571579D01*
X139966754Y-115581277D01*
X139961146Y-115596683D01*
X139956005Y-115605589D01*
X139954928Y-115613768D01*
X139944617Y-115642099D01*
X139825417Y-115969596D01*
X139685579Y-116269481D01*
X139674633Y-116292953D01*
X139667405Y-116302374D01*
X139663574Y-116316670D01*
X139658225Y-116328142D01*
X139657782Y-116338285D01*
X139650652Y-116364895D01*
X139564458Y-116686575D01*
X139445516Y-117013368D01*
X139434960Y-117042367D01*
X139431288Y-117048133D01*
X139429808Y-117056523D01*
X139423378Y-117074191D01*
X139424036Y-117089258D01*
X139420048Y-117111875D01*
X139361445Y-117444227D01*
X139272964Y-117774445D01*
X139266438Y-117798798D01*
X139260052Y-117811067D01*
X139258549Y-117828242D01*
X139256212Y-117836966D01*
X139257157Y-117844149D01*
X139254411Y-117875547D01*
X139224511Y-118217300D01*
X139038975Y-118217300D01*
X138998300Y-118257975D01*
X138998300Y-119192700D01*
X139139174Y-119192700D01*
X139127227Y-119329268D01*
X139124914Y-119355692D01*
X139121585Y-119366253D01*
X139122787Y-119380000D01*
X139121585Y-119393747D01*
X139124914Y-119404307D01*
X139127227Y-119430732D01*
X139139174Y-119567300D01*
X138998300Y-119567300D01*
X138998300Y-120502025D01*
X139038975Y-120542700D01*
X139224511Y-120542700D01*
X139254411Y-120884453D01*
X139257157Y-120915850D01*
X139256212Y-120923034D01*
X139258549Y-120931757D01*
X139260052Y-120948933D01*
X139266438Y-120961201D01*
X139272964Y-120985555D01*
X139361445Y-121315772D01*
X139420048Y-121648125D01*
X139424036Y-121670741D01*
X139423378Y-121685809D01*
X139429808Y-121703476D01*
X139431288Y-121711867D01*
X139434960Y-121717632D01*
X139445516Y-121746632D01*
X139564458Y-122073424D01*
X139650652Y-122395105D01*
X139657782Y-122421714D01*
X139658225Y-122431858D01*
X139663574Y-122443329D01*
X139667405Y-122457626D01*
X139674633Y-122467046D01*
X139685579Y-122490519D01*
X139825417Y-122790403D01*
X139944617Y-123117901D01*
X139954928Y-123146231D01*
X139956005Y-123154411D01*
X139961146Y-123163316D01*
X139966754Y-123178723D01*
X139975639Y-123188420D01*
X139988368Y-123210466D01*
X140159572Y-123507000D01*
X140302295Y-123813071D01*
X140313184Y-123836423D01*
X140315902Y-123848682D01*
X140324878Y-123861501D01*
X140329649Y-123871732D01*
X140336327Y-123877851D01*
X140353028Y-123901702D01*
X140549233Y-124181914D01*
X140718005Y-124474234D01*
X140732154Y-124498742D01*
X140735032Y-124507868D01*
X140742697Y-124517003D01*
X140750368Y-124530289D01*
X140760131Y-124537780D01*
X140776637Y-124557451D01*
X140991413Y-124813412D01*
X141190033Y-125097070D01*
X141205000Y-125118445D01*
X141209439Y-125129162D01*
X141219662Y-125139385D01*
X141227158Y-125150090D01*
X141235999Y-125155722D01*
X141255207Y-125174930D01*
X141501047Y-125420770D01*
X141714640Y-125675320D01*
X141732062Y-125696082D01*
X141737097Y-125705755D01*
X141747508Y-125714491D01*
X141756245Y-125724903D01*
X141765917Y-125729937D01*
X141786680Y-125747360D01*
X142041229Y-125960952D01*
X142287070Y-126206793D01*
X142306277Y-126226000D01*
X142311910Y-126234842D01*
X142322614Y-126242337D01*
X142332838Y-126252561D01*
X142343554Y-126256999D01*
X142364930Y-126271967D01*
X142648587Y-126470586D01*
X142904549Y-126685363D01*
X142924219Y-126701868D01*
X142931711Y-126711632D01*
X142944996Y-126719302D01*
X142954132Y-126726968D01*
X142963257Y-126729845D01*
X142987766Y-126743995D01*
X143280085Y-126912766D01*
X143560298Y-127108972D01*
X143584148Y-127125672D01*
X143590268Y-127132351D01*
X143600498Y-127137121D01*
X143613318Y-127146098D01*
X143625576Y-127148815D01*
X143648929Y-127159705D01*
X143954999Y-127302427D01*
X144251534Y-127473632D01*
X144273579Y-127486360D01*
X144283277Y-127495246D01*
X144298683Y-127500853D01*
X144307589Y-127505995D01*
X144315768Y-127507071D01*
X144344099Y-127517383D01*
X144671596Y-127636582D01*
X144971481Y-127776421D01*
X144994953Y-127787366D01*
X145004374Y-127794595D01*
X145018670Y-127798425D01*
X145030142Y-127803775D01*
X145040285Y-127804217D01*
X145066895Y-127811348D01*
X145388575Y-127897541D01*
X145715368Y-128016484D01*
X145776191Y-128038622D01*
X145840856Y-128035798D01*
X145864101Y-128024958D01*
X145952590Y-128048669D01*
X145963116Y-128009382D01*
X145991877Y-128059196D01*
X146476445Y-128189036D01*
X146538966Y-128205788D01*
X146603138Y-128197339D01*
X146629851Y-128181915D01*
X146864145Y-128185153D01*
X146929722Y-128170614D01*
X147045744Y-128088319D01*
X146799577Y-127736755D01*
X146845187Y-127566537D01*
X146816426Y-127516720D01*
X146600767Y-127458934D01*
X146413974Y-127272141D01*
X146306128Y-127379986D01*
X146223757Y-127357915D01*
X146402720Y-127232605D01*
X146413974Y-127243859D01*
X146589682Y-127068150D01*
X146913379Y-127154885D01*
X146963196Y-127126123D01*
X147057517Y-126774110D01*
X147308457Y-126598401D01*
X147308457Y-127055703D01*
X146953858Y-127303996D01*
X147352599Y-127873457D01*
X147469613Y-127792578D01*
X147615071Y-127454688D01*
X147620153Y-127086855D01*
X147620153Y-131407700D01*
X138623700Y-131407700D01*
X138623700Y-120502025D01*
X138623700Y-119567300D01*
X138623700Y-119192700D01*
X138623700Y-118257975D01*
X138583025Y-118217300D01*
X137778637Y-118217300D01*
X137718838Y-118242070D01*
X137673070Y-118287838D01*
X137648300Y-118347637D01*
X137648300Y-118412363D01*
X137648300Y-119152025D01*
X137688975Y-119192700D01*
X138623700Y-119192700D01*
X138623700Y-119567300D01*
X137688975Y-119567300D01*
X137648300Y-119607975D01*
X137648300Y-120347637D01*
X137648300Y-120412363D01*
X137673070Y-120472162D01*
X137718838Y-120517930D01*
X137778637Y-120542700D01*
X138583025Y-120542700D01*
X138623700Y-120502025D01*
X138623700Y-131407700D01*
X134408917Y-131407700D01*
X134408917Y-124844810D01*
X134408917Y-124044710D01*
X134393181Y-123963608D01*
X134346357Y-123892327D01*
X134275670Y-123844612D01*
X134192050Y-123827843D01*
X134129700Y-123827843D01*
X134129700Y-113408157D01*
X134192050Y-113408157D01*
X134273152Y-113392421D01*
X134344433Y-113345597D01*
X134392148Y-113274910D01*
X134408917Y-113191290D01*
X134408917Y-112391190D01*
X134393181Y-112310088D01*
X134346357Y-112238807D01*
X134275670Y-112191092D01*
X134192050Y-112174323D01*
X133391950Y-112174323D01*
X133310848Y-112190059D01*
X133239567Y-112236883D01*
X133191852Y-112307570D01*
X133175083Y-112391190D01*
X133175083Y-113191290D01*
X133190819Y-113272392D01*
X133237643Y-113343673D01*
X133308330Y-113391388D01*
X133391950Y-113408157D01*
X133454300Y-113408157D01*
X133454300Y-114366374D01*
X133443181Y-114309068D01*
X133396357Y-114237787D01*
X133325670Y-114190072D01*
X133242050Y-114173303D01*
X132508917Y-114173303D01*
X132508917Y-113191290D01*
X132508917Y-112391190D01*
X132493181Y-112310088D01*
X132446357Y-112238807D01*
X132375670Y-112191092D01*
X132292050Y-112174323D01*
X132229700Y-112174323D01*
X132229700Y-111065438D01*
X132260392Y-111034800D01*
X132338610Y-110846430D01*
X132338788Y-110642465D01*
X132260899Y-110453958D01*
X132116800Y-110309608D01*
X131928430Y-110231390D01*
X131724465Y-110231212D01*
X131535958Y-110309101D01*
X131391608Y-110453200D01*
X131313390Y-110641570D01*
X131313212Y-110845535D01*
X131391101Y-111034042D01*
X131535200Y-111178392D01*
X131554300Y-111186323D01*
X131554300Y-112174323D01*
X131491950Y-112174323D01*
X131410848Y-112190059D01*
X131339567Y-112236883D01*
X131291852Y-112307570D01*
X131275083Y-112391190D01*
X131275083Y-113191290D01*
X131290819Y-113272392D01*
X131337643Y-113343673D01*
X131408330Y-113391388D01*
X131491950Y-113408157D01*
X132292050Y-113408157D01*
X132373152Y-113392421D01*
X132444433Y-113345597D01*
X132492148Y-113274910D01*
X132508917Y-113191290D01*
X132508917Y-114173303D01*
X132441950Y-114173303D01*
X132360848Y-114189039D01*
X132289567Y-114235863D01*
X132241852Y-114306550D01*
X132225083Y-114390170D01*
X132225083Y-114452520D01*
X130827780Y-114452520D01*
X130698547Y-114478226D01*
X130588990Y-114551430D01*
X130083088Y-115057331D01*
X129946465Y-115057212D01*
X129757958Y-115135101D01*
X129613608Y-115279200D01*
X129535390Y-115467570D01*
X129535212Y-115671535D01*
X129613101Y-115860042D01*
X129757200Y-116004392D01*
X129945570Y-116082610D01*
X130149535Y-116082788D01*
X130338042Y-116004899D01*
X130482392Y-115860800D01*
X130560610Y-115672430D01*
X130560730Y-115534849D01*
X130967660Y-115127920D01*
X132225083Y-115127920D01*
X132225083Y-115190270D01*
X132240819Y-115271372D01*
X132287643Y-115342653D01*
X132358330Y-115390368D01*
X132441950Y-115407137D01*
X132504300Y-115407137D01*
X132504300Y-121828863D01*
X132441950Y-121828863D01*
X132360848Y-121844599D01*
X132289567Y-121891423D01*
X132241852Y-121962110D01*
X132225083Y-122045730D01*
X132225083Y-122845830D01*
X132240819Y-122926932D01*
X132287643Y-122998213D01*
X132358330Y-123045928D01*
X132441950Y-123062697D01*
X133242050Y-123062697D01*
X133323152Y-123046961D01*
X133394433Y-123000137D01*
X133442148Y-122929450D01*
X133454300Y-122868853D01*
X133454300Y-123827843D01*
X133391950Y-123827843D01*
X133310848Y-123843579D01*
X133239567Y-123890403D01*
X133191852Y-123961090D01*
X133175083Y-124044710D01*
X133175083Y-124844810D01*
X133190819Y-124925912D01*
X133237643Y-124997193D01*
X133308330Y-125044908D01*
X133391950Y-125061677D01*
X134192050Y-125061677D01*
X134273152Y-125045941D01*
X134344433Y-124999117D01*
X134392148Y-124928430D01*
X134408917Y-124844810D01*
X134408917Y-131407700D01*
X133366181Y-131407700D01*
X131470075Y-131030541D01*
X129876352Y-129965649D01*
X128811459Y-128371926D01*
X128434300Y-126475818D01*
X128434300Y-96915112D01*
X128764412Y-95007518D01*
X129789472Y-93387155D01*
X131356589Y-92282410D01*
X133241259Y-91858300D01*
X163178818Y-91858300D01*
X165074926Y-92235459D01*
X166668649Y-93300352D01*
X167733541Y-94894075D01*
X168110700Y-96790181D01*
X168110700Y-126475818D01*
M02*
