G04 #@! TF.FileFunction,Legend,Top*
%FSLAX46Y46*%
G04 Gerber Fmt 4.6, Leading zero omitted, Abs format (unit mm)*
G04 Created by KiCad (PCBNEW (2015-05-03 BZR 5637)-product) date 2015 September 26, Saturday 19:46:49*
%MOMM*%
G01*
G04 APERTURE LIST*
%ADD10C,0.100000*%
%ADD11C,0.150000*%
%ADD12C,1.651000*%
%ADD13R,1.250000X1.500000*%
%ADD14R,1.500000X1.300000*%
%ADD15R,13.000000X1.540000*%
%ADD16R,10.000000X1.540000*%
%ADD17R,2.000000X2.000000*%
%ADD18C,1.524000*%
%ADD19R,1.524000X1.524000*%
%ADD20C,1.540000*%
%ADD21R,1.597660X1.800860*%
%ADD22R,0.800100X1.800860*%
G04 APERTURE END LIST*
D10*
D11*
X131230000Y-101354000D02*
X131230000Y-102354000D01*
X132930000Y-102354000D02*
X132930000Y-101354000D01*
X164934000Y-102354000D02*
X164934000Y-101354000D01*
X163234000Y-101354000D02*
X163234000Y-102354000D01*
X147482000Y-105043000D02*
X148682000Y-105043000D01*
X148682000Y-106793000D02*
X147482000Y-106793000D01*
X137830000Y-95645000D02*
X139030000Y-95645000D01*
X139030000Y-97395000D02*
X137830000Y-97395000D01*
X157388000Y-95645000D02*
X158588000Y-95645000D01*
X158588000Y-97395000D02*
X157388000Y-97395000D01*
X137830000Y-106567000D02*
X139030000Y-106567000D01*
X139030000Y-108317000D02*
X137830000Y-108317000D01*
X158588000Y-108317000D02*
X157388000Y-108317000D01*
X157388000Y-106567000D02*
X158588000Y-106567000D01*
X159688438Y-119380000D02*
G75*
G03X159688438Y-119380000I-11606438J0D01*
G01*
X158888200Y-119380000D02*
G75*
G03X158888200Y-119380000I-10806200J0D01*
G01*
X141392124Y-101854000D02*
G75*
G03X141392124Y-101854000I-2962124J0D01*
G01*
X136280000Y-102904000D02*
X139880000Y-102904000D01*
X136280000Y-100804000D02*
X139880000Y-100804000D01*
X138330000Y-101554000D02*
X138330000Y-102154000D01*
X138330000Y-102154000D02*
X138030000Y-101854000D01*
X138030000Y-101854000D02*
X138230000Y-101654000D01*
X138230000Y-101654000D02*
X138230000Y-101904000D01*
X138230000Y-101904000D02*
X138180000Y-101854000D01*
X137930000Y-101354000D02*
X137930000Y-102354000D01*
X138430000Y-101854000D02*
X138930000Y-101854000D01*
X137930000Y-101854000D02*
X138430000Y-101354000D01*
X138430000Y-101354000D02*
X138430000Y-102354000D01*
X138430000Y-102354000D02*
X137930000Y-101854000D01*
X160950124Y-101854000D02*
G75*
G03X160950124Y-101854000I-2962124J0D01*
G01*
X155838000Y-102904000D02*
X159438000Y-102904000D01*
X155838000Y-100804000D02*
X159438000Y-100804000D01*
X157888000Y-101554000D02*
X157888000Y-102154000D01*
X157888000Y-102154000D02*
X157588000Y-101854000D01*
X157588000Y-101854000D02*
X157788000Y-101654000D01*
X157788000Y-101654000D02*
X157788000Y-101904000D01*
X157788000Y-101904000D02*
X157738000Y-101854000D01*
X157488000Y-101354000D02*
X157488000Y-102354000D01*
X157988000Y-101854000D02*
X158488000Y-101854000D01*
X157488000Y-101854000D02*
X157988000Y-101354000D01*
X157988000Y-101354000D02*
X157988000Y-102354000D01*
X157988000Y-102354000D02*
X157488000Y-101854000D01*
X131342180Y-123494800D02*
X131342180Y-122793760D01*
X131342180Y-122793760D02*
X131591100Y-122793760D01*
X134141160Y-122793760D02*
X134341820Y-122793760D01*
X134341820Y-122793760D02*
X134341820Y-123494800D01*
X134341820Y-113741200D02*
X134341820Y-114442240D01*
X134341820Y-114442240D02*
X134092900Y-114442240D01*
X131542840Y-114442240D02*
X131342180Y-114442240D01*
X131342180Y-114442240D02*
X131342180Y-113741200D01*
X164821820Y-113741200D02*
X164821820Y-114442240D01*
X164821820Y-114442240D02*
X164572900Y-114442240D01*
X162022840Y-114442240D02*
X161822180Y-114442240D01*
X161822180Y-114442240D02*
X161822180Y-113741200D01*
X161822180Y-123494800D02*
X161822180Y-122793760D01*
X161822180Y-122793760D02*
X162071100Y-122793760D01*
X164621160Y-122793760D02*
X164821820Y-122793760D01*
X164821820Y-122793760D02*
X164821820Y-123494800D01*
D10*
X130218667Y-102032571D02*
X130194857Y-102056381D01*
X130123429Y-102080190D01*
X130075810Y-102080190D01*
X130004381Y-102056381D01*
X129956762Y-102008762D01*
X129932953Y-101961143D01*
X129909143Y-101865905D01*
X129909143Y-101794476D01*
X129932953Y-101699238D01*
X129956762Y-101651619D01*
X130004381Y-101604000D01*
X130075810Y-101580190D01*
X130123429Y-101580190D01*
X130194857Y-101604000D01*
X130218667Y-101627810D01*
X130694857Y-102080190D02*
X130409143Y-102080190D01*
X130552000Y-102080190D02*
X130552000Y-101580190D01*
X130504381Y-101651619D01*
X130456762Y-101699238D01*
X130409143Y-101723048D01*
X166032667Y-102032571D02*
X166008857Y-102056381D01*
X165937429Y-102080190D01*
X165889810Y-102080190D01*
X165818381Y-102056381D01*
X165770762Y-102008762D01*
X165746953Y-101961143D01*
X165723143Y-101865905D01*
X165723143Y-101794476D01*
X165746953Y-101699238D01*
X165770762Y-101651619D01*
X165818381Y-101604000D01*
X165889810Y-101580190D01*
X165937429Y-101580190D01*
X166008857Y-101604000D01*
X166032667Y-101627810D01*
X166223143Y-101627810D02*
X166246953Y-101604000D01*
X166294572Y-101580190D01*
X166413619Y-101580190D01*
X166461238Y-101604000D01*
X166485048Y-101627810D01*
X166508857Y-101675429D01*
X166508857Y-101723048D01*
X166485048Y-101794476D01*
X166199334Y-102080190D01*
X166508857Y-102080190D01*
X147998667Y-104620190D02*
X147832000Y-104382095D01*
X147712953Y-104620190D02*
X147712953Y-104120190D01*
X147903429Y-104120190D01*
X147951048Y-104144000D01*
X147974857Y-104167810D01*
X147998667Y-104215429D01*
X147998667Y-104286857D01*
X147974857Y-104334476D01*
X147951048Y-104358286D01*
X147903429Y-104382095D01*
X147712953Y-104382095D01*
X148474857Y-104620190D02*
X148189143Y-104620190D01*
X148332000Y-104620190D02*
X148332000Y-104120190D01*
X148284381Y-104191619D01*
X148236762Y-104239238D01*
X148189143Y-104263048D01*
X138346667Y-95222190D02*
X138180000Y-94984095D01*
X138060953Y-95222190D02*
X138060953Y-94722190D01*
X138251429Y-94722190D01*
X138299048Y-94746000D01*
X138322857Y-94769810D01*
X138346667Y-94817429D01*
X138346667Y-94888857D01*
X138322857Y-94936476D01*
X138299048Y-94960286D01*
X138251429Y-94984095D01*
X138060953Y-94984095D01*
X138537143Y-94769810D02*
X138560953Y-94746000D01*
X138608572Y-94722190D01*
X138727619Y-94722190D01*
X138775238Y-94746000D01*
X138799048Y-94769810D01*
X138822857Y-94817429D01*
X138822857Y-94865048D01*
X138799048Y-94936476D01*
X138513334Y-95222190D01*
X138822857Y-95222190D01*
X157904667Y-95222190D02*
X157738000Y-94984095D01*
X157618953Y-95222190D02*
X157618953Y-94722190D01*
X157809429Y-94722190D01*
X157857048Y-94746000D01*
X157880857Y-94769810D01*
X157904667Y-94817429D01*
X157904667Y-94888857D01*
X157880857Y-94936476D01*
X157857048Y-94960286D01*
X157809429Y-94984095D01*
X157618953Y-94984095D01*
X158071334Y-94722190D02*
X158380857Y-94722190D01*
X158214191Y-94912667D01*
X158285619Y-94912667D01*
X158333238Y-94936476D01*
X158357048Y-94960286D01*
X158380857Y-95007905D01*
X158380857Y-95126952D01*
X158357048Y-95174571D01*
X158333238Y-95198381D01*
X158285619Y-95222190D01*
X158142762Y-95222190D01*
X158095143Y-95198381D01*
X158071334Y-95174571D01*
X138346667Y-106144190D02*
X138180000Y-105906095D01*
X138060953Y-106144190D02*
X138060953Y-105644190D01*
X138251429Y-105644190D01*
X138299048Y-105668000D01*
X138322857Y-105691810D01*
X138346667Y-105739429D01*
X138346667Y-105810857D01*
X138322857Y-105858476D01*
X138299048Y-105882286D01*
X138251429Y-105906095D01*
X138060953Y-105906095D01*
X138775238Y-105810857D02*
X138775238Y-106144190D01*
X138656191Y-105620381D02*
X138537143Y-105977524D01*
X138846667Y-105977524D01*
X157904667Y-106144190D02*
X157738000Y-105906095D01*
X157618953Y-106144190D02*
X157618953Y-105644190D01*
X157809429Y-105644190D01*
X157857048Y-105668000D01*
X157880857Y-105691810D01*
X157904667Y-105739429D01*
X157904667Y-105810857D01*
X157880857Y-105858476D01*
X157857048Y-105882286D01*
X157809429Y-105906095D01*
X157618953Y-105906095D01*
X158357048Y-105644190D02*
X158118953Y-105644190D01*
X158095143Y-105882286D01*
X158118953Y-105858476D01*
X158166572Y-105834667D01*
X158285619Y-105834667D01*
X158333238Y-105858476D01*
X158357048Y-105882286D01*
X158380857Y-105929905D01*
X158380857Y-106048952D01*
X158357048Y-106096571D01*
X158333238Y-106120381D01*
X158285619Y-106144190D01*
X158166572Y-106144190D01*
X158118953Y-106120381D01*
X158095143Y-106096571D01*
D11*
X137691905Y-100306381D02*
X137691905Y-99306381D01*
X137930000Y-99306381D01*
X138072858Y-99354000D01*
X138168096Y-99449238D01*
X138215715Y-99544476D01*
X138263334Y-99734952D01*
X138263334Y-99877810D01*
X138215715Y-100068286D01*
X138168096Y-100163524D01*
X138072858Y-100258762D01*
X137930000Y-100306381D01*
X137691905Y-100306381D01*
X139215715Y-100306381D02*
X138644286Y-100306381D01*
X138930000Y-100306381D02*
X138930000Y-99306381D01*
X138834762Y-99449238D01*
X138739524Y-99544476D01*
X138644286Y-99592095D01*
X157249905Y-100306381D02*
X157249905Y-99306381D01*
X157488000Y-99306381D01*
X157630858Y-99354000D01*
X157726096Y-99449238D01*
X157773715Y-99544476D01*
X157821334Y-99734952D01*
X157821334Y-99877810D01*
X157773715Y-100068286D01*
X157726096Y-100163524D01*
X157630858Y-100258762D01*
X157488000Y-100306381D01*
X157249905Y-100306381D01*
X158202286Y-99401619D02*
X158249905Y-99354000D01*
X158345143Y-99306381D01*
X158583239Y-99306381D01*
X158678477Y-99354000D01*
X158726096Y-99401619D01*
X158773715Y-99496857D01*
X158773715Y-99592095D01*
X158726096Y-99734952D01*
X158154667Y-100306381D01*
X158773715Y-100306381D01*
X132746762Y-120181619D02*
X132651524Y-120134000D01*
X132556286Y-120038762D01*
X132413429Y-119895905D01*
X132318190Y-119848286D01*
X132222952Y-119848286D01*
X132270571Y-120086381D02*
X132175333Y-120038762D01*
X132080095Y-119943524D01*
X132032476Y-119753048D01*
X132032476Y-119419714D01*
X132080095Y-119229238D01*
X132175333Y-119134000D01*
X132270571Y-119086381D01*
X132461048Y-119086381D01*
X132556286Y-119134000D01*
X132651524Y-119229238D01*
X132699143Y-119419714D01*
X132699143Y-119753048D01*
X132651524Y-119943524D01*
X132556286Y-120038762D01*
X132461048Y-120086381D01*
X132270571Y-120086381D01*
X133651524Y-120086381D02*
X133080095Y-120086381D01*
X133365809Y-120086381D02*
X133365809Y-119086381D01*
X133270571Y-119229238D01*
X133175333Y-119324476D01*
X133080095Y-119372095D01*
X132746762Y-118149619D02*
X132651524Y-118102000D01*
X132556286Y-118006762D01*
X132413429Y-117863905D01*
X132318190Y-117816286D01*
X132222952Y-117816286D01*
X132270571Y-118054381D02*
X132175333Y-118006762D01*
X132080095Y-117911524D01*
X132032476Y-117721048D01*
X132032476Y-117387714D01*
X132080095Y-117197238D01*
X132175333Y-117102000D01*
X132270571Y-117054381D01*
X132461048Y-117054381D01*
X132556286Y-117102000D01*
X132651524Y-117197238D01*
X132699143Y-117387714D01*
X132699143Y-117721048D01*
X132651524Y-117911524D01*
X132556286Y-118006762D01*
X132461048Y-118054381D01*
X132270571Y-118054381D01*
X133080095Y-117149619D02*
X133127714Y-117102000D01*
X133222952Y-117054381D01*
X133461048Y-117054381D01*
X133556286Y-117102000D01*
X133603905Y-117149619D01*
X133651524Y-117244857D01*
X133651524Y-117340095D01*
X133603905Y-117482952D01*
X133032476Y-118054381D01*
X133651524Y-118054381D01*
X163226762Y-118149619D02*
X163131524Y-118102000D01*
X163036286Y-118006762D01*
X162893429Y-117863905D01*
X162798190Y-117816286D01*
X162702952Y-117816286D01*
X162750571Y-118054381D02*
X162655333Y-118006762D01*
X162560095Y-117911524D01*
X162512476Y-117721048D01*
X162512476Y-117387714D01*
X162560095Y-117197238D01*
X162655333Y-117102000D01*
X162750571Y-117054381D01*
X162941048Y-117054381D01*
X163036286Y-117102000D01*
X163131524Y-117197238D01*
X163179143Y-117387714D01*
X163179143Y-117721048D01*
X163131524Y-117911524D01*
X163036286Y-118006762D01*
X162941048Y-118054381D01*
X162750571Y-118054381D01*
X163512476Y-117054381D02*
X164131524Y-117054381D01*
X163798190Y-117435333D01*
X163941048Y-117435333D01*
X164036286Y-117482952D01*
X164083905Y-117530571D01*
X164131524Y-117625810D01*
X164131524Y-117863905D01*
X164083905Y-117959143D01*
X164036286Y-118006762D01*
X163941048Y-118054381D01*
X163655333Y-118054381D01*
X163560095Y-118006762D01*
X163512476Y-117959143D01*
X163226762Y-120181619D02*
X163131524Y-120134000D01*
X163036286Y-120038762D01*
X162893429Y-119895905D01*
X162798190Y-119848286D01*
X162702952Y-119848286D01*
X162750571Y-120086381D02*
X162655333Y-120038762D01*
X162560095Y-119943524D01*
X162512476Y-119753048D01*
X162512476Y-119419714D01*
X162560095Y-119229238D01*
X162655333Y-119134000D01*
X162750571Y-119086381D01*
X162941048Y-119086381D01*
X163036286Y-119134000D01*
X163131524Y-119229238D01*
X163179143Y-119419714D01*
X163179143Y-119753048D01*
X163131524Y-119943524D01*
X163036286Y-120038762D01*
X162941048Y-120086381D01*
X162750571Y-120086381D01*
X164036286Y-119419714D02*
X164036286Y-120086381D01*
X163798190Y-119038762D02*
X163560095Y-119753048D01*
X164179143Y-119753048D01*
%LPC*%
D12*
X152654000Y-104648000D03*
X152654000Y-107188000D03*
X143510000Y-104648000D03*
X143510000Y-107188000D03*
D13*
X132080000Y-103104000D03*
X132080000Y-100604000D03*
X164084000Y-100604000D03*
X164084000Y-103104000D03*
D14*
X149432000Y-105918000D03*
X146732000Y-105918000D03*
X139780000Y-96520000D03*
X137080000Y-96520000D03*
X159338000Y-96520000D03*
X156638000Y-96520000D03*
X139780000Y-107442000D03*
X137080000Y-107442000D03*
X156638000Y-107442000D03*
X159338000Y-107442000D03*
D15*
X149098000Y-120904000D03*
X147320000Y-118110000D03*
D16*
X146812000Y-123698000D03*
D17*
X138811000Y-119380000D03*
D18*
X150153000Y-111653000D03*
D10*
G36*
X150362574Y-110885335D02*
X151794665Y-111406574D01*
X151273426Y-112838665D01*
X149841335Y-112317426D01*
X150362574Y-110885335D01*
X150362574Y-110885335D01*
G37*
G36*
X151094429Y-111117358D02*
X152475642Y-111761429D01*
X151831571Y-113142642D01*
X150450358Y-112498571D01*
X151094429Y-111117358D01*
X151094429Y-111117358D01*
G37*
G36*
X151803089Y-111411089D02*
X153122911Y-112173089D01*
X152360911Y-113492911D01*
X151041089Y-112730911D01*
X151803089Y-111411089D01*
X151803089Y-111411089D01*
G37*
G36*
X152483871Y-111765741D02*
X153732259Y-112639871D01*
X152858129Y-113888259D01*
X151609741Y-113014129D01*
X152483871Y-111765741D01*
X152483871Y-111765741D01*
G37*
G36*
X153130078Y-112178470D02*
X154297530Y-113158078D01*
X153317922Y-114325530D01*
X152150470Y-113345922D01*
X153130078Y-112178470D01*
X153130078Y-112178470D01*
G37*
G36*
X153739000Y-112645369D02*
X154816631Y-113723000D01*
X153739000Y-114800631D01*
X152661369Y-113723000D01*
X153739000Y-112645369D01*
X153739000Y-112645369D01*
G37*
G36*
X154303922Y-113164470D02*
X155283530Y-114331922D01*
X154116078Y-115311530D01*
X153136470Y-114144078D01*
X154303922Y-113164470D01*
X154303922Y-113164470D01*
G37*
G36*
X154822129Y-113729741D02*
X155696259Y-114978129D01*
X154447871Y-115852259D01*
X153573741Y-114603871D01*
X154822129Y-113729741D01*
X154822129Y-113729741D01*
G37*
G36*
X155288911Y-114339089D02*
X156050911Y-115658911D01*
X154731089Y-116420911D01*
X153969089Y-115101089D01*
X155288911Y-114339089D01*
X155288911Y-114339089D01*
G37*
G36*
X155700571Y-114986358D02*
X156344642Y-116367571D01*
X154963429Y-117011642D01*
X154319358Y-115630429D01*
X155700571Y-114986358D01*
X155700571Y-114986358D01*
G37*
G36*
X156055426Y-115667335D02*
X156576665Y-117099426D01*
X155144574Y-117620665D01*
X154623335Y-116188574D01*
X156055426Y-115667335D01*
X156055426Y-115667335D01*
G37*
G36*
X156347815Y-116375744D02*
X156742256Y-117847815D01*
X155270185Y-118242256D01*
X154875744Y-116770185D01*
X156347815Y-116375744D01*
X156347815Y-116375744D01*
G37*
G36*
X156578104Y-117108257D02*
X156842743Y-118609104D01*
X155341896Y-118873743D01*
X155077257Y-117372896D01*
X156578104Y-117108257D01*
X156578104Y-117108257D01*
G37*
G36*
X156744688Y-117857487D02*
X156877513Y-119375688D01*
X155359312Y-119508513D01*
X155226487Y-117990312D01*
X156744688Y-117857487D01*
X156744688Y-117857487D01*
G37*
D19*
X156082000Y-119380000D03*
D10*
G36*
X156877513Y-119384312D02*
X156744688Y-120902513D01*
X155226487Y-120769688D01*
X155359312Y-119251487D01*
X156877513Y-119384312D01*
X156877513Y-119384312D01*
G37*
G36*
X156842743Y-120150896D02*
X156578104Y-121651743D01*
X155077257Y-121387104D01*
X155341896Y-119886257D01*
X156842743Y-120150896D01*
X156842743Y-120150896D01*
G37*
G36*
X156742256Y-120912185D02*
X156347815Y-122384256D01*
X154875744Y-121989815D01*
X155270185Y-120517744D01*
X156742256Y-120912185D01*
X156742256Y-120912185D01*
G37*
G36*
X156576665Y-121660574D02*
X156055426Y-123092665D01*
X154623335Y-122571426D01*
X155144574Y-121139335D01*
X156576665Y-121660574D01*
X156576665Y-121660574D01*
G37*
G36*
X156344642Y-122392429D02*
X155700571Y-123773642D01*
X154319358Y-123129571D01*
X154963429Y-121748358D01*
X156344642Y-122392429D01*
X156344642Y-122392429D01*
G37*
G36*
X156050911Y-123101089D02*
X155288911Y-124420911D01*
X153969089Y-123658911D01*
X154731089Y-122339089D01*
X156050911Y-123101089D01*
X156050911Y-123101089D01*
G37*
G36*
X155696259Y-123781871D02*
X154822129Y-125030259D01*
X153573741Y-124156129D01*
X154447871Y-122907741D01*
X155696259Y-123781871D01*
X155696259Y-123781871D01*
G37*
G36*
X155283530Y-124428078D02*
X154303922Y-125595530D01*
X153136470Y-124615922D01*
X154116078Y-123448470D01*
X155283530Y-124428078D01*
X155283530Y-124428078D01*
G37*
G36*
X154816631Y-125037000D02*
X153739000Y-126114631D01*
X152661369Y-125037000D01*
X153739000Y-123959369D01*
X154816631Y-125037000D01*
X154816631Y-125037000D01*
G37*
G36*
X154297530Y-125601922D02*
X153130078Y-126581530D01*
X152150470Y-125414078D01*
X153317922Y-124434470D01*
X154297530Y-125601922D01*
X154297530Y-125601922D01*
G37*
G36*
X153732259Y-126120129D02*
X152483871Y-126994259D01*
X151609741Y-125745871D01*
X152858129Y-124871741D01*
X153732259Y-126120129D01*
X153732259Y-126120129D01*
G37*
G36*
X153122911Y-126586911D02*
X151803089Y-127348911D01*
X151041089Y-126029089D01*
X152360911Y-125267089D01*
X153122911Y-126586911D01*
X153122911Y-126586911D01*
G37*
G36*
X152475642Y-126998571D02*
X151094429Y-127642642D01*
X150450358Y-126261429D01*
X151831571Y-125617358D01*
X152475642Y-126998571D01*
X152475642Y-126998571D01*
G37*
G36*
X151794665Y-127353426D02*
X150362574Y-127874665D01*
X149841335Y-126442574D01*
X151273426Y-125921335D01*
X151794665Y-127353426D01*
X151794665Y-127353426D01*
G37*
D18*
X150153000Y-127107000D03*
X146693000Y-127258000D03*
D10*
G36*
X146549815Y-128040256D02*
X145077744Y-127645815D01*
X145472185Y-126173744D01*
X146944256Y-126568185D01*
X146549815Y-128040256D01*
X146549815Y-128040256D01*
G37*
G36*
X145801426Y-127874665D02*
X144369335Y-127353426D01*
X144890574Y-125921335D01*
X146322665Y-126442574D01*
X145801426Y-127874665D01*
X145801426Y-127874665D01*
G37*
G36*
X145069571Y-127642642D02*
X143688358Y-126998571D01*
X144332429Y-125617358D01*
X145713642Y-126261429D01*
X145069571Y-127642642D01*
X145069571Y-127642642D01*
G37*
G36*
X144360911Y-127348911D02*
X143041089Y-126586911D01*
X143803089Y-125267089D01*
X145122911Y-126029089D01*
X144360911Y-127348911D01*
X144360911Y-127348911D01*
G37*
G36*
X143680129Y-126994259D02*
X142431741Y-126120129D01*
X143305871Y-124871741D01*
X144554259Y-125745871D01*
X143680129Y-126994259D01*
X143680129Y-126994259D01*
G37*
G36*
X143033922Y-126581530D02*
X141866470Y-125601922D01*
X142846078Y-124434470D01*
X144013530Y-125414078D01*
X143033922Y-126581530D01*
X143033922Y-126581530D01*
G37*
G36*
X142425000Y-126114631D02*
X141347369Y-125037000D01*
X142425000Y-123959369D01*
X143502631Y-125037000D01*
X142425000Y-126114631D01*
X142425000Y-126114631D01*
G37*
G36*
X141860078Y-125595530D02*
X140880470Y-124428078D01*
X142047922Y-123448470D01*
X143027530Y-124615922D01*
X141860078Y-125595530D01*
X141860078Y-125595530D01*
G37*
G36*
X141341871Y-125030259D02*
X140467741Y-123781871D01*
X141716129Y-122907741D01*
X142590259Y-124156129D01*
X141341871Y-125030259D01*
X141341871Y-125030259D01*
G37*
G36*
X140875089Y-124420911D02*
X140113089Y-123101089D01*
X141432911Y-122339089D01*
X142194911Y-123658911D01*
X140875089Y-124420911D01*
X140875089Y-124420911D01*
G37*
G36*
X140463429Y-123773642D02*
X139819358Y-122392429D01*
X141200571Y-121748358D01*
X141844642Y-123129571D01*
X140463429Y-123773642D01*
X140463429Y-123773642D01*
G37*
G36*
X140108574Y-123092665D02*
X139587335Y-121660574D01*
X141019426Y-121139335D01*
X141540665Y-122571426D01*
X140108574Y-123092665D01*
X140108574Y-123092665D01*
G37*
G36*
X139816185Y-122384256D02*
X139421744Y-120912185D01*
X140893815Y-120517744D01*
X141288256Y-121989815D01*
X139816185Y-122384256D01*
X139816185Y-122384256D01*
G37*
G36*
X139585896Y-121651743D02*
X139321257Y-120150896D01*
X140822104Y-119886257D01*
X141086743Y-121387104D01*
X139585896Y-121651743D01*
X139585896Y-121651743D01*
G37*
G36*
X139419312Y-120902513D02*
X139286487Y-119384312D01*
X140804688Y-119251487D01*
X140937513Y-120769688D01*
X139419312Y-120902513D01*
X139419312Y-120902513D01*
G37*
D19*
X140082000Y-119380000D03*
D10*
G36*
X139286487Y-119375688D02*
X139419312Y-117857487D01*
X140937513Y-117990312D01*
X140804688Y-119508513D01*
X139286487Y-119375688D01*
X139286487Y-119375688D01*
G37*
G36*
X139321257Y-118609104D02*
X139585896Y-117108257D01*
X141086743Y-117372896D01*
X140822104Y-118873743D01*
X139321257Y-118609104D01*
X139321257Y-118609104D01*
G37*
G36*
X139421744Y-117847815D02*
X139816185Y-116375744D01*
X141288256Y-116770185D01*
X140893815Y-118242256D01*
X139421744Y-117847815D01*
X139421744Y-117847815D01*
G37*
G36*
X139587335Y-117099426D02*
X140108574Y-115667335D01*
X141540665Y-116188574D01*
X141019426Y-117620665D01*
X139587335Y-117099426D01*
X139587335Y-117099426D01*
G37*
G36*
X139819358Y-116367571D02*
X140463429Y-114986358D01*
X141844642Y-115630429D01*
X141200571Y-117011642D01*
X139819358Y-116367571D01*
X139819358Y-116367571D01*
G37*
G36*
X140113089Y-115658911D02*
X140875089Y-114339089D01*
X142194911Y-115101089D01*
X141432911Y-116420911D01*
X140113089Y-115658911D01*
X140113089Y-115658911D01*
G37*
G36*
X140467741Y-114978129D02*
X141341871Y-113729741D01*
X142590259Y-114603871D01*
X141716129Y-115852259D01*
X140467741Y-114978129D01*
X140467741Y-114978129D01*
G37*
G36*
X140880470Y-114331922D02*
X141860078Y-113164470D01*
X143027530Y-114144078D01*
X142047922Y-115311530D01*
X140880470Y-114331922D01*
X140880470Y-114331922D01*
G37*
G36*
X141347369Y-113723000D02*
X142425000Y-112645369D01*
X143502631Y-113723000D01*
X142425000Y-114800631D01*
X141347369Y-113723000D01*
X141347369Y-113723000D01*
G37*
G36*
X141866470Y-113158078D02*
X143033922Y-112178470D01*
X144013530Y-113345922D01*
X142846078Y-114325530D01*
X141866470Y-113158078D01*
X141866470Y-113158078D01*
G37*
G36*
X142431741Y-112639871D02*
X143680129Y-111765741D01*
X144554259Y-113014129D01*
X143305871Y-113888259D01*
X142431741Y-112639871D01*
X142431741Y-112639871D01*
G37*
G36*
X143041089Y-112173089D02*
X144360911Y-111411089D01*
X145122911Y-112730911D01*
X143803089Y-113492911D01*
X143041089Y-112173089D01*
X143041089Y-112173089D01*
G37*
G36*
X143688358Y-111761429D02*
X145069571Y-111117358D01*
X145713642Y-112498571D01*
X144332429Y-113142642D01*
X143688358Y-111761429D01*
X143688358Y-111761429D01*
G37*
G36*
X144369335Y-111406574D02*
X145801426Y-110885335D01*
X146322665Y-112317426D01*
X144890574Y-112838665D01*
X144369335Y-111406574D01*
X144369335Y-111406574D01*
G37*
D18*
X146011000Y-111653000D03*
D17*
X157353000Y-119380000D03*
D16*
X149982000Y-115080000D03*
D20*
X144780000Y-115062000D03*
X142494000Y-120904000D03*
X151892000Y-123698000D03*
X153924000Y-118110000D03*
D21*
X139849860Y-101854000D03*
X137010140Y-101854000D03*
X159407860Y-101854000D03*
X156568140Y-101854000D03*
D22*
X131892000Y-124945140D03*
X133792000Y-124945140D03*
X132842000Y-121942860D03*
X133792000Y-112290860D03*
X131892000Y-112290860D03*
X132842000Y-115293140D03*
X164272000Y-112290860D03*
X162372000Y-112290860D03*
X163322000Y-115293140D03*
X162372000Y-124945140D03*
X164272000Y-124945140D03*
X163322000Y-121942860D03*
M02*
