G04 #@! TF.FileFunction,Copper,L1,Top,Signal*
%FSLAX46Y46*%
G04 Gerber Fmt 4.6, Leading zero omitted, Abs format (unit mm)*
G04 Created by KiCad (PCBNEW (2015-05-03 BZR 5637)-product) date 2015 September 05, Saturday 10:45:34*
%MOMM*%
G01*
G04 APERTURE LIST*
%ADD10C,0.100000*%
%ADD11C,1.651000*%
%ADD12R,1.250000X1.500000*%
%ADD13R,1.500000X1.300000*%
%ADD14R,1.500000X3.000000*%
%ADD15R,13.000000X1.540000*%
%ADD16R,10.000000X1.540000*%
%ADD17R,2.000000X2.000000*%
%ADD18C,1.524000*%
%ADD19R,1.524000X1.524000*%
%ADD20C,1.540000*%
%ADD21R,0.800100X0.800100*%
%ADD22C,0.600000*%
%ADD23C,0.250000*%
%ADD24C,0.025400*%
G04 APERTURE END LIST*
D10*
D11*
X152654000Y-104648000D03*
X152654000Y-107188000D03*
X143510000Y-104648000D03*
X143510000Y-107188000D03*
D12*
X132080000Y-103104000D03*
X132080000Y-100604000D03*
X164084000Y-100604000D03*
X164084000Y-103104000D03*
D13*
X149432000Y-105918000D03*
X146732000Y-105918000D03*
X139780000Y-96520000D03*
X137080000Y-96520000D03*
X159338000Y-96520000D03*
X156638000Y-96520000D03*
X139780000Y-107442000D03*
X137080000Y-107442000D03*
X156638000Y-107442000D03*
X159338000Y-107442000D03*
D14*
X136780000Y-101854000D03*
X140080000Y-101854000D03*
X156338000Y-101854000D03*
X159638000Y-101854000D03*
D15*
X149098000Y-120904000D03*
X147320000Y-118110000D03*
D16*
X146812000Y-123698000D03*
D17*
X138811000Y-119380000D03*
D18*
X150153000Y-111653000D03*
D10*
G36*
X150362574Y-110885335D02*
X151794665Y-111406574D01*
X151273426Y-112838665D01*
X149841335Y-112317426D01*
X150362574Y-110885335D01*
X150362574Y-110885335D01*
G37*
G36*
X151094429Y-111117358D02*
X152475642Y-111761429D01*
X151831571Y-113142642D01*
X150450358Y-112498571D01*
X151094429Y-111117358D01*
X151094429Y-111117358D01*
G37*
G36*
X151803089Y-111411089D02*
X153122911Y-112173089D01*
X152360911Y-113492911D01*
X151041089Y-112730911D01*
X151803089Y-111411089D01*
X151803089Y-111411089D01*
G37*
G36*
X152483871Y-111765741D02*
X153732259Y-112639871D01*
X152858129Y-113888259D01*
X151609741Y-113014129D01*
X152483871Y-111765741D01*
X152483871Y-111765741D01*
G37*
G36*
X153130078Y-112178470D02*
X154297530Y-113158078D01*
X153317922Y-114325530D01*
X152150470Y-113345922D01*
X153130078Y-112178470D01*
X153130078Y-112178470D01*
G37*
G36*
X153739000Y-112645369D02*
X154816631Y-113723000D01*
X153739000Y-114800631D01*
X152661369Y-113723000D01*
X153739000Y-112645369D01*
X153739000Y-112645369D01*
G37*
G36*
X154303922Y-113164470D02*
X155283530Y-114331922D01*
X154116078Y-115311530D01*
X153136470Y-114144078D01*
X154303922Y-113164470D01*
X154303922Y-113164470D01*
G37*
G36*
X154822129Y-113729741D02*
X155696259Y-114978129D01*
X154447871Y-115852259D01*
X153573741Y-114603871D01*
X154822129Y-113729741D01*
X154822129Y-113729741D01*
G37*
G36*
X155288911Y-114339089D02*
X156050911Y-115658911D01*
X154731089Y-116420911D01*
X153969089Y-115101089D01*
X155288911Y-114339089D01*
X155288911Y-114339089D01*
G37*
G36*
X155700571Y-114986358D02*
X156344642Y-116367571D01*
X154963429Y-117011642D01*
X154319358Y-115630429D01*
X155700571Y-114986358D01*
X155700571Y-114986358D01*
G37*
G36*
X156055426Y-115667335D02*
X156576665Y-117099426D01*
X155144574Y-117620665D01*
X154623335Y-116188574D01*
X156055426Y-115667335D01*
X156055426Y-115667335D01*
G37*
G36*
X156347815Y-116375744D02*
X156742256Y-117847815D01*
X155270185Y-118242256D01*
X154875744Y-116770185D01*
X156347815Y-116375744D01*
X156347815Y-116375744D01*
G37*
G36*
X156578104Y-117108257D02*
X156842743Y-118609104D01*
X155341896Y-118873743D01*
X155077257Y-117372896D01*
X156578104Y-117108257D01*
X156578104Y-117108257D01*
G37*
G36*
X156744688Y-117857487D02*
X156877513Y-119375688D01*
X155359312Y-119508513D01*
X155226487Y-117990312D01*
X156744688Y-117857487D01*
X156744688Y-117857487D01*
G37*
D19*
X156082000Y-119380000D03*
D10*
G36*
X156877513Y-119384312D02*
X156744688Y-120902513D01*
X155226487Y-120769688D01*
X155359312Y-119251487D01*
X156877513Y-119384312D01*
X156877513Y-119384312D01*
G37*
G36*
X156842743Y-120150896D02*
X156578104Y-121651743D01*
X155077257Y-121387104D01*
X155341896Y-119886257D01*
X156842743Y-120150896D01*
X156842743Y-120150896D01*
G37*
G36*
X156742256Y-120912185D02*
X156347815Y-122384256D01*
X154875744Y-121989815D01*
X155270185Y-120517744D01*
X156742256Y-120912185D01*
X156742256Y-120912185D01*
G37*
G36*
X156576665Y-121660574D02*
X156055426Y-123092665D01*
X154623335Y-122571426D01*
X155144574Y-121139335D01*
X156576665Y-121660574D01*
X156576665Y-121660574D01*
G37*
G36*
X156344642Y-122392429D02*
X155700571Y-123773642D01*
X154319358Y-123129571D01*
X154963429Y-121748358D01*
X156344642Y-122392429D01*
X156344642Y-122392429D01*
G37*
G36*
X156050911Y-123101089D02*
X155288911Y-124420911D01*
X153969089Y-123658911D01*
X154731089Y-122339089D01*
X156050911Y-123101089D01*
X156050911Y-123101089D01*
G37*
G36*
X155696259Y-123781871D02*
X154822129Y-125030259D01*
X153573741Y-124156129D01*
X154447871Y-122907741D01*
X155696259Y-123781871D01*
X155696259Y-123781871D01*
G37*
G36*
X155283530Y-124428078D02*
X154303922Y-125595530D01*
X153136470Y-124615922D01*
X154116078Y-123448470D01*
X155283530Y-124428078D01*
X155283530Y-124428078D01*
G37*
G36*
X154816631Y-125037000D02*
X153739000Y-126114631D01*
X152661369Y-125037000D01*
X153739000Y-123959369D01*
X154816631Y-125037000D01*
X154816631Y-125037000D01*
G37*
G36*
X154297530Y-125601922D02*
X153130078Y-126581530D01*
X152150470Y-125414078D01*
X153317922Y-124434470D01*
X154297530Y-125601922D01*
X154297530Y-125601922D01*
G37*
G36*
X153732259Y-126120129D02*
X152483871Y-126994259D01*
X151609741Y-125745871D01*
X152858129Y-124871741D01*
X153732259Y-126120129D01*
X153732259Y-126120129D01*
G37*
G36*
X153122911Y-126586911D02*
X151803089Y-127348911D01*
X151041089Y-126029089D01*
X152360911Y-125267089D01*
X153122911Y-126586911D01*
X153122911Y-126586911D01*
G37*
G36*
X152475642Y-126998571D02*
X151094429Y-127642642D01*
X150450358Y-126261429D01*
X151831571Y-125617358D01*
X152475642Y-126998571D01*
X152475642Y-126998571D01*
G37*
G36*
X151794665Y-127353426D02*
X150362574Y-127874665D01*
X149841335Y-126442574D01*
X151273426Y-125921335D01*
X151794665Y-127353426D01*
X151794665Y-127353426D01*
G37*
D18*
X150153000Y-127107000D03*
X146693000Y-127258000D03*
D10*
G36*
X146549815Y-128040256D02*
X145077744Y-127645815D01*
X145472185Y-126173744D01*
X146944256Y-126568185D01*
X146549815Y-128040256D01*
X146549815Y-128040256D01*
G37*
G36*
X145801426Y-127874665D02*
X144369335Y-127353426D01*
X144890574Y-125921335D01*
X146322665Y-126442574D01*
X145801426Y-127874665D01*
X145801426Y-127874665D01*
G37*
G36*
X145069571Y-127642642D02*
X143688358Y-126998571D01*
X144332429Y-125617358D01*
X145713642Y-126261429D01*
X145069571Y-127642642D01*
X145069571Y-127642642D01*
G37*
G36*
X144360911Y-127348911D02*
X143041089Y-126586911D01*
X143803089Y-125267089D01*
X145122911Y-126029089D01*
X144360911Y-127348911D01*
X144360911Y-127348911D01*
G37*
G36*
X143680129Y-126994259D02*
X142431741Y-126120129D01*
X143305871Y-124871741D01*
X144554259Y-125745871D01*
X143680129Y-126994259D01*
X143680129Y-126994259D01*
G37*
G36*
X143033922Y-126581530D02*
X141866470Y-125601922D01*
X142846078Y-124434470D01*
X144013530Y-125414078D01*
X143033922Y-126581530D01*
X143033922Y-126581530D01*
G37*
G36*
X142425000Y-126114631D02*
X141347369Y-125037000D01*
X142425000Y-123959369D01*
X143502631Y-125037000D01*
X142425000Y-126114631D01*
X142425000Y-126114631D01*
G37*
G36*
X141860078Y-125595530D02*
X140880470Y-124428078D01*
X142047922Y-123448470D01*
X143027530Y-124615922D01*
X141860078Y-125595530D01*
X141860078Y-125595530D01*
G37*
G36*
X141341871Y-125030259D02*
X140467741Y-123781871D01*
X141716129Y-122907741D01*
X142590259Y-124156129D01*
X141341871Y-125030259D01*
X141341871Y-125030259D01*
G37*
G36*
X140875089Y-124420911D02*
X140113089Y-123101089D01*
X141432911Y-122339089D01*
X142194911Y-123658911D01*
X140875089Y-124420911D01*
X140875089Y-124420911D01*
G37*
G36*
X140463429Y-123773642D02*
X139819358Y-122392429D01*
X141200571Y-121748358D01*
X141844642Y-123129571D01*
X140463429Y-123773642D01*
X140463429Y-123773642D01*
G37*
G36*
X140108574Y-123092665D02*
X139587335Y-121660574D01*
X141019426Y-121139335D01*
X141540665Y-122571426D01*
X140108574Y-123092665D01*
X140108574Y-123092665D01*
G37*
G36*
X139816185Y-122384256D02*
X139421744Y-120912185D01*
X140893815Y-120517744D01*
X141288256Y-121989815D01*
X139816185Y-122384256D01*
X139816185Y-122384256D01*
G37*
G36*
X139585896Y-121651743D02*
X139321257Y-120150896D01*
X140822104Y-119886257D01*
X141086743Y-121387104D01*
X139585896Y-121651743D01*
X139585896Y-121651743D01*
G37*
G36*
X139419312Y-120902513D02*
X139286487Y-119384312D01*
X140804688Y-119251487D01*
X140937513Y-120769688D01*
X139419312Y-120902513D01*
X139419312Y-120902513D01*
G37*
D19*
X140082000Y-119380000D03*
D10*
G36*
X139286487Y-119375688D02*
X139419312Y-117857487D01*
X140937513Y-117990312D01*
X140804688Y-119508513D01*
X139286487Y-119375688D01*
X139286487Y-119375688D01*
G37*
G36*
X139321257Y-118609104D02*
X139585896Y-117108257D01*
X141086743Y-117372896D01*
X140822104Y-118873743D01*
X139321257Y-118609104D01*
X139321257Y-118609104D01*
G37*
G36*
X139421744Y-117847815D02*
X139816185Y-116375744D01*
X141288256Y-116770185D01*
X140893815Y-118242256D01*
X139421744Y-117847815D01*
X139421744Y-117847815D01*
G37*
G36*
X139587335Y-117099426D02*
X140108574Y-115667335D01*
X141540665Y-116188574D01*
X141019426Y-117620665D01*
X139587335Y-117099426D01*
X139587335Y-117099426D01*
G37*
G36*
X139819358Y-116367571D02*
X140463429Y-114986358D01*
X141844642Y-115630429D01*
X141200571Y-117011642D01*
X139819358Y-116367571D01*
X139819358Y-116367571D01*
G37*
G36*
X140113089Y-115658911D02*
X140875089Y-114339089D01*
X142194911Y-115101089D01*
X141432911Y-116420911D01*
X140113089Y-115658911D01*
X140113089Y-115658911D01*
G37*
G36*
X140467741Y-114978129D02*
X141341871Y-113729741D01*
X142590259Y-114603871D01*
X141716129Y-115852259D01*
X140467741Y-114978129D01*
X140467741Y-114978129D01*
G37*
G36*
X140880470Y-114331922D02*
X141860078Y-113164470D01*
X143027530Y-114144078D01*
X142047922Y-115311530D01*
X140880470Y-114331922D01*
X140880470Y-114331922D01*
G37*
G36*
X141347369Y-113723000D02*
X142425000Y-112645369D01*
X143502631Y-113723000D01*
X142425000Y-114800631D01*
X141347369Y-113723000D01*
X141347369Y-113723000D01*
G37*
G36*
X141866470Y-113158078D02*
X143033922Y-112178470D01*
X144013530Y-113345922D01*
X142846078Y-114325530D01*
X141866470Y-113158078D01*
X141866470Y-113158078D01*
G37*
G36*
X142431741Y-112639871D02*
X143680129Y-111765741D01*
X144554259Y-113014129D01*
X143305871Y-113888259D01*
X142431741Y-112639871D01*
X142431741Y-112639871D01*
G37*
G36*
X143041089Y-112173089D02*
X144360911Y-111411089D01*
X145122911Y-112730911D01*
X143803089Y-113492911D01*
X143041089Y-112173089D01*
X143041089Y-112173089D01*
G37*
G36*
X143688358Y-111761429D02*
X145069571Y-111117358D01*
X145713642Y-112498571D01*
X144332429Y-113142642D01*
X143688358Y-111761429D01*
X143688358Y-111761429D01*
G37*
G36*
X144369335Y-111406574D02*
X145801426Y-110885335D01*
X146322665Y-112317426D01*
X144890574Y-112838665D01*
X144369335Y-111406574D01*
X144369335Y-111406574D01*
G37*
D18*
X146011000Y-111653000D03*
D17*
X157353000Y-119380000D03*
D16*
X149982000Y-115080000D03*
D20*
X144780000Y-115062000D03*
X142494000Y-120904000D03*
X151892000Y-123698000D03*
X153924000Y-118110000D03*
D21*
X131892000Y-124444760D03*
X133792000Y-124444760D03*
X132842000Y-122445780D03*
X133792000Y-112791240D03*
X131892000Y-112791240D03*
X132842000Y-114790220D03*
X164272000Y-112791240D03*
X162372000Y-112791240D03*
X163322000Y-114790220D03*
X162372000Y-124444760D03*
X164272000Y-124444760D03*
X163322000Y-122445780D03*
D22*
X162306000Y-126492000D03*
X156464000Y-98298000D03*
X163068000Y-105156000D03*
X134620000Y-107442000D03*
X162306000Y-111252000D03*
X130048000Y-115570000D03*
X131826000Y-110744000D03*
X161036000Y-116332000D03*
X135382000Y-116332000D03*
D23*
X156638000Y-96520000D02*
X156638000Y-98124000D01*
X162372000Y-126426000D02*
X162372000Y-124444760D01*
X162306000Y-126492000D02*
X162372000Y-126426000D01*
X156638000Y-98124000D02*
X156464000Y-98298000D01*
X132080000Y-103104000D02*
X132080000Y-104902000D01*
X144780000Y-96520000D02*
X156638000Y-96520000D01*
X143256000Y-98044000D02*
X144780000Y-96520000D01*
X143256000Y-102616000D02*
X143256000Y-98044000D01*
X140462000Y-105410000D02*
X143256000Y-102616000D01*
X132588000Y-105410000D02*
X140462000Y-105410000D01*
X132080000Y-104902000D02*
X132588000Y-105410000D01*
X137080000Y-96520000D02*
X137080000Y-94568000D01*
X166387780Y-114790220D02*
X163322000Y-114790220D01*
X166878000Y-114300000D02*
X166387780Y-114790220D01*
X166878000Y-95250000D02*
X166878000Y-114300000D01*
X165862000Y-94234000D02*
X166878000Y-95250000D01*
X137414000Y-94234000D02*
X165862000Y-94234000D01*
X137080000Y-94568000D02*
X137414000Y-94234000D01*
X134874000Y-96520000D02*
X137080000Y-96520000D01*
X132080000Y-99314000D02*
X134874000Y-96520000D01*
X132080000Y-100604000D02*
X132080000Y-99314000D01*
X164084000Y-100604000D02*
X162540000Y-100604000D01*
X161290000Y-107442000D02*
X159338000Y-107442000D01*
X161798000Y-106934000D02*
X161290000Y-107442000D01*
X161798000Y-101346000D02*
X161798000Y-106934000D01*
X162540000Y-100604000D02*
X161798000Y-101346000D01*
X161053780Y-122445780D02*
X159338000Y-120730000D01*
X159338000Y-120730000D02*
X159338000Y-107442000D01*
X163322000Y-122445780D02*
X161053780Y-122445780D01*
X137080000Y-107442000D02*
X134620000Y-107442000D01*
X164084000Y-104140000D02*
X164084000Y-103104000D01*
X163068000Y-105156000D02*
X164084000Y-104140000D01*
X164084000Y-103104000D02*
X164084000Y-112603240D01*
X164084000Y-112603240D02*
X164272000Y-112791240D01*
X139780000Y-96520000D02*
X139780000Y-98726000D01*
X136780000Y-99948000D02*
X136780000Y-101854000D01*
X137668000Y-99060000D02*
X136780000Y-99948000D01*
X139446000Y-99060000D02*
X137668000Y-99060000D01*
X139780000Y-98726000D02*
X139446000Y-99060000D01*
X156338000Y-101854000D02*
X156338000Y-107142000D01*
X156338000Y-107142000D02*
X156638000Y-107442000D01*
X132842000Y-114790220D02*
X130827780Y-114790220D01*
X162372000Y-111318000D02*
X162372000Y-112791240D01*
X162306000Y-111252000D02*
X162372000Y-111318000D01*
X130827780Y-114790220D02*
X130048000Y-115570000D01*
X132842000Y-122445780D02*
X132842000Y-114790220D01*
X161020760Y-112791240D02*
X160274000Y-113538000D01*
X162372000Y-112791240D02*
X161020760Y-112791240D01*
X164272000Y-117790000D02*
X164272000Y-124444760D01*
X163830000Y-117348000D02*
X164272000Y-117790000D01*
X160528000Y-117348000D02*
X163830000Y-117348000D01*
X160274000Y-117094000D02*
X160528000Y-117348000D01*
X160274000Y-115824000D02*
X160274000Y-117094000D01*
X160274000Y-113538000D02*
X160274000Y-115824000D01*
X146732000Y-108284000D02*
X146050000Y-108966000D01*
X146050000Y-108966000D02*
X129794000Y-108966000D01*
X129794000Y-108966000D02*
X129032000Y-109728000D01*
X129032000Y-109728000D02*
X129032000Y-123952000D01*
X129032000Y-123952000D02*
X129524760Y-124444760D01*
X129524760Y-124444760D02*
X131892000Y-124444760D01*
X146732000Y-105918000D02*
X146732000Y-108284000D01*
X133792000Y-112791240D02*
X133792000Y-124444760D01*
X131892000Y-110810000D02*
X131826000Y-110744000D01*
X131892000Y-112791240D02*
X131892000Y-110810000D01*
X149432000Y-105918000D02*
X149432000Y-110932000D01*
X149432000Y-110932000D02*
X150153000Y-111653000D01*
D24*
G36*
X141378489Y-123489760D02*
X141095442Y-123653177D01*
X141085443Y-123635857D01*
X141072366Y-123643406D01*
X141040120Y-123597354D01*
X140911255Y-123374154D01*
X140885434Y-123318780D01*
X140898143Y-123311443D01*
X140814277Y-123166183D01*
X140741405Y-123009908D01*
X140727732Y-123016283D01*
X140699543Y-122967458D01*
X140585819Y-122723577D01*
X140568878Y-122677032D01*
X140583092Y-122670405D01*
X140507335Y-122507945D01*
X140452056Y-122356065D01*
X140438768Y-122360901D01*
X140410357Y-122299974D01*
X140327788Y-122073116D01*
X140310585Y-122008914D01*
X140323935Y-122004056D01*
X140268398Y-121851471D01*
X140222559Y-121680395D01*
X140207591Y-121684405D01*
X140189915Y-121635842D01*
X140121898Y-121381998D01*
X140111384Y-121322369D01*
X140125605Y-121318559D01*
X140120428Y-121299240D01*
X140435333Y-121214861D01*
X140508020Y-121414568D01*
X140561499Y-121717861D01*
X140594364Y-121740873D01*
X140580602Y-121778685D01*
X140712504Y-122061550D01*
X140793838Y-122365092D01*
X140828229Y-122384947D01*
X140817944Y-122423334D01*
X140972811Y-122691572D01*
X141080836Y-122988367D01*
X141117834Y-123005619D01*
X141110844Y-123045264D01*
X141291578Y-123303379D01*
X141378489Y-123489760D01*
X141378489Y-123489760D01*
G37*
X141378489Y-123489760D02*
X141095442Y-123653177D01*
X141085443Y-123635857D01*
X141072366Y-123643406D01*
X141040120Y-123597354D01*
X140911255Y-123374154D01*
X140885434Y-123318780D01*
X140898143Y-123311443D01*
X140814277Y-123166183D01*
X140741405Y-123009908D01*
X140727732Y-123016283D01*
X140699543Y-122967458D01*
X140585819Y-122723577D01*
X140568878Y-122677032D01*
X140583092Y-122670405D01*
X140507335Y-122507945D01*
X140452056Y-122356065D01*
X140438768Y-122360901D01*
X140410357Y-122299974D01*
X140327788Y-122073116D01*
X140310585Y-122008914D01*
X140323935Y-122004056D01*
X140268398Y-121851471D01*
X140222559Y-121680395D01*
X140207591Y-121684405D01*
X140189915Y-121635842D01*
X140121898Y-121381998D01*
X140111384Y-121322369D01*
X140125605Y-121318559D01*
X140120428Y-121299240D01*
X140435333Y-121214861D01*
X140508020Y-121414568D01*
X140561499Y-121717861D01*
X140594364Y-121740873D01*
X140580602Y-121778685D01*
X140712504Y-122061550D01*
X140793838Y-122365092D01*
X140828229Y-122384947D01*
X140817944Y-122423334D01*
X140972811Y-122691572D01*
X141080836Y-122988367D01*
X141117834Y-123005619D01*
X141110844Y-123045264D01*
X141291578Y-123303379D01*
X141378489Y-123489760D01*
G36*
X144331080Y-112468820D02*
X144158620Y-112589578D01*
X143876998Y-112720901D01*
X143863353Y-112758388D01*
X143823777Y-112754926D01*
X143585248Y-112955075D01*
X143312634Y-113112469D01*
X143302365Y-113150792D01*
X143262091Y-113150792D01*
X143040126Y-113372756D01*
X142784125Y-113552010D01*
X142777146Y-113591589D01*
X142738034Y-113595012D01*
X142536815Y-113834815D01*
X142297012Y-114036034D01*
X142293589Y-114075146D01*
X142254010Y-114082125D01*
X142074756Y-114338126D01*
X141852792Y-114560091D01*
X141852792Y-114600365D01*
X141814469Y-114610634D01*
X141657075Y-114883248D01*
X141456926Y-115121777D01*
X141460388Y-115161353D01*
X141422901Y-115174998D01*
X141291578Y-115456620D01*
X141110844Y-115714736D01*
X141117834Y-115754380D01*
X141080836Y-115771633D01*
X140972811Y-116068427D01*
X140817944Y-116336666D01*
X140828229Y-116375052D01*
X140793838Y-116394908D01*
X140712504Y-116698449D01*
X140580602Y-116981315D01*
X140594364Y-117019126D01*
X140561499Y-117042139D01*
X140529318Y-117224642D01*
X140507300Y-117277800D01*
X140507300Y-117347411D01*
X140435333Y-117545138D01*
X140120428Y-117460759D01*
X140125605Y-117441441D01*
X140111384Y-117437630D01*
X140121897Y-117378003D01*
X140189916Y-117124154D01*
X140207591Y-117075594D01*
X140222559Y-117079605D01*
X140268398Y-116908528D01*
X140323935Y-116755944D01*
X140310585Y-116751085D01*
X140327787Y-116686886D01*
X140410359Y-116460020D01*
X140438768Y-116399098D01*
X140452056Y-116403935D01*
X140507335Y-116252054D01*
X140583092Y-116089595D01*
X140568878Y-116082967D01*
X140585817Y-116036425D01*
X140699545Y-115792536D01*
X140727732Y-115743716D01*
X140741405Y-115750092D01*
X140814277Y-115593816D01*
X140898143Y-115448557D01*
X140885434Y-115441219D01*
X140911253Y-115385849D01*
X141040123Y-115162639D01*
X141072366Y-115116593D01*
X141085443Y-115124143D01*
X141171739Y-114974673D01*
X141268142Y-114836996D01*
X141256097Y-114828562D01*
X141286477Y-114775942D01*
X141429490Y-114571697D01*
X141471260Y-114521919D01*
X141483004Y-114530142D01*
X141576989Y-114395916D01*
X141690126Y-114261086D01*
X141678329Y-114251187D01*
X141708601Y-114207953D01*
X141882980Y-114000135D01*
X141918993Y-113964123D01*
X141930914Y-113974126D01*
X142045238Y-113837879D01*
X142160118Y-113723000D01*
X142150067Y-113712949D01*
X142192741Y-113662091D01*
X142364091Y-113490741D01*
X142414949Y-113448067D01*
X142425000Y-113458118D01*
X142539879Y-113343238D01*
X142676126Y-113228914D01*
X142666123Y-113216993D01*
X142702135Y-113180980D01*
X142909953Y-113006601D01*
X142953187Y-112976329D01*
X142963086Y-112988126D01*
X143097916Y-112874989D01*
X143232142Y-112781004D01*
X143223919Y-112769260D01*
X143273697Y-112727490D01*
X143477942Y-112584477D01*
X143530562Y-112554097D01*
X143538996Y-112566142D01*
X143676673Y-112469739D01*
X143826143Y-112383443D01*
X143818593Y-112370366D01*
X143864639Y-112338123D01*
X144087849Y-112209253D01*
X144143219Y-112183434D01*
X144150557Y-112196143D01*
X144167876Y-112186143D01*
X144331080Y-112468820D01*
X144331080Y-112468820D01*
G37*
X144331080Y-112468820D02*
X144158620Y-112589578D01*
X143876998Y-112720901D01*
X143863353Y-112758388D01*
X143823777Y-112754926D01*
X143585248Y-112955075D01*
X143312634Y-113112469D01*
X143302365Y-113150792D01*
X143262091Y-113150792D01*
X143040126Y-113372756D01*
X142784125Y-113552010D01*
X142777146Y-113591589D01*
X142738034Y-113595012D01*
X142536815Y-113834815D01*
X142297012Y-114036034D01*
X142293589Y-114075146D01*
X142254010Y-114082125D01*
X142074756Y-114338126D01*
X141852792Y-114560091D01*
X141852792Y-114600365D01*
X141814469Y-114610634D01*
X141657075Y-114883248D01*
X141456926Y-115121777D01*
X141460388Y-115161353D01*
X141422901Y-115174998D01*
X141291578Y-115456620D01*
X141110844Y-115714736D01*
X141117834Y-115754380D01*
X141080836Y-115771633D01*
X140972811Y-116068427D01*
X140817944Y-116336666D01*
X140828229Y-116375052D01*
X140793838Y-116394908D01*
X140712504Y-116698449D01*
X140580602Y-116981315D01*
X140594364Y-117019126D01*
X140561499Y-117042139D01*
X140529318Y-117224642D01*
X140507300Y-117277800D01*
X140507300Y-117347411D01*
X140435333Y-117545138D01*
X140120428Y-117460759D01*
X140125605Y-117441441D01*
X140111384Y-117437630D01*
X140121897Y-117378003D01*
X140189916Y-117124154D01*
X140207591Y-117075594D01*
X140222559Y-117079605D01*
X140268398Y-116908528D01*
X140323935Y-116755944D01*
X140310585Y-116751085D01*
X140327787Y-116686886D01*
X140410359Y-116460020D01*
X140438768Y-116399098D01*
X140452056Y-116403935D01*
X140507335Y-116252054D01*
X140583092Y-116089595D01*
X140568878Y-116082967D01*
X140585817Y-116036425D01*
X140699545Y-115792536D01*
X140727732Y-115743716D01*
X140741405Y-115750092D01*
X140814277Y-115593816D01*
X140898143Y-115448557D01*
X140885434Y-115441219D01*
X140911253Y-115385849D01*
X141040123Y-115162639D01*
X141072366Y-115116593D01*
X141085443Y-115124143D01*
X141171739Y-114974673D01*
X141268142Y-114836996D01*
X141256097Y-114828562D01*
X141286477Y-114775942D01*
X141429490Y-114571697D01*
X141471260Y-114521919D01*
X141483004Y-114530142D01*
X141576989Y-114395916D01*
X141690126Y-114261086D01*
X141678329Y-114251187D01*
X141708601Y-114207953D01*
X141882980Y-114000135D01*
X141918993Y-113964123D01*
X141930914Y-113974126D01*
X142045238Y-113837879D01*
X142160118Y-113723000D01*
X142150067Y-113712949D01*
X142192741Y-113662091D01*
X142364091Y-113490741D01*
X142414949Y-113448067D01*
X142425000Y-113458118D01*
X142539879Y-113343238D01*
X142676126Y-113228914D01*
X142666123Y-113216993D01*
X142702135Y-113180980D01*
X142909953Y-113006601D01*
X142953187Y-112976329D01*
X142963086Y-112988126D01*
X143097916Y-112874989D01*
X143232142Y-112781004D01*
X143223919Y-112769260D01*
X143273697Y-112727490D01*
X143477942Y-112584477D01*
X143530562Y-112554097D01*
X143538996Y-112566142D01*
X143676673Y-112469739D01*
X143826143Y-112383443D01*
X143818593Y-112370366D01*
X143864639Y-112338123D01*
X144087849Y-112209253D01*
X144143219Y-112183434D01*
X144150557Y-112196143D01*
X144167876Y-112186143D01*
X144331080Y-112468820D01*
G36*
X144947673Y-126591521D02*
X144809720Y-126887360D01*
X144791595Y-126878908D01*
X144784967Y-126893121D01*
X144738415Y-126876177D01*
X144494545Y-126762458D01*
X144445716Y-126734267D01*
X144452092Y-126720595D01*
X144295816Y-126647722D01*
X144150557Y-126563857D01*
X144143219Y-126576565D01*
X144087840Y-126550741D01*
X143864647Y-126421880D01*
X143818593Y-126389633D01*
X143826143Y-126376557D01*
X143676673Y-126290260D01*
X143538996Y-126193858D01*
X143530562Y-126205902D01*
X143477933Y-126175517D01*
X143273704Y-126032514D01*
X143223919Y-125990739D01*
X143232142Y-125978996D01*
X143097916Y-125885010D01*
X142963086Y-125771874D01*
X142953187Y-125783670D01*
X142909946Y-125753392D01*
X142702141Y-125579024D01*
X142666123Y-125543006D01*
X142676126Y-125531086D01*
X142539879Y-125416761D01*
X142425000Y-125301882D01*
X142414949Y-125311932D01*
X142364084Y-125269251D01*
X142192747Y-125097914D01*
X142150067Y-125047050D01*
X142160118Y-125037000D01*
X142145975Y-125022857D01*
X142377406Y-124791426D01*
X142536815Y-124925184D01*
X142738034Y-125164988D01*
X142777146Y-125168410D01*
X142784125Y-125207990D01*
X143040126Y-125387243D01*
X143262091Y-125609208D01*
X143302365Y-125609208D01*
X143312634Y-125647531D01*
X143585248Y-125804924D01*
X143823777Y-126005074D01*
X143863353Y-126001611D01*
X143876998Y-126039099D01*
X144158620Y-126170421D01*
X144416736Y-126351156D01*
X144456380Y-126344165D01*
X144473633Y-126381164D01*
X144770427Y-126489188D01*
X144947673Y-126591521D01*
X144947673Y-126591521D01*
G37*
X144947673Y-126591521D02*
X144809720Y-126887360D01*
X144791595Y-126878908D01*
X144784967Y-126893121D01*
X144738415Y-126876177D01*
X144494545Y-126762458D01*
X144445716Y-126734267D01*
X144452092Y-126720595D01*
X144295816Y-126647722D01*
X144150557Y-126563857D01*
X144143219Y-126576565D01*
X144087840Y-126550741D01*
X143864647Y-126421880D01*
X143818593Y-126389633D01*
X143826143Y-126376557D01*
X143676673Y-126290260D01*
X143538996Y-126193858D01*
X143530562Y-126205902D01*
X143477933Y-126175517D01*
X143273704Y-126032514D01*
X143223919Y-125990739D01*
X143232142Y-125978996D01*
X143097916Y-125885010D01*
X142963086Y-125771874D01*
X142953187Y-125783670D01*
X142909946Y-125753392D01*
X142702141Y-125579024D01*
X142666123Y-125543006D01*
X142676126Y-125531086D01*
X142539879Y-125416761D01*
X142425000Y-125301882D01*
X142414949Y-125311932D01*
X142364084Y-125269251D01*
X142192747Y-125097914D01*
X142150067Y-125047050D01*
X142160118Y-125037000D01*
X142145975Y-125022857D01*
X142377406Y-124791426D01*
X142536815Y-124925184D01*
X142738034Y-125164988D01*
X142777146Y-125168410D01*
X142784125Y-125207990D01*
X143040126Y-125387243D01*
X143262091Y-125609208D01*
X143302365Y-125609208D01*
X143312634Y-125647531D01*
X143585248Y-125804924D01*
X143823777Y-126005074D01*
X143863353Y-126001611D01*
X143876998Y-126039099D01*
X144158620Y-126170421D01*
X144416736Y-126351156D01*
X144456380Y-126344165D01*
X144473633Y-126381164D01*
X144770427Y-126489188D01*
X144947673Y-126591521D01*
G36*
X167912300Y-126456276D02*
X167546651Y-128294514D01*
X167315701Y-128640154D01*
X167315701Y-114300000D01*
X167315700Y-114299994D01*
X167315700Y-95250005D01*
X167315700Y-95250000D01*
X167315701Y-95250000D01*
X167287909Y-95110290D01*
X167282382Y-95082500D01*
X167282382Y-95082499D01*
X167187501Y-94940499D01*
X166171501Y-93924499D01*
X166029501Y-93829618D01*
X166001709Y-93824090D01*
X165862000Y-93796299D01*
X165861994Y-93796300D01*
X137414000Y-93796300D01*
X137246499Y-93829618D01*
X137104499Y-93924499D01*
X137104496Y-93924502D01*
X136770499Y-94258499D01*
X136675618Y-94400499D01*
X136670090Y-94428290D01*
X136642299Y-94568000D01*
X136642300Y-94568005D01*
X136642300Y-95551174D01*
X136330000Y-95551174D01*
X136210769Y-95574308D01*
X136105975Y-95643146D01*
X136035827Y-95747067D01*
X136011174Y-95870000D01*
X136011174Y-96082300D01*
X134874005Y-96082300D01*
X134874000Y-96082299D01*
X134706500Y-96115617D01*
X134659381Y-96147101D01*
X134564499Y-96210499D01*
X134564496Y-96210502D01*
X131770499Y-99004499D01*
X131675618Y-99146499D01*
X131670090Y-99174290D01*
X131642299Y-99314000D01*
X131642300Y-99314005D01*
X131642300Y-99535174D01*
X131455000Y-99535174D01*
X131335769Y-99558308D01*
X131230975Y-99627146D01*
X131160827Y-99731067D01*
X131136174Y-99854000D01*
X131136174Y-101354000D01*
X131159308Y-101473231D01*
X131228146Y-101578025D01*
X131332067Y-101648173D01*
X131455000Y-101672826D01*
X132705000Y-101672826D01*
X132824231Y-101649692D01*
X132929025Y-101580854D01*
X132999173Y-101476933D01*
X133023826Y-101354000D01*
X133023826Y-99854000D01*
X133000692Y-99734769D01*
X132931854Y-99629975D01*
X132827933Y-99559827D01*
X132705000Y-99535174D01*
X132517700Y-99535174D01*
X132517700Y-99495301D01*
X135055301Y-96957700D01*
X136011174Y-96957700D01*
X136011174Y-97170000D01*
X136034308Y-97289231D01*
X136103146Y-97394025D01*
X136207067Y-97464173D01*
X136330000Y-97488826D01*
X137830000Y-97488826D01*
X137949231Y-97465692D01*
X138054025Y-97396854D01*
X138124173Y-97292933D01*
X138148826Y-97170000D01*
X138148826Y-95870000D01*
X138125692Y-95750769D01*
X138056854Y-95645975D01*
X137952933Y-95575827D01*
X137830000Y-95551174D01*
X137517700Y-95551174D01*
X137517700Y-94749301D01*
X137595301Y-94671700D01*
X165680698Y-94671700D01*
X166440300Y-95431302D01*
X166440300Y-114118698D01*
X166206478Y-114352520D01*
X165027826Y-114352520D01*
X165027826Y-103854000D01*
X165027826Y-102354000D01*
X165027826Y-101354000D01*
X165027826Y-99854000D01*
X165004692Y-99734769D01*
X164935854Y-99629975D01*
X164831933Y-99559827D01*
X164709000Y-99535174D01*
X163459000Y-99535174D01*
X163339769Y-99558308D01*
X163234975Y-99627146D01*
X163164827Y-99731067D01*
X163140174Y-99854000D01*
X163140174Y-100166300D01*
X162540000Y-100166300D01*
X162372499Y-100199618D01*
X162230499Y-100294499D01*
X162230496Y-100294502D01*
X161488499Y-101036499D01*
X161393618Y-101178499D01*
X161388090Y-101206290D01*
X161360299Y-101346000D01*
X161360300Y-101346005D01*
X161360300Y-106752698D01*
X161108698Y-107004300D01*
X160700700Y-107004300D01*
X160700700Y-103416200D01*
X160700700Y-103291800D01*
X160700700Y-102119475D01*
X160700700Y-101588525D01*
X160700700Y-100416200D01*
X160700700Y-100291800D01*
X160653094Y-100176870D01*
X160565130Y-100088906D01*
X160450200Y-100041300D01*
X160400700Y-100041300D01*
X160400700Y-97232200D01*
X160400700Y-97107800D01*
X160400700Y-96785475D01*
X160400700Y-96254525D01*
X160400700Y-95932200D01*
X160400700Y-95807800D01*
X160353094Y-95692870D01*
X160265130Y-95604906D01*
X160150200Y-95557300D01*
X159603475Y-95557300D01*
X159525300Y-95635475D01*
X159525300Y-96332700D01*
X160322525Y-96332700D01*
X160400700Y-96254525D01*
X160400700Y-96785475D01*
X160322525Y-96707300D01*
X159525300Y-96707300D01*
X159525300Y-97404525D01*
X159603475Y-97482700D01*
X160150200Y-97482700D01*
X160265130Y-97435094D01*
X160353094Y-97347130D01*
X160400700Y-97232200D01*
X160400700Y-100041300D01*
X159903475Y-100041300D01*
X159825300Y-100119475D01*
X159825300Y-101666700D01*
X160622525Y-101666700D01*
X160700700Y-101588525D01*
X160700700Y-102119475D01*
X160622525Y-102041300D01*
X159825300Y-102041300D01*
X159825300Y-103588525D01*
X159903475Y-103666700D01*
X160450200Y-103666700D01*
X160565130Y-103619094D01*
X160653094Y-103531130D01*
X160700700Y-103416200D01*
X160700700Y-107004300D01*
X160406826Y-107004300D01*
X160406826Y-106792000D01*
X160383692Y-106672769D01*
X160314854Y-106567975D01*
X160210933Y-106497827D01*
X160088000Y-106473174D01*
X159450700Y-106473174D01*
X159450700Y-103588525D01*
X159450700Y-102041300D01*
X159450700Y-101666700D01*
X159450700Y-100119475D01*
X159372525Y-100041300D01*
X159150700Y-100041300D01*
X159150700Y-97404525D01*
X159150700Y-96707300D01*
X159150700Y-96332700D01*
X159150700Y-95635475D01*
X159072525Y-95557300D01*
X158525800Y-95557300D01*
X158410870Y-95604906D01*
X158322906Y-95692870D01*
X158275300Y-95807800D01*
X158275300Y-95932200D01*
X158275300Y-96254525D01*
X158353475Y-96332700D01*
X159150700Y-96332700D01*
X159150700Y-96707300D01*
X158353475Y-96707300D01*
X158275300Y-96785475D01*
X158275300Y-97107800D01*
X158275300Y-97232200D01*
X158322906Y-97347130D01*
X158410870Y-97435094D01*
X158525800Y-97482700D01*
X159072525Y-97482700D01*
X159150700Y-97404525D01*
X159150700Y-100041300D01*
X158825800Y-100041300D01*
X158710870Y-100088906D01*
X158622906Y-100176870D01*
X158575300Y-100291800D01*
X158575300Y-100416200D01*
X158575300Y-101588525D01*
X158653475Y-101666700D01*
X159450700Y-101666700D01*
X159450700Y-102041300D01*
X158653475Y-102041300D01*
X158575300Y-102119475D01*
X158575300Y-103291800D01*
X158575300Y-103416200D01*
X158622906Y-103531130D01*
X158710870Y-103619094D01*
X158825800Y-103666700D01*
X159372525Y-103666700D01*
X159450700Y-103588525D01*
X159450700Y-106473174D01*
X158588000Y-106473174D01*
X158468769Y-106496308D01*
X158363975Y-106565146D01*
X158293827Y-106669067D01*
X158269174Y-106792000D01*
X158269174Y-108092000D01*
X158292308Y-108211231D01*
X158361146Y-108316025D01*
X158465067Y-108386173D01*
X158588000Y-108410826D01*
X158900300Y-108410826D01*
X158900300Y-120729994D01*
X158900299Y-120730000D01*
X158928090Y-120869709D01*
X158933618Y-120897501D01*
X159028499Y-121039501D01*
X160744276Y-122755277D01*
X160744279Y-122755281D01*
X160886279Y-122850162D01*
X160886280Y-122850162D01*
X161053780Y-122883480D01*
X162610429Y-122883480D01*
X162626258Y-122965061D01*
X162695096Y-123069855D01*
X162799017Y-123140003D01*
X162921950Y-123164656D01*
X163722050Y-123164656D01*
X163834300Y-123142876D01*
X163834300Y-123733189D01*
X163752719Y-123749018D01*
X163647925Y-123817856D01*
X163577777Y-123921777D01*
X163553124Y-124044710D01*
X163553124Y-124844810D01*
X163576258Y-124964041D01*
X163645096Y-125068835D01*
X163749017Y-125138983D01*
X163871950Y-125163636D01*
X164672050Y-125163636D01*
X164791281Y-125140502D01*
X164896075Y-125071664D01*
X164966223Y-124967743D01*
X164990876Y-124844810D01*
X164990876Y-124044710D01*
X164967742Y-123925479D01*
X164898904Y-123820685D01*
X164794983Y-123750537D01*
X164709700Y-123733434D01*
X164709700Y-117790000D01*
X164676382Y-117622500D01*
X164676382Y-117622499D01*
X164581501Y-117480499D01*
X164581497Y-117480496D01*
X164139501Y-117038499D01*
X163997501Y-116943618D01*
X163969709Y-116938090D01*
X163830000Y-116910299D01*
X163829994Y-116910300D01*
X160711700Y-116910300D01*
X160711700Y-115824000D01*
X160711700Y-113719302D01*
X161202062Y-113228940D01*
X161660429Y-113228940D01*
X161676258Y-113310521D01*
X161745096Y-113415315D01*
X161849017Y-113485463D01*
X161971950Y-113510116D01*
X162772050Y-113510116D01*
X162891281Y-113486982D01*
X162996075Y-113418144D01*
X163066223Y-113314223D01*
X163090876Y-113191290D01*
X163090876Y-112391190D01*
X163067742Y-112271959D01*
X162998904Y-112167165D01*
X162894983Y-112097017D01*
X162809700Y-112079914D01*
X162809700Y-111614912D01*
X162825119Y-111599520D01*
X162918594Y-111374408D01*
X162918807Y-111130661D01*
X162825725Y-110905386D01*
X162653520Y-110732881D01*
X162428408Y-110639406D01*
X162184661Y-110639193D01*
X161959386Y-110732275D01*
X161786881Y-110904480D01*
X161693406Y-111129592D01*
X161693193Y-111373339D01*
X161786275Y-111598614D01*
X161934300Y-111746896D01*
X161934300Y-112079669D01*
X161852719Y-112095498D01*
X161747925Y-112164336D01*
X161677777Y-112268257D01*
X161660674Y-112353540D01*
X161020760Y-112353540D01*
X160853259Y-112386858D01*
X160711259Y-112481739D01*
X159964499Y-113228499D01*
X159869618Y-113370499D01*
X159864090Y-113398290D01*
X159836299Y-113538000D01*
X159836300Y-113538005D01*
X159836300Y-115824000D01*
X159836300Y-117093994D01*
X159836299Y-117094000D01*
X159864090Y-117233709D01*
X159869618Y-117261501D01*
X159964499Y-117403501D01*
X160218496Y-117657497D01*
X160218499Y-117657501D01*
X160360499Y-117752382D01*
X160360500Y-117752382D01*
X160528000Y-117785700D01*
X163648698Y-117785700D01*
X163834300Y-117971301D01*
X163834300Y-121749414D01*
X163722050Y-121726904D01*
X162921950Y-121726904D01*
X162802719Y-121750038D01*
X162697925Y-121818876D01*
X162627777Y-121922797D01*
X162610674Y-122008080D01*
X161235081Y-122008080D01*
X159775700Y-120548698D01*
X159775700Y-108410826D01*
X160088000Y-108410826D01*
X160207231Y-108387692D01*
X160312025Y-108318854D01*
X160382173Y-108214933D01*
X160406826Y-108092000D01*
X160406826Y-107879700D01*
X161289994Y-107879700D01*
X161290000Y-107879701D01*
X161290000Y-107879700D01*
X161429709Y-107851909D01*
X161457500Y-107846382D01*
X161457501Y-107846382D01*
X161599501Y-107751501D01*
X162107497Y-107243503D01*
X162107500Y-107243501D01*
X162107501Y-107243501D01*
X162202382Y-107101501D01*
X162235700Y-106934000D01*
X162235700Y-101527301D01*
X162721301Y-101041700D01*
X163140174Y-101041700D01*
X163140174Y-101354000D01*
X163163308Y-101473231D01*
X163232146Y-101578025D01*
X163336067Y-101648173D01*
X163459000Y-101672826D01*
X164709000Y-101672826D01*
X164828231Y-101649692D01*
X164933025Y-101580854D01*
X165003173Y-101476933D01*
X165027826Y-101354000D01*
X165027826Y-102354000D01*
X165004692Y-102234769D01*
X164935854Y-102129975D01*
X164831933Y-102059827D01*
X164709000Y-102035174D01*
X163459000Y-102035174D01*
X163339769Y-102058308D01*
X163234975Y-102127146D01*
X163164827Y-102231067D01*
X163140174Y-102354000D01*
X163140174Y-103854000D01*
X163163308Y-103973231D01*
X163232146Y-104078025D01*
X163336067Y-104148173D01*
X163436653Y-104168344D01*
X163061704Y-104543293D01*
X162946661Y-104543193D01*
X162721386Y-104636275D01*
X162548881Y-104808480D01*
X162455406Y-105033592D01*
X162455193Y-105277339D01*
X162548275Y-105502614D01*
X162720480Y-105675119D01*
X162945592Y-105768594D01*
X163189339Y-105768807D01*
X163414614Y-105675725D01*
X163587119Y-105503520D01*
X163646300Y-105360996D01*
X163646300Y-112166743D01*
X163577777Y-112268257D01*
X163553124Y-112391190D01*
X163553124Y-113191290D01*
X163576258Y-113310521D01*
X163645096Y-113415315D01*
X163749017Y-113485463D01*
X163871950Y-113510116D01*
X164672050Y-113510116D01*
X164791281Y-113486982D01*
X164896075Y-113418144D01*
X164966223Y-113314223D01*
X164990876Y-113191290D01*
X164990876Y-112391190D01*
X164967742Y-112271959D01*
X164898904Y-112167165D01*
X164794983Y-112097017D01*
X164672050Y-112072364D01*
X164521700Y-112072364D01*
X164521700Y-104172826D01*
X164709000Y-104172826D01*
X164828231Y-104149692D01*
X164933025Y-104080854D01*
X165003173Y-103976933D01*
X165027826Y-103854000D01*
X165027826Y-114352520D01*
X164033570Y-114352520D01*
X164017742Y-114270939D01*
X163948904Y-114166145D01*
X163844983Y-114095997D01*
X163722050Y-114071344D01*
X162921950Y-114071344D01*
X162802719Y-114094478D01*
X162697925Y-114163316D01*
X162627777Y-114267237D01*
X162603124Y-114390170D01*
X162603124Y-115190270D01*
X162626258Y-115309501D01*
X162695096Y-115414295D01*
X162799017Y-115484443D01*
X162921950Y-115509096D01*
X163722050Y-115509096D01*
X163841281Y-115485962D01*
X163946075Y-115417124D01*
X164016223Y-115313203D01*
X164033325Y-115227920D01*
X166387774Y-115227920D01*
X166387780Y-115227921D01*
X166387780Y-115227920D01*
X166527489Y-115200129D01*
X166555280Y-115194602D01*
X166555281Y-115194602D01*
X166697281Y-115099721D01*
X167187497Y-114609503D01*
X167187501Y-114609501D01*
X167187501Y-114609500D01*
X167250898Y-114514619D01*
X167282382Y-114467501D01*
X167282383Y-114467500D01*
X167315700Y-114300000D01*
X167315701Y-114300000D01*
X167315701Y-128640154D01*
X166525610Y-129822608D01*
X164997514Y-130843651D01*
X163159276Y-131209300D01*
X163090876Y-131209300D01*
X163090876Y-124844810D01*
X163090876Y-124044710D01*
X163067742Y-123925479D01*
X162998904Y-123820685D01*
X162894983Y-123750537D01*
X162772050Y-123725884D01*
X161971950Y-123725884D01*
X161852719Y-123749018D01*
X161747925Y-123817856D01*
X161677777Y-123921777D01*
X161653124Y-124044710D01*
X161653124Y-124844810D01*
X161676258Y-124964041D01*
X161745096Y-125068835D01*
X161849017Y-125138983D01*
X161934300Y-125156085D01*
X161934300Y-125997317D01*
X161786881Y-126144480D01*
X161693406Y-126369592D01*
X161693193Y-126613339D01*
X161786275Y-126838614D01*
X161958480Y-127011119D01*
X162183592Y-127104594D01*
X162427339Y-127104807D01*
X162652614Y-127011725D01*
X162825119Y-126839520D01*
X162918594Y-126614408D01*
X162918807Y-126370661D01*
X162825725Y-126145386D01*
X162809700Y-126129333D01*
X162809700Y-125156330D01*
X162891281Y-125140502D01*
X162996075Y-125071664D01*
X163066223Y-124967743D01*
X163090876Y-124844810D01*
X163090876Y-131209300D01*
X158671826Y-131209300D01*
X158671826Y-120380000D01*
X158671826Y-118380000D01*
X158648692Y-118260769D01*
X158579854Y-118155975D01*
X158475933Y-118085827D01*
X158353000Y-118061174D01*
X157706826Y-118061174D01*
X157706826Y-108092000D01*
X157706826Y-106792000D01*
X157706826Y-97170000D01*
X157706826Y-95870000D01*
X157683692Y-95750769D01*
X157614854Y-95645975D01*
X157510933Y-95575827D01*
X157388000Y-95551174D01*
X155888000Y-95551174D01*
X155768769Y-95574308D01*
X155663975Y-95643146D01*
X155593827Y-95747067D01*
X155569174Y-95870000D01*
X155569174Y-96082300D01*
X144780000Y-96082300D01*
X144612499Y-96115618D01*
X144470499Y-96210499D01*
X144470496Y-96210502D01*
X142946499Y-97734499D01*
X142851618Y-97876499D01*
X142846090Y-97904290D01*
X142818299Y-98044000D01*
X142818300Y-98044005D01*
X142818300Y-102434698D01*
X141142700Y-104110298D01*
X141142700Y-103416200D01*
X141142700Y-103291800D01*
X141142700Y-102119475D01*
X141142700Y-101588525D01*
X141142700Y-100416200D01*
X141142700Y-100291800D01*
X141095094Y-100176870D01*
X141007130Y-100088906D01*
X140892200Y-100041300D01*
X140848826Y-100041300D01*
X140848826Y-97170000D01*
X140848826Y-95870000D01*
X140825692Y-95750769D01*
X140756854Y-95645975D01*
X140652933Y-95575827D01*
X140530000Y-95551174D01*
X139030000Y-95551174D01*
X138910769Y-95574308D01*
X138805975Y-95643146D01*
X138735827Y-95747067D01*
X138711174Y-95870000D01*
X138711174Y-97170000D01*
X138734308Y-97289231D01*
X138803146Y-97394025D01*
X138907067Y-97464173D01*
X139030000Y-97488826D01*
X139342300Y-97488826D01*
X139342300Y-98544698D01*
X139264698Y-98622300D01*
X137668005Y-98622300D01*
X137668000Y-98622299D01*
X137500500Y-98655617D01*
X137453381Y-98687101D01*
X137358499Y-98750499D01*
X137358496Y-98750502D01*
X136470499Y-99638499D01*
X136375618Y-99780499D01*
X136370090Y-99808290D01*
X136342299Y-99948000D01*
X136342300Y-99948005D01*
X136342300Y-100035174D01*
X136030000Y-100035174D01*
X135910769Y-100058308D01*
X135805975Y-100127146D01*
X135735827Y-100231067D01*
X135711174Y-100354000D01*
X135711174Y-103354000D01*
X135734308Y-103473231D01*
X135803146Y-103578025D01*
X135907067Y-103648173D01*
X136030000Y-103672826D01*
X137530000Y-103672826D01*
X137649231Y-103649692D01*
X137754025Y-103580854D01*
X137824173Y-103476933D01*
X137848826Y-103354000D01*
X137848826Y-100354000D01*
X137825692Y-100234769D01*
X137756854Y-100129975D01*
X137652933Y-100059827D01*
X137530000Y-100035174D01*
X137311827Y-100035174D01*
X137849301Y-99497700D01*
X139445994Y-99497700D01*
X139446000Y-99497701D01*
X139446000Y-99497700D01*
X139585709Y-99469909D01*
X139613500Y-99464382D01*
X139613501Y-99464382D01*
X139755501Y-99369501D01*
X140089497Y-99035503D01*
X140089500Y-99035501D01*
X140089501Y-99035501D01*
X140184382Y-98893501D01*
X140184382Y-98893500D01*
X140217700Y-98726000D01*
X140217700Y-97488826D01*
X140530000Y-97488826D01*
X140649231Y-97465692D01*
X140754025Y-97396854D01*
X140824173Y-97292933D01*
X140848826Y-97170000D01*
X140848826Y-100041300D01*
X140345475Y-100041300D01*
X140267300Y-100119475D01*
X140267300Y-101666700D01*
X141064525Y-101666700D01*
X141142700Y-101588525D01*
X141142700Y-102119475D01*
X141064525Y-102041300D01*
X140267300Y-102041300D01*
X140267300Y-103588525D01*
X140345475Y-103666700D01*
X140892200Y-103666700D01*
X141007130Y-103619094D01*
X141095094Y-103531130D01*
X141142700Y-103416200D01*
X141142700Y-104110298D01*
X140280698Y-104972300D01*
X139892700Y-104972300D01*
X139892700Y-103588525D01*
X139892700Y-102041300D01*
X139892700Y-101666700D01*
X139892700Y-100119475D01*
X139814525Y-100041300D01*
X139267800Y-100041300D01*
X139152870Y-100088906D01*
X139064906Y-100176870D01*
X139017300Y-100291800D01*
X139017300Y-100416200D01*
X139017300Y-101588525D01*
X139095475Y-101666700D01*
X139892700Y-101666700D01*
X139892700Y-102041300D01*
X139095475Y-102041300D01*
X139017300Y-102119475D01*
X139017300Y-103291800D01*
X139017300Y-103416200D01*
X139064906Y-103531130D01*
X139152870Y-103619094D01*
X139267800Y-103666700D01*
X139814525Y-103666700D01*
X139892700Y-103588525D01*
X139892700Y-104972300D01*
X132769301Y-104972300D01*
X132517700Y-104720698D01*
X132517700Y-104172826D01*
X132705000Y-104172826D01*
X132824231Y-104149692D01*
X132929025Y-104080854D01*
X132999173Y-103976933D01*
X133023826Y-103854000D01*
X133023826Y-102354000D01*
X133000692Y-102234769D01*
X132931854Y-102129975D01*
X132827933Y-102059827D01*
X132705000Y-102035174D01*
X131455000Y-102035174D01*
X131335769Y-102058308D01*
X131230975Y-102127146D01*
X131160827Y-102231067D01*
X131136174Y-102354000D01*
X131136174Y-103854000D01*
X131159308Y-103973231D01*
X131228146Y-104078025D01*
X131332067Y-104148173D01*
X131455000Y-104172826D01*
X131642300Y-104172826D01*
X131642300Y-104901994D01*
X131642299Y-104902000D01*
X131670090Y-105041709D01*
X131675618Y-105069501D01*
X131770499Y-105211501D01*
X132278496Y-105719497D01*
X132278499Y-105719501D01*
X132420499Y-105814382D01*
X132588000Y-105847700D01*
X140461994Y-105847700D01*
X140462000Y-105847701D01*
X140462000Y-105847700D01*
X140601709Y-105819909D01*
X140629500Y-105814382D01*
X140629501Y-105814382D01*
X140771501Y-105719501D01*
X143565497Y-102925503D01*
X143565501Y-102925501D01*
X143565501Y-102925500D01*
X143628898Y-102830619D01*
X143660382Y-102783501D01*
X143660383Y-102783500D01*
X143693700Y-102616000D01*
X143693701Y-102616000D01*
X143693700Y-102615994D01*
X143693700Y-98225301D01*
X144961301Y-96957700D01*
X155569174Y-96957700D01*
X155569174Y-97170000D01*
X155592308Y-97289231D01*
X155661146Y-97394025D01*
X155765067Y-97464173D01*
X155888000Y-97488826D01*
X156200300Y-97488826D01*
X156200300Y-97744015D01*
X156117386Y-97778275D01*
X155944881Y-97950480D01*
X155851406Y-98175592D01*
X155851193Y-98419339D01*
X155944275Y-98644614D01*
X156116480Y-98817119D01*
X156341592Y-98910594D01*
X156585339Y-98910807D01*
X156810614Y-98817725D01*
X156983119Y-98645520D01*
X157076594Y-98420408D01*
X157076807Y-98176661D01*
X157068988Y-98157739D01*
X157075700Y-98124000D01*
X157075700Y-97488826D01*
X157388000Y-97488826D01*
X157507231Y-97465692D01*
X157612025Y-97396854D01*
X157682173Y-97292933D01*
X157706826Y-97170000D01*
X157706826Y-106792000D01*
X157683692Y-106672769D01*
X157614854Y-106567975D01*
X157510933Y-106497827D01*
X157388000Y-106473174D01*
X156775700Y-106473174D01*
X156775700Y-103672826D01*
X157088000Y-103672826D01*
X157207231Y-103649692D01*
X157312025Y-103580854D01*
X157382173Y-103476933D01*
X157406826Y-103354000D01*
X157406826Y-100354000D01*
X157383692Y-100234769D01*
X157314854Y-100129975D01*
X157210933Y-100059827D01*
X157088000Y-100035174D01*
X155588000Y-100035174D01*
X155468769Y-100058308D01*
X155363975Y-100127146D01*
X155293827Y-100231067D01*
X155269174Y-100354000D01*
X155269174Y-103354000D01*
X155292308Y-103473231D01*
X155361146Y-103578025D01*
X155465067Y-103648173D01*
X155588000Y-103672826D01*
X155900300Y-103672826D01*
X155900300Y-106473174D01*
X155888000Y-106473174D01*
X155768769Y-106496308D01*
X155663975Y-106565146D01*
X155593827Y-106669067D01*
X155569174Y-106792000D01*
X155569174Y-108092000D01*
X155592308Y-108211231D01*
X155661146Y-108316025D01*
X155765067Y-108386173D01*
X155888000Y-108410826D01*
X157388000Y-108410826D01*
X157507231Y-108387692D01*
X157612025Y-108318854D01*
X157682173Y-108214933D01*
X157706826Y-108092000D01*
X157706826Y-118061174D01*
X157082552Y-118061174D01*
X157062301Y-117829700D01*
X157052047Y-117793894D01*
X157050218Y-117765297D01*
X156955124Y-117410403D01*
X156892086Y-117052894D01*
X156881633Y-117025636D01*
X156876264Y-116990381D01*
X156748581Y-116639576D01*
X156655777Y-116293226D01*
X156640812Y-116262516D01*
X156633597Y-116232829D01*
X156482958Y-115909784D01*
X156355025Y-115558290D01*
X156336403Y-115527274D01*
X156327023Y-115499498D01*
X156143046Y-115180842D01*
X155989526Y-114851616D01*
X155970845Y-114825886D01*
X155957426Y-114795258D01*
X155746569Y-114494122D01*
X155565023Y-114179676D01*
X155542212Y-114153417D01*
X155527765Y-114126985D01*
X155296571Y-113851458D01*
X155083296Y-113546870D01*
X155059782Y-113524147D01*
X155042075Y-113497556D01*
X154778164Y-113233645D01*
X154548157Y-112959533D01*
X154522177Y-112938479D01*
X154502467Y-112913843D01*
X154228354Y-112683835D01*
X153964444Y-112419925D01*
X153936406Y-112400999D01*
X153915130Y-112378704D01*
X153792397Y-112292765D01*
X153792397Y-106962591D01*
X153792397Y-104422591D01*
X153619482Y-104004104D01*
X153299581Y-103683643D01*
X152881395Y-103509998D01*
X152428591Y-103509603D01*
X152010104Y-103682518D01*
X151689643Y-104002419D01*
X151515998Y-104420605D01*
X151515603Y-104873409D01*
X151688518Y-105291896D01*
X152008419Y-105612357D01*
X152426605Y-105786002D01*
X152879409Y-105786397D01*
X153297896Y-105613482D01*
X153618357Y-105293581D01*
X153792002Y-104875395D01*
X153792397Y-104422591D01*
X153792397Y-106962591D01*
X153619482Y-106544104D01*
X153299581Y-106223643D01*
X152881395Y-106049998D01*
X152428591Y-106049603D01*
X152010104Y-106222518D01*
X151689643Y-106542419D01*
X151515998Y-106960605D01*
X151515603Y-107413409D01*
X151688518Y-107831896D01*
X152008419Y-108152357D01*
X152426605Y-108326002D01*
X152879409Y-108326397D01*
X153297896Y-108153482D01*
X153618357Y-107833581D01*
X153792002Y-107415395D01*
X153792397Y-106962591D01*
X153792397Y-112292765D01*
X153610541Y-112165428D01*
X153335015Y-111934235D01*
X153307022Y-111918705D01*
X153282324Y-111896977D01*
X152967877Y-111715430D01*
X152666742Y-111504574D01*
X152634468Y-111490191D01*
X152610384Y-111472474D01*
X152281157Y-111318953D01*
X151962502Y-111134977D01*
X151932983Y-111124801D01*
X151903710Y-111106975D01*
X151552215Y-110979041D01*
X151229171Y-110828403D01*
X151111334Y-110798980D01*
X151072905Y-110804586D01*
X150471619Y-110585736D01*
X150351666Y-110566695D01*
X150302027Y-110578429D01*
X149940167Y-110578113D01*
X149869700Y-110607229D01*
X149869700Y-106886826D01*
X150182000Y-106886826D01*
X150301231Y-106863692D01*
X150406025Y-106794854D01*
X150476173Y-106690933D01*
X150500826Y-106568000D01*
X150500826Y-105268000D01*
X150477692Y-105148769D01*
X150408854Y-105043975D01*
X150304933Y-104973827D01*
X150182000Y-104949174D01*
X148682000Y-104949174D01*
X148562769Y-104972308D01*
X148457975Y-105041146D01*
X148387827Y-105145067D01*
X148363174Y-105268000D01*
X148363174Y-106568000D01*
X148386308Y-106687231D01*
X148455146Y-106792025D01*
X148559067Y-106862173D01*
X148682000Y-106886826D01*
X148994300Y-106886826D01*
X148994300Y-110931994D01*
X148994299Y-110932000D01*
X149022090Y-111071709D01*
X149027618Y-111099501D01*
X149122499Y-111241501D01*
X149149139Y-111268141D01*
X149078487Y-111438291D01*
X149078113Y-111865833D01*
X149241382Y-112260974D01*
X149543436Y-112563555D01*
X149938291Y-112727513D01*
X150036088Y-112727598D01*
X150724190Y-112978047D01*
X151282076Y-113238194D01*
X151805320Y-113540289D01*
X152293360Y-113882018D01*
X152423446Y-113991174D01*
X147086043Y-113991174D01*
X145024447Y-113991174D01*
X144996307Y-113979489D01*
X144565583Y-113979113D01*
X144167501Y-114143597D01*
X143862667Y-114447899D01*
X143697489Y-114845693D01*
X143697113Y-115276417D01*
X143861597Y-115674499D01*
X144165899Y-115979333D01*
X144563693Y-116144511D01*
X144862051Y-116144771D01*
X144982000Y-116168826D01*
X154217398Y-116168826D01*
X154223805Y-116179923D01*
X154483952Y-116737809D01*
X154685017Y-117290230D01*
X154692327Y-117317512D01*
X154571965Y-117197150D01*
X154504667Y-117264447D01*
X154411926Y-117119774D01*
X153995842Y-117008429D01*
X153852862Y-117027300D01*
X147585475Y-117027300D01*
X147507300Y-117105475D01*
X147507300Y-117922700D01*
X152853325Y-117922700D01*
X152822429Y-118038158D01*
X152856631Y-118297300D01*
X147507300Y-118297300D01*
X147507300Y-119114525D01*
X147585475Y-119192700D01*
X153781639Y-119192700D01*
X153852158Y-119211571D01*
X154279180Y-119155211D01*
X154411926Y-119100226D01*
X154504669Y-118955551D01*
X154132700Y-118583582D01*
X154132700Y-118375475D01*
X154054525Y-118297300D01*
X153818133Y-118297300D01*
X153644975Y-118124142D01*
X153659118Y-118110000D01*
X153644975Y-118095857D01*
X153818133Y-117922700D01*
X154029867Y-117922700D01*
X154203024Y-118095857D01*
X154188882Y-118110000D01*
X154769551Y-118690669D01*
X154914226Y-118597926D01*
X154947556Y-118473373D01*
X154949836Y-118486306D01*
X155001174Y-119073095D01*
X155001174Y-119686904D01*
X154989951Y-119815174D01*
X154504669Y-119815174D01*
X142598000Y-119815174D01*
X142566101Y-119821363D01*
X142279583Y-119821113D01*
X141881501Y-119985597D01*
X141576667Y-120289899D01*
X141411489Y-120687693D01*
X141411113Y-121118417D01*
X141575597Y-121516499D01*
X141879899Y-121821333D01*
X142277693Y-121986511D01*
X142567772Y-121986764D01*
X142598000Y-121992826D01*
X154494640Y-121992826D01*
X154483952Y-122022190D01*
X154223805Y-122580076D01*
X153921710Y-123103320D01*
X153579981Y-123591360D01*
X153182914Y-124064566D01*
X152993571Y-124253909D01*
X152993571Y-123769842D01*
X152937211Y-123342820D01*
X152882226Y-123210074D01*
X152737551Y-123117331D01*
X152156882Y-123698000D01*
X152737551Y-124278669D01*
X152882226Y-124185926D01*
X152993571Y-123769842D01*
X152993571Y-124253909D01*
X152766566Y-124480914D01*
X152472669Y-124727522D01*
X152472669Y-124543551D01*
X152124700Y-124195582D01*
X152124700Y-123963475D01*
X152046525Y-123885300D01*
X151786133Y-123885300D01*
X151612975Y-123712142D01*
X151627118Y-123698000D01*
X151612975Y-123683857D01*
X151786133Y-123510700D01*
X152046525Y-123510700D01*
X152124700Y-123432525D01*
X152124700Y-123200418D01*
X152472669Y-122852449D01*
X152379926Y-122707774D01*
X151963842Y-122596429D01*
X151820862Y-122615300D01*
X147077475Y-122615300D01*
X146999300Y-122693475D01*
X146999300Y-123510700D01*
X150821325Y-123510700D01*
X150790429Y-123626158D01*
X150824631Y-123885300D01*
X146999300Y-123885300D01*
X146999300Y-124702525D01*
X147077475Y-124780700D01*
X151749639Y-124780700D01*
X151820158Y-124799571D01*
X152247180Y-124743211D01*
X152379926Y-124688226D01*
X152472669Y-124543551D01*
X152472669Y-124727522D01*
X152293360Y-124877981D01*
X151805320Y-125219710D01*
X151282076Y-125521805D01*
X150724190Y-125781952D01*
X150036648Y-126032197D01*
X149940167Y-126032113D01*
X149545026Y-126195382D01*
X149242445Y-126497436D01*
X149078487Y-126892291D01*
X149078113Y-127319833D01*
X149241382Y-127714974D01*
X149543436Y-128017555D01*
X149938291Y-128181513D01*
X150302367Y-128181831D01*
X150347668Y-128193143D01*
X150471619Y-128174264D01*
X151072278Y-127955641D01*
X151107337Y-127961207D01*
X151229171Y-127931597D01*
X151552215Y-127780958D01*
X151903710Y-127653025D01*
X151934725Y-127634403D01*
X151962502Y-127625023D01*
X152281157Y-127441046D01*
X152610384Y-127287526D01*
X152636113Y-127268845D01*
X152666742Y-127255426D01*
X152967877Y-127044569D01*
X153282324Y-126863023D01*
X153308582Y-126840212D01*
X153335015Y-126825765D01*
X153610541Y-126594571D01*
X153915130Y-126381296D01*
X153937852Y-126357782D01*
X153964444Y-126340075D01*
X154228354Y-126076164D01*
X154502467Y-125846157D01*
X154523520Y-125820177D01*
X154548157Y-125800467D01*
X154778164Y-125526354D01*
X155042075Y-125262444D01*
X155061000Y-125234406D01*
X155083296Y-125213130D01*
X155296571Y-124908541D01*
X155527765Y-124633015D01*
X155543294Y-124605022D01*
X155565023Y-124580324D01*
X155746569Y-124265877D01*
X155957426Y-123964742D01*
X155971808Y-123932468D01*
X155989526Y-123908384D01*
X156143046Y-123579157D01*
X156327023Y-123260502D01*
X156337198Y-123230983D01*
X156355025Y-123201710D01*
X156482958Y-122850215D01*
X156633597Y-122527171D01*
X156641454Y-122495703D01*
X156655777Y-122466774D01*
X156748581Y-122120423D01*
X156876264Y-121769619D01*
X156882149Y-121732538D01*
X156892086Y-121707106D01*
X156955124Y-121349596D01*
X157050218Y-120994703D01*
X157052361Y-120964203D01*
X157062301Y-120930300D01*
X157082552Y-120698826D01*
X158353000Y-120698826D01*
X158472231Y-120675692D01*
X158577025Y-120606854D01*
X158647173Y-120502933D01*
X158671826Y-120380000D01*
X158671826Y-131209300D01*
X147775733Y-131209300D01*
X147775733Y-127089571D01*
X147745471Y-126953066D01*
X147619742Y-126837739D01*
X147404880Y-126988186D01*
X147096672Y-127203995D01*
X147022048Y-127184000D01*
X147117790Y-127128724D01*
X147248673Y-126640262D01*
X147404880Y-126530885D01*
X147339511Y-126373294D01*
X146951736Y-126193230D01*
X146716105Y-126183321D01*
X146545582Y-126137630D01*
X146488621Y-126170516D01*
X146488064Y-126170005D01*
X146371166Y-126127458D01*
X146035695Y-126005356D01*
X146032724Y-126000210D01*
X145990388Y-125988866D01*
X145963034Y-125978910D01*
X145959456Y-125980578D01*
X145705120Y-125912428D01*
X145465728Y-125800798D01*
X145464104Y-125797315D01*
X145437463Y-125787618D01*
X145395790Y-125768186D01*
X145389931Y-125770318D01*
X145146895Y-125681860D01*
X144916401Y-125548785D01*
X144914586Y-125543796D01*
X144879094Y-125527246D01*
X144849258Y-125510020D01*
X144844745Y-125511229D01*
X144604015Y-125398975D01*
X144390822Y-125249695D01*
X144389442Y-125244545D01*
X144355382Y-125224880D01*
X144326887Y-125204928D01*
X144322241Y-125205747D01*
X144096183Y-125075231D01*
X143892678Y-124904470D01*
X143891958Y-124900387D01*
X143866905Y-124882844D01*
X143834169Y-124855376D01*
X143828396Y-124855881D01*
X143767485Y-124813231D01*
X143774286Y-124805127D01*
X143745174Y-124780700D01*
X146546525Y-124780700D01*
X146624700Y-124702525D01*
X146624700Y-123885300D01*
X142793155Y-123885300D01*
X142757142Y-123849287D01*
X142606118Y-123633603D01*
X142606624Y-123627831D01*
X142579155Y-123595094D01*
X142561613Y-123570042D01*
X142557529Y-123569321D01*
X142508980Y-123511464D01*
X142510071Y-123510700D01*
X146624700Y-123510700D01*
X146624700Y-122693475D01*
X146546525Y-122615300D01*
X141951294Y-122615300D01*
X141951980Y-122612742D01*
X141934753Y-122582905D01*
X141918204Y-122547414D01*
X141913214Y-122545598D01*
X141780139Y-122315104D01*
X141691681Y-122072068D01*
X141693814Y-122066210D01*
X141674381Y-122024536D01*
X141664685Y-121997896D01*
X141661201Y-121996271D01*
X141549571Y-121756879D01*
X141481421Y-121502543D01*
X141483090Y-121498966D01*
X141473133Y-121471611D01*
X141461790Y-121429276D01*
X141456643Y-121426304D01*
X141368457Y-121184016D01*
X141321997Y-120920527D01*
X141324370Y-120916418D01*
X141315311Y-120882611D01*
X141308472Y-120843822D01*
X141304097Y-120840758D01*
X141235095Y-120583237D01*
X141212605Y-120326177D01*
X141216274Y-120320938D01*
X141208082Y-120274481D01*
X141205748Y-120247799D01*
X141202965Y-120245464D01*
X141156700Y-119983078D01*
X141156700Y-119722173D01*
X141159473Y-119718869D01*
X141156700Y-119687173D01*
X141156700Y-119645475D01*
X141152702Y-119641477D01*
X141129825Y-119380000D01*
X141146212Y-119192700D01*
X147054525Y-119192700D01*
X147132700Y-119114525D01*
X147132700Y-118297300D01*
X147112700Y-118297300D01*
X147112700Y-117922700D01*
X147132700Y-117922700D01*
X147132700Y-117105475D01*
X147054525Y-117027300D01*
X141543092Y-117027300D01*
X141549571Y-117003120D01*
X141661201Y-116763728D01*
X141664685Y-116762104D01*
X141674381Y-116735463D01*
X141693814Y-116693790D01*
X141691681Y-116687931D01*
X141780139Y-116444895D01*
X141913214Y-116214401D01*
X141918204Y-116212586D01*
X141934753Y-116177094D01*
X141951980Y-116147258D01*
X141950770Y-116142745D01*
X142063024Y-115902015D01*
X142212304Y-115688822D01*
X142217455Y-115687442D01*
X142237119Y-115653382D01*
X142257072Y-115624887D01*
X142256252Y-115620241D01*
X142386768Y-115394183D01*
X142557529Y-115190678D01*
X142561613Y-115189958D01*
X142579155Y-115164905D01*
X142606624Y-115132169D01*
X142606118Y-115126396D01*
X142757142Y-114910712D01*
X142941890Y-114725964D01*
X142947912Y-114725438D01*
X142976568Y-114691286D01*
X142997208Y-114670647D01*
X142997208Y-114666689D01*
X143166698Y-114464698D01*
X143368689Y-114295208D01*
X143372647Y-114295208D01*
X143393286Y-114274568D01*
X143427438Y-114245912D01*
X143427964Y-114239890D01*
X143612712Y-114055142D01*
X143828396Y-113904118D01*
X143834169Y-113904624D01*
X143866905Y-113877155D01*
X143891958Y-113859613D01*
X143892678Y-113855529D01*
X144096183Y-113684768D01*
X144322241Y-113554252D01*
X144326887Y-113555072D01*
X144355382Y-113535119D01*
X144389442Y-113515455D01*
X144390822Y-113510304D01*
X144604015Y-113361024D01*
X144844745Y-113248770D01*
X144849258Y-113249980D01*
X144879094Y-113232753D01*
X144914586Y-113216204D01*
X144916401Y-113211214D01*
X145146895Y-113078139D01*
X145389931Y-112989681D01*
X145395790Y-112991814D01*
X145437463Y-112972381D01*
X145464104Y-112962685D01*
X145465728Y-112959201D01*
X145789422Y-112808261D01*
X145902167Y-112755687D01*
X145904079Y-112753599D01*
X145963034Y-112781090D01*
X146110153Y-112727542D01*
X146226497Y-112727356D01*
X146621231Y-112563108D01*
X146732158Y-112477992D01*
X146783543Y-112315304D01*
X146620372Y-112221097D01*
X146446685Y-111743896D01*
X146346490Y-111697173D01*
X146417405Y-111671362D01*
X146970843Y-111990890D01*
X147086043Y-111865045D01*
X147085356Y-111437503D01*
X146921108Y-111042769D01*
X146835992Y-110931842D01*
X146673304Y-110880457D01*
X146341557Y-111455058D01*
X146291827Y-111318425D01*
X146218368Y-111345161D01*
X146265090Y-111244966D01*
X146174307Y-110995542D01*
X146348890Y-110693157D01*
X146223045Y-110577957D01*
X145883333Y-110578502D01*
X145877207Y-110575646D01*
X145752926Y-110570219D01*
X145636028Y-110612767D01*
X145227896Y-110761315D01*
X145195644Y-110830476D01*
X145165944Y-110819666D01*
X145154437Y-110788051D01*
X145115086Y-110802373D01*
X144993791Y-110807669D01*
X144881046Y-110860243D01*
X144614136Y-110984704D01*
X144320834Y-111091458D01*
X144279905Y-111106354D01*
X144258428Y-111109182D01*
X144235044Y-111122682D01*
X144203936Y-111134005D01*
X144184354Y-111151948D01*
X144150695Y-111171382D01*
X143885668Y-111324395D01*
X143612578Y-111451739D01*
X143577070Y-111468296D01*
X143551723Y-111473916D01*
X143525214Y-111492477D01*
X143499833Y-111504313D01*
X143484653Y-111520878D01*
X143449820Y-111545269D01*
X143199417Y-111720602D01*
X142938605Y-111871182D01*
X142902483Y-111892036D01*
X142880570Y-111898946D01*
X142858630Y-111917355D01*
X142830872Y-111933382D01*
X142815218Y-111953782D01*
X142785274Y-111978909D01*
X142557185Y-112170298D01*
X142303335Y-112348046D01*
X142270974Y-112370704D01*
X142247870Y-112380275D01*
X142225828Y-112402316D01*
X142201432Y-112419399D01*
X142188593Y-112439551D01*
X142159906Y-112468239D01*
X141939790Y-112688354D01*
X141713118Y-112878555D01*
X141682084Y-112904595D01*
X141660518Y-112915822D01*
X141641037Y-112939037D01*
X141617822Y-112958518D01*
X141606595Y-112980084D01*
X141580555Y-113011118D01*
X141390354Y-113237790D01*
X141170239Y-113457906D01*
X141141551Y-113486593D01*
X141121399Y-113499432D01*
X141104316Y-113523828D01*
X141082275Y-113545870D01*
X141072704Y-113568974D01*
X141050046Y-113601335D01*
X140872298Y-113855185D01*
X140680909Y-114083274D01*
X140655782Y-114113218D01*
X140635382Y-114128872D01*
X140619355Y-114156630D01*
X140600946Y-114178570D01*
X140594036Y-114200483D01*
X140573182Y-114236605D01*
X140422602Y-114497417D01*
X140247269Y-114747820D01*
X140222878Y-114782653D01*
X140206313Y-114797833D01*
X140194477Y-114823214D01*
X140175916Y-114849723D01*
X140170296Y-114875070D01*
X140153739Y-114910578D01*
X140026395Y-115183668D01*
X139873382Y-115448695D01*
X139853948Y-115482354D01*
X139836005Y-115501936D01*
X139824682Y-115533044D01*
X139811182Y-115556428D01*
X139808354Y-115577905D01*
X139793458Y-115618834D01*
X139686704Y-115912136D01*
X139562243Y-116179046D01*
X139545630Y-116214671D01*
X139530238Y-116234731D01*
X139522080Y-116265173D01*
X139509669Y-116291791D01*
X139508641Y-116315331D01*
X139498041Y-116354892D01*
X139421263Y-116641432D01*
X139314767Y-116934028D01*
X139299626Y-116975626D01*
X139288748Y-116992702D01*
X139284366Y-117017552D01*
X139272219Y-117050926D01*
X139273462Y-117079392D01*
X139267146Y-117115212D01*
X139214859Y-117411740D01*
X139135798Y-117706802D01*
X139125802Y-117744105D01*
X139113223Y-117768270D01*
X139110263Y-117802098D01*
X139103601Y-117826963D01*
X139106296Y-117847438D01*
X139102381Y-117892197D01*
X139087061Y-118067300D01*
X139076475Y-118067300D01*
X138998300Y-118145475D01*
X138998300Y-119081850D01*
X138980398Y-119286471D01*
X138976917Y-119326256D01*
X138969556Y-119349603D01*
X138972215Y-119380000D01*
X138969556Y-119410397D01*
X138976917Y-119433743D01*
X138980398Y-119473529D01*
X138998300Y-119678149D01*
X138998300Y-120614525D01*
X139076475Y-120692700D01*
X139087061Y-120692700D01*
X139102381Y-120867803D01*
X139106296Y-120912561D01*
X139103601Y-120933037D01*
X139110263Y-120957901D01*
X139113223Y-120991730D01*
X139125802Y-121015894D01*
X139135798Y-121053198D01*
X139214859Y-121348259D01*
X139267146Y-121644788D01*
X139273462Y-121680607D01*
X139272219Y-121709074D01*
X139284366Y-121742447D01*
X139288748Y-121767298D01*
X139299626Y-121784373D01*
X139314767Y-121825972D01*
X139421263Y-122118567D01*
X139498041Y-122405108D01*
X139508641Y-122444668D01*
X139509669Y-122468209D01*
X139522080Y-122494826D01*
X139530238Y-122525269D01*
X139545630Y-122545328D01*
X139562243Y-122580954D01*
X139686704Y-122847863D01*
X139793458Y-123141166D01*
X139808354Y-123182094D01*
X139811182Y-123203572D01*
X139824682Y-123226955D01*
X139836005Y-123258064D01*
X139853948Y-123277645D01*
X139873382Y-123311305D01*
X140026395Y-123576331D01*
X140153739Y-123849422D01*
X140170296Y-123884929D01*
X140175916Y-123910277D01*
X140194477Y-123936785D01*
X140206313Y-123962167D01*
X140222878Y-123977346D01*
X140247269Y-124012180D01*
X140422602Y-124262582D01*
X140573182Y-124523395D01*
X140594036Y-124559516D01*
X140600946Y-124581430D01*
X140619355Y-124603369D01*
X140635382Y-124631128D01*
X140655782Y-124646781D01*
X140680909Y-124676726D01*
X140872298Y-124904814D01*
X141050046Y-125158665D01*
X141072704Y-125191025D01*
X141082275Y-125214130D01*
X141104316Y-125236171D01*
X141121399Y-125260568D01*
X141141551Y-125273406D01*
X141170239Y-125302094D01*
X141390354Y-125522209D01*
X141580555Y-125748882D01*
X141606595Y-125779915D01*
X141617822Y-125801482D01*
X141641037Y-125820962D01*
X141660518Y-125844178D01*
X141682084Y-125855404D01*
X141713118Y-125881445D01*
X141939790Y-126071645D01*
X142159906Y-126291761D01*
X142188593Y-126320448D01*
X142201432Y-126340601D01*
X142225828Y-126357683D01*
X142247870Y-126379725D01*
X142270974Y-126389295D01*
X142303335Y-126411954D01*
X142557185Y-126589701D01*
X142785274Y-126781091D01*
X142815218Y-126806217D01*
X142830872Y-126826618D01*
X142858630Y-126842644D01*
X142880570Y-126861054D01*
X142902483Y-126867963D01*
X142938605Y-126888818D01*
X143199417Y-127039397D01*
X143449820Y-127214731D01*
X143484653Y-127239121D01*
X143499833Y-127255687D01*
X143525214Y-127267522D01*
X143551723Y-127286084D01*
X143577070Y-127291703D01*
X143612578Y-127308261D01*
X143885668Y-127435604D01*
X144150695Y-127588618D01*
X144184354Y-127608051D01*
X144203936Y-127625995D01*
X144235044Y-127637317D01*
X144258428Y-127650818D01*
X144279905Y-127653645D01*
X144320834Y-127668542D01*
X144614136Y-127775295D01*
X144881046Y-127899757D01*
X144916671Y-127916369D01*
X144936731Y-127931762D01*
X144967173Y-127939919D01*
X144993791Y-127952331D01*
X145017331Y-127953358D01*
X145056892Y-127963959D01*
X145343432Y-128040736D01*
X145636028Y-128147233D01*
X145752926Y-128189781D01*
X145877207Y-128184354D01*
X145878013Y-128183977D01*
X145913767Y-128193558D01*
X145921805Y-128163556D01*
X145952114Y-128149423D01*
X145989276Y-128213790D01*
X146408802Y-128326202D01*
X146528963Y-128358399D01*
X146652298Y-128342161D01*
X146668801Y-128332632D01*
X146861429Y-128340733D01*
X146997934Y-128310471D01*
X147113261Y-128184742D01*
X146911889Y-127897154D01*
X146980370Y-127641582D01*
X146925093Y-127545840D01*
X147000603Y-127566073D01*
X147038453Y-127424811D01*
X147420115Y-127969880D01*
X147577706Y-127904511D01*
X147757770Y-127516736D01*
X147775733Y-127089571D01*
X147775733Y-131209300D01*
X138623700Y-131209300D01*
X138623700Y-120614525D01*
X138623700Y-119567300D01*
X138623700Y-119192700D01*
X138623700Y-118145475D01*
X138545525Y-118067300D01*
X137748800Y-118067300D01*
X137633870Y-118114906D01*
X137545906Y-118202870D01*
X137498300Y-118317800D01*
X137498300Y-118442200D01*
X137498300Y-119114525D01*
X137576475Y-119192700D01*
X138623700Y-119192700D01*
X138623700Y-119567300D01*
X137576475Y-119567300D01*
X137498300Y-119645475D01*
X137498300Y-120317800D01*
X137498300Y-120442200D01*
X137545906Y-120557130D01*
X137633870Y-120645094D01*
X137748800Y-120692700D01*
X138545525Y-120692700D01*
X138623700Y-120614525D01*
X138623700Y-131209300D01*
X133385723Y-131209300D01*
X131547485Y-130843651D01*
X130019391Y-129822610D01*
X128998348Y-128294514D01*
X128632700Y-126456276D01*
X128632700Y-124127106D01*
X128722499Y-124261501D01*
X129215259Y-124754261D01*
X129357259Y-124849142D01*
X129357260Y-124849142D01*
X129385050Y-124854669D01*
X129524760Y-124882461D01*
X129524760Y-124882460D01*
X129524765Y-124882460D01*
X131180429Y-124882460D01*
X131196258Y-124964041D01*
X131265096Y-125068835D01*
X131369017Y-125138983D01*
X131491950Y-125163636D01*
X132292050Y-125163636D01*
X132411281Y-125140502D01*
X132516075Y-125071664D01*
X132586223Y-124967743D01*
X132610876Y-124844810D01*
X132610876Y-124044710D01*
X132587742Y-123925479D01*
X132518904Y-123820685D01*
X132414983Y-123750537D01*
X132292050Y-123725884D01*
X131491950Y-123725884D01*
X131372719Y-123749018D01*
X131267925Y-123817856D01*
X131197777Y-123921777D01*
X131180674Y-124007060D01*
X129706062Y-124007060D01*
X129469700Y-123770698D01*
X129469700Y-115774852D01*
X129528275Y-115916614D01*
X129700480Y-116089119D01*
X129925592Y-116182594D01*
X130169339Y-116182807D01*
X130394614Y-116089725D01*
X130567119Y-115917520D01*
X130660594Y-115692408D01*
X130660695Y-115576306D01*
X131009081Y-115227920D01*
X132130429Y-115227920D01*
X132146258Y-115309501D01*
X132215096Y-115414295D01*
X132319017Y-115484443D01*
X132404300Y-115501545D01*
X132404300Y-121734209D01*
X132322719Y-121750038D01*
X132217925Y-121818876D01*
X132147777Y-121922797D01*
X132123124Y-122045730D01*
X132123124Y-122845830D01*
X132146258Y-122965061D01*
X132215096Y-123069855D01*
X132319017Y-123140003D01*
X132441950Y-123164656D01*
X133242050Y-123164656D01*
X133354300Y-123142876D01*
X133354300Y-123733189D01*
X133272719Y-123749018D01*
X133167925Y-123817856D01*
X133097777Y-123921777D01*
X133073124Y-124044710D01*
X133073124Y-124844810D01*
X133096258Y-124964041D01*
X133165096Y-125068835D01*
X133269017Y-125138983D01*
X133391950Y-125163636D01*
X134192050Y-125163636D01*
X134311281Y-125140502D01*
X134416075Y-125071664D01*
X134486223Y-124967743D01*
X134510876Y-124844810D01*
X134510876Y-124044710D01*
X134487742Y-123925479D01*
X134418904Y-123820685D01*
X134314983Y-123750537D01*
X134229700Y-123733434D01*
X134229700Y-113502810D01*
X134311281Y-113486982D01*
X134416075Y-113418144D01*
X134486223Y-113314223D01*
X134510876Y-113191290D01*
X134510876Y-112391190D01*
X134487742Y-112271959D01*
X134418904Y-112167165D01*
X134314983Y-112097017D01*
X134192050Y-112072364D01*
X133391950Y-112072364D01*
X133272719Y-112095498D01*
X133167925Y-112164336D01*
X133097777Y-112268257D01*
X133073124Y-112391190D01*
X133073124Y-113191290D01*
X133096258Y-113310521D01*
X133165096Y-113415315D01*
X133269017Y-113485463D01*
X133354300Y-113502565D01*
X133354300Y-114093854D01*
X133242050Y-114071344D01*
X132610876Y-114071344D01*
X132610876Y-113191290D01*
X132610876Y-112391190D01*
X132587742Y-112271959D01*
X132518904Y-112167165D01*
X132414983Y-112097017D01*
X132329700Y-112079914D01*
X132329700Y-111106912D01*
X132345119Y-111091520D01*
X132438594Y-110866408D01*
X132438807Y-110622661D01*
X132345725Y-110397386D01*
X132173520Y-110224881D01*
X131948408Y-110131406D01*
X131704661Y-110131193D01*
X131479386Y-110224275D01*
X131306881Y-110396480D01*
X131213406Y-110621592D01*
X131213193Y-110865339D01*
X131306275Y-111090614D01*
X131454300Y-111238896D01*
X131454300Y-112079669D01*
X131372719Y-112095498D01*
X131267925Y-112164336D01*
X131197777Y-112268257D01*
X131173124Y-112391190D01*
X131173124Y-113191290D01*
X131196258Y-113310521D01*
X131265096Y-113415315D01*
X131369017Y-113485463D01*
X131491950Y-113510116D01*
X132292050Y-113510116D01*
X132411281Y-113486982D01*
X132516075Y-113418144D01*
X132586223Y-113314223D01*
X132610876Y-113191290D01*
X132610876Y-114071344D01*
X132441950Y-114071344D01*
X132322719Y-114094478D01*
X132217925Y-114163316D01*
X132147777Y-114267237D01*
X132130674Y-114352520D01*
X130827780Y-114352520D01*
X130660279Y-114385838D01*
X130518279Y-114480719D01*
X130518276Y-114480722D01*
X130041704Y-114957293D01*
X129926661Y-114957193D01*
X129701386Y-115050275D01*
X129528881Y-115222480D01*
X129469700Y-115365003D01*
X129469700Y-109909301D01*
X129975301Y-109403700D01*
X146049994Y-109403700D01*
X146050000Y-109403701D01*
X146050000Y-109403700D01*
X146189709Y-109375909D01*
X146217500Y-109370382D01*
X146217501Y-109370382D01*
X146359501Y-109275501D01*
X147041497Y-108593503D01*
X147041501Y-108593501D01*
X147041501Y-108593500D01*
X147104898Y-108498619D01*
X147136382Y-108451501D01*
X147136383Y-108451500D01*
X147169700Y-108284000D01*
X147169701Y-108284000D01*
X147169700Y-108283994D01*
X147169700Y-106886826D01*
X147482000Y-106886826D01*
X147601231Y-106863692D01*
X147706025Y-106794854D01*
X147776173Y-106690933D01*
X147800826Y-106568000D01*
X147800826Y-105268000D01*
X147777692Y-105148769D01*
X147708854Y-105043975D01*
X147604933Y-104973827D01*
X147482000Y-104949174D01*
X145982000Y-104949174D01*
X145862769Y-104972308D01*
X145757975Y-105041146D01*
X145687827Y-105145067D01*
X145663174Y-105268000D01*
X145663174Y-106568000D01*
X145686308Y-106687231D01*
X145755146Y-106792025D01*
X145859067Y-106862173D01*
X145982000Y-106886826D01*
X146294300Y-106886826D01*
X146294300Y-108102698D01*
X145868698Y-108528300D01*
X144648397Y-108528300D01*
X144648397Y-106962591D01*
X144648397Y-104422591D01*
X144475482Y-104004104D01*
X144155581Y-103683643D01*
X143737395Y-103509998D01*
X143284591Y-103509603D01*
X142866104Y-103682518D01*
X142545643Y-104002419D01*
X142371998Y-104420605D01*
X142371603Y-104873409D01*
X142544518Y-105291896D01*
X142864419Y-105612357D01*
X143282605Y-105786002D01*
X143735409Y-105786397D01*
X144153896Y-105613482D01*
X144474357Y-105293581D01*
X144648002Y-104875395D01*
X144648397Y-104422591D01*
X144648397Y-106962591D01*
X144475482Y-106544104D01*
X144155581Y-106223643D01*
X143737395Y-106049998D01*
X143284591Y-106049603D01*
X142866104Y-106222518D01*
X142545643Y-106542419D01*
X142371998Y-106960605D01*
X142371603Y-107413409D01*
X142544518Y-107831896D01*
X142864419Y-108152357D01*
X143282605Y-108326002D01*
X143735409Y-108326397D01*
X144153896Y-108153482D01*
X144474357Y-107833581D01*
X144648002Y-107415395D01*
X144648397Y-106962591D01*
X144648397Y-108528300D01*
X140842700Y-108528300D01*
X140842700Y-108154200D01*
X140842700Y-108029800D01*
X140842700Y-107707475D01*
X140842700Y-107176525D01*
X140842700Y-106854200D01*
X140842700Y-106729800D01*
X140795094Y-106614870D01*
X140707130Y-106526906D01*
X140592200Y-106479300D01*
X140045475Y-106479300D01*
X139967300Y-106557475D01*
X139967300Y-107254700D01*
X140764525Y-107254700D01*
X140842700Y-107176525D01*
X140842700Y-107707475D01*
X140764525Y-107629300D01*
X139967300Y-107629300D01*
X139967300Y-108326525D01*
X140045475Y-108404700D01*
X140592200Y-108404700D01*
X140707130Y-108357094D01*
X140795094Y-108269130D01*
X140842700Y-108154200D01*
X140842700Y-108528300D01*
X139592700Y-108528300D01*
X139592700Y-108326525D01*
X139592700Y-107629300D01*
X139592700Y-107254700D01*
X139592700Y-106557475D01*
X139514525Y-106479300D01*
X138967800Y-106479300D01*
X138852870Y-106526906D01*
X138764906Y-106614870D01*
X138717300Y-106729800D01*
X138717300Y-106854200D01*
X138717300Y-107176525D01*
X138795475Y-107254700D01*
X139592700Y-107254700D01*
X139592700Y-107629300D01*
X138795475Y-107629300D01*
X138717300Y-107707475D01*
X138717300Y-108029800D01*
X138717300Y-108154200D01*
X138764906Y-108269130D01*
X138852870Y-108357094D01*
X138967800Y-108404700D01*
X139514525Y-108404700D01*
X139592700Y-108326525D01*
X139592700Y-108528300D01*
X138148826Y-108528300D01*
X138148826Y-108092000D01*
X138148826Y-106792000D01*
X138125692Y-106672769D01*
X138056854Y-106567975D01*
X137952933Y-106497827D01*
X137830000Y-106473174D01*
X136330000Y-106473174D01*
X136210769Y-106496308D01*
X136105975Y-106565146D01*
X136035827Y-106669067D01*
X136011174Y-106792000D01*
X136011174Y-107004300D01*
X135048797Y-107004300D01*
X134967520Y-106922881D01*
X134742408Y-106829406D01*
X134498661Y-106829193D01*
X134273386Y-106922275D01*
X134100881Y-107094480D01*
X134007406Y-107319592D01*
X134007193Y-107563339D01*
X134100275Y-107788614D01*
X134272480Y-107961119D01*
X134497592Y-108054594D01*
X134741339Y-108054807D01*
X134966614Y-107961725D01*
X135048781Y-107879700D01*
X136011174Y-107879700D01*
X136011174Y-108092000D01*
X136034308Y-108211231D01*
X136103146Y-108316025D01*
X136207067Y-108386173D01*
X136330000Y-108410826D01*
X137830000Y-108410826D01*
X137949231Y-108387692D01*
X138054025Y-108318854D01*
X138124173Y-108214933D01*
X138148826Y-108092000D01*
X138148826Y-108528300D01*
X129794005Y-108528300D01*
X129794000Y-108528299D01*
X129626500Y-108561617D01*
X129579381Y-108593101D01*
X129484499Y-108656499D01*
X129484496Y-108656502D01*
X128722499Y-109418499D01*
X128632700Y-109552893D01*
X128632700Y-96932150D01*
X128953176Y-95080236D01*
X129936041Y-93526574D01*
X131438648Y-92467305D01*
X133263303Y-92056700D01*
X163159276Y-92056700D01*
X164997514Y-92422348D01*
X166525610Y-93443391D01*
X167546651Y-94971485D01*
X167912300Y-96809723D01*
X167912300Y-126456276D01*
X167912300Y-126456276D01*
G37*
X167912300Y-126456276D02*
X167546651Y-128294514D01*
X167315701Y-128640154D01*
X167315701Y-114300000D01*
X167315700Y-114299994D01*
X167315700Y-95250005D01*
X167315700Y-95250000D01*
X167315701Y-95250000D01*
X167287909Y-95110290D01*
X167282382Y-95082500D01*
X167282382Y-95082499D01*
X167187501Y-94940499D01*
X166171501Y-93924499D01*
X166029501Y-93829618D01*
X166001709Y-93824090D01*
X165862000Y-93796299D01*
X165861994Y-93796300D01*
X137414000Y-93796300D01*
X137246499Y-93829618D01*
X137104499Y-93924499D01*
X137104496Y-93924502D01*
X136770499Y-94258499D01*
X136675618Y-94400499D01*
X136670090Y-94428290D01*
X136642299Y-94568000D01*
X136642300Y-94568005D01*
X136642300Y-95551174D01*
X136330000Y-95551174D01*
X136210769Y-95574308D01*
X136105975Y-95643146D01*
X136035827Y-95747067D01*
X136011174Y-95870000D01*
X136011174Y-96082300D01*
X134874005Y-96082300D01*
X134874000Y-96082299D01*
X134706500Y-96115617D01*
X134659381Y-96147101D01*
X134564499Y-96210499D01*
X134564496Y-96210502D01*
X131770499Y-99004499D01*
X131675618Y-99146499D01*
X131670090Y-99174290D01*
X131642299Y-99314000D01*
X131642300Y-99314005D01*
X131642300Y-99535174D01*
X131455000Y-99535174D01*
X131335769Y-99558308D01*
X131230975Y-99627146D01*
X131160827Y-99731067D01*
X131136174Y-99854000D01*
X131136174Y-101354000D01*
X131159308Y-101473231D01*
X131228146Y-101578025D01*
X131332067Y-101648173D01*
X131455000Y-101672826D01*
X132705000Y-101672826D01*
X132824231Y-101649692D01*
X132929025Y-101580854D01*
X132999173Y-101476933D01*
X133023826Y-101354000D01*
X133023826Y-99854000D01*
X133000692Y-99734769D01*
X132931854Y-99629975D01*
X132827933Y-99559827D01*
X132705000Y-99535174D01*
X132517700Y-99535174D01*
X132517700Y-99495301D01*
X135055301Y-96957700D01*
X136011174Y-96957700D01*
X136011174Y-97170000D01*
X136034308Y-97289231D01*
X136103146Y-97394025D01*
X136207067Y-97464173D01*
X136330000Y-97488826D01*
X137830000Y-97488826D01*
X137949231Y-97465692D01*
X138054025Y-97396854D01*
X138124173Y-97292933D01*
X138148826Y-97170000D01*
X138148826Y-95870000D01*
X138125692Y-95750769D01*
X138056854Y-95645975D01*
X137952933Y-95575827D01*
X137830000Y-95551174D01*
X137517700Y-95551174D01*
X137517700Y-94749301D01*
X137595301Y-94671700D01*
X165680698Y-94671700D01*
X166440300Y-95431302D01*
X166440300Y-114118698D01*
X166206478Y-114352520D01*
X165027826Y-114352520D01*
X165027826Y-103854000D01*
X165027826Y-102354000D01*
X165027826Y-101354000D01*
X165027826Y-99854000D01*
X165004692Y-99734769D01*
X164935854Y-99629975D01*
X164831933Y-99559827D01*
X164709000Y-99535174D01*
X163459000Y-99535174D01*
X163339769Y-99558308D01*
X163234975Y-99627146D01*
X163164827Y-99731067D01*
X163140174Y-99854000D01*
X163140174Y-100166300D01*
X162540000Y-100166300D01*
X162372499Y-100199618D01*
X162230499Y-100294499D01*
X162230496Y-100294502D01*
X161488499Y-101036499D01*
X161393618Y-101178499D01*
X161388090Y-101206290D01*
X161360299Y-101346000D01*
X161360300Y-101346005D01*
X161360300Y-106752698D01*
X161108698Y-107004300D01*
X160700700Y-107004300D01*
X160700700Y-103416200D01*
X160700700Y-103291800D01*
X160700700Y-102119475D01*
X160700700Y-101588525D01*
X160700700Y-100416200D01*
X160700700Y-100291800D01*
X160653094Y-100176870D01*
X160565130Y-100088906D01*
X160450200Y-100041300D01*
X160400700Y-100041300D01*
X160400700Y-97232200D01*
X160400700Y-97107800D01*
X160400700Y-96785475D01*
X160400700Y-96254525D01*
X160400700Y-95932200D01*
X160400700Y-95807800D01*
X160353094Y-95692870D01*
X160265130Y-95604906D01*
X160150200Y-95557300D01*
X159603475Y-95557300D01*
X159525300Y-95635475D01*
X159525300Y-96332700D01*
X160322525Y-96332700D01*
X160400700Y-96254525D01*
X160400700Y-96785475D01*
X160322525Y-96707300D01*
X159525300Y-96707300D01*
X159525300Y-97404525D01*
X159603475Y-97482700D01*
X160150200Y-97482700D01*
X160265130Y-97435094D01*
X160353094Y-97347130D01*
X160400700Y-97232200D01*
X160400700Y-100041300D01*
X159903475Y-100041300D01*
X159825300Y-100119475D01*
X159825300Y-101666700D01*
X160622525Y-101666700D01*
X160700700Y-101588525D01*
X160700700Y-102119475D01*
X160622525Y-102041300D01*
X159825300Y-102041300D01*
X159825300Y-103588525D01*
X159903475Y-103666700D01*
X160450200Y-103666700D01*
X160565130Y-103619094D01*
X160653094Y-103531130D01*
X160700700Y-103416200D01*
X160700700Y-107004300D01*
X160406826Y-107004300D01*
X160406826Y-106792000D01*
X160383692Y-106672769D01*
X160314854Y-106567975D01*
X160210933Y-106497827D01*
X160088000Y-106473174D01*
X159450700Y-106473174D01*
X159450700Y-103588525D01*
X159450700Y-102041300D01*
X159450700Y-101666700D01*
X159450700Y-100119475D01*
X159372525Y-100041300D01*
X159150700Y-100041300D01*
X159150700Y-97404525D01*
X159150700Y-96707300D01*
X159150700Y-96332700D01*
X159150700Y-95635475D01*
X159072525Y-95557300D01*
X158525800Y-95557300D01*
X158410870Y-95604906D01*
X158322906Y-95692870D01*
X158275300Y-95807800D01*
X158275300Y-95932200D01*
X158275300Y-96254525D01*
X158353475Y-96332700D01*
X159150700Y-96332700D01*
X159150700Y-96707300D01*
X158353475Y-96707300D01*
X158275300Y-96785475D01*
X158275300Y-97107800D01*
X158275300Y-97232200D01*
X158322906Y-97347130D01*
X158410870Y-97435094D01*
X158525800Y-97482700D01*
X159072525Y-97482700D01*
X159150700Y-97404525D01*
X159150700Y-100041300D01*
X158825800Y-100041300D01*
X158710870Y-100088906D01*
X158622906Y-100176870D01*
X158575300Y-100291800D01*
X158575300Y-100416200D01*
X158575300Y-101588525D01*
X158653475Y-101666700D01*
X159450700Y-101666700D01*
X159450700Y-102041300D01*
X158653475Y-102041300D01*
X158575300Y-102119475D01*
X158575300Y-103291800D01*
X158575300Y-103416200D01*
X158622906Y-103531130D01*
X158710870Y-103619094D01*
X158825800Y-103666700D01*
X159372525Y-103666700D01*
X159450700Y-103588525D01*
X159450700Y-106473174D01*
X158588000Y-106473174D01*
X158468769Y-106496308D01*
X158363975Y-106565146D01*
X158293827Y-106669067D01*
X158269174Y-106792000D01*
X158269174Y-108092000D01*
X158292308Y-108211231D01*
X158361146Y-108316025D01*
X158465067Y-108386173D01*
X158588000Y-108410826D01*
X158900300Y-108410826D01*
X158900300Y-120729994D01*
X158900299Y-120730000D01*
X158928090Y-120869709D01*
X158933618Y-120897501D01*
X159028499Y-121039501D01*
X160744276Y-122755277D01*
X160744279Y-122755281D01*
X160886279Y-122850162D01*
X160886280Y-122850162D01*
X161053780Y-122883480D01*
X162610429Y-122883480D01*
X162626258Y-122965061D01*
X162695096Y-123069855D01*
X162799017Y-123140003D01*
X162921950Y-123164656D01*
X163722050Y-123164656D01*
X163834300Y-123142876D01*
X163834300Y-123733189D01*
X163752719Y-123749018D01*
X163647925Y-123817856D01*
X163577777Y-123921777D01*
X163553124Y-124044710D01*
X163553124Y-124844810D01*
X163576258Y-124964041D01*
X163645096Y-125068835D01*
X163749017Y-125138983D01*
X163871950Y-125163636D01*
X164672050Y-125163636D01*
X164791281Y-125140502D01*
X164896075Y-125071664D01*
X164966223Y-124967743D01*
X164990876Y-124844810D01*
X164990876Y-124044710D01*
X164967742Y-123925479D01*
X164898904Y-123820685D01*
X164794983Y-123750537D01*
X164709700Y-123733434D01*
X164709700Y-117790000D01*
X164676382Y-117622500D01*
X164676382Y-117622499D01*
X164581501Y-117480499D01*
X164581497Y-117480496D01*
X164139501Y-117038499D01*
X163997501Y-116943618D01*
X163969709Y-116938090D01*
X163830000Y-116910299D01*
X163829994Y-116910300D01*
X160711700Y-116910300D01*
X160711700Y-115824000D01*
X160711700Y-113719302D01*
X161202062Y-113228940D01*
X161660429Y-113228940D01*
X161676258Y-113310521D01*
X161745096Y-113415315D01*
X161849017Y-113485463D01*
X161971950Y-113510116D01*
X162772050Y-113510116D01*
X162891281Y-113486982D01*
X162996075Y-113418144D01*
X163066223Y-113314223D01*
X163090876Y-113191290D01*
X163090876Y-112391190D01*
X163067742Y-112271959D01*
X162998904Y-112167165D01*
X162894983Y-112097017D01*
X162809700Y-112079914D01*
X162809700Y-111614912D01*
X162825119Y-111599520D01*
X162918594Y-111374408D01*
X162918807Y-111130661D01*
X162825725Y-110905386D01*
X162653520Y-110732881D01*
X162428408Y-110639406D01*
X162184661Y-110639193D01*
X161959386Y-110732275D01*
X161786881Y-110904480D01*
X161693406Y-111129592D01*
X161693193Y-111373339D01*
X161786275Y-111598614D01*
X161934300Y-111746896D01*
X161934300Y-112079669D01*
X161852719Y-112095498D01*
X161747925Y-112164336D01*
X161677777Y-112268257D01*
X161660674Y-112353540D01*
X161020760Y-112353540D01*
X160853259Y-112386858D01*
X160711259Y-112481739D01*
X159964499Y-113228499D01*
X159869618Y-113370499D01*
X159864090Y-113398290D01*
X159836299Y-113538000D01*
X159836300Y-113538005D01*
X159836300Y-115824000D01*
X159836300Y-117093994D01*
X159836299Y-117094000D01*
X159864090Y-117233709D01*
X159869618Y-117261501D01*
X159964499Y-117403501D01*
X160218496Y-117657497D01*
X160218499Y-117657501D01*
X160360499Y-117752382D01*
X160360500Y-117752382D01*
X160528000Y-117785700D01*
X163648698Y-117785700D01*
X163834300Y-117971301D01*
X163834300Y-121749414D01*
X163722050Y-121726904D01*
X162921950Y-121726904D01*
X162802719Y-121750038D01*
X162697925Y-121818876D01*
X162627777Y-121922797D01*
X162610674Y-122008080D01*
X161235081Y-122008080D01*
X159775700Y-120548698D01*
X159775700Y-108410826D01*
X160088000Y-108410826D01*
X160207231Y-108387692D01*
X160312025Y-108318854D01*
X160382173Y-108214933D01*
X160406826Y-108092000D01*
X160406826Y-107879700D01*
X161289994Y-107879700D01*
X161290000Y-107879701D01*
X161290000Y-107879700D01*
X161429709Y-107851909D01*
X161457500Y-107846382D01*
X161457501Y-107846382D01*
X161599501Y-107751501D01*
X162107497Y-107243503D01*
X162107500Y-107243501D01*
X162107501Y-107243501D01*
X162202382Y-107101501D01*
X162235700Y-106934000D01*
X162235700Y-101527301D01*
X162721301Y-101041700D01*
X163140174Y-101041700D01*
X163140174Y-101354000D01*
X163163308Y-101473231D01*
X163232146Y-101578025D01*
X163336067Y-101648173D01*
X163459000Y-101672826D01*
X164709000Y-101672826D01*
X164828231Y-101649692D01*
X164933025Y-101580854D01*
X165003173Y-101476933D01*
X165027826Y-101354000D01*
X165027826Y-102354000D01*
X165004692Y-102234769D01*
X164935854Y-102129975D01*
X164831933Y-102059827D01*
X164709000Y-102035174D01*
X163459000Y-102035174D01*
X163339769Y-102058308D01*
X163234975Y-102127146D01*
X163164827Y-102231067D01*
X163140174Y-102354000D01*
X163140174Y-103854000D01*
X163163308Y-103973231D01*
X163232146Y-104078025D01*
X163336067Y-104148173D01*
X163436653Y-104168344D01*
X163061704Y-104543293D01*
X162946661Y-104543193D01*
X162721386Y-104636275D01*
X162548881Y-104808480D01*
X162455406Y-105033592D01*
X162455193Y-105277339D01*
X162548275Y-105502614D01*
X162720480Y-105675119D01*
X162945592Y-105768594D01*
X163189339Y-105768807D01*
X163414614Y-105675725D01*
X163587119Y-105503520D01*
X163646300Y-105360996D01*
X163646300Y-112166743D01*
X163577777Y-112268257D01*
X163553124Y-112391190D01*
X163553124Y-113191290D01*
X163576258Y-113310521D01*
X163645096Y-113415315D01*
X163749017Y-113485463D01*
X163871950Y-113510116D01*
X164672050Y-113510116D01*
X164791281Y-113486982D01*
X164896075Y-113418144D01*
X164966223Y-113314223D01*
X164990876Y-113191290D01*
X164990876Y-112391190D01*
X164967742Y-112271959D01*
X164898904Y-112167165D01*
X164794983Y-112097017D01*
X164672050Y-112072364D01*
X164521700Y-112072364D01*
X164521700Y-104172826D01*
X164709000Y-104172826D01*
X164828231Y-104149692D01*
X164933025Y-104080854D01*
X165003173Y-103976933D01*
X165027826Y-103854000D01*
X165027826Y-114352520D01*
X164033570Y-114352520D01*
X164017742Y-114270939D01*
X163948904Y-114166145D01*
X163844983Y-114095997D01*
X163722050Y-114071344D01*
X162921950Y-114071344D01*
X162802719Y-114094478D01*
X162697925Y-114163316D01*
X162627777Y-114267237D01*
X162603124Y-114390170D01*
X162603124Y-115190270D01*
X162626258Y-115309501D01*
X162695096Y-115414295D01*
X162799017Y-115484443D01*
X162921950Y-115509096D01*
X163722050Y-115509096D01*
X163841281Y-115485962D01*
X163946075Y-115417124D01*
X164016223Y-115313203D01*
X164033325Y-115227920D01*
X166387774Y-115227920D01*
X166387780Y-115227921D01*
X166387780Y-115227920D01*
X166527489Y-115200129D01*
X166555280Y-115194602D01*
X166555281Y-115194602D01*
X166697281Y-115099721D01*
X167187497Y-114609503D01*
X167187501Y-114609501D01*
X167187501Y-114609500D01*
X167250898Y-114514619D01*
X167282382Y-114467501D01*
X167282383Y-114467500D01*
X167315700Y-114300000D01*
X167315701Y-114300000D01*
X167315701Y-128640154D01*
X166525610Y-129822608D01*
X164997514Y-130843651D01*
X163159276Y-131209300D01*
X163090876Y-131209300D01*
X163090876Y-124844810D01*
X163090876Y-124044710D01*
X163067742Y-123925479D01*
X162998904Y-123820685D01*
X162894983Y-123750537D01*
X162772050Y-123725884D01*
X161971950Y-123725884D01*
X161852719Y-123749018D01*
X161747925Y-123817856D01*
X161677777Y-123921777D01*
X161653124Y-124044710D01*
X161653124Y-124844810D01*
X161676258Y-124964041D01*
X161745096Y-125068835D01*
X161849017Y-125138983D01*
X161934300Y-125156085D01*
X161934300Y-125997317D01*
X161786881Y-126144480D01*
X161693406Y-126369592D01*
X161693193Y-126613339D01*
X161786275Y-126838614D01*
X161958480Y-127011119D01*
X162183592Y-127104594D01*
X162427339Y-127104807D01*
X162652614Y-127011725D01*
X162825119Y-126839520D01*
X162918594Y-126614408D01*
X162918807Y-126370661D01*
X162825725Y-126145386D01*
X162809700Y-126129333D01*
X162809700Y-125156330D01*
X162891281Y-125140502D01*
X162996075Y-125071664D01*
X163066223Y-124967743D01*
X163090876Y-124844810D01*
X163090876Y-131209300D01*
X158671826Y-131209300D01*
X158671826Y-120380000D01*
X158671826Y-118380000D01*
X158648692Y-118260769D01*
X158579854Y-118155975D01*
X158475933Y-118085827D01*
X158353000Y-118061174D01*
X157706826Y-118061174D01*
X157706826Y-108092000D01*
X157706826Y-106792000D01*
X157706826Y-97170000D01*
X157706826Y-95870000D01*
X157683692Y-95750769D01*
X157614854Y-95645975D01*
X157510933Y-95575827D01*
X157388000Y-95551174D01*
X155888000Y-95551174D01*
X155768769Y-95574308D01*
X155663975Y-95643146D01*
X155593827Y-95747067D01*
X155569174Y-95870000D01*
X155569174Y-96082300D01*
X144780000Y-96082300D01*
X144612499Y-96115618D01*
X144470499Y-96210499D01*
X144470496Y-96210502D01*
X142946499Y-97734499D01*
X142851618Y-97876499D01*
X142846090Y-97904290D01*
X142818299Y-98044000D01*
X142818300Y-98044005D01*
X142818300Y-102434698D01*
X141142700Y-104110298D01*
X141142700Y-103416200D01*
X141142700Y-103291800D01*
X141142700Y-102119475D01*
X141142700Y-101588525D01*
X141142700Y-100416200D01*
X141142700Y-100291800D01*
X141095094Y-100176870D01*
X141007130Y-100088906D01*
X140892200Y-100041300D01*
X140848826Y-100041300D01*
X140848826Y-97170000D01*
X140848826Y-95870000D01*
X140825692Y-95750769D01*
X140756854Y-95645975D01*
X140652933Y-95575827D01*
X140530000Y-95551174D01*
X139030000Y-95551174D01*
X138910769Y-95574308D01*
X138805975Y-95643146D01*
X138735827Y-95747067D01*
X138711174Y-95870000D01*
X138711174Y-97170000D01*
X138734308Y-97289231D01*
X138803146Y-97394025D01*
X138907067Y-97464173D01*
X139030000Y-97488826D01*
X139342300Y-97488826D01*
X139342300Y-98544698D01*
X139264698Y-98622300D01*
X137668005Y-98622300D01*
X137668000Y-98622299D01*
X137500500Y-98655617D01*
X137453381Y-98687101D01*
X137358499Y-98750499D01*
X137358496Y-98750502D01*
X136470499Y-99638499D01*
X136375618Y-99780499D01*
X136370090Y-99808290D01*
X136342299Y-99948000D01*
X136342300Y-99948005D01*
X136342300Y-100035174D01*
X136030000Y-100035174D01*
X135910769Y-100058308D01*
X135805975Y-100127146D01*
X135735827Y-100231067D01*
X135711174Y-100354000D01*
X135711174Y-103354000D01*
X135734308Y-103473231D01*
X135803146Y-103578025D01*
X135907067Y-103648173D01*
X136030000Y-103672826D01*
X137530000Y-103672826D01*
X137649231Y-103649692D01*
X137754025Y-103580854D01*
X137824173Y-103476933D01*
X137848826Y-103354000D01*
X137848826Y-100354000D01*
X137825692Y-100234769D01*
X137756854Y-100129975D01*
X137652933Y-100059827D01*
X137530000Y-100035174D01*
X137311827Y-100035174D01*
X137849301Y-99497700D01*
X139445994Y-99497700D01*
X139446000Y-99497701D01*
X139446000Y-99497700D01*
X139585709Y-99469909D01*
X139613500Y-99464382D01*
X139613501Y-99464382D01*
X139755501Y-99369501D01*
X140089497Y-99035503D01*
X140089500Y-99035501D01*
X140089501Y-99035501D01*
X140184382Y-98893501D01*
X140184382Y-98893500D01*
X140217700Y-98726000D01*
X140217700Y-97488826D01*
X140530000Y-97488826D01*
X140649231Y-97465692D01*
X140754025Y-97396854D01*
X140824173Y-97292933D01*
X140848826Y-97170000D01*
X140848826Y-100041300D01*
X140345475Y-100041300D01*
X140267300Y-100119475D01*
X140267300Y-101666700D01*
X141064525Y-101666700D01*
X141142700Y-101588525D01*
X141142700Y-102119475D01*
X141064525Y-102041300D01*
X140267300Y-102041300D01*
X140267300Y-103588525D01*
X140345475Y-103666700D01*
X140892200Y-103666700D01*
X141007130Y-103619094D01*
X141095094Y-103531130D01*
X141142700Y-103416200D01*
X141142700Y-104110298D01*
X140280698Y-104972300D01*
X139892700Y-104972300D01*
X139892700Y-103588525D01*
X139892700Y-102041300D01*
X139892700Y-101666700D01*
X139892700Y-100119475D01*
X139814525Y-100041300D01*
X139267800Y-100041300D01*
X139152870Y-100088906D01*
X139064906Y-100176870D01*
X139017300Y-100291800D01*
X139017300Y-100416200D01*
X139017300Y-101588525D01*
X139095475Y-101666700D01*
X139892700Y-101666700D01*
X139892700Y-102041300D01*
X139095475Y-102041300D01*
X139017300Y-102119475D01*
X139017300Y-103291800D01*
X139017300Y-103416200D01*
X139064906Y-103531130D01*
X139152870Y-103619094D01*
X139267800Y-103666700D01*
X139814525Y-103666700D01*
X139892700Y-103588525D01*
X139892700Y-104972300D01*
X132769301Y-104972300D01*
X132517700Y-104720698D01*
X132517700Y-104172826D01*
X132705000Y-104172826D01*
X132824231Y-104149692D01*
X132929025Y-104080854D01*
X132999173Y-103976933D01*
X133023826Y-103854000D01*
X133023826Y-102354000D01*
X133000692Y-102234769D01*
X132931854Y-102129975D01*
X132827933Y-102059827D01*
X132705000Y-102035174D01*
X131455000Y-102035174D01*
X131335769Y-102058308D01*
X131230975Y-102127146D01*
X131160827Y-102231067D01*
X131136174Y-102354000D01*
X131136174Y-103854000D01*
X131159308Y-103973231D01*
X131228146Y-104078025D01*
X131332067Y-104148173D01*
X131455000Y-104172826D01*
X131642300Y-104172826D01*
X131642300Y-104901994D01*
X131642299Y-104902000D01*
X131670090Y-105041709D01*
X131675618Y-105069501D01*
X131770499Y-105211501D01*
X132278496Y-105719497D01*
X132278499Y-105719501D01*
X132420499Y-105814382D01*
X132588000Y-105847700D01*
X140461994Y-105847700D01*
X140462000Y-105847701D01*
X140462000Y-105847700D01*
X140601709Y-105819909D01*
X140629500Y-105814382D01*
X140629501Y-105814382D01*
X140771501Y-105719501D01*
X143565497Y-102925503D01*
X143565501Y-102925501D01*
X143565501Y-102925500D01*
X143628898Y-102830619D01*
X143660382Y-102783501D01*
X143660383Y-102783500D01*
X143693700Y-102616000D01*
X143693701Y-102616000D01*
X143693700Y-102615994D01*
X143693700Y-98225301D01*
X144961301Y-96957700D01*
X155569174Y-96957700D01*
X155569174Y-97170000D01*
X155592308Y-97289231D01*
X155661146Y-97394025D01*
X155765067Y-97464173D01*
X155888000Y-97488826D01*
X156200300Y-97488826D01*
X156200300Y-97744015D01*
X156117386Y-97778275D01*
X155944881Y-97950480D01*
X155851406Y-98175592D01*
X155851193Y-98419339D01*
X155944275Y-98644614D01*
X156116480Y-98817119D01*
X156341592Y-98910594D01*
X156585339Y-98910807D01*
X156810614Y-98817725D01*
X156983119Y-98645520D01*
X157076594Y-98420408D01*
X157076807Y-98176661D01*
X157068988Y-98157739D01*
X157075700Y-98124000D01*
X157075700Y-97488826D01*
X157388000Y-97488826D01*
X157507231Y-97465692D01*
X157612025Y-97396854D01*
X157682173Y-97292933D01*
X157706826Y-97170000D01*
X157706826Y-106792000D01*
X157683692Y-106672769D01*
X157614854Y-106567975D01*
X157510933Y-106497827D01*
X157388000Y-106473174D01*
X156775700Y-106473174D01*
X156775700Y-103672826D01*
X157088000Y-103672826D01*
X157207231Y-103649692D01*
X157312025Y-103580854D01*
X157382173Y-103476933D01*
X157406826Y-103354000D01*
X157406826Y-100354000D01*
X157383692Y-100234769D01*
X157314854Y-100129975D01*
X157210933Y-100059827D01*
X157088000Y-100035174D01*
X155588000Y-100035174D01*
X155468769Y-100058308D01*
X155363975Y-100127146D01*
X155293827Y-100231067D01*
X155269174Y-100354000D01*
X155269174Y-103354000D01*
X155292308Y-103473231D01*
X155361146Y-103578025D01*
X155465067Y-103648173D01*
X155588000Y-103672826D01*
X155900300Y-103672826D01*
X155900300Y-106473174D01*
X155888000Y-106473174D01*
X155768769Y-106496308D01*
X155663975Y-106565146D01*
X155593827Y-106669067D01*
X155569174Y-106792000D01*
X155569174Y-108092000D01*
X155592308Y-108211231D01*
X155661146Y-108316025D01*
X155765067Y-108386173D01*
X155888000Y-108410826D01*
X157388000Y-108410826D01*
X157507231Y-108387692D01*
X157612025Y-108318854D01*
X157682173Y-108214933D01*
X157706826Y-108092000D01*
X157706826Y-118061174D01*
X157082552Y-118061174D01*
X157062301Y-117829700D01*
X157052047Y-117793894D01*
X157050218Y-117765297D01*
X156955124Y-117410403D01*
X156892086Y-117052894D01*
X156881633Y-117025636D01*
X156876264Y-116990381D01*
X156748581Y-116639576D01*
X156655777Y-116293226D01*
X156640812Y-116262516D01*
X156633597Y-116232829D01*
X156482958Y-115909784D01*
X156355025Y-115558290D01*
X156336403Y-115527274D01*
X156327023Y-115499498D01*
X156143046Y-115180842D01*
X155989526Y-114851616D01*
X155970845Y-114825886D01*
X155957426Y-114795258D01*
X155746569Y-114494122D01*
X155565023Y-114179676D01*
X155542212Y-114153417D01*
X155527765Y-114126985D01*
X155296571Y-113851458D01*
X155083296Y-113546870D01*
X155059782Y-113524147D01*
X155042075Y-113497556D01*
X154778164Y-113233645D01*
X154548157Y-112959533D01*
X154522177Y-112938479D01*
X154502467Y-112913843D01*
X154228354Y-112683835D01*
X153964444Y-112419925D01*
X153936406Y-112400999D01*
X153915130Y-112378704D01*
X153792397Y-112292765D01*
X153792397Y-106962591D01*
X153792397Y-104422591D01*
X153619482Y-104004104D01*
X153299581Y-103683643D01*
X152881395Y-103509998D01*
X152428591Y-103509603D01*
X152010104Y-103682518D01*
X151689643Y-104002419D01*
X151515998Y-104420605D01*
X151515603Y-104873409D01*
X151688518Y-105291896D01*
X152008419Y-105612357D01*
X152426605Y-105786002D01*
X152879409Y-105786397D01*
X153297896Y-105613482D01*
X153618357Y-105293581D01*
X153792002Y-104875395D01*
X153792397Y-104422591D01*
X153792397Y-106962591D01*
X153619482Y-106544104D01*
X153299581Y-106223643D01*
X152881395Y-106049998D01*
X152428591Y-106049603D01*
X152010104Y-106222518D01*
X151689643Y-106542419D01*
X151515998Y-106960605D01*
X151515603Y-107413409D01*
X151688518Y-107831896D01*
X152008419Y-108152357D01*
X152426605Y-108326002D01*
X152879409Y-108326397D01*
X153297896Y-108153482D01*
X153618357Y-107833581D01*
X153792002Y-107415395D01*
X153792397Y-106962591D01*
X153792397Y-112292765D01*
X153610541Y-112165428D01*
X153335015Y-111934235D01*
X153307022Y-111918705D01*
X153282324Y-111896977D01*
X152967877Y-111715430D01*
X152666742Y-111504574D01*
X152634468Y-111490191D01*
X152610384Y-111472474D01*
X152281157Y-111318953D01*
X151962502Y-111134977D01*
X151932983Y-111124801D01*
X151903710Y-111106975D01*
X151552215Y-110979041D01*
X151229171Y-110828403D01*
X151111334Y-110798980D01*
X151072905Y-110804586D01*
X150471619Y-110585736D01*
X150351666Y-110566695D01*
X150302027Y-110578429D01*
X149940167Y-110578113D01*
X149869700Y-110607229D01*
X149869700Y-106886826D01*
X150182000Y-106886826D01*
X150301231Y-106863692D01*
X150406025Y-106794854D01*
X150476173Y-106690933D01*
X150500826Y-106568000D01*
X150500826Y-105268000D01*
X150477692Y-105148769D01*
X150408854Y-105043975D01*
X150304933Y-104973827D01*
X150182000Y-104949174D01*
X148682000Y-104949174D01*
X148562769Y-104972308D01*
X148457975Y-105041146D01*
X148387827Y-105145067D01*
X148363174Y-105268000D01*
X148363174Y-106568000D01*
X148386308Y-106687231D01*
X148455146Y-106792025D01*
X148559067Y-106862173D01*
X148682000Y-106886826D01*
X148994300Y-106886826D01*
X148994300Y-110931994D01*
X148994299Y-110932000D01*
X149022090Y-111071709D01*
X149027618Y-111099501D01*
X149122499Y-111241501D01*
X149149139Y-111268141D01*
X149078487Y-111438291D01*
X149078113Y-111865833D01*
X149241382Y-112260974D01*
X149543436Y-112563555D01*
X149938291Y-112727513D01*
X150036088Y-112727598D01*
X150724190Y-112978047D01*
X151282076Y-113238194D01*
X151805320Y-113540289D01*
X152293360Y-113882018D01*
X152423446Y-113991174D01*
X147086043Y-113991174D01*
X145024447Y-113991174D01*
X144996307Y-113979489D01*
X144565583Y-113979113D01*
X144167501Y-114143597D01*
X143862667Y-114447899D01*
X143697489Y-114845693D01*
X143697113Y-115276417D01*
X143861597Y-115674499D01*
X144165899Y-115979333D01*
X144563693Y-116144511D01*
X144862051Y-116144771D01*
X144982000Y-116168826D01*
X154217398Y-116168826D01*
X154223805Y-116179923D01*
X154483952Y-116737809D01*
X154685017Y-117290230D01*
X154692327Y-117317512D01*
X154571965Y-117197150D01*
X154504667Y-117264447D01*
X154411926Y-117119774D01*
X153995842Y-117008429D01*
X153852862Y-117027300D01*
X147585475Y-117027300D01*
X147507300Y-117105475D01*
X147507300Y-117922700D01*
X152853325Y-117922700D01*
X152822429Y-118038158D01*
X152856631Y-118297300D01*
X147507300Y-118297300D01*
X147507300Y-119114525D01*
X147585475Y-119192700D01*
X153781639Y-119192700D01*
X153852158Y-119211571D01*
X154279180Y-119155211D01*
X154411926Y-119100226D01*
X154504669Y-118955551D01*
X154132700Y-118583582D01*
X154132700Y-118375475D01*
X154054525Y-118297300D01*
X153818133Y-118297300D01*
X153644975Y-118124142D01*
X153659118Y-118110000D01*
X153644975Y-118095857D01*
X153818133Y-117922700D01*
X154029867Y-117922700D01*
X154203024Y-118095857D01*
X154188882Y-118110000D01*
X154769551Y-118690669D01*
X154914226Y-118597926D01*
X154947556Y-118473373D01*
X154949836Y-118486306D01*
X155001174Y-119073095D01*
X155001174Y-119686904D01*
X154989951Y-119815174D01*
X154504669Y-119815174D01*
X142598000Y-119815174D01*
X142566101Y-119821363D01*
X142279583Y-119821113D01*
X141881501Y-119985597D01*
X141576667Y-120289899D01*
X141411489Y-120687693D01*
X141411113Y-121118417D01*
X141575597Y-121516499D01*
X141879899Y-121821333D01*
X142277693Y-121986511D01*
X142567772Y-121986764D01*
X142598000Y-121992826D01*
X154494640Y-121992826D01*
X154483952Y-122022190D01*
X154223805Y-122580076D01*
X153921710Y-123103320D01*
X153579981Y-123591360D01*
X153182914Y-124064566D01*
X152993571Y-124253909D01*
X152993571Y-123769842D01*
X152937211Y-123342820D01*
X152882226Y-123210074D01*
X152737551Y-123117331D01*
X152156882Y-123698000D01*
X152737551Y-124278669D01*
X152882226Y-124185926D01*
X152993571Y-123769842D01*
X152993571Y-124253909D01*
X152766566Y-124480914D01*
X152472669Y-124727522D01*
X152472669Y-124543551D01*
X152124700Y-124195582D01*
X152124700Y-123963475D01*
X152046525Y-123885300D01*
X151786133Y-123885300D01*
X151612975Y-123712142D01*
X151627118Y-123698000D01*
X151612975Y-123683857D01*
X151786133Y-123510700D01*
X152046525Y-123510700D01*
X152124700Y-123432525D01*
X152124700Y-123200418D01*
X152472669Y-122852449D01*
X152379926Y-122707774D01*
X151963842Y-122596429D01*
X151820862Y-122615300D01*
X147077475Y-122615300D01*
X146999300Y-122693475D01*
X146999300Y-123510700D01*
X150821325Y-123510700D01*
X150790429Y-123626158D01*
X150824631Y-123885300D01*
X146999300Y-123885300D01*
X146999300Y-124702525D01*
X147077475Y-124780700D01*
X151749639Y-124780700D01*
X151820158Y-124799571D01*
X152247180Y-124743211D01*
X152379926Y-124688226D01*
X152472669Y-124543551D01*
X152472669Y-124727522D01*
X152293360Y-124877981D01*
X151805320Y-125219710D01*
X151282076Y-125521805D01*
X150724190Y-125781952D01*
X150036648Y-126032197D01*
X149940167Y-126032113D01*
X149545026Y-126195382D01*
X149242445Y-126497436D01*
X149078487Y-126892291D01*
X149078113Y-127319833D01*
X149241382Y-127714974D01*
X149543436Y-128017555D01*
X149938291Y-128181513D01*
X150302367Y-128181831D01*
X150347668Y-128193143D01*
X150471619Y-128174264D01*
X151072278Y-127955641D01*
X151107337Y-127961207D01*
X151229171Y-127931597D01*
X151552215Y-127780958D01*
X151903710Y-127653025D01*
X151934725Y-127634403D01*
X151962502Y-127625023D01*
X152281157Y-127441046D01*
X152610384Y-127287526D01*
X152636113Y-127268845D01*
X152666742Y-127255426D01*
X152967877Y-127044569D01*
X153282324Y-126863023D01*
X153308582Y-126840212D01*
X153335015Y-126825765D01*
X153610541Y-126594571D01*
X153915130Y-126381296D01*
X153937852Y-126357782D01*
X153964444Y-126340075D01*
X154228354Y-126076164D01*
X154502467Y-125846157D01*
X154523520Y-125820177D01*
X154548157Y-125800467D01*
X154778164Y-125526354D01*
X155042075Y-125262444D01*
X155061000Y-125234406D01*
X155083296Y-125213130D01*
X155296571Y-124908541D01*
X155527765Y-124633015D01*
X155543294Y-124605022D01*
X155565023Y-124580324D01*
X155746569Y-124265877D01*
X155957426Y-123964742D01*
X155971808Y-123932468D01*
X155989526Y-123908384D01*
X156143046Y-123579157D01*
X156327023Y-123260502D01*
X156337198Y-123230983D01*
X156355025Y-123201710D01*
X156482958Y-122850215D01*
X156633597Y-122527171D01*
X156641454Y-122495703D01*
X156655777Y-122466774D01*
X156748581Y-122120423D01*
X156876264Y-121769619D01*
X156882149Y-121732538D01*
X156892086Y-121707106D01*
X156955124Y-121349596D01*
X157050218Y-120994703D01*
X157052361Y-120964203D01*
X157062301Y-120930300D01*
X157082552Y-120698826D01*
X158353000Y-120698826D01*
X158472231Y-120675692D01*
X158577025Y-120606854D01*
X158647173Y-120502933D01*
X158671826Y-120380000D01*
X158671826Y-131209300D01*
X147775733Y-131209300D01*
X147775733Y-127089571D01*
X147745471Y-126953066D01*
X147619742Y-126837739D01*
X147404880Y-126988186D01*
X147096672Y-127203995D01*
X147022048Y-127184000D01*
X147117790Y-127128724D01*
X147248673Y-126640262D01*
X147404880Y-126530885D01*
X147339511Y-126373294D01*
X146951736Y-126193230D01*
X146716105Y-126183321D01*
X146545582Y-126137630D01*
X146488621Y-126170516D01*
X146488064Y-126170005D01*
X146371166Y-126127458D01*
X146035695Y-126005356D01*
X146032724Y-126000210D01*
X145990388Y-125988866D01*
X145963034Y-125978910D01*
X145959456Y-125980578D01*
X145705120Y-125912428D01*
X145465728Y-125800798D01*
X145464104Y-125797315D01*
X145437463Y-125787618D01*
X145395790Y-125768186D01*
X145389931Y-125770318D01*
X145146895Y-125681860D01*
X144916401Y-125548785D01*
X144914586Y-125543796D01*
X144879094Y-125527246D01*
X144849258Y-125510020D01*
X144844745Y-125511229D01*
X144604015Y-125398975D01*
X144390822Y-125249695D01*
X144389442Y-125244545D01*
X144355382Y-125224880D01*
X144326887Y-125204928D01*
X144322241Y-125205747D01*
X144096183Y-125075231D01*
X143892678Y-124904470D01*
X143891958Y-124900387D01*
X143866905Y-124882844D01*
X143834169Y-124855376D01*
X143828396Y-124855881D01*
X143767485Y-124813231D01*
X143774286Y-124805127D01*
X143745174Y-124780700D01*
X146546525Y-124780700D01*
X146624700Y-124702525D01*
X146624700Y-123885300D01*
X142793155Y-123885300D01*
X142757142Y-123849287D01*
X142606118Y-123633603D01*
X142606624Y-123627831D01*
X142579155Y-123595094D01*
X142561613Y-123570042D01*
X142557529Y-123569321D01*
X142508980Y-123511464D01*
X142510071Y-123510700D01*
X146624700Y-123510700D01*
X146624700Y-122693475D01*
X146546525Y-122615300D01*
X141951294Y-122615300D01*
X141951980Y-122612742D01*
X141934753Y-122582905D01*
X141918204Y-122547414D01*
X141913214Y-122545598D01*
X141780139Y-122315104D01*
X141691681Y-122072068D01*
X141693814Y-122066210D01*
X141674381Y-122024536D01*
X141664685Y-121997896D01*
X141661201Y-121996271D01*
X141549571Y-121756879D01*
X141481421Y-121502543D01*
X141483090Y-121498966D01*
X141473133Y-121471611D01*
X141461790Y-121429276D01*
X141456643Y-121426304D01*
X141368457Y-121184016D01*
X141321997Y-120920527D01*
X141324370Y-120916418D01*
X141315311Y-120882611D01*
X141308472Y-120843822D01*
X141304097Y-120840758D01*
X141235095Y-120583237D01*
X141212605Y-120326177D01*
X141216274Y-120320938D01*
X141208082Y-120274481D01*
X141205748Y-120247799D01*
X141202965Y-120245464D01*
X141156700Y-119983078D01*
X141156700Y-119722173D01*
X141159473Y-119718869D01*
X141156700Y-119687173D01*
X141156700Y-119645475D01*
X141152702Y-119641477D01*
X141129825Y-119380000D01*
X141146212Y-119192700D01*
X147054525Y-119192700D01*
X147132700Y-119114525D01*
X147132700Y-118297300D01*
X147112700Y-118297300D01*
X147112700Y-117922700D01*
X147132700Y-117922700D01*
X147132700Y-117105475D01*
X147054525Y-117027300D01*
X141543092Y-117027300D01*
X141549571Y-117003120D01*
X141661201Y-116763728D01*
X141664685Y-116762104D01*
X141674381Y-116735463D01*
X141693814Y-116693790D01*
X141691681Y-116687931D01*
X141780139Y-116444895D01*
X141913214Y-116214401D01*
X141918204Y-116212586D01*
X141934753Y-116177094D01*
X141951980Y-116147258D01*
X141950770Y-116142745D01*
X142063024Y-115902015D01*
X142212304Y-115688822D01*
X142217455Y-115687442D01*
X142237119Y-115653382D01*
X142257072Y-115624887D01*
X142256252Y-115620241D01*
X142386768Y-115394183D01*
X142557529Y-115190678D01*
X142561613Y-115189958D01*
X142579155Y-115164905D01*
X142606624Y-115132169D01*
X142606118Y-115126396D01*
X142757142Y-114910712D01*
X142941890Y-114725964D01*
X142947912Y-114725438D01*
X142976568Y-114691286D01*
X142997208Y-114670647D01*
X142997208Y-114666689D01*
X143166698Y-114464698D01*
X143368689Y-114295208D01*
X143372647Y-114295208D01*
X143393286Y-114274568D01*
X143427438Y-114245912D01*
X143427964Y-114239890D01*
X143612712Y-114055142D01*
X143828396Y-113904118D01*
X143834169Y-113904624D01*
X143866905Y-113877155D01*
X143891958Y-113859613D01*
X143892678Y-113855529D01*
X144096183Y-113684768D01*
X144322241Y-113554252D01*
X144326887Y-113555072D01*
X144355382Y-113535119D01*
X144389442Y-113515455D01*
X144390822Y-113510304D01*
X144604015Y-113361024D01*
X144844745Y-113248770D01*
X144849258Y-113249980D01*
X144879094Y-113232753D01*
X144914586Y-113216204D01*
X144916401Y-113211214D01*
X145146895Y-113078139D01*
X145389931Y-112989681D01*
X145395790Y-112991814D01*
X145437463Y-112972381D01*
X145464104Y-112962685D01*
X145465728Y-112959201D01*
X145789422Y-112808261D01*
X145902167Y-112755687D01*
X145904079Y-112753599D01*
X145963034Y-112781090D01*
X146110153Y-112727542D01*
X146226497Y-112727356D01*
X146621231Y-112563108D01*
X146732158Y-112477992D01*
X146783543Y-112315304D01*
X146620372Y-112221097D01*
X146446685Y-111743896D01*
X146346490Y-111697173D01*
X146417405Y-111671362D01*
X146970843Y-111990890D01*
X147086043Y-111865045D01*
X147085356Y-111437503D01*
X146921108Y-111042769D01*
X146835992Y-110931842D01*
X146673304Y-110880457D01*
X146341557Y-111455058D01*
X146291827Y-111318425D01*
X146218368Y-111345161D01*
X146265090Y-111244966D01*
X146174307Y-110995542D01*
X146348890Y-110693157D01*
X146223045Y-110577957D01*
X145883333Y-110578502D01*
X145877207Y-110575646D01*
X145752926Y-110570219D01*
X145636028Y-110612767D01*
X145227896Y-110761315D01*
X145195644Y-110830476D01*
X145165944Y-110819666D01*
X145154437Y-110788051D01*
X145115086Y-110802373D01*
X144993791Y-110807669D01*
X144881046Y-110860243D01*
X144614136Y-110984704D01*
X144320834Y-111091458D01*
X144279905Y-111106354D01*
X144258428Y-111109182D01*
X144235044Y-111122682D01*
X144203936Y-111134005D01*
X144184354Y-111151948D01*
X144150695Y-111171382D01*
X143885668Y-111324395D01*
X143612578Y-111451739D01*
X143577070Y-111468296D01*
X143551723Y-111473916D01*
X143525214Y-111492477D01*
X143499833Y-111504313D01*
X143484653Y-111520878D01*
X143449820Y-111545269D01*
X143199417Y-111720602D01*
X142938605Y-111871182D01*
X142902483Y-111892036D01*
X142880570Y-111898946D01*
X142858630Y-111917355D01*
X142830872Y-111933382D01*
X142815218Y-111953782D01*
X142785274Y-111978909D01*
X142557185Y-112170298D01*
X142303335Y-112348046D01*
X142270974Y-112370704D01*
X142247870Y-112380275D01*
X142225828Y-112402316D01*
X142201432Y-112419399D01*
X142188593Y-112439551D01*
X142159906Y-112468239D01*
X141939790Y-112688354D01*
X141713118Y-112878555D01*
X141682084Y-112904595D01*
X141660518Y-112915822D01*
X141641037Y-112939037D01*
X141617822Y-112958518D01*
X141606595Y-112980084D01*
X141580555Y-113011118D01*
X141390354Y-113237790D01*
X141170239Y-113457906D01*
X141141551Y-113486593D01*
X141121399Y-113499432D01*
X141104316Y-113523828D01*
X141082275Y-113545870D01*
X141072704Y-113568974D01*
X141050046Y-113601335D01*
X140872298Y-113855185D01*
X140680909Y-114083274D01*
X140655782Y-114113218D01*
X140635382Y-114128872D01*
X140619355Y-114156630D01*
X140600946Y-114178570D01*
X140594036Y-114200483D01*
X140573182Y-114236605D01*
X140422602Y-114497417D01*
X140247269Y-114747820D01*
X140222878Y-114782653D01*
X140206313Y-114797833D01*
X140194477Y-114823214D01*
X140175916Y-114849723D01*
X140170296Y-114875070D01*
X140153739Y-114910578D01*
X140026395Y-115183668D01*
X139873382Y-115448695D01*
X139853948Y-115482354D01*
X139836005Y-115501936D01*
X139824682Y-115533044D01*
X139811182Y-115556428D01*
X139808354Y-115577905D01*
X139793458Y-115618834D01*
X139686704Y-115912136D01*
X139562243Y-116179046D01*
X139545630Y-116214671D01*
X139530238Y-116234731D01*
X139522080Y-116265173D01*
X139509669Y-116291791D01*
X139508641Y-116315331D01*
X139498041Y-116354892D01*
X139421263Y-116641432D01*
X139314767Y-116934028D01*
X139299626Y-116975626D01*
X139288748Y-116992702D01*
X139284366Y-117017552D01*
X139272219Y-117050926D01*
X139273462Y-117079392D01*
X139267146Y-117115212D01*
X139214859Y-117411740D01*
X139135798Y-117706802D01*
X139125802Y-117744105D01*
X139113223Y-117768270D01*
X139110263Y-117802098D01*
X139103601Y-117826963D01*
X139106296Y-117847438D01*
X139102381Y-117892197D01*
X139087061Y-118067300D01*
X139076475Y-118067300D01*
X138998300Y-118145475D01*
X138998300Y-119081850D01*
X138980398Y-119286471D01*
X138976917Y-119326256D01*
X138969556Y-119349603D01*
X138972215Y-119380000D01*
X138969556Y-119410397D01*
X138976917Y-119433743D01*
X138980398Y-119473529D01*
X138998300Y-119678149D01*
X138998300Y-120614525D01*
X139076475Y-120692700D01*
X139087061Y-120692700D01*
X139102381Y-120867803D01*
X139106296Y-120912561D01*
X139103601Y-120933037D01*
X139110263Y-120957901D01*
X139113223Y-120991730D01*
X139125802Y-121015894D01*
X139135798Y-121053198D01*
X139214859Y-121348259D01*
X139267146Y-121644788D01*
X139273462Y-121680607D01*
X139272219Y-121709074D01*
X139284366Y-121742447D01*
X139288748Y-121767298D01*
X139299626Y-121784373D01*
X139314767Y-121825972D01*
X139421263Y-122118567D01*
X139498041Y-122405108D01*
X139508641Y-122444668D01*
X139509669Y-122468209D01*
X139522080Y-122494826D01*
X139530238Y-122525269D01*
X139545630Y-122545328D01*
X139562243Y-122580954D01*
X139686704Y-122847863D01*
X139793458Y-123141166D01*
X139808354Y-123182094D01*
X139811182Y-123203572D01*
X139824682Y-123226955D01*
X139836005Y-123258064D01*
X139853948Y-123277645D01*
X139873382Y-123311305D01*
X140026395Y-123576331D01*
X140153739Y-123849422D01*
X140170296Y-123884929D01*
X140175916Y-123910277D01*
X140194477Y-123936785D01*
X140206313Y-123962167D01*
X140222878Y-123977346D01*
X140247269Y-124012180D01*
X140422602Y-124262582D01*
X140573182Y-124523395D01*
X140594036Y-124559516D01*
X140600946Y-124581430D01*
X140619355Y-124603369D01*
X140635382Y-124631128D01*
X140655782Y-124646781D01*
X140680909Y-124676726D01*
X140872298Y-124904814D01*
X141050046Y-125158665D01*
X141072704Y-125191025D01*
X141082275Y-125214130D01*
X141104316Y-125236171D01*
X141121399Y-125260568D01*
X141141551Y-125273406D01*
X141170239Y-125302094D01*
X141390354Y-125522209D01*
X141580555Y-125748882D01*
X141606595Y-125779915D01*
X141617822Y-125801482D01*
X141641037Y-125820962D01*
X141660518Y-125844178D01*
X141682084Y-125855404D01*
X141713118Y-125881445D01*
X141939790Y-126071645D01*
X142159906Y-126291761D01*
X142188593Y-126320448D01*
X142201432Y-126340601D01*
X142225828Y-126357683D01*
X142247870Y-126379725D01*
X142270974Y-126389295D01*
X142303335Y-126411954D01*
X142557185Y-126589701D01*
X142785274Y-126781091D01*
X142815218Y-126806217D01*
X142830872Y-126826618D01*
X142858630Y-126842644D01*
X142880570Y-126861054D01*
X142902483Y-126867963D01*
X142938605Y-126888818D01*
X143199417Y-127039397D01*
X143449820Y-127214731D01*
X143484653Y-127239121D01*
X143499833Y-127255687D01*
X143525214Y-127267522D01*
X143551723Y-127286084D01*
X143577070Y-127291703D01*
X143612578Y-127308261D01*
X143885668Y-127435604D01*
X144150695Y-127588618D01*
X144184354Y-127608051D01*
X144203936Y-127625995D01*
X144235044Y-127637317D01*
X144258428Y-127650818D01*
X144279905Y-127653645D01*
X144320834Y-127668542D01*
X144614136Y-127775295D01*
X144881046Y-127899757D01*
X144916671Y-127916369D01*
X144936731Y-127931762D01*
X144967173Y-127939919D01*
X144993791Y-127952331D01*
X145017331Y-127953358D01*
X145056892Y-127963959D01*
X145343432Y-128040736D01*
X145636028Y-128147233D01*
X145752926Y-128189781D01*
X145877207Y-128184354D01*
X145878013Y-128183977D01*
X145913767Y-128193558D01*
X145921805Y-128163556D01*
X145952114Y-128149423D01*
X145989276Y-128213790D01*
X146408802Y-128326202D01*
X146528963Y-128358399D01*
X146652298Y-128342161D01*
X146668801Y-128332632D01*
X146861429Y-128340733D01*
X146997934Y-128310471D01*
X147113261Y-128184742D01*
X146911889Y-127897154D01*
X146980370Y-127641582D01*
X146925093Y-127545840D01*
X147000603Y-127566073D01*
X147038453Y-127424811D01*
X147420115Y-127969880D01*
X147577706Y-127904511D01*
X147757770Y-127516736D01*
X147775733Y-127089571D01*
X147775733Y-131209300D01*
X138623700Y-131209300D01*
X138623700Y-120614525D01*
X138623700Y-119567300D01*
X138623700Y-119192700D01*
X138623700Y-118145475D01*
X138545525Y-118067300D01*
X137748800Y-118067300D01*
X137633870Y-118114906D01*
X137545906Y-118202870D01*
X137498300Y-118317800D01*
X137498300Y-118442200D01*
X137498300Y-119114525D01*
X137576475Y-119192700D01*
X138623700Y-119192700D01*
X138623700Y-119567300D01*
X137576475Y-119567300D01*
X137498300Y-119645475D01*
X137498300Y-120317800D01*
X137498300Y-120442200D01*
X137545906Y-120557130D01*
X137633870Y-120645094D01*
X137748800Y-120692700D01*
X138545525Y-120692700D01*
X138623700Y-120614525D01*
X138623700Y-131209300D01*
X133385723Y-131209300D01*
X131547485Y-130843651D01*
X130019391Y-129822610D01*
X128998348Y-128294514D01*
X128632700Y-126456276D01*
X128632700Y-124127106D01*
X128722499Y-124261501D01*
X129215259Y-124754261D01*
X129357259Y-124849142D01*
X129357260Y-124849142D01*
X129385050Y-124854669D01*
X129524760Y-124882461D01*
X129524760Y-124882460D01*
X129524765Y-124882460D01*
X131180429Y-124882460D01*
X131196258Y-124964041D01*
X131265096Y-125068835D01*
X131369017Y-125138983D01*
X131491950Y-125163636D01*
X132292050Y-125163636D01*
X132411281Y-125140502D01*
X132516075Y-125071664D01*
X132586223Y-124967743D01*
X132610876Y-124844810D01*
X132610876Y-124044710D01*
X132587742Y-123925479D01*
X132518904Y-123820685D01*
X132414983Y-123750537D01*
X132292050Y-123725884D01*
X131491950Y-123725884D01*
X131372719Y-123749018D01*
X131267925Y-123817856D01*
X131197777Y-123921777D01*
X131180674Y-124007060D01*
X129706062Y-124007060D01*
X129469700Y-123770698D01*
X129469700Y-115774852D01*
X129528275Y-115916614D01*
X129700480Y-116089119D01*
X129925592Y-116182594D01*
X130169339Y-116182807D01*
X130394614Y-116089725D01*
X130567119Y-115917520D01*
X130660594Y-115692408D01*
X130660695Y-115576306D01*
X131009081Y-115227920D01*
X132130429Y-115227920D01*
X132146258Y-115309501D01*
X132215096Y-115414295D01*
X132319017Y-115484443D01*
X132404300Y-115501545D01*
X132404300Y-121734209D01*
X132322719Y-121750038D01*
X132217925Y-121818876D01*
X132147777Y-121922797D01*
X132123124Y-122045730D01*
X132123124Y-122845830D01*
X132146258Y-122965061D01*
X132215096Y-123069855D01*
X132319017Y-123140003D01*
X132441950Y-123164656D01*
X133242050Y-123164656D01*
X133354300Y-123142876D01*
X133354300Y-123733189D01*
X133272719Y-123749018D01*
X133167925Y-123817856D01*
X133097777Y-123921777D01*
X133073124Y-124044710D01*
X133073124Y-124844810D01*
X133096258Y-124964041D01*
X133165096Y-125068835D01*
X133269017Y-125138983D01*
X133391950Y-125163636D01*
X134192050Y-125163636D01*
X134311281Y-125140502D01*
X134416075Y-125071664D01*
X134486223Y-124967743D01*
X134510876Y-124844810D01*
X134510876Y-124044710D01*
X134487742Y-123925479D01*
X134418904Y-123820685D01*
X134314983Y-123750537D01*
X134229700Y-123733434D01*
X134229700Y-113502810D01*
X134311281Y-113486982D01*
X134416075Y-113418144D01*
X134486223Y-113314223D01*
X134510876Y-113191290D01*
X134510876Y-112391190D01*
X134487742Y-112271959D01*
X134418904Y-112167165D01*
X134314983Y-112097017D01*
X134192050Y-112072364D01*
X133391950Y-112072364D01*
X133272719Y-112095498D01*
X133167925Y-112164336D01*
X133097777Y-112268257D01*
X133073124Y-112391190D01*
X133073124Y-113191290D01*
X133096258Y-113310521D01*
X133165096Y-113415315D01*
X133269017Y-113485463D01*
X133354300Y-113502565D01*
X133354300Y-114093854D01*
X133242050Y-114071344D01*
X132610876Y-114071344D01*
X132610876Y-113191290D01*
X132610876Y-112391190D01*
X132587742Y-112271959D01*
X132518904Y-112167165D01*
X132414983Y-112097017D01*
X132329700Y-112079914D01*
X132329700Y-111106912D01*
X132345119Y-111091520D01*
X132438594Y-110866408D01*
X132438807Y-110622661D01*
X132345725Y-110397386D01*
X132173520Y-110224881D01*
X131948408Y-110131406D01*
X131704661Y-110131193D01*
X131479386Y-110224275D01*
X131306881Y-110396480D01*
X131213406Y-110621592D01*
X131213193Y-110865339D01*
X131306275Y-111090614D01*
X131454300Y-111238896D01*
X131454300Y-112079669D01*
X131372719Y-112095498D01*
X131267925Y-112164336D01*
X131197777Y-112268257D01*
X131173124Y-112391190D01*
X131173124Y-113191290D01*
X131196258Y-113310521D01*
X131265096Y-113415315D01*
X131369017Y-113485463D01*
X131491950Y-113510116D01*
X132292050Y-113510116D01*
X132411281Y-113486982D01*
X132516075Y-113418144D01*
X132586223Y-113314223D01*
X132610876Y-113191290D01*
X132610876Y-114071344D01*
X132441950Y-114071344D01*
X132322719Y-114094478D01*
X132217925Y-114163316D01*
X132147777Y-114267237D01*
X132130674Y-114352520D01*
X130827780Y-114352520D01*
X130660279Y-114385838D01*
X130518279Y-114480719D01*
X130518276Y-114480722D01*
X130041704Y-114957293D01*
X129926661Y-114957193D01*
X129701386Y-115050275D01*
X129528881Y-115222480D01*
X129469700Y-115365003D01*
X129469700Y-109909301D01*
X129975301Y-109403700D01*
X146049994Y-109403700D01*
X146050000Y-109403701D01*
X146050000Y-109403700D01*
X146189709Y-109375909D01*
X146217500Y-109370382D01*
X146217501Y-109370382D01*
X146359501Y-109275501D01*
X147041497Y-108593503D01*
X147041501Y-108593501D01*
X147041501Y-108593500D01*
X147104898Y-108498619D01*
X147136382Y-108451501D01*
X147136383Y-108451500D01*
X147169700Y-108284000D01*
X147169701Y-108284000D01*
X147169700Y-108283994D01*
X147169700Y-106886826D01*
X147482000Y-106886826D01*
X147601231Y-106863692D01*
X147706025Y-106794854D01*
X147776173Y-106690933D01*
X147800826Y-106568000D01*
X147800826Y-105268000D01*
X147777692Y-105148769D01*
X147708854Y-105043975D01*
X147604933Y-104973827D01*
X147482000Y-104949174D01*
X145982000Y-104949174D01*
X145862769Y-104972308D01*
X145757975Y-105041146D01*
X145687827Y-105145067D01*
X145663174Y-105268000D01*
X145663174Y-106568000D01*
X145686308Y-106687231D01*
X145755146Y-106792025D01*
X145859067Y-106862173D01*
X145982000Y-106886826D01*
X146294300Y-106886826D01*
X146294300Y-108102698D01*
X145868698Y-108528300D01*
X144648397Y-108528300D01*
X144648397Y-106962591D01*
X144648397Y-104422591D01*
X144475482Y-104004104D01*
X144155581Y-103683643D01*
X143737395Y-103509998D01*
X143284591Y-103509603D01*
X142866104Y-103682518D01*
X142545643Y-104002419D01*
X142371998Y-104420605D01*
X142371603Y-104873409D01*
X142544518Y-105291896D01*
X142864419Y-105612357D01*
X143282605Y-105786002D01*
X143735409Y-105786397D01*
X144153896Y-105613482D01*
X144474357Y-105293581D01*
X144648002Y-104875395D01*
X144648397Y-104422591D01*
X144648397Y-106962591D01*
X144475482Y-106544104D01*
X144155581Y-106223643D01*
X143737395Y-106049998D01*
X143284591Y-106049603D01*
X142866104Y-106222518D01*
X142545643Y-106542419D01*
X142371998Y-106960605D01*
X142371603Y-107413409D01*
X142544518Y-107831896D01*
X142864419Y-108152357D01*
X143282605Y-108326002D01*
X143735409Y-108326397D01*
X144153896Y-108153482D01*
X144474357Y-107833581D01*
X144648002Y-107415395D01*
X144648397Y-106962591D01*
X144648397Y-108528300D01*
X140842700Y-108528300D01*
X140842700Y-108154200D01*
X140842700Y-108029800D01*
X140842700Y-107707475D01*
X140842700Y-107176525D01*
X140842700Y-106854200D01*
X140842700Y-106729800D01*
X140795094Y-106614870D01*
X140707130Y-106526906D01*
X140592200Y-106479300D01*
X140045475Y-106479300D01*
X139967300Y-106557475D01*
X139967300Y-107254700D01*
X140764525Y-107254700D01*
X140842700Y-107176525D01*
X140842700Y-107707475D01*
X140764525Y-107629300D01*
X139967300Y-107629300D01*
X139967300Y-108326525D01*
X140045475Y-108404700D01*
X140592200Y-108404700D01*
X140707130Y-108357094D01*
X140795094Y-108269130D01*
X140842700Y-108154200D01*
X140842700Y-108528300D01*
X139592700Y-108528300D01*
X139592700Y-108326525D01*
X139592700Y-107629300D01*
X139592700Y-107254700D01*
X139592700Y-106557475D01*
X139514525Y-106479300D01*
X138967800Y-106479300D01*
X138852870Y-106526906D01*
X138764906Y-106614870D01*
X138717300Y-106729800D01*
X138717300Y-106854200D01*
X138717300Y-107176525D01*
X138795475Y-107254700D01*
X139592700Y-107254700D01*
X139592700Y-107629300D01*
X138795475Y-107629300D01*
X138717300Y-107707475D01*
X138717300Y-108029800D01*
X138717300Y-108154200D01*
X138764906Y-108269130D01*
X138852870Y-108357094D01*
X138967800Y-108404700D01*
X139514525Y-108404700D01*
X139592700Y-108326525D01*
X139592700Y-108528300D01*
X138148826Y-108528300D01*
X138148826Y-108092000D01*
X138148826Y-106792000D01*
X138125692Y-106672769D01*
X138056854Y-106567975D01*
X137952933Y-106497827D01*
X137830000Y-106473174D01*
X136330000Y-106473174D01*
X136210769Y-106496308D01*
X136105975Y-106565146D01*
X136035827Y-106669067D01*
X136011174Y-106792000D01*
X136011174Y-107004300D01*
X135048797Y-107004300D01*
X134967520Y-106922881D01*
X134742408Y-106829406D01*
X134498661Y-106829193D01*
X134273386Y-106922275D01*
X134100881Y-107094480D01*
X134007406Y-107319592D01*
X134007193Y-107563339D01*
X134100275Y-107788614D01*
X134272480Y-107961119D01*
X134497592Y-108054594D01*
X134741339Y-108054807D01*
X134966614Y-107961725D01*
X135048781Y-107879700D01*
X136011174Y-107879700D01*
X136011174Y-108092000D01*
X136034308Y-108211231D01*
X136103146Y-108316025D01*
X136207067Y-108386173D01*
X136330000Y-108410826D01*
X137830000Y-108410826D01*
X137949231Y-108387692D01*
X138054025Y-108318854D01*
X138124173Y-108214933D01*
X138148826Y-108092000D01*
X138148826Y-108528300D01*
X129794005Y-108528300D01*
X129794000Y-108528299D01*
X129626500Y-108561617D01*
X129579381Y-108593101D01*
X129484499Y-108656499D01*
X129484496Y-108656502D01*
X128722499Y-109418499D01*
X128632700Y-109552893D01*
X128632700Y-96932150D01*
X128953176Y-95080236D01*
X129936041Y-93526574D01*
X131438648Y-92467305D01*
X133263303Y-92056700D01*
X163159276Y-92056700D01*
X164997514Y-92422348D01*
X166525610Y-93443391D01*
X167546651Y-94971485D01*
X167912300Y-96809723D01*
X167912300Y-126456276D01*
M02*
